<svg xmlns="http://www.w3.org/2000/svg" width="25" height="25" viewBox="0 0 25 25">
  <g id="Buy_Now_01" data-name="Buy Now 01" transform="translate(0.5 0.5)">
    <g id="Group_1486" data-name="Group 1486" opacity="0.5">
      <g id="Group_1488" data-name="Group 1488" transform="translate(3 2)">
        <path id="Path_3182" data-name="Path 3182" d="M1191.5,11033.611l-2,2,2,2" transform="translate(-1178.5 -11033.611)" fill="none" stroke="#fff" stroke-linecap="round" stroke-linejoin="round" stroke-width="1.5"/>
        <path id="Path_3183" data-name="Path 3183" d="M1195.5,11035.611h-6" transform="translate(-1178.5 -11033.611)" fill="none" stroke="#fff" stroke-linecap="round" stroke-linejoin="round" stroke-width="1.5"/>
        <path id="Path_3184" data-name="Path 3184" d="M1196.5,11043.611a8.936,8.936,0,0,0-.947-4" transform="translate(-1178.5 -11033.611)" fill="none" stroke="#fff" stroke-linecap="round" stroke-linejoin="round" stroke-width="1.5"/>
        <path id="Path_3185" data-name="Path 3185" d="M1185.5,11034.842a9,9,0,0,0-7,8.77" transform="translate(-1178.5 -11033.611)" fill="none" stroke="#fff" stroke-linecap="round" stroke-linejoin="round" stroke-width="1.5"/>
        <path id="Path_3186" data-name="Path 3186" d="M1183.5,11053.611l2-2-2-2" transform="translate(-1178.5 -11033.611)" fill="none" stroke="#fff" stroke-linecap="round" stroke-linejoin="round" stroke-width="1.5"/>
        <path id="Path_3187" data-name="Path 3187" d="M1179.5,11051.611h6" transform="translate(-1178.5 -11033.611)" fill="none" stroke="#fff" stroke-linecap="round" stroke-linejoin="round" stroke-width="1.5"/>
        <path id="Path_3188" data-name="Path 3188" d="M1178.5,11043.611a8.939,8.939,0,0,0,.947,4" transform="translate(-1178.5 -11033.611)" fill="none" stroke="#fff" stroke-linecap="round" stroke-linejoin="round" stroke-width="1.5"/>
        <path id="Path_3189" data-name="Path 3189" d="M1189.5,11052.38a9,9,0,0,0,7-8.769" transform="translate(-1178.5 -11033.611)" fill="none" stroke="#fff" stroke-linecap="round" stroke-linejoin="round" stroke-width="1.5"/>
        <path id="Path_3190" data-name="Path 3190" d="M1188.56,11040.05l2.5,2.5a1.5,1.5,0,0,1,0,2.121l-2.5,2.5a1.5,1.5,0,0,1-2.121,0l-2.5-2.5a1.5,1.5,0,0,1,0-2.121l2.5-2.5A1.5,1.5,0,0,1,1188.56,11040.05Z" transform="translate(-1178.5 -11033.611)" fill="none" stroke="#fff" stroke-linecap="round" stroke-linejoin="round" stroke-width="1.5"/>
      </g>
      <g id="Group_1489" data-name="Group 1489" opacity="0">
        <path id="Path_3191" data-name="Path 3191" d="M1199.5,11055.611h-24v-24h24Z" transform="translate(-1175.5 -11031.611)" fill="rgba(0,0,0,0)" stroke="#fff" stroke-width="1"/>
        <path id="Path_3192" data-name="Path 3192" d="M1199.5,11055.611h-24v-24h24Z" transform="translate(-1175.5 -11031.611)" fill="rgba(0,0,0,0)" stroke="#fff" stroke-width="1"/>
      </g>
    </g>
  </g>
</svg>
