<svg id="Features_Icon_04" data-name="Features Icon 04" xmlns="http://www.w3.org/2000/svg" xmlns:xlink="http://www.w3.org/1999/xlink" width="107.233" height="107.318" viewBox="0 0 107.233 107.318">
  <defs>
    <linearGradient id="linear-gradient" x1="0.01" y1="0.499" x2="1.006" y2="0.499" gradientUnits="objectBoundingBox">
      <stop offset="0.003" stop-color="#ffd44f"/>
      <stop offset="1" stop-color="#ffa607"/>
    </linearGradient>
    <linearGradient id="linear-gradient-2" x1="0.502" y1="1.037" x2="0.502" y2="0.463" gradientUnits="objectBoundingBox">
      <stop offset="0" stop-color="#7a83a0"/>
      <stop offset="0.991" stop-color="#58617d"/>
    </linearGradient>
    <radialGradient id="radial-gradient" cx="0.602" cy="0.35" r="0.726" gradientTransform="translate(0.807 -0.332) rotate(62.414)" gradientUnits="objectBoundingBox">
      <stop offset="0" stop-color="#e0e39b"/>
      <stop offset="1" stop-color="#e0e39c" stop-opacity="0"/>
    </radialGradient>
    <linearGradient id="linear-gradient-3" x1="0.834" y1="0.089" x2="0.16" y2="0.87" gradientUnits="objectBoundingBox">
      <stop offset="0" stop-color="#fff"/>
      <stop offset="1" stop-opacity="0"/>
    </linearGradient>
  </defs>
  <g id="_17" data-name="17" transform="translate(4.966 22.702)">
    <path id="Path" d="M0,.5H97.9" transform="translate(0 61.394)" fill="none" stroke="#2b323c" stroke-linecap="round" stroke-linejoin="round" stroke-miterlimit="10" stroke-width="2"/>
    <path id="Path-2" data-name="Path" d="M.5,31.187V0" transform="translate(49.918 20.771)" fill="none" stroke="#707070" stroke-linecap="round" stroke-linejoin="round" stroke-miterlimit="10" stroke-width="2" stroke-dasharray="0.5"/>
    <path id="Path-3" data-name="Path" d="M0,0V4.13A4.957,4.957,0,0,0,4.97,9.1h22.1a4.957,4.957,0,0,1,4.97,4.968V26.1" transform="translate(54.191 22.268)" fill="none" stroke="#707070" stroke-linecap="round" stroke-linejoin="round" stroke-miterlimit="10" stroke-width="2" stroke-dasharray="0.5"/>
    <path id="Path-4" data-name="Path" d="M32.036,0V4.13A4.957,4.957,0,0,1,27.066,9.1H4.97A4.957,4.957,0,0,0,0,14.067V26.1" transform="translate(14.551 22.268)" fill="none" stroke="#707070" stroke-linecap="round" stroke-linejoin="round" stroke-miterlimit="10" stroke-width="2" stroke-dasharray="0.5"/>
    <path id="Path-5" data-name="Path" d="M0,2.1V0H4.85V2.1H2.4" transform="translate(9.82 58.543)" fill="#2d313a"/>
    <path id="Path-6" data-name="Path" d="M1.617,0H.838A.818.818,0,0,0,0,.838H6.886A.818.818,0,0,0,6.048,0H4.191" transform="translate(8.803 60.398)" fill="#474e61"/>
    <path id="Path-7" data-name="Path" d="M17.6.718V11.972a.728.728,0,0,1-.719.718H.718A.728.728,0,0,1,0,11.972V.718A.728.728,0,0,1,.718,0H16.886A.692.692,0,0,1,17.6.718Z" transform="translate(3.353 46.571)" fill="#474e61"/>
    <path id="Path-8" data-name="Path" d="M15.449,8.38v1.856H0V0H15.449V6.464" transform="translate(4.491 47.528)" fill="#2d313a"/>
    <path id="Path-9" data-name="Path" d="M6.707,15.623H.839A.819.819,0,0,1,0,14.785V.838A.818.818,0,0,1,.839,0H6.707a.818.818,0,0,1,.838.838V14.785A.817.817,0,0,1,6.707,15.623Z" transform="translate(21.676 45.613)" fill="#474e61"/>
    <path id="Path-10" data-name="Path" d="M4.79.719H.359A.386.386,0,0,1,0,.359.386.386,0,0,1,.359,0H4.79A.386.386,0,0,1,5.15.359.386.386,0,0,1,4.79.719Z" transform="translate(22.874 46.93)" fill="#2d313a"/>
    <path id="Path-11" data-name="Path" d="M4.79.719H.359A.386.386,0,0,1,0,.359.386.386,0,0,1,.359,0H4.79A.386.386,0,0,1,5.15.359.386.386,0,0,1,4.79.719Z" transform="translate(22.874 48.725)" fill="#2d313a"/>
    <path id="Path-12" data-name="Path" d="M1.976.719H.359A.386.386,0,0,1,0,.359.386.386,0,0,1,.359,0H1.976a.386.386,0,0,1,.359.359A.345.345,0,0,1,1.976.719Z" transform="translate(24.311 57.644)" fill="#2d313a"/>
    <path id="Path-13" data-name="Path" d="M1.018,2.035A1.018,1.018,0,1,0,0,1.018,1.018,1.018,0,0,0,1.018,2.035Z" transform="translate(24.431 54.771)" fill="#2d313a"/>
    <path id="Shape" d="M2.754,11.852,2.1,10.715a1.009,1.009,0,0,1-.179-.6V6.4A3.419,3.419,0,0,1,0,3.412V3.352A3.342,3.342,0,0,1,2.275.18,3.485,3.485,0,0,1,3.413,0,3.345,3.345,0,0,1,6.587,2.275,3.333,3.333,0,0,1,4.91,6.4a1.617,1.617,0,0,1-.3.659l-.06.06.12.12c.06.06.12.12.12.179a.89.89,0,0,1,.12.539l-.179.359c0,.06,0,.06-.06.06V8.44a1.066,1.066,0,0,1,.239.6v.239a.769.769,0,0,1-.239.6,1.01,1.01,0,0,1,.18.6v.12a1.179,1.179,0,0,1-.36.838l-.659.6-.12.12c0,.06-.12.12-.3.12A.737.737,0,0,1,2.754,11.852Z" transform="translate(8.774 47.53)" fill="url(#linear-gradient)"/>
    <path id="Shape-2" data-name="Shape" d="M2.814,12.75l-.06-.119-.6-1.017a1.69,1.69,0,0,1-.239-.9V7.363A3.848,3.848,0,0,1,0,4.07v-.06A3.939,3.939,0,0,1,2.634.239,3.229,3.229,0,0,1,3.952,0,4.264,4.264,0,0,1,7.784,2.574,4,4,0,0,1,6.048,7.363c-.06.12-.06.179-.12.239a1.46,1.46,0,0,1,.06,1.317,2.537,2.537,0,0,1,.12.659v.239a1.769,1.769,0,0,1-.12.6,2.111,2.111,0,0,1,.12.6v.239a1.825,1.825,0,0,1-.539,1.257l-.658.6c-.06,0-.12.06-.179.12a.059.059,0,0,1-.06.06,1.208,1.208,0,0,1-.659.18A1.438,1.438,0,0,1,2.814,12.75Z" transform="translate(8.295 46.931)" fill="#2d313a"/>
    <path id="Path-14" data-name="Path" d="M21.916,11.014a10.735,10.735,0,0,1-3.054,7.543,3.608,3.608,0,0,1-.479.479,10.991,10.991,0,0,1-7.425,2.933A10.567,10.567,0,0,1,4.73,19.993a9.491,9.491,0,0,1-1.437-1.2A10.833,10.833,0,0,1,0,10.954,10.961,10.961,0,0,1,10.958,0,11.091,11.091,0,0,1,21.916,11.014Z" transform="translate(73.712 38.789)" fill="#e9f0f8"/>
    <path id="Path-15" data-name="Path" d="M21.916,11.014a10.884,10.884,0,0,1-3.533,8.021,10.991,10.991,0,0,1-7.425,2.933A10.567,10.567,0,0,1,4.73,19.993,10.97,10.97,0,0,1,10.958,0,11.013,11.013,0,0,1,21.916,11.014Z" transform="translate(73.712 38.789)" fill="#474e61"/>
    <path id="Path-16" data-name="Path" d="M15.568,14.546a3.608,3.608,0,0,1-.479.479,10.991,10.991,0,0,1-7.425,2.933,10.568,10.568,0,0,1-6.228-1.975A9.491,9.491,0,0,1,0,14.786a3.792,3.792,0,0,1,1.5-.9l.359-.119c.659-.24,1.557-.6,2.755-1.078a.633.633,0,0,0,.419-.359.454.454,0,0,0,.12-.24,1.126,1.126,0,0,0,.119-.479V9.4l-.119-.12a2.643,2.643,0,0,1-.359-.958l-.18-.12c-.539.12-.539-.479-.659-1.616-.06-.479,0-.6.24-.659l.18-.239a6.078,6.078,0,0,1-.6-2.454A2.31,2.31,0,0,1,4.91,1.078,3.137,3.137,0,0,1,4.551,0,17.567,17.567,0,0,0,7.665.24a2.763,2.763,0,0,1,3.113,1.377,2.022,2.022,0,0,1,1.437,1.616,8.008,8.008,0,0,1-.539,2.634v.059c.18.06.18.18.12.6-.12,1.137-.12,1.8-.659,1.616l-.479.9c0,.12,0,.12-.06.18v2.335a1.01,1.01,0,0,0,.18.6c.06.06.06.12.12.12a1.074,1.074,0,0,0,.419.3c1.317.538,2.275.9,2.934,1.2A14.1,14.1,0,0,0,15.568,14.546Z" transform="translate(77.005 42.799)" fill="#7a83a0"/>
    <path id="Path-17" data-name="Path" d="M15.568,2.215a3.608,3.608,0,0,1-.479.479A10.991,10.991,0,0,1,7.665,5.627,10.568,10.568,0,0,1,1.437,3.651,9.491,9.491,0,0,1,0,2.454a3.792,3.792,0,0,1,1.5-.9l.359-.119C2.515,1.2,3.413.838,4.611.359A.633.633,0,0,0,5.03,0,3.656,3.656,0,0,0,7.964,1.5,3.659,3.659,0,0,0,10.838.06a1.074,1.074,0,0,0,.419.3c1.317.538,2.275.9,2.934,1.2S15.269,2.035,15.568,2.215Z" transform="translate(77.005 55.13)" fill="#eff2a6"/>
    <path id="Path-18" data-name="Path" d="M7.773,5.926a1.62,1.62,0,0,0-.18-.9c0-.059-.06-.059-.06-.119A2.663,2.663,0,0,0,5.2,3.591c-2.4-.12-2.635.359-3.353-.359a1.6,1.6,0,0,1-.12,1.617,1.753,1.753,0,0,1-1.137.838C-.49,3.232.049,1.676,1.127,1.077A3.137,3.137,0,0,1,.767,0,17.58,17.58,0,0,0,3.881.239,2.763,2.763,0,0,1,6.995,1.616,2.023,2.023,0,0,1,8.432,3.232,7.987,7.987,0,0,1,7.773,5.926Z" transform="translate(80.789 42.8)" fill="#1e1f28"/>
    <path id="Path-19" data-name="Path" d="M.119,2.454V.24L0,.12V0A3.832,3.832,0,0,0,.479.539l1.737,1.2a1.092,1.092,0,0,0,1.437,0L5.269.3l.18-.18V2.454a.447.447,0,0,0,.06.3H.119C.06,2.634.119,2.574.119,2.454Z" transform="translate(82.155 52.018)" fill="url(#linear-gradient-2)"/>
    <path id="Path-20" data-name="Path" d="M21.916,11.014a10.884,10.884,0,0,1-3.533,8.021,10.991,10.991,0,0,1-7.425,2.933A10.567,10.567,0,0,1,4.73,19.993,10.97,10.97,0,0,1,10.958,0,11.013,11.013,0,0,1,21.916,11.014Z" transform="translate(73.712 38.789)" fill="none" stroke="#6c717b" stroke-linecap="round" stroke-linejoin="round" stroke-miterlimit="10" stroke-width="1.934"/>
    <path id="Path-21" data-name="Path" d="M26.407,12.011a4.844,4.844,0,0,1-1.557,3.532A4.736,4.736,0,0,1,21.616,16.8H5.689a5.511,5.511,0,1,1,.06-11.014h.06A11.39,11.39,0,0,1,6.886,3.512c.06-.06.12-.12.12-.18l.06-.06A7.666,7.666,0,0,1,10.479.638c.06-.059.18-.059.3-.119.06,0,.06,0,.12-.06h.12a8.767,8.767,0,0,1,5.928.12c.06,0,.06,0,.12.059.06,0,.12.06.18.06a8.128,8.128,0,0,1,5.09,6.765A4.428,4.428,0,0,1,26.407,12.011Z" transform="translate(37.066 44.196)" fill="#eff2a6"/>
    <path id="Path-22" data-name="Path" d="M4.79,9.577A4.789,4.789,0,1,0,0,4.789,4.79,4.79,0,0,0,4.79,9.577Z" transform="translate(53.892 51.419)" fill="#eff2a6"/>
    <path id="Path-23" data-name="Path" d="M8.5,17A8.5,8.5,0,1,0,0,8.5,8.5,8.5,0,0,0,8.5,17Z" transform="translate(42.335 43.996)" fill="#eff2a6"/>
    <path id="Shape-3" data-name="Shape" d="M2.455,10.444l-.06-.12-.539-.958a.541.541,0,0,1-.06-.3V5.116A2.642,2.642,0,0,1,0,2.6,2.447,2.447,0,0,1,1.8.148a2.67,2.67,0,1,1,1.8,5.028V5.3a.963.963,0,0,1-.179.539l-.3.419a.112.112,0,0,0,0,.18l.419.359a.186.186,0,0,1-.06.12l-.12.06v.06a.311.311,0,0,1-.12.239c-.06,0-.06.12,0,.18l.239.3a.217.217,0,0,1,.06.179v.239a.219.219,0,0,1-.06.18l-.239.239a.112.112,0,0,0,0,.18l.239.3a.219.219,0,0,1,.06.179v.24a.542.542,0,0,1-.18.418l-.6.6h-.06a.089.089,0,0,1-.065.025A.281.281,0,0,1,2.455,10.444Z" transform="translate(48.354 47.86)" fill="#232318"/>
    <path id="Path-24" data-name="Path" d="M11.916,23.824A11.912,11.912,0,1,0,0,11.912,11.914,11.914,0,0,0,11.916,23.824Z" transform="translate(38.502 0)" fill="#373d4c"/>
    <path id="Path-25" data-name="Path" d="M21.677,10.834a10.855,10.855,0,0,1-6.587,10,11.266,11.266,0,0,1-4.252.9,10.226,10.226,0,0,1-4.251-.9A10.855,10.855,0,0,1,0,10.834,10.656,10.656,0,0,1,6.528.9,11.254,11.254,0,0,1,10.779,0a10.227,10.227,0,0,1,4.252.9A10.762,10.762,0,0,1,21.677,10.834Z" transform="translate(39.579 1.078)" fill="#474e61"/>
    <path id="Path-26" data-name="Path" d="M.584,22.791a.851.851,0,0,1-.359-.12.633.633,0,0,1-.12-.838,6.406,6.406,0,0,1,.839-.958C3.039,18.78,4.3,15.189,4.3,11.3S3.039,3.875.943,1.72A9.2,9.2,0,0,1,.224.942.585.585,0,0,1,.344.1a.653.653,0,0,1,.839.12,3.136,3.136,0,0,0,.6.658C4.057,3.217,5.434,7.108,5.434,11.3S4.057,19.379,1.781,21.713a10.517,10.517,0,0,0-.719.838A.739.739,0,0,1,.584,22.791Z" transform="translate(53.308 0.614)" fill="#373d4c"/>
    <path id="Path-27" data-name="Path" d="M4.611,22.36a.544.544,0,0,1-.479-.239c-.18-.18-.3-.359-.479-.539C1.377,19.248,0,15.357,0,11.167S1.377,3.086,3.652.751c.18-.18.3-.359.479-.538A.579.579,0,0,1,4.97.153.578.578,0,0,1,5.03.99c-.18.18-.359.419-.539.6-2.1,2.1-3.353,5.687-3.353,9.578S2.4,18.589,4.491,20.744c.18.18.359.419.539.6a.641.641,0,0,1-.06.838C4.91,22.36,4.73,22.36,4.611,22.36Z" transform="translate(42.036 0.686)" fill="#373d4c"/>
    <path id="Path-28" data-name="Path" d="M.6,23.7a.6.6,0,0,1-.6-.6V.6A.6.6,0,0,1,.6,0a.566.566,0,0,1,.6.6V23.106A.6.6,0,0,1,.6,23.7Z" transform="translate(49.82 0.06)" fill="#373d4c"/>
    <path id="Path-29" data-name="Path" d="M20.659,1.2H.6A.6.6,0,0,1,0,.6.566.566,0,0,1,.6,0h20.06a.6.6,0,0,1,.6.6A.565.565,0,0,1,20.659,1.2Z" transform="translate(39.76 7.183)" fill="#373d4c"/>
    <path id="Path-30" data-name="Path" d="M20.659,1.2H.6A.6.6,0,1,1,.6,0h20.06a.6.6,0,0,1,.6.6A.565.565,0,0,1,20.659,1.2Z" transform="translate(39.76 15.444)" fill="#373d4c"/>
    <g id="Group_1380" data-name="Group 1380" transform="translate(39.64 0.396)">
      <path id="Path-31" data-name="Path" d="M1.561,3.121A1.56,1.56,0,1,1,3.122,1.56,1.555,1.555,0,0,1,1.561,3.121Z" transform="translate(1.988 10.809)" fill="#eff2a6"/>
      <path id="Path-32" data-name="Path" d="M1.561,3.12A1.56,1.56,0,1,1,3.122,1.56,1.554,1.554,0,0,1,1.561,3.12Z" transform="translate(11.874 3.239)" fill="#eff2a6"/>
      <path id="Path-33" data-name="Path" d="M1.561,3.121a1.56,1.56,0,1,1,1.561-1.56A1.554,1.554,0,0,1,1.561,3.121Z" transform="translate(13.724 15.432)" fill="#eff2a6"/>
      <path id="Shape-4" data-name="Shape" d="M.121,4.061a.269.269,0,0,1-.058-.4c.116-.116.173-.289.289-.4A.218.218,0,0,1,.7,3.194a.218.218,0,0,1,.058.347,2.463,2.463,0,0,1-.289.4c-.058.116-.116.174-.174.174A.21.21,0,0,1,.121,4.061ZM.988,2.617a.278.278,0,0,1-.116-.347,4.027,4.027,0,0,0,.173-.462c.058-.116.232-.231.347-.116.116.058.231.231.116.346a1.731,1.731,0,0,1-.231.462c.058.058-.058.116-.174.116ZM1.681,1A.28.28,0,0,1,1.508.651,1.369,1.369,0,0,0,1.624.189.28.28,0,0,1,1.971.015a.281.281,0,0,1,.174.347,1.777,1.777,0,0,0-.116.463A.319.319,0,0,1,1.739,1Z" transform="translate(13.083 18.133)" fill="#eff2a6"/>
      <path id="Shape-5" data-name="Shape" d="M1.351,9.153V8.69c0-.174.116-.289.289-.232.173,0,.289.116.231.289v.52c.058.058-.058.173-.231.173A.273.273,0,0,1,1.351,9.153Zm.058-1.734V6.957A.262.262,0,1,1,1.93,6.9v.52c.058.173-.058.289-.232.289A.273.273,0,0,1,1.409,7.419Zm.173-1.445h0Zm0,0a.385.385,0,0,1-.289-.231c0-.174-.058-.347-.058-.462,0-.173.058-.289.231-.289s.289.058.289.231.058.346.058.52c.058.116-.058.231-.231.231Zm-.52-1.907C1,3.894,1,3.72.947,3.6c-.058-.173.058-.288.231-.346s.289.058.347.231.058.347.116.462a.367.367,0,0,1-.289.347A.384.384,0,0,1,1.062,4.067ZM.947,2.622a.319.319,0,0,1-.289-.173,1.363,1.363,0,0,1-.116-.462C.484,1.871.6,1.7.716,1.64s.289.058.347.173a1.356,1.356,0,0,1,.115.463c.058.116-.057.288-.173.346ZM.426,1C.311,1,.2.946.2.831.137.657.08.542.022.369A.258.258,0,0,1,.2.022.258.258,0,0,1,.542.2C.6.369.658.484.716.657A.258.258,0,0,1,.542,1,.08.08,0,0,0,.426,1Z" transform="translate(13.876 5.875)" fill="#eff2a6"/>
      <path id="Shape-6" data-name="Shape" d="M3.011,3.3a.442.442,0,0,1-.231-.116c-.116-.116-.174-.289-.289-.4-.058-.058-.058-.231.116-.346a.286.286,0,0,1,.4.058c.116.116.174.289.289.4a.355.355,0,0,1-.058.4ZM1.8,1.91,1.45,1.563a.248.248,0,0,1-.057-.4.279.279,0,0,1,.4,0l.347.347a.279.279,0,0,1,0,.4.213.213,0,0,1-.174.058A.212.212,0,0,1,1.8,1.91ZM.468.754C.352.7.237.58.121.523A.218.218,0,0,1,.063.176C.121,0,.294-.056.41.06S.7.234.815.349a.279.279,0,0,1,.058.4C.815.811.757.811.642.811A.213.213,0,0,1,.468.754Z" transform="translate(9.383 0)" fill="#eff2a6"/>
      <path id="Shape-7" data-name="Shape" d="M2.335,3.721l-.347-.346a.286.286,0,0,1,.4-.4l.347.347a.278.278,0,0,1,0,.4.435.435,0,0,1-.231.058A.213.213,0,0,1,2.335,3.721ZM1.178,2.392c-.115-.116-.173-.289-.288-.4a.355.355,0,0,1,.058-.4.357.357,0,0,1,.4.058c.116.116.174.289.289.4s.058.289-.058.4c-.058,0-.116.058-.173.058A.441.441,0,0,1,1.178,2.392ZM.254.832C.2.658.081.543.023.37A.279.279,0,0,1,.138.023.279.279,0,0,1,.485.138a1.437,1.437,0,0,0,.231.4A.278.278,0,0,1,.6.89c0,.116-.058.116-.116.116C.37,1.005.312.947.254.832Z" transform="translate(0 7.724)" fill="#eff2a6"/>
      <path id="Shape-8" data-name="Shape" d="M8.734,3.762c-.174,0-.347-.057-.52-.057s-.231-.174-.231-.289c0-.174.173-.231.288-.231.174,0,.347.058.463.058.174,0,.231.174.231.289a.248.248,0,0,1-.231.231Zm0,0ZM6.943,3.473c-.174-.058-.347-.058-.463-.116a.242.242,0,0,1-.173-.347.242.242,0,0,1,.347-.174c.174.058.289.058.462.116a.318.318,0,0,1,.232.347c-.116.058-.232.173-.347.173ZM5.324,3.01c-.173-.058-.289-.116-.462-.174-.116-.058-.231-.231-.174-.346s.231-.231.347-.174c.173.058.289.116.462.174a.281.281,0,0,1,.174.346c-.116.116-.174.174-.289.174ZM3.589,2.433c-.173-.058-.289-.116-.462-.174a.278.278,0,0,1-.116-.347A.279.279,0,0,1,3.359,1.8c.173.057.288.115.462.173.116.058.231.231.174.347a.442.442,0,0,1-.289.116ZM2.029,1.624c-.174-.058-.289-.174-.463-.231a.279.279,0,0,1-.116-.347A.279.279,0,0,1,1.8.93c.116.058.289.174.4.231a.279.279,0,0,1,.116.347c.058.173-.058.173-.174.173C2.086,1.681,2.086,1.681,2.029,1.624ZM.525.815C.41.7.237.642.121.525a.269.269,0,0,1-.058-.4.27.27,0,0,1,.4-.058c.116.116.289.174.4.289A.218.218,0,0,1,.93.7C.815.815.757.872.642.872.583.872.525.872.525.815Z" transform="translate(5.105 13.289)" fill="#eff2a6"/>
      <path id="Shape-9" data-name="Shape" d="M.289,1.641h0Zm0,0A.385.385,0,0,1,0,1.41a.265.265,0,0,1,.231-.289c.174,0,.347-.058.463-.058.173,0,.288.058.288.231s-.058.289-.231.289a3.073,3.073,0,0,1-.462.058Zm1.445-.52A.281.281,0,0,1,1.908.774C2.081.716,2.2.716,2.37.658c.116-.058.289.058.347.174s-.058.289-.174.347a1.774,1.774,0,0,1-.462.116.057.057,0,0,1-.058.058A.3.3,0,0,1,1.734,1.121ZM3.411.6A.277.277,0,0,1,3.526.254a.94.94,0,0,0,.4-.232.278.278,0,0,1,.347.116.279.279,0,0,1-.116.347C3.989.542,3.873.658,3.7.716c0,.058,0,.058-.058.058C3.526.774,3.468.716,3.411.6Z" transform="translate(17.077 15.467)" fill="#eff2a6"/>
      <path id="Shape-10" data-name="Shape" d="M.3.983h0Zm0,0A.294.294,0,0,1,.015.752.28.28,0,0,1,.189.4C.362.347.535.347.651.289.824.231.94.347,1,.52S.94.81.767.867.477.925.3.983ZM1.749.462A.264.264,0,0,1,1.981.174c.173,0,.347-.058.52-.058A.264.264,0,0,1,2.79.347a.265.265,0,0,1-.231.289,1.6,1.6,0,0,0-.52.058A.384.384,0,0,1,1.749.462ZM3.715.578A.273.273,0,0,1,3.426.289.273.273,0,0,1,3.715,0a1.6,1.6,0,0,1,.52.058c.174,0,.231.116.231.289.058.174-.058.289-.231.289A1.608,1.608,0,0,1,3.715.578Z" transform="translate(14.518 3.817)" fill="#eff2a6"/>
      <path id="Shape-11" data-name="Shape" d="M.1,6.032a.354.354,0,0,1-.058-.4,2.55,2.55,0,0,0,.347-.4.357.357,0,0,1,.4-.058.357.357,0,0,1,.058.4,1.536,1.536,0,0,0-.289.346.529.529,0,0,1-.289.174A.213.213,0,0,1,.1,6.032ZM1.253,4.7a.279.279,0,0,1,0-.4L1.6,3.952a.286.286,0,0,1,.4.4L1.657,4.7a.438.438,0,0,1-.231.058A.212.212,0,0,1,1.253,4.7ZM2.466,3.49a.286.286,0,0,1,.058-.4,2.5,2.5,0,0,1,.4-.346c.116-.116.289-.058.4.058s.058.288-.058.4a1.514,1.514,0,0,1-.347.289c-.116.116-.174.116-.232.116A.438.438,0,0,1,2.466,3.49ZM3.8,2.45c-.116-.116-.058-.289.058-.4.116-.058.231-.173.347-.231l.058-.058a.356.356,0,0,1,.4.058.355.355,0,0,1-.058.4l-.058.058c-.116.058-.231.173-.347.231-.058,0-.116.058-.173.058A.436.436,0,0,1,3.8,2.45Zm1.676-.867a.3.3,0,0,1-.231-.116.232.232,0,0,1,.116-.347c.116-.058.289-.173.4-.231a.278.278,0,0,1,.347.116.277.277,0,0,1-.116.346c-.116.058-.289.174-.4.231ZM6.744.6A.278.278,0,0,1,6.86.253C7.033.2,7.149.08,7.322.023a.279.279,0,0,1,.347.115.279.279,0,0,1-.116.347,1.726,1.726,0,0,0-.463.231c0,.058-.058.058-.116.058C6.86.774,6.8.716,6.744.6Z" transform="translate(4.147 5.354)" fill="#eff2a6"/>
      <path id="Shape-12" data-name="Shape" d="M0,4.01V3.49c0-.173.116-.289.289-.231.173,0,.289.116.231.289V4.01C.578,4.183.462,4.3.289,4.3A.273.273,0,0,1,0,4.01ZM.462,2.565a.317.317,0,0,1-.231-.347c.058-.173.058-.346.116-.462a.282.282,0,0,1,.347-.174.281.281,0,0,1,.173.347C.81,2.1.81,2.218.752,2.392c0,.116-.116.173-.231.173ZM.925.947C.81.89.694.716.752.6.81.427.867.311.925.138A.278.278,0,0,1,1.272.023a.278.278,0,0,1,.116.347c-.058.173-.116.289-.173.462,0,.058-.058.116-.174.116Z" transform="translate(1.236 14.023)" fill="#eff2a6"/>
    </g>
  </g>
  <g id="Group_1379" data-name="Group 1379">
    <circle id="Ellipse_9" data-name="Ellipse 9" cx="53.617" cy="53.617" r="53.617" transform="translate(0 0.085)" opacity="0.3" fill="url(#radial-gradient)"/>
    <path id="Ellipse_10" data-name="Ellipse 10" d="M53.617.573A53.438,53.438,0,0,0,42.926,1.651,52.75,52.75,0,0,0,23.96,9.632,53.2,53.2,0,0,0,4.742,32.97a52.772,52.772,0,0,0-3.091,9.956,53.566,53.566,0,0,0,0,21.381A52.75,52.75,0,0,0,9.632,83.273,53.2,53.2,0,0,0,32.97,102.492a52.771,52.771,0,0,0,9.956,3.091,53.566,53.566,0,0,0,21.381,0A52.75,52.75,0,0,0,83.273,97.6a53.2,53.2,0,0,0,19.218-23.338,52.771,52.771,0,0,0,3.091-9.956,53.566,53.566,0,0,0,0-21.381A52.75,52.75,0,0,0,97.6,23.96,53.2,53.2,0,0,0,74.263,4.742a52.772,52.772,0,0,0-9.956-3.091A53.438,53.438,0,0,0,53.617.573m0-.573A53.617,53.617,0,1,1,0,53.617,53.617,53.617,0,0,1,53.617,0Z" transform="translate(0 0)" opacity="0.3" fill="url(#linear-gradient-3)"/>
  </g>
</svg>
