<svg id="Features_Icon_05" data-name="Features Icon 05" xmlns="http://www.w3.org/2000/svg" xmlns:xlink="http://www.w3.org/1999/xlink" width="107.542" height="107.628" viewBox="0 0 107.542 107.628">
  <defs>
    <linearGradient id="linear-gradient" y1="0.501" x2="1" y2="0.501" gradientUnits="objectBoundingBox">
      <stop offset="0.003" stop-color="#ffd44f"/>
      <stop offset="1" stop-color="#ffa607"/>
    </linearGradient>
    <linearGradient id="linear-gradient-2" x1="0.236" y1="0.352" x2="0.592" y2="0.668" gradientUnits="objectBoundingBox">
      <stop offset="0" stop-color="#faa404"/>
      <stop offset="1" stop-color="#ff7904" stop-opacity="0"/>
    </linearGradient>
    <linearGradient id="linear-gradient-3" x1="0.953" y1="0.985" x2="0.084" y2="0.202" gradientUnits="objectBoundingBox">
      <stop offset="0" stop-color="#ffe491"/>
      <stop offset="1" stop-color="#fff"/>
    </linearGradient>
    <linearGradient id="linear-gradient-4" x1="0.001" y1="0.502" x2="1" y2="0.502" xlink:href="#linear-gradient"/>
    <linearGradient id="linear-gradient-5" x1="0.257" y1="0.375" x2="0.604" y2="0.67" xlink:href="#linear-gradient-2"/>
    <linearGradient id="linear-gradient-6" x1="0.92" y1="0.819" x2="0.139" y2="0.206" xlink:href="#linear-gradient-3"/>
    <linearGradient id="linear-gradient-7" x1="-0.001" y1="0.502" x2="1" y2="0.502" xlink:href="#linear-gradient"/>
    <linearGradient id="linear-gradient-8" x1="0.263" y1="0.384" x2="0.614" y2="0.676" xlink:href="#linear-gradient-2"/>
    <radialGradient id="radial-gradient" cx="0.602" cy="0.35" r="0.726" gradientTransform="translate(0.807 -0.332) rotate(62.414)" gradientUnits="objectBoundingBox">
      <stop offset="0" stop-color="#e0e39b"/>
      <stop offset="1" stop-color="#e0e39c" stop-opacity="0"/>
    </radialGradient>
    <linearGradient id="linear-gradient-11" x1="0.834" y1="0.089" x2="0.16" y2="0.87" gradientUnits="objectBoundingBox">
      <stop offset="0" stop-color="#fff"/>
      <stop offset="1" stop-opacity="0"/>
    </linearGradient>
  </defs>
  <g id="Group_1385" data-name="Group 1385" transform="translate(12.095 11.384)">
    <g id="_11" data-name="11" transform="translate(0)">
      <path id="Path" d="M35.468,70.6A35.3,35.3,0,1,0,0,35.3,35.383,35.383,0,0,0,35.468,70.6Z" transform="translate(5.948 8.583)" fill="#2a2e38"/>
      <path id="Path-2" data-name="Path" d="M41.416,82.434A41.217,41.217,0,1,0,0,41.217,41.317,41.317,0,0,0,41.416,82.434Z" transform="translate(0 2.664)" fill="none" stroke="#2a2e38" stroke-linecap="round" stroke-linejoin="round" stroke-miterlimit="10" stroke-width="2" stroke-dasharray="1 6"/>
      <path id="Path-3" data-name="Path" d="M14.652,29.162A14.581,14.581,0,1,0,0,14.581,14.616,14.616,0,0,0,14.652,29.162Z" transform="translate(26.764 29.3)" fill="#1e1f28"/>
      <path id="Path-4" data-name="Path" d="M.449.348c0,.072.073.144.073.216" transform="translate(63.596 36.82)" fill="none" stroke="#6c717b" stroke-linecap="round" stroke-linejoin="round" stroke-miterlimit="10" stroke-width="4"/>
      <path id="Path-5" data-name="Path" d="M0,0A23.082,23.082,0,0,1,12.766,10.827" transform="translate(49.394 21.648)" fill="none" stroke="#6c717b" stroke-linecap="round" stroke-linejoin="round" stroke-miterlimit="10" stroke-width="4"/>
      <path id="Path-6" data-name="Path" d="M1.958,5.991,0,1.877,4.134,0" transform="translate(47.944 19.266)" fill="none" stroke="#6c717b" stroke-linecap="round" stroke-linejoin="round" stroke-miterlimit="10" stroke-width="4"/>
      <path id="Path-7" data-name="Path" d="M.5.564V.348" transform="translate(17.125 48.008)" fill="none" stroke="#6c717b" stroke-linecap="round" stroke-linejoin="round" stroke-miterlimit="10" stroke-width="4"/>
      <path id="Path-8" data-name="Path" d="M11.243,12.415A22.993,22.993,0,0,1,0,0" transform="translate(18.931 53.409)" fill="none" stroke="#6c717b" stroke-linecap="round" stroke-linejoin="round" stroke-miterlimit="10" stroke-width="4"/>
      <path id="Path-9" data-name="Path" d="M2.9,0,4.279,4.259,0,5.631" transform="translate(27.272 62.215)" fill="none" stroke="#6c717b" stroke-linecap="round" stroke-linejoin="round" stroke-miterlimit="10" stroke-width="4"/>
      <path id="Path-10" data-name="Path" d="M36.929,22.387a17.553,17.553,0,0,1-1.306,3.9,3.893,3.893,0,0,1-.362.794,20.494,20.494,0,0,1-1.668,2.671,10.99,10.99,0,0,1-.8.938,19.6,19.6,0,0,1-5.658,4.4c-.363.217-.8.361-1.233.578-.726.289-1.378.506-2.1.722a19.478,19.478,0,0,1-8.922.361A18.641,18.641,0,0,1,.373,14.808,18.727,18.727,0,0,1,22.423.372a19.114,19.114,0,0,1,9.429,5.053A18.636,18.636,0,0,1,36.929,22.387Z" transform="translate(4.061 1.578)" fill="url(#linear-gradient)"/>
      <path id="Shape" d="M12.531,31.019A15.662,15.662,0,0,1,.345,12.468,15.463,15.463,0,0,1,7.091,2.579,15.492,15.492,0,0,1,18.913.341,16.014,16.014,0,0,1,26.819,4.6,15.587,15.587,0,0,1,31.1,18.893a12.759,12.759,0,0,1-1.088,3.321c-.072.216-.218.433-.29.649A14.806,14.806,0,0,1,28.27,25.1a7.73,7.73,0,0,1-.653.794,15.974,15.974,0,0,1-4.787,3.753c-.362.145-.653.361-1.016.506A11.049,11.049,0,0,1,20,30.8a14.224,14.224,0,0,1-4.279.578A15.4,15.4,0,0,1,12.531,31.019Z" transform="translate(6.991 4.423)" fill="#f9b400"/>
      <path id="Path-11" data-name="Path" d="M22.921,18.046A18.073,18.073,0,0,1,21.4,20.573a10.864,10.864,0,0,1-.8.938,19.6,19.6,0,0,1-5.657,4.4c-.363.217-.8.361-1.233.578-.726.289-1.378.505-2.1.721L0,15.664l3.7-1.949.435-.866.073-1.8s-.145-6.569-.29-6.785C3.844,4.187,5.077,0,5.077,0L6.383,2.96,8.051,0,24.008,15.88C23.863,16.241,23.065,17.829,22.921,18.046Z" transform="translate(16.247 10.748)" fill="url(#linear-gradient-2)"/>
      <path id="Shape-2" data-name="Shape" d="M6.6,18.7V15.808H5.295c-.072.794-.072,1.732-.072,2.743H3.409V15.592A26.806,26.806,0,0,0,0,15.519C.217,14.148.289,14,.362,13.642A.155.155,0,0,1,.507,13.5H1.523c.58,0,.653-.145.653-.578V5.7a.838.838,0,0,0-.943-.939H.072V3.031H3.191c.218,0,.218,0,.218-.216V0H5.223V2.959H6.528V0H8.2V2.887c0,.144,0,.144.145.216,2.031.217,3.7.866,3.916,2.887a2.619,2.619,0,0,1-.435,1.949,2.306,2.306,0,0,1-.943.794A3.374,3.374,0,0,1,13.2,10.61a3.262,3.262,0,0,1,.073,1.66,3.636,3.636,0,0,1-.653,1.66,3.08,3.08,0,0,1-1.669,1.227,9.871,9.871,0,0,1-2.538.505c-.145,0-.145.072-.145.217V18.7Z" transform="translate(16.03 10.965)" fill="url(#linear-gradient-3)"/>
      <path id="Path-12" data-name="Path" d="M36.929,22.388a17.572,17.572,0,0,1-1.306,3.9,3.855,3.855,0,0,1-.362.794,20.57,20.57,0,0,1-1.668,2.671,10.861,10.861,0,0,1-.8.938,19.614,19.614,0,0,1-5.658,4.4c-.363.216-.8.361-1.233.577-.725.289-1.378.505-2.1.722a19.488,19.488,0,0,1-8.922.361A18.641,18.641,0,0,1,.373,14.808,18.727,18.727,0,0,1,22.423.372a19.12,19.12,0,0,1,9.429,5.053A18.448,18.448,0,0,1,36.929,22.388Z" transform="translate(44.026 43.877)" fill="url(#linear-gradient-4)"/>
      <path id="Shape-3" data-name="Shape" d="M12.53,31.02A15.663,15.663,0,0,1,.345,12.469a15.464,15.464,0,0,1,6.745-9.89A15.491,15.491,0,0,1,18.913.342,16.013,16.013,0,0,1,26.82,4.6,15.586,15.586,0,0,1,31.1,18.893a12.77,12.77,0,0,1-1.088,3.32c-.072.217-.218.434-.29.65A14.691,14.691,0,0,1,28.27,25.1a7.743,7.743,0,0,1-.653.794,15.958,15.958,0,0,1-4.787,3.754c-.363.145-.653.361-1.016.505A11.115,11.115,0,0,1,20,30.8a17.007,17.007,0,0,1-4.279.578A15.5,15.5,0,0,1,12.53,31.02Z" transform="translate(47.173 46.65)" fill="#f9b400"/>
      <path id="Path-13" data-name="Path" d="M22.05,17.974A18.073,18.073,0,0,1,20.526,20.5a10.744,10.744,0,0,1-.8.938,17.981,17.981,0,0,1-5.367,4.548,6.469,6.469,0,0,1-1.234.578,6.93,6.93,0,0,1-1.523.65L0,15.663l5,.794.435-.866L0,8.662A15.01,15.01,0,0,0,1.16,5.774,25.238,25.238,0,0,1,2.9,3.609l2.539-.721L7.108,0,23.065,15.808A15.136,15.136,0,0,1,22.05,17.974Z" transform="translate(57.3 52.76)" fill="url(#linear-gradient-5)"/>
      <path id="Path-14" data-name="Path" d="M5.512,19.274V17.324A6.338,6.338,0,0,1,.073,13.715L0,13.571l2.756-1.155.073.144a4.508,4.508,0,0,0,3.989,2.094c.8,0,3.482-.144,3.482-2.094,0-1.01-1.089-1.66-3.555-1.949-3.191-.361-6.02-.938-6.02-4.4,0-2.31,1.814-3.97,4.859-4.4V0H8.558V1.805a5.139,5.139,0,0,1,4.28,2.887l.073.144L10.372,5.991,10.3,5.847A4.24,4.24,0,0,0,6.89,4.332c-.943,0-3.191.144-3.191,1.8,0,1.227,1.378,1.444,3.264,1.66,2.684.361,6.383.794,6.383,4.692,0,2.96-2.466,4.475-4.932,4.692v2.093Z" transform="translate(55.995 52.903)" fill="url(#linear-gradient-6)"/>
      <path id="Path-15" data-name="Path" d="M2.374,3.522A1.806,1.806,0,1,0,1.253.089,1.806,1.806,0,1,0,2.374,3.522Z" transform="translate(48.22 4.967)" fill="#2a2e38"/>
      <path id="Path-16" data-name="Path" d="M3.514,5.212A2.672,2.672,0,1,0,1.855.132a2.672,2.672,0,1,0,1.659,5.08Z" transform="translate(77.178 34.486)" fill="#2a2e38"/>
      <path id="Path-17" data-name="Path" d="M1.425,2.113a1.083,1.083,0,1,0-1.371-.7A1.082,1.082,0,0,0,1.425,2.113Z" transform="translate(46.061 0)" fill="#23e078"/>
      <path id="Path-18" data-name="Path" d="M1.7,1.978a1.08,1.08,0,0,0,.286-1.5A1.091,1.091,0,0,0,.475.188a1.079,1.079,0,0,0-.286,1.5A1.091,1.091,0,0,0,1.7,1.978Z" transform="translate(46.858 81.075)" fill="#2a2e38"/>
      <path id="Path-19" data-name="Path" d="M1.7,1.978a1.08,1.08,0,0,0,.286-1.5A1.091,1.091,0,0,0,.475.188a1.079,1.079,0,0,0-.286,1.5A1.091,1.091,0,0,0,1.7,1.978Z" transform="translate(1.88 45.113)" fill="#23e078"/>
      <path id="Path-20" data-name="Path" d="M2.608,3.032A1.655,1.655,0,0,0,3.047.725,1.673,1.673,0,0,0,.729.289,1.655,1.655,0,0,0,.29,2.6,1.673,1.673,0,0,0,2.608,3.032Z" transform="translate(3.902 40.767)" fill="#2a2e38"/>
    </g>
    <g id="Group_1383" data-name="Group 1383" transform="translate(4.269 1.309)">
      <path id="Path-21" data-name="Path" d="M36.249,22.268c-1.734,8.593-10.114,13.98-13,13.98C10.24,40.032-2.476,28.386.415,14.7A18.194,18.194,0,0,1,22.089.426,18.37,18.37,0,0,1,36.249,22.268Z" transform="translate(0 0)" fill="url(#linear-gradient-7)"/>
      <path id="Path-22" data-name="Path" d="M6.706,2.49A14.4,14.4,0,0,0,.349,11.955c-3.757,18.34,23.987,26.061,28.9,6.118C31.994,4.965,17.689-4.8,6.706,2.49Z" transform="translate(3.534 3.618)" fill="#f9b400"/>
      <path id="Path-23" data-name="Path" d="M22.831,16.019a11.976,11.976,0,0,1-.723,2.039c-.145.281-.145.436-.29.717-.433.872-1.011,1.6-1.444,2.475a3.561,3.561,0,0,1-.723.872,16.393,16.393,0,0,1-5.056,3.938,8.9,8.9,0,0,0-1.156.577,9.661,9.661,0,0,1-1.879.591h-.145l-4.48-4.515V16.891L0,11.35l4.046,1.027S3.9,5.246,3.757,5.091a11.159,11.159,0,0,1,2.167,0A29.4,29.4,0,0,0,7.08,0Z" transform="translate(11.376 7.402)" fill="url(#linear-gradient-8)"/>
      <path id="Path-24" data-name="Path" d="M14.161,11.5,7.08,15.724,0,11.5,7.08,0Z" transform="translate(11.231 7.402)" fill="#fff"/>
      <path id="Path-25" data-name="Path" d="M14.161,0,7.08,9.9,0,0,7.08,4.079Z" transform="translate(11.231 20.215)" fill="#fff"/>
      <path id="Path-26" data-name="Path" d="M14.161,3.207,7.08,7.426,0,3.207,7.08,0Z" transform="translate(11.231 15.7)" fill="#fdf2c8"/>
      <path id="Path-27" data-name="Path" d="M0,4.079,7.081,0,0,9.9Z" transform="translate(18.312 20.215)" fill="#facd35" opacity="0.3"/>
      <path id="Path-28" data-name="Path" d="M7.081,11.5,0,15.724V0Z" transform="translate(18.312 7.402)" fill="#facd35" opacity="0.3"/>
    </g>
    <g id="Group_1384" data-name="Group 1384" transform="translate(44.112 43.999)">
      <path id="Path-29" data-name="Path" d="M36.249,22.268c-1.734,8.593-10.114,13.98-13,13.98C10.24,40.032-2.476,28.386.415,14.7A18.194,18.194,0,0,1,22.089.426,18.37,18.37,0,0,1,36.249,22.268Z" transform="translate(0 0)" fill="url(#linear-gradient-7)"/>
      <path id="Path-30" data-name="Path" d="M6.706,2.49A14.4,14.4,0,0,0,.349,11.955c-3.757,18.34,23.987,26.061,28.9,6.118C31.994,4.965,17.689-4.8,6.706,2.49Z" transform="translate(3.534 3.618)" fill="#f9b400"/>
      <path id="Path-31" data-name="Path" d="M22.831,16.019a11.976,11.976,0,0,1-.723,2.039c-.145.281-.145.436-.29.717-.433.872-1.011,1.6-1.444,2.475a3.561,3.561,0,0,1-.723.872,16.393,16.393,0,0,1-5.056,3.938,8.9,8.9,0,0,0-1.156.577,9.661,9.661,0,0,1-1.879.591h-.145l-4.48-4.515V16.891L0,11.35l4.046,1.027S3.9,5.246,3.757,5.091a11.159,11.159,0,0,1,2.167,0A29.4,29.4,0,0,0,7.08,0Z" transform="translate(11.376 7.402)" fill="url(#linear-gradient-8)"/>
      <path id="Path-32" data-name="Path" d="M14.161,11.5,7.08,15.724,0,11.5,7.08,0Z" transform="translate(11.231 7.402)" fill="#fff"/>
      <path id="Path-33" data-name="Path" d="M14.161,0,7.08,9.9,0,0,7.08,4.079Z" transform="translate(11.231 20.215)" fill="#fff"/>
      <path id="Path-34" data-name="Path" d="M14.161,3.207,7.08,7.426,0,3.207,7.08,0Z" transform="translate(11.231 15.7)" fill="#fdf2c8"/>
      <path id="Path-35" data-name="Path" d="M0,4.079,7.081,0,0,9.9Z" transform="translate(18.312 20.215)" fill="#facd35" opacity="0.3"/>
      <path id="Path-36" data-name="Path" d="M7.081,11.5,0,15.724V0Z" transform="translate(18.312 7.402)" fill="#facd35" opacity="0.3"/>
    </g>
  </g>
  <g id="Group_1382" data-name="Group 1382">
    <circle id="Ellipse_9" data-name="Ellipse 9" cx="53.771" cy="53.771" r="53.771" transform="translate(0 0.086)" opacity="0.3" fill="url(#radial-gradient)"/>
    <path id="Ellipse_10" data-name="Ellipse 10" d="M53.771.575A53.592,53.592,0,0,0,43.05,1.656a52.9,52.9,0,0,0-19.021,8A53.353,53.353,0,0,0,4.755,33.065a52.924,52.924,0,0,0-3.1,9.985,53.721,53.721,0,0,0,0,21.443,52.9,52.9,0,0,0,8,19.021,53.353,53.353,0,0,0,23.405,19.274,52.924,52.924,0,0,0,9.985,3.1,53.72,53.72,0,0,0,21.443,0,52.9,52.9,0,0,0,19.021-8,53.353,53.353,0,0,0,19.274-23.405,52.924,52.924,0,0,0,3.1-9.985,53.72,53.72,0,0,0,0-21.443,52.9,52.9,0,0,0-8-19.021A53.353,53.353,0,0,0,74.477,4.755a52.924,52.924,0,0,0-9.985-3.1A53.593,53.593,0,0,0,53.771.575m0-.575A53.771,53.771,0,1,1,0,53.771,53.771,53.771,0,0,1,53.771,0Z" transform="translate(0 0)" opacity="0.3" fill="url(#linear-gradient-11)"/>
  </g>
</svg>
