<svg id="Features_Icon_06" data-name="Features Icon 06" xmlns="http://www.w3.org/2000/svg" xmlns:xlink="http://www.w3.org/1999/xlink" width="107.542" height="107.628" viewBox="0 0 107.542 107.628">
  <defs>
    <linearGradient id="linear-gradient" x1="0.019" y1="0.512" x2="0.989" y2="0.512" gradientUnits="objectBoundingBox">
      <stop offset="0.003" stop-color="#ffd44f"/>
      <stop offset="1" stop-color="#ffa607"/>
    </linearGradient>
    <linearGradient id="linear-gradient-2" x1="0.024" y1="0.494" x2="0.994" y2="0.494" xlink:href="#linear-gradient"/>
    <linearGradient id="linear-gradient-3" x1="-0.007" y1="0.501" x2="1.001" y2="0.501" xlink:href="#linear-gradient"/>
    <linearGradient id="linear-gradient-4" x1="0.575" y1="-0.085" x2="0.437" y2="1.03" xlink:href="#linear-gradient"/>
    <linearGradient id="linear-gradient-5" x1="-0.001" y1="0.502" x2="1" y2="0.502" xlink:href="#linear-gradient"/>
    <linearGradient id="linear-gradient-6" x1="0.263" y1="0.384" x2="0.614" y2="0.676" gradientUnits="objectBoundingBox">
      <stop offset="0" stop-color="#faa404"/>
      <stop offset="1" stop-color="#ff7904" stop-opacity="0"/>
    </linearGradient>
    <radialGradient id="radial-gradient" cx="0.602" cy="0.35" r="0.726" gradientTransform="translate(0.807 -0.332) rotate(62.414)" gradientUnits="objectBoundingBox">
      <stop offset="0" stop-color="#e0e39b"/>
      <stop offset="1" stop-color="#e0e39c" stop-opacity="0"/>
    </radialGradient>
    <linearGradient id="linear-gradient-7" x1="0.834" y1="0.089" x2="0.16" y2="0.87" gradientUnits="objectBoundingBox">
      <stop offset="0" stop-color="#fff"/>
      <stop offset="1" stop-opacity="0"/>
    </linearGradient>
  </defs>
  <g id="_13" data-name="13" transform="translate(11.384 14.23)">
    <path id="Path" d="M33.307,66.931A33.466,33.466,0,1,0,0,33.466,33.387,33.387,0,0,0,33.307,66.931Z" transform="translate(7.372 6.06)" fill="#2a2e38"/>
    <path id="Path-2" data-name="Path" d="M39.338,79.051A39.526,39.526,0,1,0,0,39.526,39.432,39.432,0,0,0,39.338,79.051Z" transform="translate(1.34 0)" fill="none" stroke="#2a2e38" stroke-linecap="round" stroke-linejoin="round" stroke-miterlimit="10" stroke-width="2" stroke-dasharray="1 6"/>
    <path id="Path-3" data-name="Path" d="M2.194,3.285A1.683,1.683,0,0,0,1.158.083a1.683,1.683,0,0,0,1.036,3.2Z" transform="translate(16.559 9.551)" fill="#2a2e38"/>
    <path id="Path-4" data-name="Path" d="M1.492,2.234A1.144,1.144,0,0,0,.787.057a1.144,1.144,0,0,0,.7,2.177Z" transform="translate(20.898 5.046)" fill="#2a2e38"/>
    <path id="Path-5" data-name="Path" d="M4.264,4.447A2.568,2.568,0,0,0,4.427.832,2.538,2.538,0,0,0,.829.67,2.567,2.567,0,0,0,.666,4.285,2.538,2.538,0,0,0,4.264,4.447Z" transform="translate(79.525 25.512)" fill="#2a2e38"/>
    <path id="Path-6" data-name="Path" d="M1.8,1.873A1.081,1.081,0,0,0,1.864.351,1.068,1.068,0,0,0,.349.282,1.082,1.082,0,0,0,.28,1.8,1.07,1.07,0,0,0,1.8,1.873Z" transform="translate(82.183 16.711)" fill="#2a2e38"/>
    <path id="Path-7" data-name="Path" d="M1.072,2.155A1.078,1.078,0,1,0,0,1.078,1.075,1.075,0,0,0,1.072,2.155Z" transform="translate(50.196 2.963)" fill="url(#linear-gradient)"/>
    <path id="Path-8" data-name="Path" d="M1.072,2.154A1.077,1.077,0,1,0,0,1.077,1.074,1.074,0,0,0,1.072,2.154Z" transform="translate(9.851 68.682)" fill="url(#linear-gradient-2)"/>
    <path id="Path-9" data-name="Path" d="M1.8,1.873A1.081,1.081,0,0,0,1.864.35,1.069,1.069,0,0,0,.349.282,1.081,1.081,0,0,0,.28,1.8,1.068,1.068,0,0,0,1.8,1.873Z" transform="translate(83.236 36.759)" fill="#32d697"/>
    <path id="Path-10" data-name="Path" d="M26.9,16.586c-.067.337-.134.606-.2.943a3.829,3.829,0,0,1-.268.808,5.844,5.844,0,0,1-.47,1.145c-.067.2-.2.4-.268.605a19.025,19.025,0,0,1-1.207,1.953,5.052,5.052,0,0,0-.536.741,14.091,14.091,0,0,1-4.155,3.3c-.268.135-.6.27-.872.4a13.932,13.932,0,0,1-1.541.539c-.268.068-.6.135-.872.2a13.219,13.219,0,0,1-5.629,0A13.758,13.758,0,0,1,16.508.291a13.234,13.234,0,0,1,6.9,3.771A14.4,14.4,0,0,1,26.9,16.586Z" transform="translate(27.196 25.707)" fill="url(#linear-gradient-3)"/>
    <path id="Shape" d="M10.877,27.159A13.725,13.725,0,0,1,16.507.291a14.237,14.237,0,0,1,6.9,3.771,13.178,13.178,0,0,1,2.212,2.9,3.838,3.838,0,0,1,.268.471,11.906,11.906,0,0,1,1.005,9.09c-.067.337-.134.606-.2.943,0,.134-.067.2-.067.269-.067.2-.134.337-.2.539a8.182,8.182,0,0,1-.469,1.145c-.067.2-.2.4-.268.606a11.78,11.78,0,0,1-1.206,1.952,2.971,2.971,0,0,1-.536.74,12.4,12.4,0,0,1-4.155,3.3c-.268.134-.536.269-.872.4a10.477,10.477,0,0,1-1.541.538c-.268.067-.6.135-.872.2a12.66,12.66,0,0,1-2.764.3A14.078,14.078,0,0,1,10.877,27.159Z" transform="translate(26.929 25.707)" fill="url(#linear-gradient-4)"/>
    <path id="Path-11" data-name="Path" d="M12.806.229a9.056,9.056,0,0,1,2.278.741c.134.068.335.135.47.2a11.847,11.847,0,0,1,1.541.943,1.81,1.81,0,0,1,.536.472,10.146,10.146,0,0,1,2.546,3.3c.134.2.2.472.335.673a8.577,8.577,0,0,1,.4,1.212,10.962,10.962,0,0,1,.2,5.118,10.732,10.732,0,0,1-12.6,8.349A10.781,10.781,0,0,1,.206,8.579,10.6,10.6,0,0,1,3.088,3.191,10.4,10.4,0,0,1,12.806.229Z" transform="translate(30.094 28.8)" fill="none" stroke="#707070" stroke-miterlimit="10" stroke-width="2"/>
    <g id="Group_1387" data-name="Group 1387" transform="translate(26.881 25.707)">
      <path id="Path-12" data-name="Path" d="M27.5,16.891c-1.315,6.518-7.671,10.6-9.864,10.6A13.91,13.91,0,0,1,.314,11.151,13.8,13.8,0,0,1,16.755.323,13.934,13.934,0,0,1,27.5,16.891Z" transform="translate(0 0)" fill="url(#linear-gradient-5)"/>
      <path id="Path-13" data-name="Path" d="M5.086,1.889A10.922,10.922,0,0,0,.264,9.068c-2.849,13.911,18.194,19.768,21.921,4.641C24.267,3.766,13.417-3.637,5.086,1.889Z" transform="translate(2.681 2.744)" fill="#f9b400"/>
      <path id="Path-14" data-name="Path" d="M17.317,12.151a9.084,9.084,0,0,1-.548,1.547c-.11.213-.11.331-.22.544-.329.661-.767,1.216-1.1,1.878a2.7,2.7,0,0,1-.548.661,12.434,12.434,0,0,1-3.835,2.987,6.75,6.75,0,0,0-.877.437,7.328,7.328,0,0,1-1.425.448h-.11l-3.4-3.424V12.812L0,8.609l3.069.779s-.11-5.409-.22-5.526a8.464,8.464,0,0,1,1.644,0A22.3,22.3,0,0,0,5.37,0Z" transform="translate(8.629 5.615)" fill="url(#linear-gradient-6)"/>
      <path id="Path-15" data-name="Path" d="M10.742,8.726l-5.371,3.2L0,8.726,5.37,0Z" transform="translate(8.519 5.615)" fill="#fff"/>
      <path id="Path-16" data-name="Path" d="M10.742,0,5.37,7.51,0,0,5.37,3.094Z" transform="translate(8.519 15.333)" fill="#fff"/>
      <path id="Path-17" data-name="Path" d="M10.742,2.432,5.37,5.633,0,2.432,5.37,0Z" transform="translate(8.519 11.909)" fill="#fdf2c8"/>
      <path id="Path-18" data-name="Path" d="M0,3.094,5.371,0,0,7.51Z" transform="translate(13.889 15.333)" fill="#facd35" opacity="0.3"/>
      <path id="Path-19" data-name="Path" d="M5.371,8.726,0,11.927V0Z" transform="translate(13.889 5.615)" fill="#facd35" opacity="0.3"/>
    </g>
    <path id="Path-20" data-name="Path" d="M38.456,13.467a13.333,13.333,0,0,0-4.289-.674,14.244,14.244,0,0,0-6.1,1.414,29.381,29.381,0,0,0-3.351-2.9c-1.139-.673-1.876-.605-5.294-.808a1.087,1.087,0,0,0-1.072.741c-1.139,3.973-1.742,4.848-.335,5.387,7.506,3.165,7.439,3.03,8.31,3.838.067.068.469.539.469.539,1.809,2.491.335,6.262-2.211,5.387C3.943,19.325,8.165,21.884,1.062,13.938.391,13.2.927,13.063.793,1.414.793.673-.547,0,.257,0h22.45A6.326,6.326,0,0,1,27.2,1.885Z" transform="translate(6.445 12.996)" fill="#707685"/>
    <path id="Path-21" data-name="Path" d="M45.974,12.843,32.838,17.355c-9.784,3.367-6.97,3.367-16.687.067-4.155-1.414-1.877-.134-14.208-9.7A3.908,3.908,0,0,1,.134,5.167a.335.335,0,0,0-.067-.2A3.268,3.268,0,0,1,0,4.157,4.172,4.172,0,0,1,6.434.655s.134.134.2.134c13.4,8.282,9.919,5.926,12.6,8.687a4.033,4.033,0,0,0,2.949,1.145l4.423-.337c.134,0,.2-.135.2-.27s-.134-.2-.268-.2H22.317a4.175,4.175,0,0,1,0-8.349L45.5,2.743c.67.067-.6.471-.6,1.145.067,2.559,0,1.212.2,7.07C45.37,12.237,47.113,12.439,45.974,12.843Z" transform="translate(17.223 54.223)" fill="#707685"/>
    <path id="Path-22" data-name="Path" d="M7.372,1.279V16.161A1.354,1.354,0,0,1,6.1,17.238H1.407A1.419,1.419,0,0,1,0,15.824V1.414A1.419,1.419,0,0,1,1.407,0H6.1A1.321,1.321,0,0,1,7.372,1.279Z" transform="translate(0 10.504)" fill="#9ba8b8"/>
    <path id="Path-23" data-name="Path" d="M1.207,2.424A1.212,1.212,0,1,0,0,1.212,1.209,1.209,0,0,0,1.207,2.424Z" transform="translate(2.413 23.365)" fill="#1e1f28"/>
    <path id="Path-24" data-name="Path" d="M6.1,0H1.407A1.419,1.419,0,0,0,0,1.414V15.824a1.419,1.419,0,0,0,1.407,1.414H6.1a1.276,1.276,0,0,0,1.274-1.279V1.347A1.292,1.292,0,0,0,6.1,0Z" transform="translate(62.124 53.33)" fill="#9ba8b8"/>
    <path id="Path-25" data-name="Path" d="M1.206,2.424A1.212,1.212,0,1,0,0,1.212,1.209,1.209,0,0,0,1.206,2.424Z" transform="translate(64.604 55.35)" fill="#1e1f28"/>
  </g>
  <g id="Group_1386" data-name="Group 1386">
    <circle id="Ellipse_9" data-name="Ellipse 9" cx="53.771" cy="53.771" r="53.771" transform="translate(0 0.086)" opacity="0.3" fill="url(#radial-gradient)"/>
    <path id="Ellipse_10" data-name="Ellipse 10" d="M53.771.575A53.592,53.592,0,0,0,43.05,1.656a52.9,52.9,0,0,0-19.021,8A53.353,53.353,0,0,0,4.755,33.065a52.924,52.924,0,0,0-3.1,9.985,53.721,53.721,0,0,0,0,21.443,52.9,52.9,0,0,0,8,19.021,53.353,53.353,0,0,0,23.405,19.274,52.924,52.924,0,0,0,9.985,3.1,53.72,53.72,0,0,0,21.443,0,52.9,52.9,0,0,0,19.021-8,53.353,53.353,0,0,0,19.274-23.405,52.924,52.924,0,0,0,3.1-9.985,53.72,53.72,0,0,0,0-21.443,52.9,52.9,0,0,0-8-19.021A53.353,53.353,0,0,0,74.477,4.755a52.924,52.924,0,0,0-9.985-3.1A53.593,53.593,0,0,0,53.771.575m0-.575A53.771,53.771,0,1,1,0,53.771,53.771,53.771,0,0,1,53.771,0Z" transform="translate(0 0)" opacity="0.3" fill="url(#linear-gradient-7)"/>
  </g>
</svg>
