<svg id="Features_Icon_03" data-name="Features Icon 03" xmlns="http://www.w3.org/2000/svg" xmlns:xlink="http://www.w3.org/1999/xlink" width="107.233" height="107.318" viewBox="0 0 107.233 107.318">
  <defs>
    <radialGradient id="radial-gradient" cx="0.602" cy="0.35" r="0.726" gradientTransform="translate(0.807 -0.332) rotate(62.414)" gradientUnits="objectBoundingBox">
      <stop offset="0" stop-color="#e0e39b"/>
      <stop offset="1" stop-color="#e0e39c" stop-opacity="0"/>
    </radialGradient>
    <linearGradient id="linear-gradient" x1="0.834" y1="0.089" x2="0.16" y2="0.87" gradientUnits="objectBoundingBox">
      <stop offset="0" stop-color="#fff"/>
      <stop offset="1" stop-opacity="0"/>
    </linearGradient>
    <linearGradient id="linear-gradient-2" x1="0.448" y1="0.306" x2="0.774" y2="0.699" gradientUnits="objectBoundingBox">
      <stop offset="0.003" stop-color="#ffd44f"/>
      <stop offset="1" stop-color="#ffa607"/>
    </linearGradient>
    <linearGradient id="linear-gradient-3" x1="0.251" y1="0.327" x2="0.63" y2="0.622" gradientUnits="objectBoundingBox">
      <stop offset="0" stop-color="#faa404"/>
      <stop offset="1" stop-color="#ff7904" stop-opacity="0"/>
    </linearGradient>
    <linearGradient id="linear-gradient-4" x1="0.958" y1="0.996" x2="0.078" y2="0.218" gradientUnits="objectBoundingBox">
      <stop offset="0" stop-color="#ffe491"/>
      <stop offset="1" stop-color="#fff"/>
    </linearGradient>
    <linearGradient id="linear-gradient-5" x1="0.771" y1="0.85" x2="0.353" y2="0.055" gradientUnits="objectBoundingBox">
      <stop offset="0.006" stop-color="#dea300"/>
      <stop offset="0.284" stop-color="#ffe8a8"/>
      <stop offset="0.666" stop-color="#f4c966"/>
      <stop offset="1" stop-color="#ffefad"/>
    </linearGradient>
  </defs>
  <g id="Group_1376" data-name="Group 1376">
    <circle id="Ellipse_9" data-name="Ellipse 9" cx="53.617" cy="53.617" r="53.617" transform="translate(0 0.085)" opacity="0.3" fill="url(#radial-gradient)"/>
    <path id="Ellipse_10" data-name="Ellipse 10" d="M53.617.573A53.438,53.438,0,0,0,42.926,1.651,52.75,52.75,0,0,0,23.96,9.632,53.2,53.2,0,0,0,4.742,32.97a52.772,52.772,0,0,0-3.091,9.956,53.566,53.566,0,0,0,0,21.381A52.75,52.75,0,0,0,9.632,83.273,53.2,53.2,0,0,0,32.97,102.492a52.771,52.771,0,0,0,9.956,3.091,53.566,53.566,0,0,0,21.381,0A52.75,52.75,0,0,0,83.273,97.6a53.2,53.2,0,0,0,19.218-23.338,52.771,52.771,0,0,0,3.091-9.956,53.566,53.566,0,0,0,0-21.381A52.75,52.75,0,0,0,97.6,23.96,53.2,53.2,0,0,0,74.263,4.742a52.772,52.772,0,0,0-9.956-3.091A53.438,53.438,0,0,0,53.617.573m0-.573A53.617,53.617,0,1,1,0,53.617,53.617,53.617,0,0,1,53.617,0Z" transform="translate(0 0)" opacity="0.3" fill="url(#linear-gradient)"/>
  </g>
  <g id="_38" data-name="38" transform="translate(11.351 17.026)">
    <path id="Path" d="M36.658,73.073A36.536,36.536,0,1,0,0,36.536,36.6,36.6,0,0,0,36.658,73.073Z" transform="translate(6.091)" fill="none" stroke="#2a2e38" stroke-linecap="round" stroke-linejoin="round" stroke-miterlimit="10" stroke-width="2" stroke-dasharray="1 6"/>
    <path id="Shape" d="M11.715,3.632,9.088,2.015H2.929A1.426,1.426,0,0,1,1.515,3.029,1.555,1.555,0,0,1,0,1.511,1.549,1.549,0,0,1,1.515,0,1.521,1.521,0,0,1,2.929,1.008H9.392l2.626,1.617H25.146V3.632Z" transform="translate(0 30.733)" fill="#f9ba00"/>
    <path id="Shape-2" data-name="Shape" d="M0,2.526A1.549,1.549,0,0,1,1.515,1.015,1.521,1.521,0,0,1,2.929,2.022h2.12L7.977,0h9.09V1.015H8.281L5.352,3.029H2.929A1.425,1.425,0,0,1,1.515,4.044,1.555,1.555,0,0,1,0,2.526Z" transform="translate(8.079 37.998)" fill="#f9ba00"/>
    <path id="Shape-3" data-name="Shape" d="M0,1.511A1.549,1.549,0,0,1,1.515,0,1.511,1.511,0,0,1,2.929,1.008H15.553V2.015H2.929A1.42,1.42,0,0,1,1.515,3.022,1.484,1.484,0,0,1,0,1.511Z" transform="translate(12.725 18.821)" fill="#f9ba00"/>
    <path id="Shape-4" data-name="Shape" d="M7.786,5.25,6.271,2.015H2.938A1.426,1.426,0,0,1,1.524,3.029,1.431,1.431,0,0,1,.01,1.511,1.549,1.549,0,0,1,1.524,0,1.521,1.521,0,0,1,2.938,1.008H6.877L8.392,4.235H15.36V5.25Z" transform="translate(6.453 23.263)" fill="#f9ba00"/>
    <path id="Shape-5" data-name="Shape" d="M5.768,2.022H2.839A1.428,1.428,0,0,1,1.425,3.029,1.348,1.348,0,0,1,.011,1.518,1.556,1.556,0,0,1,1.526,0,1.518,1.518,0,0,1,2.94,1.015H6.273L9.707,4.441,9,5.25Z" transform="translate(16.955 12.153)" fill="#f9ba00"/>
    <path id="Shape-6" data-name="Shape" d="M0,3.632V2.625H13.128l2.626-1.617h6.464A1.426,1.426,0,0,1,23.631,0a1.549,1.549,0,0,1,1.515,1.511,1.555,1.555,0,0,1-1.515,1.518,1.517,1.517,0,0,1-1.414-1.014h-6.16L13.432,3.632Z" transform="translate(59.987 30.733)" fill="#f9ba00"/>
    <path id="Shape-7" data-name="Shape" d="M14.138,3.029H11.715L8.786,1.015H0V0H9.09l2.928,2.022h2.12a1.428,1.428,0,0,1,1.414-1.008,1.549,1.549,0,0,1,1.515,1.511,1.555,1.555,0,0,1-1.515,1.518A1.518,1.518,0,0,1,14.138,3.029Z" transform="translate(59.987 37.998)" fill="#f9ba00"/>
    <path id="Shape-8" data-name="Shape" d="M12.624,2.015H0V1.008H12.624A1.42,1.42,0,0,1,14.038,0a1.549,1.549,0,0,1,1.515,1.511,1.484,1.484,0,0,1-1.515,1.511A1.512,1.512,0,0,1,12.624,2.015Z" transform="translate(56.856 18.821)" fill="#f9ba00"/>
    <path id="Shape-9" data-name="Shape" d="M0,5.25V4.235H6.968L8.484,1.008h3.938A1.428,1.428,0,0,1,13.836,0,1.549,1.549,0,0,1,15.35,1.511a1.489,1.489,0,0,1-1.515,1.518,1.518,1.518,0,0,1-1.414-1.014H9.09L7.575,5.25Z" transform="translate(63.319 23.263)" fill="#f9ba00"/>
    <path id="Shape-10" data-name="Shape" d="M0,4.441,3.535,1.015H6.868A1.423,1.423,0,0,1,8.281,0,1.556,1.556,0,0,1,9.8,1.518,1.354,1.354,0,0,1,8.281,2.93,1.519,1.519,0,0,1,6.868,1.923H3.939L.707,5.151Z" transform="translate(58.472 12.153)" fill="#f9ba00"/>
    <path id="Path-2" data-name="Path" d="M22.722,52.7a.614.614,0,0,1-.4-.1C18.177,50.179,8.18,43.311,4.544,32.1A117.953,117.953,0,0,1,0,10.8c0-.2.1-.3.1-.4a1.082,1.082,0,0,1,.505-.3c2.02-.1,5.655-1.618,5.756-1.618a57.99,57.99,0,0,0,6.059-3.533C15.754,2.824,20.4,0,22.621,0c2.121,0,6.564,2.824,9.8,4.845A55.113,55.113,0,0,0,38.78,8.478l.2.1A18.115,18.115,0,0,0,44.737,10.1a.774.774,0,0,1,.4.2.4.4,0,0,1,.1.5A118.624,118.624,0,0,1,40.7,32.2C37.264,43.411,27.267,50.179,23.126,52.6A.617.617,0,0,1,22.722,52.7Z" transform="translate(19.895 10.138)" fill="url(#linear-gradient-2)"/>
    <path id="Path-3" data-name="Path" d="M29.186,17.871c-.505,1.518-1.01,2.93-1.515,4.143a4.926,4.926,0,0,1-.3.7A35.555,35.555,0,0,1,16.563,37.359l-1.818-1.816L0,21l4.342-3.427.607-1.213.1-2.327s-.2-8.676-.4-8.982C4.545,4.952,6.464,0,6.464,0L8.786,3.639,10.5,0,27.065,15.856Z" transform="translate(34.639 22.652)" fill="url(#linear-gradient-3)"/>
    <path id="Path-4" data-name="Path" d="M2.02,14.536a1.01,1.01,0,1,1-2.02,0,1.028,1.028,0,0,1,.606-.908V5.151L5.756,0c.3.1.505.206.808.305L1.414,5.456v8.173A.886.886,0,0,1,2.02,14.536Z" transform="translate(38.477 8.116)" fill="#b07a00" opacity="0.2"/>
    <path id="Path-5" data-name="Path" d="M6.867.923a1.012,1.012,0,0,1-1.01,1.015.922.922,0,0,1-.5-.1l.1.1L.707,6.783v5.853a4.666,4.666,0,0,1-.707-.7V6.478L5.05,1.434a.616.616,0,0,1-.1-.4A1.017,1.017,0,0,1,5.959.015C6.464-.084,6.867.32,6.867.923Z" transform="translate(30.498 44.949)" fill="#b07a00" opacity="0.2"/>
    <path id="Path-6" data-name="Path" d="M5.453,1.114a1.011,1.011,0,0,1-1.01,1.007h-.2v.1L.707,5.761v8.073c-.2-.2-.5-.4-.707-.6V5.356L3.737,1.618v-.1c-.1-.206-.2-.305-.2-.5A1.013,1.013,0,0,1,4.545,0,1.326,1.326,0,0,1,5.453,1.114Z" transform="translate(35.649 47.994)" fill="#b07a00" opacity="0.2"/>
    <path id="Path-7" data-name="Path" d="M1.919,1.007a1.019,1.019,0,0,1-.606.908V5.654c-.2-.206-.505-.4-.707-.61V1.915A.881.881,0,0,1,0,1.007,1.011,1.011,0,0,1,1.01,0C1.616,0,1.919.4,1.919,1.007Z" transform="translate(32.518 54.258)" fill="#b07a00" opacity="0.2"/>
    <path id="Path-8" data-name="Path" d="M1.414.206C.909.61.4.915,0,1.213v-.2A1.016,1.016,0,0,1,1.01,0C1.111.106,1.312.106,1.414.206Z" transform="translate(46.959 62.027)" fill="#b07a00" opacity="0.2"/>
    <path id="Path-9" data-name="Path" d="M0,1.007A3.645,3.645,0,0,1,.709,0V9.8C.406,8.081.2,6.463,0,5.151Z" transform="translate(17.671 18.616)" fill="#b07a00" opacity="0.2"/>
    <path id="Path-10" data-name="Path" d="M1.919,1.32A1.011,1.011,0,0,1,.909,2.327h-.2C.505,1.518.2.709,0,0L.505.511A.583.583,0,0,1,.909.4.839.839,0,0,1,1.919,1.32Z" transform="translate(21.207 40.623)" fill="#b07a00" opacity="0.2"/>
    <path id="Path-11" data-name="Path" d="M2.02,17.466a1.01,1.01,0,0,1-2.02,0,.967.967,0,0,1,.707-.908V15.246c.1-1.618.1-3.334.1-4.952V.2A2.605,2.605,0,0,1,1.515,0V10.393c0,1.717-.1,3.334-.1,5.051a5.769,5.769,0,0,1-.1,1.312A.692.692,0,0,1,2.02,17.466Z" transform="translate(22.318 17.105)" fill="#b07a00" opacity="0.2"/>
    <path id="Path-12" data-name="Path" d="M5.655,0V30.8l-.4-.106a.89.89,0,0,0-.909.4v.1L.707,34.834v2.419A7.5,7.5,0,0,1,0,36.047V34.529L3.837,30.69a1.534,1.534,0,0,1,1.212-.7V.4C5.251.305,5.453.1,5.655,0Z" transform="translate(24.944 13.366)" fill="#b07a00" opacity="0.2"/>
    <path id="Path-13" data-name="Path" d="M3.131,1.107c0,.206.1.305.1.5L1.414,3.434a.583.583,0,0,0-.4-.106A1.013,1.013,0,0,0,0,4.342.954.954,0,0,0,1.01,5.349.953.953,0,0,0,2.02,4.342a.6.6,0,0,0-.1-.4L3.837,2.015h.3A1.007,1.007,0,1,0,4.14,0,1.28,1.28,0,0,0,3.131,1.107Z" transform="translate(48.979 43.758)" fill="#b07a00" opacity="0.2"/>
    <path id="Path-14" data-name="Path" d="M7.069.709a4.926,4.926,0,0,1-.3.7H1.918a.885.885,0,0,1-.909.61A1.011,1.011,0,0,1,1.01,0a1.022,1.022,0,0,1,.909.61H7.069Z" transform="translate(55.241 43.957)" fill="#b07a00" opacity="0.2"/>
    <path id="Path-15" data-name="Path" d="M12.017,4.746c-.1.2-.1.5-.2.7H5.049l-.2-.1c-.2-.206-1.01-1.007-1.717-1.717-.909-.908-1.414-1.412-1.717-1.717-.1,0-.3.1-.4.1A1.007,1.007,0,1,1,2.02,1.007a.609.609,0,0,1-.1.4c.2.2,1.01,1.007,1.716,1.717A18.147,18.147,0,0,1,5.251,4.845h6.766Z" transform="translate(51.807 35.479)" fill="#b07a00" opacity="0.2"/>
    <path id="Path-16" data-name="Path" d="M0,1.007A1.016,1.016,0,0,0,1.01,2.022a.585.585,0,0,0,.4-.106L4.746,5.25l.808.709c-.1.2-.2.3-.2.5A1.011,1.011,0,0,0,6.362,7.47a.953.953,0,0,0,1.01-1.007.955.955,0,0,0-1.01-1.015h-.2l-.909-.7L1.918,1.412c0-.1.1-.2.1-.4a1.01,1.01,0,0,0-2.02,0Z" transform="translate(51.201 29.016)" fill="#b07a00" opacity="0.2"/>
    <path id="Path-17" data-name="Path" d="M0,1.107A1.016,1.016,0,0,0,1.01,2.121a.36.36,0,0,0,.3-.106L5.251,5.952a1.1,1.1,0,0,0-.2.61A1.011,1.011,0,0,0,6.059,7.57a.953.953,0,0,0,1.01-1.007.955.955,0,0,0-1.01-1.015h-.2L1.818,1.511a.753.753,0,0,0,.1-.5A1.011,1.011,0,0,0,.909,0,1.2,1.2,0,0,0,0,1.107Z" transform="translate(57.361 28.917)" fill="#b07a00" opacity="0.2"/>
    <path id="Path-18" data-name="Path" d="M13.735.809c0,.206-.1.5-.1.709H1.919a1.071,1.071,0,0,1-.909.5A1.012,1.012,0,0,1,0,1.015.956.956,0,0,1,1.01,0a.972.972,0,0,1,.909.709H13.735Z" transform="translate(53.322 24.774)" fill="#b07a00" opacity="0.2"/>
    <path id="Path-19" data-name="Path" d="M3.332,3.029c-.1.305-.1.61-.2.809L1.312,2.022h-.3a1.011,1.011,0,1,1,1.01-1.007.92.92,0,0,1-.1.5Z" transform="translate(62.512 28.81)" fill="#b07a00" opacity="0.2"/>
    <path id="Path-20" data-name="Path" d="M10.907,0a4.5,4.5,0,0,1-.4.709H4.746L2.121,3.334l-.2-.206a.767.767,0,0,1,.1.5,1.01,1.01,0,1,1-2.02,0A.953.953,0,0,1,1.01,2.625a.747.747,0,0,1,.505.206L4.443,0Z" transform="translate(50.09 47.894)" fill="#b07a00" opacity="0.2"/>
    <path id="Path-21" data-name="Path" d="M8.886.106a1.8,1.8,0,0,1-.505.7H4.544L1.918,3.434a.606.606,0,0,1,.1.4A1.01,1.01,0,1,1,1.01,2.831a.375.375,0,0,1,.3.1L4.241,0H8.886Z" transform="translate(50.797 50.214)" fill="#b07a00" opacity="0.2"/>
    <path id="Path-22" data-name="Path" d="M7.878,1.007A1.011,1.011,0,0,0,6.867,0a.953.953,0,0,0-1.01,1.007v.206L1.414,5.654a.614.614,0,0,0-.4-.1A1.007,1.007,0,1,0,2.02,6.562a.383.383,0,0,0-.1-.305L6.262,1.915c.1.106.3.106.505.106A1.106,1.106,0,0,0,7.878,1.007Z" transform="translate(41.304 56.174)" fill="#b07a00" opacity="0.2"/>
    <path id="Path-23" data-name="Path" d="M7.575,1.015A1.013,1.013,0,0,0,6.564,0a.955.955,0,0,0-1.01,1.015.362.362,0,0,0,.1.3L1.414,5.555a.614.614,0,0,0-.4-.1A1.007,1.007,0,1,0,2.02,6.463a.383.383,0,0,0-.1-.305L6.161,1.923a.614.614,0,0,0,.4.1A.954.954,0,0,0,7.575,1.015Z" transform="translate(41.304 51.023)" fill="#b07a00" opacity="0.2"/>
    <path id="Path-24" data-name="Path" d="M4.443,1.007a1.012,1.012,0,0,1-1.01,1.015c-.2,0-.3,0-.4-.1,0,.1-.1.1-.1.2-.1.1-.2.305-.3.4v.1L.707,4.548v9.287c-.2-.206-.505-.305-.707-.5V4.242L2.121,2.121a.515.515,0,0,0,.2-.4,1.325,1.325,0,0,0,.3-.4c0-.1-.1-.2-.1-.305A1.01,1.01,0,0,1,3.534,0,.927.927,0,0,1,4.443,1.007Z" transform="translate(38.477 50.115)" fill="#b07a00" opacity="0.2"/>
    <path id="Path-25" data-name="Path" d="M6.564,1.007a1.01,1.01,0,0,0-2.02,0,.757.757,0,0,0,.2.5L1.515,4.746a.767.767,0,0,0-.505-.1,1.007,1.007,0,1,0,0,2.015A.954.954,0,0,0,2.02,5.654c0-.206,0-.305-.1-.4l.1.1L5.151,2.221l-.1-.305c.1.106.3.106.505.106A1.017,1.017,0,0,0,6.564,1.007Z" transform="translate(32.72 46.483)" fill="#b07a00" opacity="0.2"/>
    <path id="Path-26" data-name="Path" d="M0,5.853a1.01,1.01,0,1,0,2.02,0c0-.2-.1-.3-.1-.5L4.948,2.32l.2-.2.1-.1h.3A1.011,1.011,0,0,0,5.554,0a.953.953,0,0,0-1.01,1.007.9.9,0,0,0,.1.5l-.1.106c0,.1-.1.1-.1.2L1.313,4.945h-.3A.88.88,0,0,0,0,5.853Z" transform="translate(41.405 40.828)" fill="#b07a00" opacity="0.2"/>
    <path id="Path-27" data-name="Path" d="M2.02,1.015A1.016,1.016,0,0,0,1.01,0,.956.956,0,0,0,0,1.015a1.019,1.019,0,0,0,.606.908c0,2.724-.1,7.371-.1,7.775L.4,10.705,3.535,7.577a.766.766,0,0,0,.5.1A1.012,1.012,0,0,0,5.05,6.669.956.956,0,0,0,4.04,5.654.955.955,0,0,0,3.03,6.669v.2c0,.1-.1.1-.1.206L1.212,8.79c0-1.823.1-5.654.1-6.867A.8.8,0,0,0,2.02,1.015Z" transform="translate(35.144 30.123)" fill="#b07a00" opacity="0.2"/>
    <path id="Path-28" data-name="Path" d="M2.02,1.015A1.016,1.016,0,0,0,1.01,0,.956.956,0,0,0,0,1.015a.973.973,0,0,0,.606.908V15.147A.881.881,0,0,0,0,16.055a1.011,1.011,0,0,0,1.01,1.007.95.95,0,0,0,1.01-1.007,1.019,1.019,0,0,0-.606-.908V1.923A.88.88,0,0,0,2.02,1.015Z" transform="translate(35.144 10.436)" fill="#b07a00" opacity="0.2"/>
    <path id="Path-29" data-name="Path" d="M0,1.015a.967.967,0,0,0,.707.908V4.746A.967.967,0,0,0,0,5.654,1.017,1.017,0,0,0,1.01,6.669.955.955,0,0,0,2.02,5.654a.973.973,0,0,0-.606-.908V1.923a1.165,1.165,0,0,0,.606-.908A1.016,1.016,0,0,0,1.01,0,1.017,1.017,0,0,0,0,1.015Z" transform="translate(41.708 14.373)" fill="#b07a00" opacity="0.2"/>
    <path id="Path-30" data-name="Path" d="M5.554,0V33.926H5.049L.707,38.267v4.54A5.556,5.556,0,0,1,0,41.9V36.65l.606.809,4.14-4.143h.1V.5A4.709,4.709,0,0,1,5.554,0Z" transform="translate(27.772 11.649)" fill="#b07a00" opacity="0.2"/>
    <path id="Path-31" data-name="Path" d="M2.02,17.764a1.017,1.017,0,0,1-1.01,1.014A.93.93,0,0,1,.3,18.474a.924.924,0,0,1-.3-.709.619.619,0,0,1,.1-.4.914.914,0,0,1,.606-.6V.6C.505.6.4.4.3.3a.614.614,0,0,0,.4-.1A7.563,7.563,0,0,0,1.918,0a1.267,1.267,0,0,1-.5.5V16.757A1.228,1.228,0,0,1,2.02,17.764Z" transform="translate(19.693 17.509)" fill="#b07a00" opacity="0.2"/>
    <path id="Path-32" data-name="Path" d="M4.848,26.654l-2.929,2.93v.206A1.011,1.011,0,0,1,.909,30.8a.746.746,0,0,1-.5-.206.91.91,0,0,1-.4-.8v-.206a.986.986,0,0,1,1.01-.809.783.783,0,0,1,.505.206l2.626-2.625V.4c.2-.1.5-.3.707-.4Z" transform="translate(22.722 15.281)" fill="#b07a00" opacity="0.2"/>
    <path id="Path-33" data-name="Path" d="M9.7,1.412H1.919a.886.886,0,0,1-.909.61A1.013,1.013,0,0,1,0,1.007.954.954,0,0,1,1.01,0a1.023,1.023,0,0,1,.909.61H8.484C8.887.908,9.291,1.114,9.7,1.412Z" transform="translate(44.737 12.053)" fill="#b07a00" opacity="0.2"/>
    <path id="Path-34" data-name="Path" d="M15.552,1.32H1.919a.975.975,0,0,1-.909.7A1.011,1.011,0,0,1,1.01,0a1.062,1.062,0,0,1,.909.511H13.936a10.984,10.984,0,0,1,1.111.6C15.249,1.213,15.35,1.32,15.552,1.32Z" transform="translate(44.637 15.281)" fill="#b07a00" opacity="0.2"/>
    <path id="Path-35" data-name="Path" d="M1.01,0A1.012,1.012,0,0,0,0,1.007.953.953,0,0,0,1.01,2.015a1.054,1.054,0,0,0,.909-.5H17.976a.886.886,0,0,0,.909.61,1.013,1.013,0,0,0,1.01-1.015A.953.953,0,0,0,18.885.1a1.029,1.029,0,0,0-.909.6H1.918A.964.964,0,0,0,1.01,0Z" transform="translate(46.556 18.013)" fill="#b07a00" opacity="0.2"/>
    <path id="Path-36" data-name="Path" d="M23.732.709a1.7,1.7,0,0,1-.1.7H1.919a1.161,1.161,0,0,1-.909.61A1.011,1.011,0,0,1,1.01,0a.972.972,0,0,1,.909.709Z" transform="translate(43.829 20.836)" fill="#b07a00" opacity="0.2"/>
    <path id="Path-37" data-name="Path" d="M1.818.908a1.024,1.024,0,0,1-.808.5A1.011,1.011,0,0,1,0,.4.609.609,0,0,1,.1,0C.707.305,1.212.6,1.818.908Z" transform="translate(48.273 9.833)" fill="#b07a00" opacity="0.2"/>
    <path id="Path-38" data-name="Path" d="M0,1.007a.967.967,0,0,0,.707.908V12.926A.967.967,0,0,0,0,13.834a1.01,1.01,0,0,0,2.02,0,.966.966,0,0,0-.606-.908V1.915a1.055,1.055,0,0,0,.505-.908A1.011,1.011,0,0,0,.909,0,1.08,1.08,0,0,0,0,1.007Z" transform="translate(46.151 24.674)" fill="#b07a00" opacity="0.2"/>
    <path id="Path-39" data-name="Path" d="M5.656,1.007a1.019,1.019,0,0,0,.606.908V17.772L1.414,22.617l.1.1a.769.769,0,0,0-.505-.1A1.012,1.012,0,0,0,0,23.624a.954.954,0,0,0,1.01,1.007,1.011,1.011,0,0,0,1.01-1.007.908.908,0,0,0-.1-.5l5.049-5.051V1.915a.88.88,0,0,0,.606-.908A1.01,1.01,0,0,0,6.564,0,.927.927,0,0,0,5.656,1.007Z" transform="translate(43.223 24.674)" fill="#b07a00" opacity="0.2"/>
    <path id="Path-40" data-name="Path" d="M4.039,1.007a1.055,1.055,0,0,0,.505.908V15.948L2.524,17.97c-.2.206-.4.4-.707.709-.2.2-.3.3-.505.5-.1,0-.2-.1-.3-.1A1.011,1.011,0,0,0,0,20.091.953.953,0,0,0,1.01,21.1a1.012,1.012,0,0,0,1.01-1.007c0-.206,0-.305-.1-.4.1-.1.3-.305.4-.4.2-.2.4-.4.707-.709l2.222-2.221V1.915a.967.967,0,0,0,.707-.908A1.01,1.01,0,0,0,4.948,0,.927.927,0,0,0,4.039,1.007Z" transform="translate(39.588 24.674)" fill="#b07a00" opacity="0.2"/>
    <path id="Path-41" data-name="Path" d="M3.131,1.007a1.019,1.019,0,0,0,.606.908V15.147l-2.323,2.32a.614.614,0,0,0-.4-.1A1.012,1.012,0,0,0,0,18.375a.954.954,0,0,0,1.01,1.007,1.011,1.011,0,0,0,1.01-1.007.383.383,0,0,0-.1-.305l2.626-2.625V1.915a.881.881,0,0,0,.606-.908,1.01,1.01,0,0,0-2.02,0Z" transform="translate(37.769 24.674)" fill="#b07a00" opacity="0.2"/>
    <path id="Path-42" data-name="Path" d="M1.616,0c-.2.305-.505.61-.707.908L0,0Z" transform="translate(55.745 53.648)" fill="#b07a00" opacity="0.2"/>
    <path id="Path-43" data-name="Path" d="M3.232.809a4.626,4.626,0,0,0-.707.7H1.818a1.022,1.022,0,0,1-.808.5A1.007,1.007,0,1,1,1.01,0a.882.882,0,0,1,.91.7H3.232Z" transform="translate(50.999 56.479)" fill="#b07a00" opacity="0.2"/>
    <path id="Shape-11" data-name="Shape" d="M4.646,25.54V21.5A35.893,35.893,0,0,0,0,21.4c.3-1.816.4-2.021.505-2.625a.223.223,0,0,1,.2-.206H2.121c.808,0,.909-.2.909-.8v-9.9A1.171,1.171,0,0,0,1.717,6.562H.1V4.136H4.342c.3,0,.3,0,.3-.3V0H7.069V4.037H8.887V0h2.222V3.938c0,.2,0,.2.2.2,2.828.305,5.05,1.213,5.252,3.937a3.526,3.526,0,0,1-.607,2.626,4.258,4.258,0,0,1-1.313,1.114c.707.305,2.525.709,3.131,2.625a5.937,5.937,0,0,1,.1,2.32,5.118,5.118,0,0,1-.909,2.327,5.588,5.588,0,0,1-2.323,1.71,9.832,9.832,0,0,1-3.433.61c-.2,0-.2.1-.2.2V25.44H8.786V21.5H6.968c.1,1.412.1,2.724.1,4.037Z" transform="translate(34.033 22.454)" fill="url(#linear-gradient-4)"/>
    <path id="Shape-12" data-name="Shape" d="M23.565,57.649C15.284,52.8,8.517,45.632,5.589,38.466a4.353,4.353,0,0,1-.4-1.007v-.107C3.77,34.124,1.751,25.44.944,20.9-.773,11.209-.269,10.8,3.467,10A22.622,22.622,0,0,0,9.426,7.875c2.12-1.213,3.938-2.32,5.554-3.334C20.029,1.511,22.554,0,25.18,0c1.616,0,3.333.6,6.16,2.022,1.615.908,3.332,1.915,5.049,3.022C40.227,7.371,44.368,9.9,47.4,9.9A3.431,3.431,0,0,1,49.923,11a3.669,3.669,0,0,1,.807,2.724,4.4,4.4,0,0,1-.1.908A104.467,104.467,0,0,1,46.892,33.01q-.758,2.278-1.515,4.242c-.1.206-.2.5-.3.71A35.553,35.553,0,0,1,34.168,52.7c-.808.7-1.615,1.313-2.827,2.221-3.232,2.32-4.747,3.228-6.059,3.228A3.692,3.692,0,0,1,23.565,57.649Z" transform="translate(17.235 7.612)" fill="url(#linear-gradient-5)"/>
  </g>
</svg>
