<svg id="Features_Icon_07" data-name="Features Icon 07" xmlns="http://www.w3.org/2000/svg" xmlns:xlink="http://www.w3.org/1999/xlink" width="107.542" height="107.628" viewBox="0 0 107.542 107.628">
  <defs>
    <linearGradient id="linear-gradient" x1="0.016" y1="0.494" x2="0.986" y2="0.494" gradientUnits="objectBoundingBox">
      <stop offset="0.003" stop-color="#ffd44f"/>
      <stop offset="1" stop-color="#ffa607"/>
    </linearGradient>
    <linearGradient id="linear-gradient-2" x1="0.5" y1="0.96" x2="0.5" y2="0.112" gradientUnits="objectBoundingBox">
      <stop offset="0.003" stop-color="#323c52" stop-opacity="0"/>
      <stop offset="1" stop-color="#031645"/>
    </linearGradient>
    <radialGradient id="radial-gradient" cx="0.602" cy="0.35" r="0.726" gradientTransform="translate(0.807 -0.332) rotate(62.414)" gradientUnits="objectBoundingBox">
      <stop offset="0" stop-color="#e0e39b"/>
      <stop offset="1" stop-color="#e0e39c" stop-opacity="0"/>
    </radialGradient>
    <linearGradient id="linear-gradient-3" x1="0.834" y1="0.089" x2="0.16" y2="0.87" gradientUnits="objectBoundingBox">
      <stop offset="0" stop-color="#fff"/>
      <stop offset="1" stop-opacity="0"/>
    </linearGradient>
  </defs>
  <g id="_52" data-name="52" transform="translate(12.095 12.095)">
    <path id="Path" d="M40.959,82.958c22.621,0,40.959-18.574,40.959-41.479S63.581,0,40.959,0,0,18.574,0,41.479,18.338,82.958,40.959,82.958Z" transform="translate(2.133)" fill="none" stroke="#2a2e38" stroke-linecap="round" stroke-linejoin="round" stroke-miterlimit="10" stroke-width="2" stroke-dasharray="1 6"/>
    <path id="Path-2" data-name="Path" d="M70.2,35.313a35.546,35.546,0,0,1-7.133,21.344,34.665,34.665,0,0,1-8.827,8.155A34.775,34.775,0,0,1,35.1,70.549,35.275,35.275,0,1,1,54.236,5.673,36.155,36.155,0,0,1,63.063,13.9,35.3,35.3,0,0,1,70.2,35.313Z" transform="translate(7.218 6.166)" fill="#2a2e38"/>
    <path id="Path-3" data-name="Path" d="M1.572,2.351A1.2,1.2,0,1,0,.059,1.577,1.206,1.206,0,0,0,1.572,2.351Z" transform="translate(13.512 3.611)" fill="#2a2e38"/>
    <path id="Path-4" data-name="Path" d="M1.572,2.353A1.2,1.2,0,1,0,.059,1.58,1.206,1.206,0,0,0,1.572,2.353Z" transform="translate(0 43.667)" fill="#2a2e38"/>
    <path id="Path-5" data-name="Path" d="M.926,1.877A.934.934,0,0,0,1.852.935.933.933,0,0,0,.926,0,.933.933,0,0,0,0,.935.934.934,0,0,0,.926,1.877Z" transform="translate(75.577 9.217)" fill="url(#linear-gradient)"/>
    <path id="Path-6" data-name="Path" d="M1.551,1.628A.942.942,0,0,0,1.61.307.919.919,0,0,0,.3.243.951.951,0,0,0,.242,1.572.918.918,0,0,0,1.551,1.628Z" transform="translate(9.577 55.69)" fill="#ffbe2c"/>
    <path id="Path-7" data-name="Path" d="M1.551,1.628A.942.942,0,0,0,1.61.307.919.919,0,0,0,.3.243.943.943,0,0,0,.242,1.565.913.913,0,0,0,1.551,1.628Z" transform="translate(30.763 3.933)" fill="#32d697"/>
    <path id="Path-8" data-name="Path" d="M1.551,1.628A.943.943,0,0,0,1.61.307.92.92,0,0,0,.3.243.951.951,0,0,0,.243,1.572.918.918,0,0,0,1.551,1.628Z" transform="translate(73.135 76.253)" fill="#32d697"/>
    <path id="Path-9" data-name="Path" d="M63.592,66.936a12.208,12.208,0,0,1-.465,1.968,14.071,14.071,0,0,1-8.173,8.12,12.618,12.618,0,0,1-3.155.668c-5.328.366-17.69-7.551-17.69-7.551L31.832,68.8l-2.276,1.343s-12.363,7.916-17.69,7.551a11.46,11.46,0,0,1-4.6-1.294A13.933,13.933,0,0,1,.538,68.9c-1.5-4.3.207-10.552,4.241-18.883s9.983-9.308,13.6-10.187c-.621.155-1.914-.886-2.328-1.2,0,0-.052,0-.052-.049a16.794,16.794,0,0,1-2.483-2.222,22.546,22.546,0,0,1-3.879-5.484,8.437,8.437,0,0,1-.672-4.865,17.164,17.164,0,0,1,.827-3.1c.155-.415.31-.78.465-1.2.311-.773.673-1.6,1.035-2.376q1.086-2.331,2.328-4.5c.569-1.033,1.19-2.067,1.758-3.107C20.349,3,26.557.26,31.884,0c5.328.26,11.483,3,16.449,11.691.569,1.033,1.19,2.067,1.759,3.1.879,1.61,1.758,3.213,2.534,4.914.31.675.569,1.35.879,1.968.207.569.413,1.09.621,1.652A16.762,16.762,0,0,1,54.8,25.97a8.42,8.42,0,0,1-.672,4.858,22.4,22.4,0,0,1-3.88,5.484,17.686,17.686,0,0,1-2.534,2.278c-.465.309-1.758,1.343-2.328,1.188a35.3,35.3,0,0,1,3.879,1.09c.259.1.466.155.725.253,3.052,1.2,6.414,3.522,9,8.9.569,1.188,1.138,2.376,1.6,3.466s.879,2.172,1.293,3.157C63.282,60.728,63.954,64.145,63.592,66.936Z" transform="translate(10.244 1.406)" fill="#1e242d"/>
    <path id="Path-10" data-name="Path" d="M16.6,27.988a14.071,14.071,0,0,1-8.173,8.12,7.559,7.559,0,0,1-2.949-.935c2.845-1.083,4.707-3.979,5.432-6.932a28.587,28.587,0,0,0,.1-9.153c-1.6,2.067-3.259,4.19-4.862,6.257A67.19,67.19,0,0,0,8.535,9.674,10.75,10.75,0,0,1,2.173,12.31,8.221,8.221,0,0,0,4.914,2.482,7.486,7.486,0,0,1,0,6.208C3.311,1.758,2.586.049,2.638,0,5.845,1.139,9.57,3.36,12.363,9.153,16.4,17.435,18.1,23.692,16.6,27.988Z" transform="translate(56.818 42.322)" fill="#484e5e"/>
    <path id="Path-11" data-name="Path" d="M16.418,8.12c-.672-1.188-1.345-2.327-1.965-3.515a6.825,6.825,0,0,0-2.328,4.858A20.125,20.125,0,0,0,12.642,15c-1.5-1.033-3-2.018-4.5-3.051a17.466,17.466,0,0,0,.879,11.79C7.831,22.863,6.693,21.984,5.5,21.1c.621.984,1.293,1.961,1.914,2.946,2.018,3.051,2.328,6.988,3.414,10.4-2.017-1.188-4.035-2.376-6-3.571.828,2.334,1.6,4.661,2.431,6.932A13.934,13.934,0,0,1,.538,30.315c-1.5-4.3.207-10.552,4.241-18.883s9.983-9.308,13.6-10.187c-.621.155-1.914-.886-2.328-1.2A.05.05,0,0,1,16,0a3.338,3.338,0,0,1,.724.049c1.034.056,2.017.211,2.121,1.244A7.141,7.141,0,0,0,16.418,8.12Z" transform="translate(10.296 39.995)" fill="#484e5e"/>
    <path id="Path-12" data-name="Path" d="M23.277,6.454A6.052,6.052,0,0,0,18.207.506a42.879,42.879,0,0,0-13.138,0A6,6,0,0,0,0,6.454V17.217A11.789,11.789,0,0,0,3.517,25.6C4.655,26.68,5.9,27.924,7.087,29.056a6.547,6.547,0,0,0,9.156,0L19.811,25.6a11.673,11.673,0,0,0,3.517-8.38V6.454Z" transform="translate(30.077 13.47)" fill="#fff"/>
    <path id="Path-13" data-name="Path" d="M45.726,11.178H0A17.292,17.292,0,0,1,.827,8.071c.155-.415.311-.773.466-1.188.31-.773.672-1.6,1.034-2.376Q3.414,2.176,4.655,0H41.019c.879,1.61,1.759,3.213,2.534,4.914.311.675.569,1.35.879,1.968.207.569.414,1.09.621,1.652A25.036,25.036,0,0,1,45.726,11.178Z" transform="translate(19.265 16.198)" opacity="0.4" fill="url(#linear-gradient-2)"/>
    <path id="Path-14" data-name="Path" d="M41.226,19.706c-7.759-3.15-22.6-6.566-41.226-.359,1.242-2.636,2.69-5.118,4.087-7.656C9,3,15.208.26,20.536,0c5.328.26,11.483,3,16.449,11.691C38.433,14.279,39.933,16.964,41.226,19.706Z" transform="translate(21.593 1.406)" fill="#484e5e"/>
    <path id="Path-15" data-name="Path" d="M1.552.162V9.1a.8.8,0,0,1-.775.78A.8.8,0,0,1,0,9.1V0H1.552Z" transform="translate(46.991 43.82)" fill="#98a1ab"/>
    <path id="Path-16" data-name="Path" d="M1.552,0V3.832A.8.8,0,0,1,.776,4.6.8.8,0,0,1,0,3.832V0Z" transform="translate(33.283 43.771)" fill="#98a1ab"/>
    <path id="Path-17" data-name="Path" d="M44.181,0H2.386A2.378,2.378,0,0,0,.007,2.538l1.655,24.88A2.543,2.543,0,0,0,4.2,29.794H42.422a2.543,2.543,0,0,0,2.534-2.376l1.656-24.88A2.451,2.451,0,0,0,44.181,0Z" transform="translate(18.67 52.727)" fill="#70778a"/>
    <circle id="Ellipse_273" data-name="Ellipse 273" cx="4.921" cy="4.921" r="4.921" transform="translate(36.949 62.57)" fill="#fff"/>
  </g>
  <g id="Group_1388" data-name="Group 1388">
    <circle id="Ellipse_9" data-name="Ellipse 9" cx="53.771" cy="53.771" r="53.771" transform="translate(0 0.086)" opacity="0.3" fill="url(#radial-gradient)"/>
    <path id="Ellipse_10" data-name="Ellipse 10" d="M53.771.575A53.592,53.592,0,0,0,43.05,1.656a52.9,52.9,0,0,0-19.021,8A53.353,53.353,0,0,0,4.755,33.065a52.924,52.924,0,0,0-3.1,9.985,53.721,53.721,0,0,0,0,21.443,52.9,52.9,0,0,0,8,19.021,53.353,53.353,0,0,0,23.405,19.274,52.924,52.924,0,0,0,9.985,3.1,53.72,53.72,0,0,0,21.443,0,52.9,52.9,0,0,0,19.021-8,53.353,53.353,0,0,0,19.274-23.405,52.924,52.924,0,0,0,3.1-9.985,53.72,53.72,0,0,0,0-21.443,52.9,52.9,0,0,0-8-19.021A53.353,53.353,0,0,0,74.477,4.755a52.924,52.924,0,0,0-9.985-3.1A53.593,53.593,0,0,0,53.771.575m0-.575A53.771,53.771,0,1,1,0,53.771,53.771,53.771,0,0,1,53.771,0Z" transform="translate(0 0)" opacity="0.3" fill="url(#linear-gradient-3)"/>
  </g>
</svg>
