<svg id="Features_Icon_01" data-name="Features Icon 01" xmlns="http://www.w3.org/2000/svg" xmlns:xlink="http://www.w3.org/1999/xlink" width="107.233" height="107.318" viewBox="0 0 107.233 107.318">
  <defs>
    <radialGradient id="radial-gradient" cx="0.602" cy="0.35" r="0.726" gradientTransform="translate(0.807 -0.332) rotate(62.414)" gradientUnits="objectBoundingBox">
      <stop offset="0" stop-color="#e0e39b"/>
      <stop offset="1" stop-color="#e0e39c" stop-opacity="0"/>
    </radialGradient>
    <linearGradient id="linear-gradient" x1="0.834" y1="0.089" x2="0.16" y2="0.87" gradientUnits="objectBoundingBox">
      <stop offset="0" stop-color="#fff"/>
      <stop offset="1" stop-opacity="0"/>
    </linearGradient>
    <linearGradient id="linear-gradient-2" x1="-0.001" y1="0.502" x2="1" y2="0.502" gradientUnits="objectBoundingBox">
      <stop offset="0.003" stop-color="#ffd44f"/>
      <stop offset="1" stop-color="#ffa607"/>
    </linearGradient>
    <linearGradient id="linear-gradient-3" x1="0.263" y1="0.384" x2="0.614" y2="0.676" gradientUnits="objectBoundingBox">
      <stop offset="0" stop-color="#faa404"/>
      <stop offset="1" stop-color="#ff7904" stop-opacity="0"/>
    </linearGradient>
    <linearGradient id="linear-gradient-4" x1="0.5" y1="0.027" x2="0.5" y2="0.942" gradientUnits="objectBoundingBox">
      <stop offset="0" stop-color="#eff2a6"/>
      <stop offset="1" stop-color="#54ff62" stop-opacity="0"/>
    </linearGradient>
    <linearGradient id="linear-gradient-5" x1="0.026" y1="0.561" x2="1.061" y2="0.561" xlink:href="#linear-gradient-2"/>
    <linearGradient id="linear-gradient-6" x1="0.058" y1="0.478" x2="0.946" y2="0.478" xlink:href="#linear-gradient-2"/>
    <linearGradient id="linear-gradient-7" x1="0.063" y1="0.444" x2="1.021" y2="0.444" xlink:href="#linear-gradient-2"/>
    <linearGradient id="linear-gradient-8" x1="0.177" y1="0.55" x2="0.845" y2="0.55" xlink:href="#linear-gradient-2"/>
    <linearGradient id="linear-gradient-9" x1="0.511" y1="0.51" x2="0.597" y2="0.638" xlink:href="#linear-gradient-3"/>
    <linearGradient id="linear-gradient-10" x1="0.499" y1="-0.009" x2="0.499" y2="0.949" gradientUnits="objectBoundingBox">
      <stop offset="0" stop-color="#4de067" stop-opacity="0"/>
      <stop offset="1" stop-color="#eff2a6"/>
    </linearGradient>
  </defs>
  <g id="Group_1392" data-name="Group 1392" transform="translate(-254.924 -5716)">
    <g id="Group_1374" data-name="Group 1374" transform="translate(254.924 5716)">
      <circle id="Ellipse_9" data-name="Ellipse 9" cx="53.617" cy="53.617" r="53.617" transform="translate(0 0.085)" opacity="0.3" fill="url(#radial-gradient)"/>
      <path id="Ellipse_10" data-name="Ellipse 10" d="M53.617.573A53.438,53.438,0,0,0,42.926,1.651,52.75,52.75,0,0,0,23.96,9.632,53.2,53.2,0,0,0,4.742,32.97a52.772,52.772,0,0,0-3.091,9.956,53.566,53.566,0,0,0,0,21.381A52.75,52.75,0,0,0,9.632,83.273,53.2,53.2,0,0,0,32.97,102.492a52.771,52.771,0,0,0,9.956,3.091,53.566,53.566,0,0,0,21.381,0A52.75,52.75,0,0,0,83.273,97.6a53.2,53.2,0,0,0,19.218-23.338,52.771,52.771,0,0,0,3.091-9.956,53.566,53.566,0,0,0,0-21.381A52.75,52.75,0,0,0,97.6,23.96,53.2,53.2,0,0,0,74.263,4.742a52.772,52.772,0,0,0-9.956-3.091A53.438,53.438,0,0,0,53.617.573m0-.573A53.617,53.617,0,1,1,0,53.617,53.617,53.617,0,0,1,53.617,0Z" transform="translate(0 0)" opacity="0.3" fill="url(#linear-gradient)"/>
    </g>
    <g id="_5" data-name="5" transform="translate(270.586 5726.642)">
      <g id="Group_1373" data-name="Group 1373" transform="translate(10.45 0)">
        <path id="Path" d="M55.572,34.138c-2.659,13.174-15.5,21.432-19.936,21.432C15.7,61.371-3.8,43.518.636,22.538A27.892,27.892,0,0,1,33.864.653,28.162,28.162,0,0,1,55.572,34.138Z" transform="translate(0 0)" fill="url(#linear-gradient-2)"/>
        <path id="Path-2" data-name="Path" d="M10.28,3.817A22.074,22.074,0,0,0,.534,18.328c-5.759,28.116,36.773,39.954,44.3,9.379C49.048,7.612,27.118-7.352,10.28,3.817Z" transform="translate(5.418 5.547)" fill="#f9b400"/>
        <path id="Path-3" data-name="Path" d="M35,24.559a18.359,18.359,0,0,1-1.108,3.126c-.222.431-.222.668-.444,1.1-.664,1.337-1.55,2.458-2.214,3.795a5.46,5.46,0,0,1-1.108,1.337,25.132,25.132,0,0,1-7.751,6.037,13.644,13.644,0,0,0-1.772.884,14.811,14.811,0,0,1-2.881.906H17.5l-6.867-6.921V25.9L0,17.4l6.2,1.574S5.981,8.042,5.759,7.805c0-.216,3.323,0,3.323,0,.886-2.889.444-1.1,1.772-7.805Z" transform="translate(17.441 11.348)" fill="url(#linear-gradient-3)"/>
        <path id="Path-4" data-name="Path" d="M21.71,17.637,10.854,24.106,0,17.637,10.854,0Z" transform="translate(17.218 11.348)" fill="#fff"/>
        <path id="Path-5" data-name="Path" d="M21.71,0,10.854,15.179,0,0,10.854,6.253Z" transform="translate(17.218 30.991)" fill="#fff"/>
        <path id="Path-6" data-name="Path" d="M21.71,4.916,10.854,11.385,0,4.916,10.854,0Z" transform="translate(17.218 24.069)" fill="#fdf2c8"/>
        <path id="Path-7" data-name="Path" d="M0,6.253,10.856,0,0,15.179Z" transform="translate(28.073 30.991)" fill="#facd35" opacity="0.3"/>
        <path id="Path-8" data-name="Path" d="M10.856,17.637,0,24.106V0Z" transform="translate(28.073 11.348)" fill="#facd35" opacity="0.3"/>
      </g>
      <path id="Path-9" data-name="Path" d="M4.272,0,0,42.031H66.827L60.332,1.013Z" transform="translate(5.323 43.812)" opacity="0.2" fill="url(#linear-gradient-4)"/>
      <path id="Path-10" data-name="Path" d="M0,.76A12.451,12.451,0,0,0,1.111,0,3.249,3.249,0,0,1,0,.76Z" transform="translate(53.019 51.585)" fill="url(#linear-gradient-5)"/>
      <path id="Path-11" data-name="Path" d="M.079,0c.171.253.427.591.6.844C.506.591.249.253.079,0Z" transform="translate(15.255 44.411)" fill="url(#linear-gradient-6)"/>
      <path id="Path-12" data-name="Path" d="M.018,0A7.319,7.319,0,0,1,.7.844,3.3,3.3,0,0,0,.018,0Z" transform="translate(16.34 45.846)" fill="url(#linear-gradient-7)"/>
      <path id="Path-13" data-name="Path" d="M.139.143.651.65C.48.565.309.312.139.143Z" transform="translate(16.904 46.462)" fill="url(#linear-gradient-8)"/>
      <path id="Path-14" data-name="Path" d="M0,.76A12.45,12.45,0,0,0,1.11,0,2.6,2.6,0,0,1,0,.76Z" transform="translate(53.008 51.576)" fill="url(#linear-gradient-9)"/>
      <path id="Path-15" data-name="Path" d="M56.231,0a27.452,27.452,0,0,1-2.222,9.2c-.257.591-.6,1.266-.855,1.857,0,0-.342.591-.855,1.435-.085.084-.085.169-.17.338H4.016c-.085-.084-.085-.169-.171-.338A29.3,29.3,0,0,1,2.222,9.2,27.836,27.836,0,0,1,0,0Z" transform="translate(10.45 30.223)" opacity="0.5" fill="url(#linear-gradient-10)"/>
      <path id="Path-16" data-name="Path" d="M74.649,3.547H1.261C.552,3.547,0,2.771,0,1.774S.552,0,1.261,0H74.649c.709,0,1.261.776,1.261,1.774S75.358,3.547,74.649,3.547Z" transform="translate(0 41.857)" fill="#eff2a6"/>
      <g id="Group_1378" data-name="Group 1378" transform="translate(10.791 44.993)">
        <path id="Path-17" data-name="Path" d="M6.751,0H0V6.667H6.751Z" fill="#d3d680"/>
        <path id="Path-18" data-name="Path" d="M6.751,0H0V6.667H6.751Z" transform="translate(6.751)" fill="#eff2a6"/>
        <path id="Path-19" data-name="Path" d="M6.751,0H0V6.667H6.751Z" transform="translate(13.502)" fill="#d3d680"/>
        <path id="Path-20" data-name="Path" d="M6.751,0H0V6.667H6.751Z" transform="translate(20.34)" fill="#eff2a6"/>
        <path id="Path-21" data-name="Path" d="M6.751,0H0V6.667H6.751Z" transform="translate(27.09)" fill="#d3d680"/>
        <path id="Path-22" data-name="Path" d="M6.751,0H0V6.667H6.751Z" transform="translate(33.841)" fill="#eff2a6"/>
        <path id="Path-23" data-name="Path" d="M6.751,0H0V6.667H6.751Z" transform="translate(40.678)" fill="#d3d680"/>
        <path id="Path-24" data-name="Path" d="M6.751,0H0V6.667H6.751Z" transform="translate(47.429)" fill="#d3d680"/>
        <path id="Path-25" data-name="Path" d="M6.751,0H0V6.668H6.751Z" transform="translate(4.53 7.849)" fill="#d1d578"/>
        <path id="Path-26" data-name="Path" d="M6.751,0H0V6.667H6.751Z" transform="translate(13.331 6.921)" fill="#eff2a6"/>
        <path id="Path-27" data-name="Path" d="M6.751,0H0V6.667H6.751Z" transform="translate(20.34 6.667)" fill="#d3d680"/>
        <path id="Path-28" data-name="Path" d="M6.751,0H0V6.668H6.751Z" transform="translate(27.09 7.174)" fill="#eff2a6"/>
        <path id="Path-29" data-name="Path" d="M6.751,0H0V6.668H6.751Z" transform="translate(33.841 7.174)" fill="#eff2a6"/>
        <path id="Path-30" data-name="Path" d="M6.751,0H0V6.667H6.751Z" transform="translate(41.277 6.667)" fill="#eff2a6"/>
        <path id="Path-31" data-name="Path" d="M6.751,0H0V6.667H6.751Z" transform="translate(16.92 14.263)" fill="#eff2a6"/>
        <path id="Path-32" data-name="Path" d="M6.751,0H0V6.667H6.751Z" transform="translate(27.859 13.841)" fill="#d3d680"/>
        <path id="Path-33" data-name="Path" d="M3.76,0H0V3.713H3.76Z" transform="translate(2.649 24.307)" fill="#eff2a6"/>
        <path id="Path-34" data-name="Path" d="M3.76,0H0V3.714H3.76Z" transform="translate(6.238 27.936)" fill="#eff2a6"/>
        <path id="Path-35" data-name="Path" d="M5.3,0H0V5.233H5.3Z" transform="translate(9.485 18.905)" fill="#eff2a6"/>
        <path id="Path-36" data-name="Path" d="M4.956,0H0V4.9H4.956Z" transform="translate(21.109 21.606)" fill="#eff2a6" opacity="0.5"/>
        <path id="Path-37" data-name="Path" d="M3.76,0H0V3.713H3.76Z" transform="translate(12.989 24.982)" fill="#eff2a6"/>
        <path id="Path-38" data-name="Path" d="M3.76,0H0V3.714H3.76Z" transform="translate(16.066 32.409)" fill="#eff2a6"/>
        <path id="Path-39" data-name="Path" d="M5.811,0H0V5.739H5.811Z" transform="translate(27.944 22.281)" fill="#eff2a6"/>
        <path id="Path-40" data-name="Path" d="M5.383,0H0V5.317H5.383Z" transform="translate(35.892 20.509)" fill="#d3d680"/>
        <path id="Path-41" data-name="Path" d="M3.76,0H0V3.713H3.76Z" transform="translate(23.843 31.819)" fill="#eff2a6" opacity="0.3"/>
        <path id="Path-42" data-name="Path" d="M3.76,0H0V3.714H3.76Z" transform="translate(27.517 35.532)" fill="#eff2a6" opacity="0.5"/>
        <path id="Path-43" data-name="Path" d="M3.76,0H0V3.713H3.76Z" transform="translate(35.379 28.442)" fill="#eff2a6"/>
        <path id="Path-44" data-name="Path" d="M3.76,0H0V3.713H3.76Z" transform="translate(42.815 31.819)" fill="#eff2a6" opacity="0.3"/>
        <path id="Path-45" data-name="Path" d="M3.76,0H0V3.714H3.76Z" transform="translate(44.01 16.12)" fill="#eff2a6"/>
        <path id="Path-46" data-name="Path" d="M3.761,0H0V3.714H3.761Z" transform="translate(51.188 25.404)" fill="#eff2a6" opacity="0.2"/>
      </g>
      <path id="Path-47" data-name="Path" d="M.439.44A.084.084,0,0,0,.525.525Z" transform="translate(14.369 43.202)" fill="#07d661"/>
      <path id="Path-48" data-name="Path" d="M.079,0c.171.253.427.591.6.844C.506.591.249.253.079,0Z" transform="translate(15.243 44.402)" fill="#07d661"/>
      <path id="Path-49" data-name="Path" d="M.018,0A7.466,7.466,0,0,1,.7.844C.445.506.189.253.018,0Z" transform="translate(16.414 45.837)" fill="#07d661"/>
      <path id="Path-50" data-name="Path" d="M.139.143.651.649A1.443,1.443,0,0,1,.139.143Z" transform="translate(16.892 46.454)" fill="#07d661"/>
      <path id="Path-51" data-name="Path" d="M0,.76A12.45,12.45,0,0,0,1.11,0,2.6,2.6,0,0,1,0,.76Z" transform="translate(53.008 51.576)" fill="#07d661"/>
      <path id="Path-52" data-name="Path" d="M0,.928C.342.591.684.338,1.026,0A10.2,10.2,0,0,1,0,.928Z" transform="translate(57.451 48.2)" fill="#07d661"/>
      <path id="Path-53" data-name="Path" d="M.677,0C.591.084.506.253.42.338.335.506.164.591.079.76A1.828,1.828,0,0,0,.42.338,1.155,1.155,0,0,0,.677,0Z" transform="translate(59.424 46.344)" fill="#07d661"/>
    </g>
  </g>
</svg>
