<svg id="Features_Icon_02" data-name="Features Icon 02" xmlns="http://www.w3.org/2000/svg" xmlns:xlink="http://www.w3.org/1999/xlink" width="107.233" height="107.318" viewBox="0 0 107.233 107.318">
  <defs>
    <radialGradient id="radial-gradient" cx="0.602" cy="0.35" r="0.726" gradientTransform="translate(0.807 -0.332) rotate(62.414)" gradientUnits="objectBoundingBox">
      <stop offset="0" stop-color="#e0e39b"/>
      <stop offset="1" stop-color="#e0e39c" stop-opacity="0"/>
    </radialGradient>
    <linearGradient id="linear-gradient" x1="0.834" y1="0.089" x2="0.16" y2="0.87" gradientUnits="objectBoundingBox">
      <stop offset="0" stop-color="#fff"/>
      <stop offset="1" stop-opacity="0"/>
    </linearGradient>
    <linearGradient id="linear-gradient-2" x1="-0.062" y1="0.489" x2="0.989" y2="0.489" gradientUnits="objectBoundingBox">
      <stop offset="0.003" stop-color="#ffd44f"/>
      <stop offset="1" stop-color="#ffa607"/>
    </linearGradient>
    <linearGradient id="linear-gradient-3" x1="0.986" y1="0.772" x2="0.164" y2="0.24" xlink:href="#linear-gradient-2"/>
    <linearGradient id="linear-gradient-4" x1="0.98" y1="0.507" x2="-0.01" y2="0.507" gradientUnits="objectBoundingBox">
      <stop offset="0" stop-color="#ff66a9"/>
      <stop offset="1" stop-color="#f53689"/>
    </linearGradient>
    <linearGradient id="linear-gradient-5" x1="1.019" y1="0.499" x2="-0.018" y2="0.499" xlink:href="#linear-gradient-4"/>
    <linearGradient id="linear-gradient-6" x1="1.018" y1="0.5" x2="-0.019" y2="0.5" xlink:href="#linear-gradient-4"/>
    <linearGradient id="linear-gradient-7" x1="1.018" y1="0.502" x2="-0.019" y2="0.502" xlink:href="#linear-gradient-4"/>
    <linearGradient id="linear-gradient-8" x1="1.017" y1="0.498" x2="-0.019" y2="0.498" xlink:href="#linear-gradient-4"/>
    <linearGradient id="linear-gradient-9" x1="1.017" y1="0.518" x2="-0.02" y2="0.518" xlink:href="#linear-gradient-4"/>
    <linearGradient id="linear-gradient-10" x1="0.998" y1="0.502" x2="0.008" y2="0.502" xlink:href="#linear-gradient-4"/>
    <linearGradient id="linear-gradient-11" x1="0.998" y1="0.514" x2="0.008" y2="0.514" xlink:href="#linear-gradient-4"/>
    <linearGradient id="linear-gradient-12" x1="1.017" y1="0.47" x2="-0.02" y2="0.47" xlink:href="#linear-gradient-4"/>
    <linearGradient id="linear-gradient-13" x1="1.015" y1="0.485" x2="-0.021" y2="0.485" xlink:href="#linear-gradient-4"/>
    <linearGradient id="linear-gradient-14" x1="1.015" y1="0.516" x2="-0.022" y2="0.516" xlink:href="#linear-gradient-4"/>
    <linearGradient id="linear-gradient-15" x1="1.014" y1="0.504" x2="-0.023" y2="0.504" xlink:href="#linear-gradient-4"/>
    <linearGradient id="linear-gradient-16" x1="0.954" y1="-0.008" x2="0.645" y2="0.399" gradientUnits="objectBoundingBox">
      <stop offset="0.003" stop-color="#f9bc05"/>
      <stop offset="1" stop-color="#a7aec0"/>
    </linearGradient>
    <linearGradient id="linear-gradient-17" x1="0.615" y1="-0.603" x2="0.523" y2="0.288" gradientUnits="objectBoundingBox">
      <stop offset="0.003" stop-color="#c5d0e2"/>
      <stop offset="1" stop-color="#a7aec0"/>
    </linearGradient>
    <linearGradient id="linear-gradient-18" x1="-0.028" y1="0.482" x2="1.011" y2="0.482" xlink:href="#linear-gradient-2"/>
    <linearGradient id="linear-gradient-19" x1="0.021" y1="0.478" x2="1.026" y2="0.478" xlink:href="#linear-gradient-2"/>
    <linearGradient id="linear-gradient-20" x1="-0.026" y1="0.511" x2="0.98" y2="0.511" xlink:href="#linear-gradient-2"/>
    <linearGradient id="linear-gradient-21" x1="0.02" y1="0.468" x2="0.964" y2="0.468" xlink:href="#linear-gradient-2"/>
    <linearGradient id="linear-gradient-22" x1="0.051" y1="0.269" x2="0.933" y2="0.741" xlink:href="#linear-gradient-2"/>
    <linearGradient id="linear-gradient-23" x1="0.38" y1="0.318" x2="0.546" y2="0.739" gradientUnits="objectBoundingBox">
      <stop offset="0" stop-color="#faa404"/>
      <stop offset="1" stop-color="#ff7904" stop-opacity="0"/>
    </linearGradient>
    <linearGradient id="linear-gradient-24" x1="0.627" y1="1.109" x2="0.415" y2="0.13" gradientUnits="objectBoundingBox">
      <stop offset="0" stop-color="#ffe491"/>
      <stop offset="1" stop-color="#fff"/>
    </linearGradient>
    <linearGradient id="linear-gradient-25" x1="-0.001" y1="0.502" x2="1" y2="0.502" xlink:href="#linear-gradient-2"/>
    <linearGradient id="linear-gradient-26" x1="0.263" y1="0.384" x2="0.614" y2="0.676" xlink:href="#linear-gradient-23"/>
  </defs>
  <g id="Group_1393" data-name="Group 1393" transform="translate(-629 -5716)">
    <g id="Group_1375" data-name="Group 1375" transform="translate(629 5716)">
      <circle id="Ellipse_9" data-name="Ellipse 9" cx="53.617" cy="53.617" r="53.617" transform="translate(0 0.085)" opacity="0.3" fill="url(#radial-gradient)"/>
      <path id="Ellipse_10" data-name="Ellipse 10" d="M53.617.573A53.438,53.438,0,0,0,42.926,1.651,52.75,52.75,0,0,0,23.96,9.632,53.2,53.2,0,0,0,4.742,32.97a52.772,52.772,0,0,0-3.091,9.956,53.566,53.566,0,0,0,0,21.381A52.75,52.75,0,0,0,9.632,83.273,53.2,53.2,0,0,0,32.97,102.492a52.771,52.771,0,0,0,9.956,3.091,53.566,53.566,0,0,0,21.381,0A52.75,52.75,0,0,0,83.273,97.6a53.2,53.2,0,0,0,19.218-23.338,52.771,52.771,0,0,0,3.091-9.956,53.566,53.566,0,0,0,0-21.381A52.75,52.75,0,0,0,97.6,23.96,53.2,53.2,0,0,0,74.263,4.742a52.772,52.772,0,0,0-9.956-3.091A53.438,53.438,0,0,0,53.617.573m0-.573A53.617,53.617,0,1,1,0,53.617,53.617,53.617,0,0,1,53.617,0Z" transform="translate(0 0)" opacity="0.3" fill="url(#linear-gradient)"/>
    </g>
    <g id="_9" data-name="9" transform="translate(640.351 5732.317)">
      <path id="Path" d="M2.126,3.185a1.631,1.631,0,0,0-1-3.1,1.631,1.631,0,0,0,1,3.1Z" transform="translate(4.875 22.717)" fill="#2a2e38"/>
      <path id="Path-2" data-name="Path" d="M1.1,1.656A.848.848,0,0,0,.583.042.848.848,0,0,0,1.1,1.656Z" transform="translate(10.385 10.778)" fill="#2a2e38"/>
      <path id="Path-3" data-name="Path" d="M.389.783A.392.392,0,1,0,0,.392.391.391,0,0,0,.389.783Z" transform="translate(5.195 49.422)" fill="url(#linear-gradient-2)"/>
      <path id="Path-4" data-name="Path" d="M.52,1.044A.522.522,0,1,0,0,.522.521.521,0,0,0,.52,1.044Z" transform="translate(76.171 44.786)" fill="url(#linear-gradient-3)"/>
      <path id="Path-5" data-name="Path" d="M4.132,4.312a2.49,2.49,0,0,0,.157-3.5A2.458,2.458,0,0,0,.8.649,2.491,2.491,0,0,0,.646,4.155,2.459,2.459,0,0,0,4.132,4.312Z" transform="translate(74.821 26.5)" fill="#2a2e38"/>
      <path id="Path-6" data-name="Path" d="M32.273,64.894A32.448,32.448,0,1,0,0,32.447,32.361,32.361,0,0,0,32.273,64.894Z" transform="translate(7.858 9.597)" fill="#2a2e38"/>
      <path id="Path-7" data-name="Path" d="M68.184,0V1.763A2.989,2.989,0,0,1,65.132,4.7H3.052A2.989,2.989,0,0,1,0,1.763V0Z" transform="translate(5.844 64.176)" fill="#102030"/>
      <path id="Path-8" data-name="Path" d="M61.236,41.2H0V2.219A2.2,2.2,0,0,1,2.208,0H58.963a2.2,2.2,0,0,1,2.208,2.219Z" transform="translate(9.286 22.981)" fill="#464d5f"/>
      <path id="Path-9" data-name="Path" d="M54.418.326A.3.3,0,0,0,54.158,0H50.521a.3.3,0,0,0-.26.326V.587H0v.458H50.2v.261a.3.3,0,0,0,.26.326h3.637a.3.3,0,0,0,.26-.326V.326Z" transform="translate(12.727 27.224)" fill="#617081" opacity="0.6"/>
      <path id="Path-10" data-name="Path" d="M54.418.326A.3.3,0,0,0,54.158,0H50.521a.3.3,0,0,0-.26.326V.587H0v.457H50.2v.261a.3.3,0,0,0,.26.326h3.637a.3.3,0,0,0,.26-.326V.326Z" transform="translate(12.727 35.124)" fill="#617081" opacity="0.6"/>
      <path id="Path-11" data-name="Path" d="M54.418.326A.3.3,0,0,0,54.158,0H50.521a.3.3,0,0,0-.26.326V.587H0v.458H50.2v.261a.3.3,0,0,0,.26.326h3.637a.3.3,0,0,0,.26-.326V.326Z" transform="translate(12.727 42.958)" fill="#617081" opacity="0.6"/>
      <path id="Path-12" data-name="Path" d="M54.418.326A.3.3,0,0,0,54.158,0H50.521a.3.3,0,0,0-.26.326V.587H0v.458H50.2v.261a.3.3,0,0,0,.26.326h3.637a.3.3,0,0,0,.26-.326V.326Z" transform="translate(12.727 50.858)" fill="#617081" opacity="0.6"/>
      <path id="Path-13" data-name="Path" d="M0,1.5H1.428V0H0Z" transform="translate(53.382 48.278)" fill="#fc564e"/>
      <path id="Path-14" data-name="Path" d="M0,1.5H1.429V0H0Z" transform="translate(63.509 43.546)" fill="url(#linear-gradient-4)"/>
      <path id="Path-15" data-name="Path" d="M0,5.942H1.364V0H0Z" transform="translate(51.43 43.676)" fill="#35e09d"/>
      <path id="Path-16" data-name="Path" d="M0,2.35H1.364V0H0Z" transform="translate(49.418 41.326)" fill="#35e09d"/>
      <path id="Path-17" data-name="Path" d="M0,1.436H1.364V0H0Z" transform="translate(47.404 41.326)" fill="url(#linear-gradient-5)"/>
      <path id="Path-18" data-name="Path" d="M0,2.285H1.364V0H0Z" transform="translate(45.392 42.632)" fill="url(#linear-gradient-6)"/>
      <path id="Path-19" data-name="Path" d="M0,3.525H1.364V0H0Z" transform="translate(43.378 41.457)" fill="#35e09d"/>
      <path id="Path-20" data-name="Path" d="M0,1.045H1.364V0H0Z" transform="translate(41.365 40.542)" fill="url(#linear-gradient-7)"/>
      <path id="Path-21" data-name="Path" d="M0,3.265H1.364V0H0Z" transform="translate(39.352 37.213)" fill="#35e09d"/>
      <path id="Path-22" data-name="Path" d="M0,2.35H1.364V0H0Z" transform="translate(37.339 38.192)" fill="url(#linear-gradient-8)"/>
      <path id="Path-23" data-name="Path" d="M0,1.045H1.364V0H0Z" transform="translate(35.326 36.887)" fill="url(#linear-gradient-9)"/>
      <path id="Path-24" data-name="Path" d="M0,4.7H1.364V0H0Z" transform="translate(33.313 32.317)" fill="#35e09d"/>
      <path id="Path-25" data-name="Path" d="M0,0H1.429V3.2H0Z" transform="translate(61.496 41.587)" fill="#35e09d"/>
      <path id="Path-26" data-name="Path" d="M0,0H1.429V2.416H0Z" transform="translate(59.482 41.457)" fill="url(#linear-gradient-10)"/>
      <path id="Path-27" data-name="Path" d="M0,0H1.428V1.044H0Z" transform="translate(57.47 44.068)" fill="url(#linear-gradient-11)"/>
      <path id="Path-28" data-name="Path" d="M0,0H1.429V4.766H0Z" transform="translate(55.456 44.982)" fill="#35e09d"/>
      <path id="Path-29" data-name="Path" d="M0,.693H1.364V.04H0Z" transform="translate(31.3 32.277)" fill="url(#linear-gradient-12)"/>
      <path id="Path-30" data-name="Path" d="M0,1.24H1.364V0H0Z" transform="translate(29.286 32.97)" fill="#35e09d"/>
      <path id="Path-31" data-name="Path" d="M0,3.264H1.364V0H0Z" transform="translate(27.274 30.946)" fill="#35e09d"/>
      <path id="Path-32" data-name="Path" d="M0,1.24H1.364V0H0Z" transform="translate(25.26 30.946)" fill="url(#linear-gradient-13)"/>
      <path id="Path-33" data-name="Path" d="M0,.979H1.364V0H0Z" transform="translate(23.248 30.946)" fill="#35e09d"/>
      <path id="Path-34" data-name="Path" d="M0,5.745H1.364V0H0Z" transform="translate(21.234 30.946)" fill="#35e09d"/>
      <path id="Path-35" data-name="Path" d="M0,5.81H1.364V0H0Z" transform="translate(19.222 36.365)" fill="#35e09d"/>
      <path id="Path-36" data-name="Path" d="M0,1.306H1.364V0H0Z" transform="translate(17.208 42.762)" fill="url(#linear-gradient-14)"/>
      <path id="Path-37" data-name="Path" d="M0,3.526H1.364V0H0Z" transform="translate(15.196 40.542)" fill="#35e09d"/>
      <path id="Path-38" data-name="Path" d="M0,2.35H1.364V0H0Z" transform="translate(13.182 38.258)" fill="url(#linear-gradient-15)"/>
      <path id="Path-39" data-name="Path" d="M68.184,0a2.988,2.988,0,0,1-3.052,2.938H3.052A2.988,2.988,0,0,1,0,0H28.053a1.772,1.772,0,0,0,1.624,1.11h8.767A1.645,1.645,0,0,0,40.066,0Z" transform="translate(5.844 64.176)" fill="#464d5f"/>
      <path id="Path-40" data-name="Path" d="M8.623,26.245a.588.588,0,0,0-.714-.392c-4.74.848-12.013,1.371-5-4.374C9.792,15.8,15.637,7.377,19.6.653a3.635,3.635,0,0,0,.26-.523c.065-.065.065-.131.13-.131a.237.237,0,0,1,.194.065,7.079,7.079,0,0,0,3.442,1.828.14.14,0,0,1,.13.131.4.4,0,0,1-.065.261,3.556,3.556,0,0,0-.26.522c-3.442,6.986-7.4,16.453-8.442,25.331C13.883,37.148,10.507,30.75,8.623,26.245Z" transform="translate(33.066 28.138)" fill="url(#linear-gradient-16)"/>
      <path id="Path-41" data-name="Path" d="M8.9,25.462c-.519-.914-1.818.848-2.663-1.175l-2.6-.98-.974-.914C.52,22.785,1.039,20.5,0,20.565c.13-.131.26-.2.389-.326C7.273,14.559,12.988,6.464,16.949,0l.2.131c-3.312,6.79-7.078,16.061-8.117,24.94A.705.705,0,0,0,8.9,25.462Z" transform="translate(36.819 31.402)" fill="#fff"/>
      <path id="Path-42" data-name="Path" d="M11.559,5.81a5.808,5.808,0,0,1-5.78,5.81,5.718,5.718,0,0,1-4.091-1.7A5.823,5.823,0,0,1,5.779,0,5.3,5.3,0,0,1,8.247.587,5.8,5.8,0,0,1,11.559,5.81Z" transform="translate(15.325 45.047)" fill="#74849b"/>
      <path id="Path-43" data-name="Path" d="M9.935,4.635a5.808,5.808,0,0,1-5.779,5.81,6.186,6.186,0,0,1-2.467-.522A5.823,5.823,0,0,1,5.779,0,5.3,5.3,0,0,1,8.247.587,5.521,5.521,0,0,1,9.935,4.635Z" transform="translate(15.325 45.112)" fill="#a7aec0"/>
      <path id="Path-44" data-name="Path" d="M11.559,5.81a5.808,5.808,0,0,1-5.78,5.811,5.721,5.721,0,0,1-4.091-1.7A6.018,6.018,0,0,1,0,5.81,5.808,5.808,0,0,1,5.779,0,5.3,5.3,0,0,1,8.247.587,5.662,5.662,0,0,1,11.559,5.81Z" transform="translate(19.481 43.676)" fill="#74849b"/>
      <path id="Path-45" data-name="Path" d="M9.936,4.635a5.808,5.808,0,0,1-5.78,5.81,6.188,6.188,0,0,1-2.467-.522A6.018,6.018,0,0,1,0,5.81,5.808,5.808,0,0,1,5.779,0,5.3,5.3,0,0,1,8.247.587,5.521,5.521,0,0,1,9.936,4.635Z" transform="translate(19.481 43.676)" fill="#a7aec0"/>
      <path id="Path-46" data-name="Path" d="M7.663,3.852A3.793,3.793,0,0,1,3.831,7.638,4.111,4.111,0,0,1,1.1,6.528,3.707,3.707,0,0,1,0,3.852,3.848,3.848,0,0,1,3.831,0,3.5,3.5,0,0,1,5.454.392,3.765,3.765,0,0,1,7.663,3.852Z" transform="translate(29.677 48.638)" fill="#74849b"/>
      <path id="Path-47" data-name="Path" d="M6.494,3.134A3.779,3.779,0,0,1,2.728,6.921,3.507,3.507,0,0,1,1.1,6.529,3.709,3.709,0,0,1,0,3.852,3.849,3.849,0,0,1,3.832,0,3.506,3.506,0,0,1,5.455.392,4.449,4.449,0,0,1,6.494,3.134Z" transform="translate(29.741 48.573)" fill="#a7aec0"/>
      <path id="Path-48" data-name="Path" d="M7.663,3.852A3.794,3.794,0,0,1,3.831,7.639,4.112,4.112,0,0,1,1.1,6.528,3.706,3.706,0,0,1,0,3.852,3.848,3.848,0,0,1,3.831,0,3.509,3.509,0,0,1,5.455.392,3.911,3.911,0,0,1,7.663,3.852Z" transform="translate(47.729 48.312)" fill="#74849b"/>
      <path id="Path-49" data-name="Path" d="M6.494,3.134A3.779,3.779,0,0,1,2.728,6.92,3.509,3.509,0,0,1,1.1,6.528,3.709,3.709,0,0,1,0,3.852,3.848,3.848,0,0,1,3.832,0,3.5,3.5,0,0,1,5.455.392,3.974,3.974,0,0,1,6.494,3.134Z" transform="translate(47.794 48.312)" fill="#a7aec0"/>
      <path id="Path-50" data-name="Path" d="M10.779,5.484A5.391,5.391,0,0,1,5.39,10.9,5.18,5.18,0,0,1,1.559,9.27,5.441,5.441,0,0,1,0,5.419,5.391,5.391,0,0,1,5.39,0,5.578,5.578,0,0,1,7.727.522,5.677,5.677,0,0,1,10.779,5.484Z" transform="translate(51.625 45.831)" fill="#74849b"/>
      <path id="Path-51" data-name="Path" d="M9.287,4.374A5.391,5.391,0,0,1,3.9,9.793a5.578,5.578,0,0,1-2.338-.522A5.441,5.441,0,0,1,0,5.419,5.391,5.391,0,0,1,5.39,0,5.567,5.567,0,0,1,7.728.523,5.44,5.44,0,0,1,9.287,4.374Z" transform="translate(51.56 45.895)" fill="#a7aec0"/>
      <path id="Path-52" data-name="Path" d="M11.559,5.81a5.808,5.808,0,0,1-5.78,5.81,5.718,5.718,0,0,1-4.091-1.7A5.823,5.823,0,0,1,5.779,0,5.292,5.292,0,0,1,8.247.587,5.625,5.625,0,0,1,11.559,5.81Z" transform="translate(25.651 50.205)" fill="#74849b"/>
      <path id="Path-53" data-name="Path" d="M9.935,4.635a5.808,5.808,0,0,1-5.779,5.811,6.186,6.186,0,0,1-2.467-.523A5.823,5.823,0,0,1,5.779,0,5.292,5.292,0,0,1,8.247.587,5.742,5.742,0,0,1,9.935,4.635Z" transform="translate(25.651 50.205)" fill="#a7aec0"/>
      <path id="Path-54" data-name="Path" d="M11.558,5.81a5.808,5.808,0,0,1-5.779,5.81,5.723,5.723,0,0,1-4.091-1.7A5.824,5.824,0,0,1,5.779,0,5.294,5.294,0,0,1,8.247.587,5.661,5.661,0,0,1,11.558,5.81Z" transform="translate(41.365 50.988)" fill="#74849b"/>
      <path id="Path-55" data-name="Path" d="M9.936,4.635a5.808,5.808,0,0,1-5.78,5.81,6.188,6.188,0,0,1-2.467-.522A5.823,5.823,0,0,1,5.78,0,5.3,5.3,0,0,1,8.247.587,5.282,5.282,0,0,1,9.936,4.635Z" transform="translate(41.3 50.988)" fill="url(#linear-gradient-17)"/>
      <path id="Path-56" data-name="Path" d="M11.559,5.81a5.808,5.808,0,0,1-5.78,5.811,5.721,5.721,0,0,1-4.091-1.7A5.525,5.525,0,0,1,0,5.81,5.808,5.808,0,0,1,5.779,0,5.292,5.292,0,0,1,8.247.587,5.8,5.8,0,0,1,11.559,5.81Z" transform="translate(12.988 51.837)" fill="#74849b"/>
      <path id="Path-57" data-name="Path" d="M9.87,4.635a5.808,5.808,0,0,1-5.78,5.81,6.188,6.188,0,0,1-2.467-.522A5.73,5.73,0,0,1,0,5.81,5.808,5.808,0,0,1,5.779,0,5.292,5.292,0,0,1,8.247.587,5.687,5.687,0,0,1,9.87,4.635Z" transform="translate(12.988 51.837)" fill="#74849b"/>
      <path id="Path-58" data-name="Path" d="M11.559,5.81a5.808,5.808,0,0,1-5.779,5.81,5.723,5.723,0,0,1-4.091-1.7A5.823,5.823,0,0,1,5.78,0,5.294,5.294,0,0,1,8.247.587,5.8,5.8,0,0,1,11.559,5.81Z" transform="translate(45.001 51.902)" fill="#74849b"/>
      <path id="Path-59" data-name="Path" d="M9.935,4.635a5.808,5.808,0,0,1-5.779,5.811,6.18,6.18,0,0,1-2.468-.523A5.823,5.823,0,0,1,5.779,0,5.294,5.294,0,0,1,8.247.587,5.517,5.517,0,0,1,9.935,4.635Z" transform="translate(45.002 51.967)" fill="#74849b"/>
      <path id="Path-60" data-name="Path" d="M11.559,5.81a5.808,5.808,0,0,1-5.78,5.81,5.72,5.72,0,0,1-4.091-1.7A5.823,5.823,0,0,1,5.779,0,5.292,5.292,0,0,1,8.247.587,5.693,5.693,0,0,1,11.559,5.81Z" transform="translate(32.729 51.315)" fill="#74849b"/>
      <path id="Path-61" data-name="Path" d="M9.935,4.635a5.808,5.808,0,0,1-5.779,5.81,6.186,6.186,0,0,1-2.467-.522A5.823,5.823,0,0,1,5.779,0,5.292,5.292,0,0,1,8.247.587,5.742,5.742,0,0,1,9.935,4.635Z" transform="translate(32.729 51.315)" fill="#a7aec0"/>
      <path id="Path-62" data-name="Path" d="M7.663,3.918A3.848,3.848,0,0,1,3.832,7.769,3.89,3.89,0,0,1,0,3.852,3.849,3.849,0,0,1,3.832,0,3.315,3.315,0,0,1,5.455.392,3.932,3.932,0,0,1,7.663,3.918Z" transform="translate(49.223 53.077)" fill="#74849b"/>
      <path id="Path-63" data-name="Path" d="M6.559,3.134A3.848,3.848,0,0,1,2.728,6.986,3.323,3.323,0,0,1,1.1,6.594,3.859,3.859,0,0,1,0,3.852,3.849,3.849,0,0,1,3.832,0,3.315,3.315,0,0,1,5.455.392,4.156,4.156,0,0,1,6.559,3.134Z" transform="translate(49.223 53.077)" fill="#a7aec0"/>
      <path id="Path-64" data-name="Path" d="M7.663,3.918A3.849,3.849,0,0,1,3.831,7.769,3.89,3.89,0,0,1,0,3.852,3.848,3.848,0,0,1,3.831,0,3.323,3.323,0,0,1,5.455.392,3.935,3.935,0,0,1,7.663,3.918Z" transform="translate(57.6 57.19)" fill="#74849b"/>
      <path id="Path-65" data-name="Path" d="M6.559,3.134A3.849,3.849,0,0,1,2.727,6.986,3.322,3.322,0,0,1,1.1,6.594,3.86,3.86,0,0,1,0,3.852,3.848,3.848,0,0,1,3.831,0,3.323,3.323,0,0,1,5.455.392,3.859,3.859,0,0,1,6.559,3.134Z" transform="translate(57.6 57.19)" fill="#74849b"/>
      <path id="Path-66" data-name="Path" d="M7.663,3.917A3.849,3.849,0,0,1,3.831,7.769,3.891,3.891,0,0,1,0,3.852,3.848,3.848,0,0,1,3.831,0,3.323,3.323,0,0,1,5.455.392,4.01,4.01,0,0,1,7.663,3.917Z" transform="translate(8.637 56.146)" fill="#74849b"/>
      <path id="Path-67" data-name="Path" d="M6.559,3.134A3.849,3.849,0,0,1,2.727,6.985,3.322,3.322,0,0,1,1.1,6.594,3.859,3.859,0,0,1,0,3.852,3.848,3.848,0,0,1,3.831,0,3.323,3.323,0,0,1,5.455.392,4.156,4.156,0,0,1,6.559,3.134Z" transform="translate(8.637 56.146)" fill="#a7aec0"/>
      <path id="Path-68" data-name="Path" d="M7.663,3.918A3.849,3.849,0,0,1,3.831,7.769,3.89,3.89,0,0,1,0,3.852,3.849,3.849,0,0,1,3.831,0,3.318,3.318,0,0,1,5.454.392,3.935,3.935,0,0,1,7.663,3.918Z" transform="translate(8.962 52.489)" fill="#74849b"/>
      <path id="Path-69" data-name="Path" d="M6.558,3.134A3.849,3.849,0,0,1,2.727,6.986,3.318,3.318,0,0,1,1.1,6.594,3.859,3.859,0,0,1,0,3.852,3.849,3.849,0,0,1,3.831,0,3.318,3.318,0,0,1,5.454.392,4.155,4.155,0,0,1,6.558,3.134Z" transform="translate(8.962 52.489)" fill="#a7aec0"/>
      <path id="Path-70" data-name="Path" d="M7.663,3.917A3.849,3.849,0,0,1,3.832,7.769,3.891,3.891,0,0,1,0,3.852,3.849,3.849,0,0,1,3.832,0,3.322,3.322,0,0,1,5.455.392,3.823,3.823,0,0,1,7.663,3.917Z" transform="translate(60.781 51.184)" fill="#74849b"/>
      <path id="Path-71" data-name="Path" d="M6.558,3.134A3.849,3.849,0,0,1,2.727,6.986,3.311,3.311,0,0,1,1.1,6.594,3.858,3.858,0,0,1,0,3.852,3.848,3.848,0,0,1,3.831,0,3.318,3.318,0,0,1,5.454.392,4.154,4.154,0,0,1,6.558,3.134Z" transform="translate(60.847 51.184)" fill="#74849b"/>
      <path id="Path-72" data-name="Path" d="M8.312,4.179A4.2,4.2,0,0,1,4.156,8.357a3.905,3.905,0,0,1-2.922-1.24A4.33,4.33,0,0,1,0,4.179,4.2,4.2,0,0,1,4.156,0,3.852,3.852,0,0,1,5.91.392,4.023,4.023,0,0,1,8.312,4.179Z" transform="translate(53.378 54.579)" fill="#74849b"/>
      <path id="Path-73" data-name="Path" d="M7.143,3.329A4.2,4.2,0,0,1,2.987,7.508a3.852,3.852,0,0,1-1.754-.392A4.33,4.33,0,0,1,0,4.179,4.2,4.2,0,0,1,4.156,0,3.852,3.852,0,0,1,5.91.392,4.167,4.167,0,0,1,7.143,3.329Z" transform="translate(53.378 54.579)" fill="#74849b"/>
      <path id="Path-74" data-name="Path" d="M8.312,4.178A4.2,4.2,0,0,1,4.156,8.357,3.9,3.9,0,0,1,1.234,7.116,4.325,4.325,0,0,1,0,4.178,4.2,4.2,0,0,1,4.156,0,3.852,3.852,0,0,1,5.91.392,4.126,4.126,0,0,1,8.312,4.178Z" transform="translate(65.782 55.297)" fill="#74849b"/>
      <path id="Path-75" data-name="Path" d="M7.143,3.329A4.2,4.2,0,0,1,2.987,7.507a3.852,3.852,0,0,1-1.754-.392A4.325,4.325,0,0,1,0,4.178,4.2,4.2,0,0,1,4.156,0,3.852,3.852,0,0,1,5.91.392,3.945,3.945,0,0,1,7.143,3.329Z" transform="translate(65.782 55.297)" fill="#a7aec0"/>
      <path id="Path-76" data-name="Path" d="M9.481,4.766A4.78,4.78,0,0,1,4.74,9.532,4.594,4.594,0,0,1,1.364,8.1,4.7,4.7,0,0,1,0,4.766,4.78,4.78,0,0,1,4.74,0,5.053,5.053,0,0,1,6.754.458,4.778,4.778,0,0,1,9.481,4.766Z" transform="translate(21.689 52.946)" fill="#74849b"/>
      <path id="Path-77" data-name="Path" d="M8.117,3.787a4.78,4.78,0,0,1-4.74,4.765A5.065,5.065,0,0,1,1.364,8.1,4.7,4.7,0,0,1,0,4.766,4.78,4.78,0,0,1,4.74,0,5.065,5.065,0,0,1,6.754.457,4.7,4.7,0,0,1,8.117,3.787Z" transform="translate(21.689 53.012)" fill="#a7aec0"/>
      <path id="Path-78" data-name="Path" d="M8.117,4.047A4.083,4.083,0,0,1,1.169,6.986,4.113,4.113,0,0,1,4.091,0,3.849,3.849,0,0,1,5.844.392,4.04,4.04,0,0,1,8.117,4.047Z" transform="translate(16.949 56.211)" fill="#74849b"/>
      <path id="Path-79" data-name="Path" d="M7.013,3.264A4.085,4.085,0,0,1,2.922,7.377a3.85,3.85,0,0,1-1.754-.392A4.113,4.113,0,0,1,4.091,0,3.852,3.852,0,0,1,5.844.392,4,4,0,0,1,7.013,3.264Z" transform="translate(16.884 56.211)" fill="#74849b"/>
      <path id="Path-80" data-name="Path" d="M8.117,4.048A4.083,4.083,0,0,1,1.168,6.986,4.114,4.114,0,0,1,4.091,0,3.854,3.854,0,0,1,5.844.392,3.931,3.931,0,0,1,8.117,4.048Z" transform="translate(10.91 56.864)" fill="#74849b"/>
      <path id="Path-81" data-name="Path" d="M7.013,3.264A4.085,4.085,0,0,1,2.922,7.377a3.85,3.85,0,0,1-1.754-.392A4.114,4.114,0,0,1,4.091,0,3.854,3.854,0,0,1,5.844.392,4,4,0,0,1,7.013,3.264Z" transform="translate(10.91 56.864)" fill="#a7aec0"/>
      <path id="Path-82" data-name="Path" d="M11.558,5.81a5.808,5.808,0,0,1-5.779,5.81,5.721,5.721,0,0,1-4.091-1.7A5.823,5.823,0,0,1,5.779,0,5.294,5.294,0,0,1,8.247.587,5.731,5.731,0,0,1,11.558,5.81Z" transform="translate(24.806 53.535)" fill="#74849b"/>
      <path id="Path-83" data-name="Path" d="M9.935,4.635a5.808,5.808,0,0,1-5.779,5.811,6.18,6.18,0,0,1-2.468-.523A5.823,5.823,0,0,1,5.779,0,5.294,5.294,0,0,1,8.247.587,5.627,5.627,0,0,1,9.935,4.635Z" transform="translate(24.806 53.535)" fill="#a7aec0"/>
      <path id="Path-84" data-name="Path" d="M11.559,5.81a5.808,5.808,0,0,1-5.779,5.81,5.722,5.722,0,0,1-4.091-1.7A5.823,5.823,0,0,1,5.78,0,5.294,5.294,0,0,1,8.247.587,5.8,5.8,0,0,1,11.559,5.81Z" transform="translate(9.546 51.054)" fill="#74849b"/>
      <path id="Path-85" data-name="Path" d="M9.936,4.635a5.808,5.808,0,0,1-5.78,5.811,6.179,6.179,0,0,1-2.467-.523A5.823,5.823,0,0,1,5.78,0,5.294,5.294,0,0,1,8.247.587,5.517,5.517,0,0,1,9.936,4.635Z" transform="translate(9.546 51.119)" fill="#a7aec0"/>
      <path id="Path-86" data-name="Path" d="M11.559,5.81a5.808,5.808,0,0,1-5.779,5.81,5.723,5.723,0,0,1-4.091-1.7A5.823,5.823,0,0,1,5.78,0,5.294,5.294,0,0,1,8.247.587,5.8,5.8,0,0,1,11.559,5.81Z" transform="translate(32.209 53.339)" fill="#74849b"/>
      <path id="Path-87" data-name="Path" d="M9.936,4.635a5.808,5.808,0,0,1-5.779,5.811,6.192,6.192,0,0,1-2.468-.523A5.823,5.823,0,0,1,5.78,0,5.294,5.294,0,0,1,8.247.587,5.517,5.517,0,0,1,9.936,4.635Z" transform="translate(32.209 53.404)" fill="#a7aec0"/>
      <path id="Path-88" data-name="Path" d="M8.052,4.047A4.036,4.036,0,0,1,1.169,6.921,4.113,4.113,0,0,1,0,4.047,4.057,4.057,0,0,1,4.026,0,3.772,3.772,0,0,1,5.715.392,3.95,3.95,0,0,1,8.052,4.047Z" transform="translate(40.845 56.668)" fill="#74849b"/>
      <path id="Path-89" data-name="Path" d="M6.883,3.264A4.058,4.058,0,0,1,2.857,7.312a3.777,3.777,0,0,1-1.688-.392A4.116,4.116,0,0,1,0,4.047,4.057,4.057,0,0,1,4.026,0,3.772,3.772,0,0,1,5.715.392,4.111,4.111,0,0,1,6.883,3.264Z" transform="translate(40.911 56.668)" fill="#a7aec0"/>
      <path id="Path-90" data-name="Path" d="M8.052,4.047A4.036,4.036,0,0,1,1.169,6.92,4.11,4.11,0,0,1,0,4.047,4.057,4.057,0,0,1,4.026,0,3.772,3.772,0,0,1,5.715.392,3.95,3.95,0,0,1,8.052,4.047Z" transform="translate(5.519 56.929)" fill="#74849b"/>
      <path id="Path-91" data-name="Path" d="M6.883,3.264A4.058,4.058,0,0,1,2.857,7.312a3.774,3.774,0,0,1-1.688-.392A4.115,4.115,0,0,1,0,4.048,4.058,4.058,0,0,1,4.026,0,3.774,3.774,0,0,1,5.715.392,4.233,4.233,0,0,1,6.883,3.264Z" transform="translate(5.585 56.864)" fill="#a7aec0"/>
      <path id="Path-92" data-name="Path" d="M8.052,4.048A4.037,4.037,0,0,1,1.168,6.921,4.111,4.111,0,0,1,0,4.048,4.058,4.058,0,0,1,4.026,0,3.766,3.766,0,0,1,5.715.392,3.986,3.986,0,0,1,8.052,4.048Z" transform="translate(49.418 56.537)" fill="#74849b"/>
      <path id="Path-93" data-name="Path" d="M6.883,3.264A4.058,4.058,0,0,1,2.857,7.312,3.766,3.766,0,0,1,1.168,6.92,4.109,4.109,0,0,1,0,4.047,4.057,4.057,0,0,1,4.026,0,3.774,3.774,0,0,1,5.715.392,3.954,3.954,0,0,1,6.883,3.264Z" transform="translate(49.418 56.472)" fill="#a7aec0"/>
      <path id="Path-94" data-name="Path" d="M8.052,4.047A4.036,4.036,0,0,1,1.169,6.92,4.11,4.11,0,0,1,0,4.047,4.057,4.057,0,0,1,4.026,0,3.772,3.772,0,0,1,5.715.392,4.132,4.132,0,0,1,8.052,4.047Z" transform="translate(65.782 56.015)" fill="#74849b"/>
      <path id="Path-95" data-name="Path" d="M6.884,3.264A4.058,4.058,0,0,1,2.858,7.312,3.773,3.773,0,0,1,1.169,6.92,4.11,4.11,0,0,1,0,4.047,4.057,4.057,0,0,1,4.026,0,3.772,3.772,0,0,1,5.715.392,4.233,4.233,0,0,1,6.884,3.264Z" transform="translate(65.782 56.015)" fill="#74849b"/>
      <path id="Path-96" data-name="Path" d="M8.052,4.047A4.036,4.036,0,0,1,1.169,6.92,4.11,4.11,0,0,1,0,4.047,4.057,4.057,0,0,1,4.026,0,3.772,3.772,0,0,1,5.715.392,3.95,3.95,0,0,1,8.052,4.047Z" transform="translate(58.508 53.339)" fill="#74849b"/>
      <path id="Path-97" data-name="Path" d="M6.883,3.264A4.058,4.058,0,0,1,2.857,7.312,3.768,3.768,0,0,1,1.168,6.92,4.113,4.113,0,0,1,0,4.047,4.057,4.057,0,0,1,4.026,0,3.772,3.772,0,0,1,5.715.392,4.111,4.111,0,0,1,6.883,3.264Z" transform="translate(58.574 53.339)" fill="#a7aec0"/>
      <path id="Path-98" data-name="Path" d="M8.052,4.047A4.036,4.036,0,0,1,1.168,6.92,4.109,4.109,0,0,1,0,4.047,4.056,4.056,0,0,1,4.026,0,3.771,3.771,0,0,1,5.714.392,3.884,3.884,0,0,1,8.052,4.047Z" transform="translate(63.769 49.095)" fill="#74849b"/>
      <path id="Path-99" data-name="Path" d="M6.884,3.264A4.058,4.058,0,0,1,2.858,7.312a3.772,3.772,0,0,1-1.688-.392A4.113,4.113,0,0,1,0,4.048,4.058,4.058,0,0,1,4.026,0,3.772,3.772,0,0,1,5.715.392,4.234,4.234,0,0,1,6.884,3.264Z" transform="translate(63.833 49.03)" fill="#a7aec0"/>
      <path id="Path-100" data-name="Path" d="M5.52,2.807A2.779,2.779,0,0,1,2.728,5.615,2.584,2.584,0,0,1,.78,4.766,2.665,2.665,0,0,1,0,2.807,2.779,2.779,0,0,1,2.792,0,2.216,2.216,0,0,1,3.962.261,2.87,2.87,0,0,1,5.52,2.807Z" transform="translate(40.845 58.301)" fill="#74849b"/>
      <path id="Path-101" data-name="Path" d="M4.74,2.22A2.779,2.779,0,0,1,1.948,5.027,2.213,2.213,0,0,1,.78,4.766,2.665,2.665,0,0,1,0,2.807,2.779,2.779,0,0,1,2.792,0,2.216,2.216,0,0,1,3.962.261,2.948,2.948,0,0,1,4.74,2.22Z" transform="translate(40.845 58.301)" fill="#a7aec0"/>
      <path id="Path-102" data-name="Path" d="M5.519,2.807A2.779,2.779,0,0,1,2.727,5.615,2.587,2.587,0,0,1,.779,4.766,2.666,2.666,0,0,1,0,2.807,2.779,2.779,0,0,1,2.792,0,2.213,2.213,0,0,1,3.961.261,2.8,2.8,0,0,1,5.519,2.807Z" transform="translate(11.299 46.679)" fill="#74849b"/>
      <path id="Path-103" data-name="Path" d="M4.74,2.22A2.779,2.779,0,0,1,1.948,5.027,2.216,2.216,0,0,1,.779,4.766,2.666,2.666,0,0,1,0,2.807,2.779,2.779,0,0,1,2.792,0,2.213,2.213,0,0,1,3.961.261,2.823,2.823,0,0,1,4.74,2.22Z" transform="translate(11.299 46.679)" fill="#a7aec0"/>
      <path id="Path-104" data-name="Path" d="M5.52,2.807A2.779,2.779,0,0,1,2.728,5.615,2.584,2.584,0,0,1,.78,4.766,2.664,2.664,0,0,1,0,2.807,2.779,2.779,0,0,1,2.792,0,2.216,2.216,0,0,1,3.962.261,2.871,2.871,0,0,1,5.52,2.807Z" transform="translate(27.923 46.353)" fill="#74849b"/>
      <path id="Path-105" data-name="Path" d="M4.74,2.22A2.779,2.779,0,0,1,1.948,5.027,2.213,2.213,0,0,1,.78,4.766,2.665,2.665,0,0,1,0,2.807,2.779,2.779,0,0,1,2.792,0,2.216,2.216,0,0,1,3.962.261,2.822,2.822,0,0,1,4.74,2.22Z" transform="translate(27.923 46.418)" fill="#a7aec0"/>
      <path id="Path-106" data-name="Path" d="M5.52,2.807A2.779,2.779,0,0,1,2.728,5.615,2.585,2.585,0,0,1,.78,4.766,2.665,2.665,0,0,1,0,2.807,2.78,2.78,0,0,1,2.792,0,2.216,2.216,0,0,1,3.962.261,2.871,2.871,0,0,1,5.52,2.807Z" transform="translate(70.327 54.448)" fill="#74849b"/>
      <path id="Path-107" data-name="Path" d="M4.74,2.22A2.779,2.779,0,0,1,1.948,5.027,2.215,2.215,0,0,1,.78,4.766,2.668,2.668,0,0,1,0,2.807,2.779,2.779,0,0,1,2.792,0,2.216,2.216,0,0,1,3.962.261,2.822,2.822,0,0,1,4.74,2.22Z" transform="translate(70.327 54.514)" fill="#a7aec0"/>
      <path id="Path-108" data-name="Path" d="M5.519,2.807A2.779,2.779,0,0,1,2.727,5.615,2.587,2.587,0,0,1,.779,4.766,2.666,2.666,0,0,1,0,2.807,2.779,2.779,0,0,1,2.792,0,2.213,2.213,0,0,1,3.961.261,2.8,2.8,0,0,1,5.519,2.807Z" transform="translate(21.884 56.733)" fill="#74849b"/>
      <path id="Path-109" data-name="Path" d="M4.74,2.22A2.78,2.78,0,0,1,1.948,5.027,2.216,2.216,0,0,1,.779,4.766,2.666,2.666,0,0,1,0,2.807,2.779,2.779,0,0,1,2.792,0,2.213,2.213,0,0,1,3.961.261,2.823,2.823,0,0,1,4.74,2.22Z" transform="translate(21.884 56.733)" fill="#a7aec0"/>
      <path id="Path-110" data-name="Path" d="M5.52,2.807A2.779,2.779,0,0,1,2.728,5.615,2.583,2.583,0,0,1,.78,4.765,2.665,2.665,0,0,1,0,2.807,2.779,2.779,0,0,1,2.792,0,2.216,2.216,0,0,1,3.962.261,2.87,2.87,0,0,1,5.52,2.807Z" transform="translate(2.857 58.431)" fill="#74849b"/>
      <path id="Path-111" data-name="Path" d="M4.74,2.22A2.779,2.779,0,0,1,1.948,5.027,2.215,2.215,0,0,1,.78,4.766,2.665,2.665,0,0,1,0,2.807,2.78,2.78,0,0,1,2.792,0,2.216,2.216,0,0,1,3.962.261,2.824,2.824,0,0,1,4.74,2.22Z" transform="translate(2.857 58.496)" fill="#a7aec0"/>
      <path id="Path-112" data-name="Path" d="M5.52,2.807A2.779,2.779,0,0,1,2.728,5.615,2.582,2.582,0,0,1,.78,4.765,2.662,2.662,0,0,1,0,2.807,2.779,2.779,0,0,1,2.792,0,2.216,2.216,0,0,1,3.962.261,2.87,2.87,0,0,1,5.52,2.807Z" transform="translate(4.545 56.146)" fill="#74849b"/>
      <path id="Path-113" data-name="Path" d="M4.74,2.22A2.779,2.779,0,0,1,1.948,5.027,2.213,2.213,0,0,1,.78,4.766,2.663,2.663,0,0,1,0,2.807,2.779,2.779,0,0,1,2.792,0,2.209,2.209,0,0,1,3.962.262,2.821,2.821,0,0,1,4.74,2.22Z" transform="translate(4.545 56.211)" fill="#a7aec0"/>
      <path id="Path-114" data-name="Path" d="M5.519,2.808A2.779,2.779,0,0,1,2.727,5.615,2.587,2.587,0,0,1,.779,4.766,2.664,2.664,0,0,1,0,2.808,2.779,2.779,0,0,1,2.792,0,2.2,2.2,0,0,1,3.961.262,2.868,2.868,0,0,1,5.519,2.808Z" transform="translate(14.611 55.101)" fill="#74849b"/>
      <path id="Path-115" data-name="Path" d="M4.74,2.22A2.779,2.779,0,0,1,1.948,5.027,2.216,2.216,0,0,1,.779,4.766,2.666,2.666,0,0,1,0,2.807,2.779,2.779,0,0,1,2.792,0,2.212,2.212,0,0,1,3.961.261,2.823,2.823,0,0,1,4.74,2.22Z" transform="translate(14.611 55.166)" fill="#a7aec0"/>
      <path id="Path-116" data-name="Path" d="M2.338,1.176A1.167,1.167,0,0,1,1.169,2.35a1.23,1.23,0,0,1-.844-.326A1.243,1.243,0,0,1,0,1.176,1.167,1.167,0,0,1,1.169,0a1.525,1.525,0,0,1,.519.131A1.164,1.164,0,0,1,2.338,1.176Z" transform="translate(57.859 51.706)" fill="#74849b"/>
      <path id="Path-117" data-name="Path" d="M2.013.979A1.168,1.168,0,0,1,.844,2.155a1.517,1.517,0,0,1-.519-.131A1.243,1.243,0,0,1,0,1.176,1.167,1.167,0,0,1,1.169,0a1.525,1.525,0,0,1,.519.131A1.246,1.246,0,0,1,2.013.979Z" transform="translate(57.859 51.706)" fill="#a7aec0"/>
      <path id="Path-118" data-name="Path" d="M2.338,1.175A1.168,1.168,0,0,1,1.168,2.35a1.233,1.233,0,0,1-.844-.327A1.246,1.246,0,0,1,0,1.175,1.167,1.167,0,0,1,1.168,0a1.517,1.517,0,0,1,.519.131A1.163,1.163,0,0,1,2.338,1.175Z" transform="translate(74.743 60.912)" fill="#74849b"/>
      <path id="Path-119" data-name="Path" d="M2.013.979A1.167,1.167,0,0,1,.844,2.154a1.525,1.525,0,0,1-.52-.131A1.246,1.246,0,0,1,0,1.175,1.167,1.167,0,0,1,1.168,0a1.517,1.517,0,0,1,.519.131A1.243,1.243,0,0,1,2.013.979Z" transform="translate(74.743 60.912)" fill="#a7aec0"/>
      <path id="Path-120" data-name="Path" d="M2.338,1.176A1.167,1.167,0,0,1,1.168,2.35a1.233,1.233,0,0,1-.844-.326A1.246,1.246,0,0,1,0,1.176,1.167,1.167,0,0,1,1.168,0a1.517,1.517,0,0,1,.519.131A1.164,1.164,0,0,1,2.338,1.176Z" transform="translate(46.236 52.489)" fill="#74849b"/>
      <path id="Path-121" data-name="Path" d="M2.013.98A1.167,1.167,0,0,1,.844,2.155a1.525,1.525,0,0,1-.52-.131A1.246,1.246,0,0,1,0,1.176,1.167,1.167,0,0,1,1.168,0a1.517,1.517,0,0,1,.519.131A1.245,1.245,0,0,1,2.013.98Z" transform="translate(46.236 52.489)" fill="#a7aec0"/>
      <path id="Path-122" data-name="Path" d="M2.338,1.176A1.167,1.167,0,0,1,1.169,2.35a1.23,1.23,0,0,1-.844-.326A1.243,1.243,0,0,1,0,1.176,1.168,1.168,0,0,1,1.169,0a1.525,1.525,0,0,1,.519.131A1.3,1.3,0,0,1,2.338,1.176Z" transform="translate(19.871 60.128)" fill="#74849b"/>
      <path id="Path-123" data-name="Path" d="M2.013.98A1.167,1.167,0,0,1,.844,2.155a1.517,1.517,0,0,1-.519-.131A1.243,1.243,0,0,1,0,1.176,1.168,1.168,0,0,1,1.169,0a1.525,1.525,0,0,1,.519.131A1.246,1.246,0,0,1,2.013.98Z" transform="translate(19.871 60.128)" fill="#a7aec0"/>
      <path id="Path-124" data-name="Path" d="M2.338,1.176A1.167,1.167,0,0,1,1.168,2.35a1.231,1.231,0,0,1-.844-.326A1.246,1.246,0,0,1,0,1.176,1.167,1.167,0,0,1,1.168,0a1.517,1.517,0,0,1,.519.131A1.1,1.1,0,0,1,2.338,1.176Z" transform="translate(23.573 50.139)" fill="#ea8600"/>
      <path id="Path-125" data-name="Path" d="M2.013.979A1.167,1.167,0,0,1,.844,2.154a1.525,1.525,0,0,1-.519-.131A1.246,1.246,0,0,1,0,1.175,1.167,1.167,0,0,1,1.168,0a1.517,1.517,0,0,1,.519.131A1.377,1.377,0,0,1,2.013.979Z" transform="translate(23.573 50.075)" fill="#f5c902"/>
      <path id="Path-126" data-name="Path" d="M2.4,1.176A1.167,1.167,0,0,1,1.234,2.35a1.231,1.231,0,0,1-.844-.326A1.055,1.055,0,0,1,0,1.176,1.167,1.167,0,0,1,1.169,0a1.525,1.525,0,0,1,.519.131A1.15,1.15,0,0,1,2.4,1.176Z" transform="translate(0 59.28)" fill="#74849b"/>
      <path id="Path-127" data-name="Path" d="M2.078.914A1.167,1.167,0,0,1,.909,2.089a1.525,1.525,0,0,1-.519-.131A.856.856,0,0,1,0,1.176,1.167,1.167,0,0,1,1.169,0a1.525,1.525,0,0,1,.519.131A1.141,1.141,0,0,1,2.078.914Z" transform="translate(0 59.28)" fill="#a7aec0"/>
      <path id="Path-128" data-name="Path" d="M1.039.522a.513.513,0,0,1-.519.522A.919.919,0,0,1,.13.914.7.7,0,0,1,0,.522.513.513,0,0,1,.519,0a.488.488,0,0,1,.26.065A.55.55,0,0,1,1.039.522Z" transform="translate(61.496 48.573)" fill="#74849b"/>
      <path id="Path-129" data-name="Path" d="M.909.457A.513.513,0,0,1,.389.979.489.489,0,0,1,.13.914.7.7,0,0,1,0,.522.513.513,0,0,1,.519,0a.488.488,0,0,1,.26.065A.926.926,0,0,1,.909.457Z" transform="translate(61.496 48.507)" fill="#a7aec0"/>
      <path id="Path-130" data-name="Path" d="M1.039.522a.513.513,0,0,1-.519.522A.922.922,0,0,1,.13.914.705.705,0,0,1,0,.522.513.513,0,0,1,.52,0,.489.489,0,0,1,.78.065.55.55,0,0,1,1.039.522Z" transform="translate(75.912 51.315)" fill="#74849b"/>
      <path id="Path-131" data-name="Path" d="M.91.457A.513.513,0,0,1,.39.979.49.49,0,0,1,.13.914.705.705,0,0,1,0,.522.513.513,0,0,1,.52,0,.489.489,0,0,1,.78.065.936.936,0,0,1,.91.457Z" transform="translate(75.912 51.249)" fill="#a7aec0"/>
      <path id="Path-132" data-name="Path" d="M1.039.522a.513.513,0,0,1-.52.522A.919.919,0,0,1,.13.914.705.705,0,0,1,0,.522.513.513,0,0,1,.519,0,.49.49,0,0,1,.78.065.55.55,0,0,1,1.039.522Z" transform="translate(14.871 56.472)" fill="#74849b"/>
      <path id="Path-133" data-name="Path" d="M.91.457a.513.513,0,0,1-.52.522A.489.489,0,0,1,.13.914.705.705,0,0,1,0,.522.513.513,0,0,1,.519,0,.49.49,0,0,1,.78.065.936.936,0,0,1,.91.457Z" transform="translate(14.871 56.472)" fill="#a7aec0"/>
      <path id="Path-134" data-name="Path" d="M1.039.522a.514.514,0,0,1-.52.522A.919.919,0,0,1,.13.914.705.705,0,0,1,0,.522.513.513,0,0,1,.519,0a.488.488,0,0,1,.26.065A.551.551,0,0,1,1.039.522Z" transform="translate(64.678 55.885)" fill="#74849b"/>
      <path id="Path-135" data-name="Path" d="M.909.457A.513.513,0,0,1,.389.979.489.489,0,0,1,.13.914.705.705,0,0,1,0,.522.513.513,0,0,1,.519,0a.488.488,0,0,1,.26.065A.552.552,0,0,1,.909.457Z" transform="translate(64.678 55.885)" fill="#a7aec0"/>
      <path id="Path-136" data-name="Path" d="M.91.457A.445.445,0,0,1,.455.914.5.5,0,0,1,.13.783.5.5,0,0,1,0,.457.445.445,0,0,1,.455,0,.237.237,0,0,1,.649.065.44.44,0,0,1,.91.457Z" transform="translate(15.845 48.246)" fill="#74849b"/>
      <path id="Path-137" data-name="Path" d="M.78.392A.445.445,0,0,1,.325.848.238.238,0,0,1,.13.783.5.5,0,0,1,0,.457.445.445,0,0,1,.455,0,.237.237,0,0,1,.649.065.5.5,0,0,1,.78.392Z" transform="translate(15.845 48.246)" fill="#a7aec0"/>
      <path id="Path-138" data-name="Path" d="M.909.457A.445.445,0,0,1,.455.914.5.5,0,0,1,.13.783.5.5,0,0,1,0,.457.445.445,0,0,1,.455,0,.237.237,0,0,1,.649.065.537.537,0,0,1,.909.457Z" transform="translate(0.585 54.187)" fill="#74849b"/>
      <path id="Path-139" data-name="Path" d="M.779.392A.445.445,0,0,1,.325.848.238.238,0,0,1,.13.783.5.5,0,0,1,0,.457.445.445,0,0,1,.455,0,.237.237,0,0,1,.649.065.5.5,0,0,1,.779.392Z" transform="translate(0.585 54.187)" fill="#a7aec0"/>
      <path id="Path-140" data-name="Path" d="M11.559,5.81a5.808,5.808,0,0,1-5.78,5.81,5.718,5.718,0,0,1-4.091-1.7A5.823,5.823,0,0,1,5.779,0,5.3,5.3,0,0,1,8.247.587,5.661,5.661,0,0,1,11.559,5.81Z" transform="translate(59.288 53.535)" fill="#74849b"/>
      <path id="Path-141" data-name="Path" d="M9.935,4.635a5.808,5.808,0,0,1-5.779,5.811,6.174,6.174,0,0,1-2.467-.523A5.823,5.823,0,0,1,5.779,0,5.3,5.3,0,0,1,8.247.587,5.519,5.519,0,0,1,9.935,4.635Z" transform="translate(59.288 53.535)" fill="#a7aec0"/>
      <path id="Path-142" data-name="Path" d="M1.754,3.525A1.763,1.763,0,1,0,0,1.763,1.758,1.758,0,0,0,1.754,3.525Z" transform="translate(36.3 53.208)" fill="#c5d0e2"/>
      <path id="Path-143" data-name="Path" d="M1.754,3.526A1.763,1.763,0,1,0,0,1.763,1.758,1.758,0,0,0,1.754,3.526Z" transform="translate(16.104 51.445)" fill="#c5d0e2"/>
      <path id="Path-144" data-name="Path" d="M1.234,2.481A1.24,1.24,0,1,0,0,1.241,1.237,1.237,0,0,0,1.234,2.481Z" transform="translate(10.325 57.843)" fill="#c5d0e2"/>
      <path id="Path-145" data-name="Path" d="M.65,1.306A.653.653,0,1,0,0,.653.651.651,0,0,0,.65,1.306Z" transform="translate(13.701 54.775)" fill="url(#linear-gradient-18)"/>
      <path id="Path-146" data-name="Path" d="M.585,1.175A.587.587,0,1,0,0,.587.586.586,0,0,0,.585,1.175Z" transform="translate(40.781 49.618)" fill="url(#linear-gradient-19)"/>
      <path id="Path-147" data-name="Path" d="M.585,1.176A.588.588,0,1,0,0,.587.586.586,0,0,0,.585,1.176Z" transform="translate(79.743 51.51)" fill="url(#linear-gradient-20)"/>
      <path id="Path-148" data-name="Path" d="M.454.914A.457.457,0,1,0,0,.457.456.456,0,0,0,.454.914Z" transform="translate(64.029 58.496)" fill="url(#linear-gradient-21)"/>
      <path id="Path-149" data-name="Path" d="M12.775,11.816l-4.74,2.22-1.3-.848L3.814,11.164A2.691,2.691,0,0,1,2.645,8.618l.13-1.044-.649-.392a2.7,2.7,0,0,1-1.039-3l.065-.2A2.766,2.766,0,0,1,.177.783L.437,0,9.008,5.158A7.172,7.172,0,0,1,12.06,8.879a6.681,6.681,0,0,1,.26.914Z" transform="translate(44.37 0)" fill="#6c7384"/>
      <path id="Path-150" data-name="Path" d="M0,0,3.637,2.089" transform="translate(45.586 3.983)" fill="none" stroke="#1e1f28" stroke-linecap="round" stroke-linejoin="round" stroke-miterlimit="10" stroke-width="1"/>
      <path id="Path-151" data-name="Path" d="M0,0,3.637,2.089" transform="translate(47.145 7.639)" fill="none" stroke="#1e1f28" stroke-linecap="round" stroke-linejoin="round" stroke-miterlimit="10" stroke-width="1"/>
      <path id="Path-152" data-name="Path" d="M12.793,6.706l-.13.2a2.637,2.637,0,0,1-3.052.783l-.649-.261-.78.653a2.694,2.694,0,0,1-2.792.392l-3.506-1.5L.714,6.445,0,1.222,1.884.5c.26-.065.454-.2.714-.261a6.99,6.99,0,0,1,5,.522l8.962,4.374-.519.653A2.653,2.653,0,0,1,12.793,6.706Z" transform="translate(68.574 16.797)" fill="#6c7384"/>
      <path id="Path-153" data-name="Path" d="M3.766,1.894,0,0" transform="translate(77.6 21.61)" fill="none" stroke="#1e1f28" stroke-linecap="round" stroke-linejoin="round" stroke-miterlimit="10" stroke-width="1"/>
      <path id="Path-154" data-name="Path" d="M3.766,1.959,0,0" transform="translate(73.704 22.262)" fill="none" stroke="#1e1f28" stroke-linecap="round" stroke-linejoin="round" stroke-miterlimit="10" stroke-width="1"/>
      <path id="Path-155" data-name="Path" d="M18.032,17.052a9.649,9.649,0,0,1-1.688,1.567,1.357,1.357,0,0,1-.389.261,6.791,6.791,0,0,1-1.493.848,6.7,6.7,0,0,1-.65.261,9.993,9.993,0,0,1-3.9.653,2.425,2.425,0,0,1-.714-.065c-.389-.065-.844-.131-1.234-.2a9.757,9.757,0,0,1-4.35-2.155A10.37,10.37,0,0,1,2.447,3.668,10.173,10.173,0,0,1,16.863,2.427a10.478,10.478,0,0,1,1.169,14.624Z" transform="translate(50.097 8.874)" fill="url(#linear-gradient-22)"/>
      <path id="Path-156" data-name="Path" d="M14.182,13.214a11.668,11.668,0,0,1-1.3,1.24,1.413,1.413,0,0,1-.325.2,10.486,10.486,0,0,1-1.168.653c-.2.065-.325.131-.519.2a8.113,8.113,0,0,1-3.052.522,1.788,1.788,0,0,1-.585-.065c-.325-.065-.65-.065-.974-.13a8.134,8.134,0,0,1-3.442-1.7A8.019,8.019,0,0,1,1.908,2.833a7.935,7.935,0,0,1,13.7,2.938A7.6,7.6,0,0,1,14.182,13.214Z" transform="translate(52.194 11.275)" fill="none" stroke="#f9b400" stroke-miterlimit="10" stroke-width="1.5"/>
      <path id="Path-157" data-name="Path" d="M10.065,13.057a7.3,7.3,0,0,1-1.364.784c-.2.065-.389.2-.585.261a10.645,10.645,0,0,1-3.766.653,2.654,2.654,0,0,1-.714-.065l-1.168-.2L0,6.072l2.208.065.454-.326.52-.849S4.805,1.828,4.74,1.7C4.74,1.632,6.364,0,6.364,0l-.13,1.7L7.727.719,11.1,12.274A5.424,5.424,0,0,1,10.065,13.057Z" transform="translate(55.717 14.493)" fill="url(#linear-gradient-23)"/>
      <path id="Shape" d="M2.987,10.054h0L2.675,9.9l-.009,0-.458-.231,0-.006a14.08,14.08,0,0,0,.711-1.364,2.614,2.614,0,0,0-.4-.208c-.08-.036-.162-.074-.253-.12-.063.127-.125.258-.191.4-.139.295-.283.6-.459.909-.13-.065-.28-.149-.424-.23s-.291-.163-.42-.228l.39-.685L1.183,8.1l.375-.66C1.3,7.28,1.036,7.131.781,6.987S.26,6.693,0,6.529a6.808,6.808,0,0,1,.649-.783C.682,5.713.7,5.7.714,5.7s.032.016.064.049c.065.033.147.082.227.13s.163.1.228.131a.509.509,0,0,0,.214.068c.1,0,.159-.075.24-.2.292-.554.6-1.131.9-1.689s.62-1.148.914-1.706a.528.528,0,0,0,.077-.418.5.5,0,0,0-.272-.3A2.7,2.7,0,0,0,3.019,1.6a2.7,2.7,0,0,1-.292-.163c.05-.1.109-.2.172-.306A3.8,3.8,0,0,0,3.182.588a11.047,11.047,0,0,1,1.429.783c.026.027.042.043.056.043s.035-.032.073-.108A8.526,8.526,0,0,1,5.2.448C5.311.261,5.406.1,5.455,0c.131.065.28.149.424.23S6.17.393,6.3.458l-.568,1,0,.008-.207.365a2.634,2.634,0,0,0,.4.207c.079.036.161.073.252.119.246-.432.49-.86.78-1.37l.509.255.012.006.258.13c-.019.039-.089.169-.179.334-.214.4-.536.991-.536,1.037v.13A3.385,3.385,0,0,1,8.052,3.73a1.44,1.44,0,0,1,.064,1.3,1.417,1.417,0,0,1-.714.784,1.282,1.282,0,0,1-.649.131l0,0a1.717,1.717,0,0,1,.581,1.5,2.017,2.017,0,0,1-.389.849,3.41,3.41,0,0,1-.71.649l0,0a1.279,1.279,0,0,1-.679.17,2.549,2.549,0,0,1-.425-.039,4.281,4.281,0,0,1-1.3-.391H3.825c-.059,0-.061,0-.124.065a14.216,14.216,0,0,1-.714,1.305Zm.844-4.832h0q-.487.882-.974,1.763l.11.06A3.717,3.717,0,0,0,4.74,7.7a.745.745,0,0,0,.714-.392.688.688,0,0,0,0-.849A3.21,3.21,0,0,0,3.928,5.272l-.1-.049Zm1.3-2.415c-.131.263-.28.531-.425.79s-.29.518-.419.777a4.273,4.273,0,0,0,1.234.587,1.321,1.321,0,0,0,.259.027.773.773,0,0,0,.742-.436.719.719,0,0,0-.091-.766,2.956,2.956,0,0,0-.973-.781c-.116-.067-.225-.13-.326-.2Z" transform="translate(55.651 14.036)" fill="url(#linear-gradient-24)"/>
      <g id="Group_1400" data-name="Group 1400" transform="translate(56.567 5.36) rotate(30)">
        <path id="Path-158" data-name="Path" d="M19.833,12.183c-.949,4.7-5.533,7.649-7.115,7.649A10.033,10.033,0,0,1,.227,8.044,9.954,9.954,0,0,1,12.085.233,10.05,10.05,0,0,1,19.833,12.183Z" transform="translate(0 0)" fill="url(#linear-gradient-25)"/>
        <path id="Path-159" data-name="Path" d="M3.669,1.362A7.878,7.878,0,0,0,.191,6.541C-1.865,16.575,13.314,20.8,16,9.888A8.093,8.093,0,0,0,3.669,1.362Z" transform="translate(1.934 1.98)" fill="#f9b400"/>
        <path id="Path-160" data-name="Path" d="M12.491,8.765a6.552,6.552,0,0,1-.4,1.116c-.079.154-.079.239-.159.392-.237.477-.553.877-.79,1.354a1.948,1.948,0,0,1-.4.477,8.969,8.969,0,0,1-2.766,2.155,4.869,4.869,0,0,0-.633.315,5.286,5.286,0,0,1-1.028.323H6.245l-2.451-2.47V9.242L0,6.21l2.214.562s-.079-3.9-.159-3.986a6.105,6.105,0,0,1,1.186,0A16.084,16.084,0,0,0,3.874,0Z" transform="translate(6.224 4.05)" fill="url(#linear-gradient-26)"/>
        <path id="Path-161" data-name="Path" d="M7.748,6.294,3.874,8.6,0,6.294,3.874,0Z" transform="translate(6.145 4.05)" fill="#fff"/>
        <path id="Path-162" data-name="Path" d="M7.748,0,3.874,5.417,0,0,3.874,2.232Z" transform="translate(6.145 11.06)" fill="#fff"/>
        <path id="Path-163" data-name="Path" d="M7.748,1.754,3.874,4.063,0,1.754,3.874,0Z" transform="translate(6.145 8.59)" fill="#fdf2c8"/>
        <path id="Path-164" data-name="Path" d="M0,2.232,3.874,0,0,5.417Z" transform="translate(10.019 11.06)" fill="#facd35" opacity="0.3"/>
        <path id="Path-165" data-name="Path" d="M3.874,6.294,0,8.6V0Z" transform="translate(10.019 4.05)" fill="#facd35" opacity="0.3"/>
      </g>
    </g>
  </g>
</svg>
