<svg xmlns="http://www.w3.org/2000/svg" width="162.271" height="321.618" viewBox="0 0 162.271 321.618">
  <g id="Framework_Icon_01" data-name="Framework Icon 01" transform="translate(0.523 0.618)">
    <path id="Path" d="M89.025,4.973A63.721,63.721,0,0,1,58.431,54.885,64.141,64.141,0,0,1,4.284,61.009H3.977c-1.224-.613-2.75-.92-3.977-1.53,0-1.227.307-2.45.307-3.677v-.61A64.494,64.494,0,0,1,89.025,4.973Z" transform="translate(72.197 153.24)" fill="none" stroke="#fff" stroke-width="1"/>
    <path id="Path-2" data-name="Path" d="M78.621.613c0,.3,0,.3-.3.61-7.954,1.533-15.3,4.594-22.333,7.961A146.313,146.313,0,0,0,36.1,21.739a213.886,213.886,0,0,0-18.049,15L9.791,45.011C7.954,47.155,5.814,49.3,3.977,51.442c-1.224-.613-2.754-.92-3.977-1.53,0-1.227.307-2.45.307-3.677v-.61l.613-.613c1.527-1.53,2.75-2.757,4.281-4.287,3.06-2.757,6.118-5.511,9.178-7.961A189.579,189.579,0,0,1,33.958,18.372,175.964,175.964,0,0,1,55.067,6.737,98.69,98.69,0,0,1,78.011,0C78.317.307,78.621.613,78.621.613Z" transform="translate(72.503 162.5)" fill="none" stroke="#fff" stroke-width="1" opacity="0.5"/>
    <path id="Path-3" data-name="Path" d="M58.125,39.24a4.333,4.333,0,0,1-1.834.613,4.454,4.454,0,0,1-2.144.61,41.348,41.348,0,0,1-34.261-4.287A41.7,41.7,0,0,1,0,3.413,41.478,41.478,0,0,1,38.242,6.17,41.666,41.666,0,0,1,57.821,34.647v.613C57.821,36.79,58.125,38.017,58.125,39.24Z" transform="translate(0 149.899)" fill="none" stroke="#fff" stroke-width="1"/>
    <path id="Path-4" data-name="Path" d="M46.5,29.7a4.333,4.333,0,0,1-1.834.613V30.01l-1.224-.92a17.67,17.67,0,0,0-2.144-2.45c-1.527-1.837-3.364-3.367-4.894-4.9-3.364-3.064-7.341-5.817-11.012-8.574A125.376,125.376,0,0,0,13.462,5.821,69.3,69.3,0,0,0,.307.613.3.3,0,0,1,0,.307.3.3,0,0,1,.307,0C9.791,1.84,18.662,5.821,26.924,10.718a101.177,101.177,0,0,1,11.625,8.268c1.834,1.53,3.671,3.064,5.5,4.9a13.158,13.158,0,0,1,1.837,2.144A15.335,15.335,0,0,1,46.5,29.7Z" transform="translate(11.624 159.437)" fill="none" stroke="#fff" stroke-width="1" opacity="0.5"/>
    <path id="Path-5" data-name="Path" d="M126.512,33.68V57.259a10.322,10.322,0,0,1-10.4,10.411H16.687a12.033,12.033,0,0,1-6.424-1.837c-.307-.307-.613-.307-.92-.613-.61-.307-.917-.917-1.53-1.224a10.377,10.377,0,0,1-2.75-4.287L.779,48.685a10.256,10.256,0,0,1,5.2-13.165l15.6-7.351A11.935,11.935,0,0,0,27.7,22.046L36.57,4.9A8.95,8.95,0,0,1,44.831,0h48.64l4.9,5.817,19.883,4.594Z" transform="translate(5.035 252.523)" fill="none" stroke="#fff" stroke-width="1"/>
    <path id="Path-6" data-name="Path" d="M19.886,4.594,7.344,22.659,0,0Z" transform="translate(103.707 258.954)" fill="none" stroke="#fff" stroke-width="1" opacity="0.6"/>
    <path id="Path-7" data-name="Path" d="M118.393,16.842v19.9a10.322,10.322,0,0,1-10.4,10.411H8.568A11.117,11.117,0,0,1,0,43.481L47.42,0,77.7,26.026Z" transform="translate(13.154 273.345)" fill="none" stroke="#fff" stroke-width="1"/>
    <path id="Path-8" data-name="Path" d="M25.393,0,48.947,14.392l20.5,8.574L28.757,32.457,0,7.961Z" transform="translate(62.102 267.221)" fill="none" stroke="#fff" stroke-width="1" opacity="0.6"/>
    <path id="Path-9" data-name="Path" d="M69.136,28.783,23.556,24.8,0,5.2V4.9A8.947,8.947,0,0,1,8.261,0H37.628Z" transform="translate(41.912 252.829)" fill="none" stroke="#fff" stroke-width="1"/>
    <path id="Path-10" data-name="Path" d="M98.2,26.946,83.821,20.209,93,5.817,82.6,19.292,60.878.917,80.761,19.9,37.628,16.228,16.826,0,36.1,16.842,0,47.768l37.628-29.7L61.8,38.274H62.1v-.307l-22.333-19.9,43.439,3.674L98.2,27.556Z" transform="translate(28.146 260.791)" fill="none" stroke="#fff" stroke-width="1"/>
    <path id="Path-11" data-name="Path" d="M116.862,0V19.9a10.322,10.322,0,0,1-10.4,10.411H7.034A12.049,12.049,0,0,1,.61,28.476c-.3-.307-.61-.307-.61-.613L46.806,11.635,75.867,23.269Z" transform="translate(14.685 290.187)" fill="none" stroke="#fff" stroke-width="1" opacity="0.2"/>
    <path id="Path-12" data-name="Path" d="M13.795,128.535a81.012,81.012,0,0,0,.917-30.927,73.9,73.9,0,0,0-3.977-14.7A35.116,35.116,0,0,0,9.2,79.54L7.37,75.866l-1.837-3.98c-.61-1.224-.917-2.754-1.53-3.98a42.456,42.456,0,0,1-2.447-8.268A41.508,41.508,0,0,1,.333,51.064,79.985,79.985,0,0,1,.64,33.919C2.17,22.587,5.84,11.87,10.428,1.765A2.8,2.8,0,0,1,14.1.235a2.7,2.7,0,0,1,1.527,3.674c-3.974,10.1-7.034,20.209-7.951,30.927a66.723,66.723,0,0,0,.3,15.618,68.45,68.45,0,0,0,1.53,7.654c.917,2.45,1.53,4.9,2.447,7.347.613,1.227.92,2.45,1.53,3.677L15.325,72.5l1.834,3.674c.613,1.224,1.224,2.757,1.837,3.98a64.871,64.871,0,0,1,5.2,16.535c2.447,11.331,2.14,23.272.307,34.6a5.182,5.182,0,0,1-6.121,4.287C15.325,134.353,13.181,131.6,13.795,128.535Z" transform="translate(56.567 133.175)" fill="none" stroke="#fff" stroke-width="1"/>
    <path id="Path-13" data-name="Path" d="M131.471,80.15a25.388,25.388,0,0,1-1.22,4.594c-.307,1.227-.92,2.45-1.223,3.677a43.3,43.3,0,0,1-2.45,5.511c-.3.917-.917,1.837-1.223,2.754a62.5,62.5,0,0,1-6.118,9.494,32.469,32.469,0,0,1-2.754,3.367,68.439,68.439,0,0,1-20.189,15.925c-1.53.61-2.754,1.53-4.284,2.14-2.447.92-4.894,1.837-7.648,2.757-1.53.307-2.754.613-4.284.92a62.822,62.822,0,0,1-27.227,0A66.125,66.125,0,0,1,1.457,52.9C8.8,17.073,43.979-6.2,79.774,1.458a67.451,67.451,0,0,1,33.345,18.065A65.978,65.978,0,0,1,131.471,80.15Z" transform="translate(7.835 0)" fill="none" stroke="#fff" stroke-width="1"/>
    <g id="Group_8022" data-name="Group 8022" transform="translate(48.437 24.931)">
      <path id="Path-14" data-name="Path" d="M51.91,42.171,25.952,57.638,0,42.171,25.952,0Z" transform="translate(0)" fill="none" stroke="#fff" stroke-width="1"/>
      <path id="Path-15" data-name="Path" d="M51.91,0,25.952,36.294,0,0,25.952,14.951Z" transform="translate(0 46.966)" fill="none" stroke="#fff" stroke-width="1"/>
      <path id="Path-16" data-name="Path" d="M51.91,11.754,25.952,27.221,0,11.754,25.952,0Z" transform="translate(0 30.417)" fill="none" stroke="#fff" stroke-width="1"/>
      <path id="Path-17" data-name="Path" d="M0,14.951,25.958,0,0,36.294Z" transform="translate(25.952 46.966)" fill="none" stroke="#fff" stroke-width="1" opacity="0.3"/>
      <path id="Path-18" data-name="Path" d="M25.958,42.171,0,57.638V0Z" transform="translate(25.952)" fill="none" stroke="#fff" stroke-width="1" opacity="0.3"/>
    </g>
  </g>
</svg>
