<svg id="Framework_Icon_02" data-name="Framework Icon 02" xmlns="http://www.w3.org/2000/svg" xmlns:xlink="http://www.w3.org/1999/xlink" width="204" height="351" viewBox="0 0 204 351">
  <defs>
    <clipPath id="clip-path">
      <rect id="Rectangle_860" data-name="Rectangle 860" width="204" height="351" transform="translate(1254 234)" fill="#fff" stroke="#707070" stroke-width="1"/>
    </clipPath>
    <linearGradient id="linear-gradient" y1="0.501" x2="1.001" y2="0.501" gradientUnits="objectBoundingBox">
      <stop offset="0" stop-color="#51dfd4"/>
      <stop offset="1" stop-color="#1be068"/>
    </linearGradient>
    <linearGradient id="linear-gradient-2" x1="-0.002" y1="0.51" x2="1" y2="0.51" xlink:href="#linear-gradient"/>
    <linearGradient id="linear-gradient-3" x1="0.001" y1="0.502" x2="0.999" y2="0.502" gradientUnits="objectBoundingBox">
      <stop offset="0.003" stop-color="#ffd44f"/>
      <stop offset="1" stop-color="#ffa607"/>
    </linearGradient>
    <linearGradient id="linear-gradient-4" x1="0.571" y1="-0.087" x2="0.434" y2="1.027" xlink:href="#linear-gradient-3"/>
    <linearGradient id="linear-gradient-5" x1="-0.001" y1="0.502" x2="1" y2="0.502" xlink:href="#linear-gradient-3"/>
    <linearGradient id="linear-gradient-6" x1="0.263" y1="0.384" x2="0.614" y2="0.676" gradientUnits="objectBoundingBox">
      <stop offset="0" stop-color="#faa404"/>
      <stop offset="1" stop-color="#ff7904" stop-opacity="0"/>
    </linearGradient>
  </defs>
  <g id="Mask_Group_10" data-name="Mask Group 10" transform="translate(-1254 -234)" clip-path="url(#clip-path)">
    <g id="Group_8028" data-name="Group 8028" transform="translate(1279.989 244)">
      <path id="Path" d="M90.141,5.036A64.52,64.52,0,0,1,59.164,55.573a64.945,64.945,0,0,1-54.826,6.2H4.027C2.788,61.153,1.242,60.842,0,60.225c0-1.242.311-2.481.311-3.723v-.618A65.3,65.3,0,0,1,90.141,5.036Z" transform="translate(73.102 151.143)" fill="url(#linear-gradient)"/>
      <path id="Path-2" data-name="Path" d="M79.606.621c0,.307,0,.307-.307.618C71.245,2.791,63.812,5.89,56.686,9.3A148.147,148.147,0,0,0,36.551,22.012,216.567,216.567,0,0,0,18.275,37.2L9.914,45.576c-1.86,2.17-4.027,4.341-5.887,6.511C2.788,51.466,1.239,51.155,0,50.538c0-1.242.311-2.481.311-3.723V46.2l.621-.621c1.546-1.549,2.785-2.791,4.334-4.341,3.1-2.791,6.194-5.58,9.293-8.061A191.957,191.957,0,0,1,34.384,18.6,178.171,178.171,0,0,1,55.758,6.822,99.927,99.927,0,0,1,78.988,0C79.3.311,79.606.621,79.606.621Z" transform="translate(73.412 160.519)" fill="#fff" opacity="0.5"/>
      <path id="Path-3" data-name="Path" d="M58.853,39.732A4.387,4.387,0,0,1,57,40.353a4.51,4.51,0,0,1-2.17.618A41.866,41.866,0,0,1,20.135,36.63,42.227,42.227,0,0,1,0,3.456,42,42,0,0,1,38.721,6.248,42.189,42.189,0,0,1,58.546,35.081V35.7C58.546,37.251,58.853,38.494,58.853,39.732Z" transform="translate(0 147.76)" fill="url(#linear-gradient-2)"/>
      <path id="Path-4" data-name="Path" d="M47.083,30.075a4.388,4.388,0,0,1-1.857.621v-.311l-1.239-.932a17.892,17.892,0,0,0-2.17-2.481c-1.546-1.86-3.406-3.409-4.955-4.959-3.406-3.1-7.433-5.89-11.15-8.682a126.947,126.947,0,0,0-12.081-7.44A70.169,70.169,0,0,0,.311.621.3.3,0,0,1,0,.311.3.3,0,0,1,.311,0C9.914,1.863,18.9,5.893,27.261,10.852a102.446,102.446,0,0,1,11.771,8.371c1.857,1.549,3.717,3.1,5.573,4.962a13.324,13.324,0,0,1,1.86,2.17A15.527,15.527,0,0,1,47.083,30.075Z" transform="translate(11.77 157.417)" fill="#fff" opacity="0.5"/>
      <path id="Path-5" data-name="Path" d="M128.1,34.1V57.977a10.451,10.451,0,0,1-10.532,10.542H16.9a12.183,12.183,0,0,1-6.5-1.86c-.311-.311-.621-.311-.932-.621-.618-.311-.928-.928-1.549-1.239a10.507,10.507,0,0,1-2.785-4.341L.788,49.3a10.385,10.385,0,0,1,5.266-13.33l15.8-7.443a12.085,12.085,0,0,0,6.194-6.2L37.029,4.959A9.062,9.062,0,0,1,45.393,0h49.25L99.6,5.89l20.132,4.651Z" transform="translate(5.098 251.671)" fill="#2d5887"/>
      <path id="Path-6" data-name="Path" d="M20.135,4.651,7.436,22.943,0,0Z" transform="translate(105.007 258.182)" fill="#2f333e" opacity="0.6"/>
      <path id="Path-7" data-name="Path" d="M119.877,17.053V37.2a10.451,10.451,0,0,1-10.532,10.542H8.675A11.256,11.256,0,0,1,0,44.026L48.014,0,78.678,26.352Z" transform="translate(13.32 272.754)" fill="#1c3754"/>
      <path id="Path-8" data-name="Path" d="M25.712,0,49.56,14.572l20.756,8.682-41.2,9.61L0,8.061Z" transform="translate(62.88 266.553)" fill="#2f333e" opacity="0.6"/>
      <path id="Path-9" data-name="Path" d="M70,29.144l-46.151-4.03L0,5.269V4.959A9.059,9.059,0,0,1,8.365,0H38.1Z" transform="translate(42.438 251.981)" fill="#4b75a1"/>
      <path id="Path-10" data-name="Path" d="M99.431,27.284,84.872,20.462,94.165,5.89,83.633,19.534,61.641.928,81.773,20.152,38.1,16.432,17.037,0,36.551,17.053,0,48.367,38.1,18.292,62.57,38.754h.311v-.311L40.267,18.292l43.984,3.72,15.18,5.89Z" transform="translate(28.499 260.042)" fill="#a7c0d9"/>
      <path id="Path-11" data-name="Path" d="M118.327,0V20.152A10.451,10.451,0,0,1,107.8,30.693H7.123a12.2,12.2,0,0,1-6.5-1.86C.311,28.523,0,28.523,0,28.212L47.393,11.78l29.425,11.78Z" transform="translate(14.869 289.807)" opacity="0.2"/>
      <path id="Path-12" data-name="Path" d="M13.968,130.147A82.027,82.027,0,0,0,14.9,98.832,74.823,74.823,0,0,0,10.869,83.95,35.556,35.556,0,0,0,9.32,80.537l-1.857-3.72L5.6,72.787c-.618-1.239-.928-2.788-1.549-4.03a42.988,42.988,0,0,1-2.478-8.371A42.028,42.028,0,0,1,.337,51.7a80.988,80.988,0,0,1,.311-17.36C2.2,22.871,5.914,12.018,10.558,1.787A2.831,2.831,0,0,1,14.278.238a2.736,2.736,0,0,1,1.546,3.72C11.8,14.189,8.7,24.42,7.773,35.272a67.56,67.56,0,0,0,.307,15.814,69.309,69.309,0,0,0,1.549,7.75c.928,2.481,1.549,4.962,2.478,7.44.621,1.242.932,2.481,1.549,3.723l1.86,3.409,1.857,3.72c.621,1.239,1.239,2.791,1.86,4.03A65.684,65.684,0,0,1,24.5,97.9c2.478,11.473,2.167,23.564.311,35.034a5.247,5.247,0,0,1-6.2,4.341C15.517,136.037,13.347,133.245,13.968,130.147Z" transform="translate(57.277 130.827)" fill="#b0bdd4"/>
      <path id="Path-13" data-name="Path" d="M133.119,81.154a25.7,25.7,0,0,1-1.236,4.651c-.311,1.242-.932,2.481-1.239,3.723a43.847,43.847,0,0,1-2.481,5.58c-.307.928-.928,1.86-1.239,2.788a63.281,63.281,0,0,1-6.194,9.613,32.872,32.872,0,0,1-2.788,3.409A69.3,69.3,0,0,1,97.5,127.044c-1.549.618-2.788,1.549-4.338,2.167-2.478.932-4.955,1.86-7.744,2.791-1.549.311-2.788.621-4.338.932a63.609,63.609,0,0,1-27.568,0A66.954,66.954,0,0,1,1.475,53.563C8.908,17.287,44.53-6.274,80.774,1.476a68.3,68.3,0,0,1,33.763,18.292A66.806,66.806,0,0,1,133.119,81.154Z" transform="translate(8.482 2.504)" fill="url(#linear-gradient-3)"/>
      <path id="Shape" d="M53.453,132.845a65.66,65.66,0,0,1-31.9-16.433A67.135,67.135,0,0,1,80.715,1.386a68.285,68.285,0,0,1,33.764,18.3,66.641,66.641,0,0,1,10.838,14.262c.312.618.933,1.547,1.239,2.168,7.128,13.332,9.293,29.145,6.5,44.957-.306,1.547-.927,3.1-1.236,4.651,0,.309-.309.927-.309,1.239-.312.93-.621,1.553-.933,2.48-.927,1.859-1.547,3.721-2.477,5.581a11.1,11.1,0,0,1-1.239,2.792,101.141,101.141,0,0,1-6.2,9.608,33.1,33.1,0,0,0-2.786,3.413,64.614,64.614,0,0,1-20.443,16.121,18.945,18.945,0,0,1-4.339,2.171,38.952,38.952,0,0,1-7.743,2.792c-1.55.306-2.789.618-4.336.93a64.012,64.012,0,0,1-13.436,1.394A74.376,74.376,0,0,1,53.453,132.845Z" transform="translate(8.851 2.902)" fill="url(#linear-gradient-4)"/>
      <g id="Group_1452" data-name="Group 1452" transform="translate(5.595 0)">
        <path id="Path-14" data-name="Path" d="M134.54,82.649C128.1,114.543,97,134.536,86.275,134.536c-48.27,14.042-95.464-29.18-84.737-79.971C9.045,17.242,45.517-6.509,81.985,1.582A68.18,68.18,0,0,1,134.54,82.649Z" transform="translate(0 0)" fill="url(#linear-gradient-5)"/>
        <path id="Path-15" data-name="Path" d="M24.888,9.241A53.442,53.442,0,0,0,1.294,44.372C-12.649,112.442,90.321,141.1,108.555,67.079,118.745,18.429,65.651-17.8,24.888,9.241Z" transform="translate(13.118 13.429)" fill="#f9b400"/>
        <path id="Path-16" data-name="Path" d="M84.737,59.456a44.448,44.448,0,0,1-2.683,7.569c-.538,1.044-.538,1.618-1.075,2.662-1.608,3.236-3.753,5.951-5.361,9.187a13.217,13.217,0,0,1-2.683,3.236c-5.361,5.951-11.8,11.38-18.766,14.616a33.025,33.025,0,0,0-4.291,2.14A35.858,35.858,0,0,1,42.9,101.06h-.538L25.74,84.3V62.693L0,42.126l15.018,3.811S14.48,19.471,13.943,18.9c0-.522,8.044,0,8.044,0C24.132,11.9,23.062,16.234,26.278,0Z" transform="translate(42.224 27.473)" fill="url(#linear-gradient-6)"/>
        <path id="Path-17" data-name="Path" d="M52.561,42.7,26.278,58.36,0,42.7,26.278,0Z" transform="translate(41.686 27.473)" fill="#fff"/>
        <path id="Path-18" data-name="Path" d="M52.561,0,26.278,36.749,0,0,26.278,15.138Z" transform="translate(41.686 75.028)" fill="#fff"/>
        <path id="Path-19" data-name="Path" d="M52.561,11.9,26.278,27.562,0,11.9,26.278,0Z" transform="translate(41.686 58.271)" fill="#fdf2c8"/>
        <path id="Path-20" data-name="Path" d="M0,15.138,26.283,0,0,36.749Z" transform="translate(67.964 75.028)" fill="#facd35" opacity="0.3"/>
        <path id="Path-21" data-name="Path" d="M26.283,42.7,0,58.36V0Z" transform="translate(67.964 27.473)" fill="#facd35" opacity="0.3"/>
      </g>
    </g>
  </g>
</svg>
