<svg width="164" height="321" viewBox="0 0 164 321" fill="none" xmlns="http://www.w3.org/2000/svg">
<path d="M163.243 156.179C162.495 166.465 159.291 176.422 153.902 185.215C148.512 194.008 141.093 201.381 132.266 206.716C124.143 211.711 115.02 214.856 105.544 215.927C96.0686 216.999 86.4733 215.971 77.44 212.916H77.129C75.89 212.296 74.344 211.985 73.102 211.368C73.102 210.126 73.413 208.887 73.413 207.645V207.027C74.8456 197.168 78.5149 187.767 84.1402 179.545C89.7654 171.323 97.1975 164.497 105.867 159.589C114.537 154.682 124.215 151.823 134.16 151.232C144.105 150.641 154.053 152.333 163.243 156.179V156.179Z" fill="url(#paint0_linear_1_49)"/>
<path opacity="0.5" d="M153.018 161.14C153.018 161.447 153.018 161.447 152.711 161.758C144.657 163.31 137.224 166.409 130.098 169.819C123.056 173.509 116.323 177.76 109.963 182.531C103.598 187.255 97.4964 192.325 91.687 197.719L83.326 206.095C81.466 208.265 79.299 210.436 77.439 212.606C76.2 211.985 74.651 211.674 73.412 211.057C73.412 209.815 73.723 208.576 73.723 207.334V206.719L74.344 206.098C75.89 204.549 77.129 203.307 78.678 201.757C81.778 198.966 84.872 196.177 87.971 193.696C94.2608 188.418 100.883 183.549 107.796 179.119C114.643 174.709 121.785 170.773 129.17 167.341C136.608 164.133 144.409 161.843 152.4 160.519C152.712 160.83 153.018 161.14 153.018 161.14Z" fill="white"/>
<path d="M58.853 187.492C58.2899 187.835 57.6565 188.048 57 188.113C56.3407 188.499 55.594 188.712 54.83 188.731C49.0758 190.551 42.9961 191.105 37.0076 190.356C31.0191 189.606 25.2635 187.571 20.135 184.39C14.371 180.873 9.53443 176.025 6.03098 170.253C2.52753 164.48 0.459379 157.952 0 151.216C6.20258 148.531 12.9614 147.383 19.7024 147.869C26.4435 148.355 32.9677 150.461 38.721 154.008C43.8959 157.116 48.3435 161.298 51.7636 166.272C55.1837 171.246 57.4966 176.896 58.546 182.841V183.46C58.546 185.011 58.853 186.254 58.853 187.492Z" fill="url(#paint1_linear_1_49)"/>
<path opacity="0.5" d="M58.853 187.492C58.2887 187.836 57.6539 188.048 56.996 188.113V187.802L55.757 186.87C55.1115 185.978 54.3851 185.147 53.587 184.389C52.041 182.529 50.181 180.98 48.632 179.43C45.226 176.33 41.199 173.54 37.482 170.748C33.5968 168.044 29.5635 165.56 25.401 163.308C21.1524 161.101 16.6892 159.335 12.081 158.038C12.0398 158.039 11.9988 158.032 11.9604 158.017C11.9221 158.002 11.8872 157.979 11.858 157.95C11.8289 157.921 11.806 157.886 11.7908 157.848C11.7757 157.81 11.7686 157.769 11.77 157.728C11.7685 157.686 11.7754 157.645 11.7905 157.607C11.8056 157.568 11.8285 157.533 11.8577 157.504C11.8869 157.475 11.9218 157.452 11.9602 157.437C11.9986 157.422 12.0397 157.415 12.081 157.417C21.684 159.28 30.67 163.31 39.031 168.269C43.1467 170.779 47.0802 173.576 50.802 176.64C52.659 178.189 54.519 179.74 56.375 181.602C57.071 182.256 57.6946 182.984 58.235 183.772C58.5914 184.982 58.7989 186.231 58.853 187.492V187.492Z" fill="white"/>
<path d="M133.198 285.771V309.648C133.21 311.035 132.946 312.41 132.421 313.694C131.896 314.978 131.121 316.144 130.141 317.125C129.161 318.107 127.995 318.883 126.711 319.409C125.428 319.935 124.053 320.2 122.666 320.19H21.998C19.6993 320.195 17.4458 319.55 15.498 318.33C15.187 318.019 14.877 318.019 14.566 317.709C13.948 317.398 13.638 316.781 13.017 316.47C11.7424 315.276 10.7853 313.785 10.232 312.129L5.88601 300.971C4.88295 298.498 4.87037 295.734 5.85086 293.252C6.83136 290.77 8.72967 288.76 11.152 287.641L26.952 280.198C29.7197 278.979 31.9298 276.766 33.146 273.998L42.127 256.63C42.9059 255.094 44.1063 253.812 45.5876 252.933C47.0689 252.055 48.7698 251.617 50.491 251.671H99.741L104.698 257.561L124.83 262.212L133.198 285.771Z" fill="#2D5887"/>
<path opacity="0.6" d="M125.142 262.833L112.443 281.125L105.007 258.182L125.142 262.833Z" fill="#2F333E"/>
<path d="M133.197 289.807V309.954C133.209 311.341 132.945 312.716 132.42 314C131.895 315.284 131.12 316.45 130.14 317.431C129.16 318.413 127.994 319.189 126.71 319.715C125.427 320.241 124.052 320.506 122.665 320.496H21.995C20.3662 320.541 18.747 320.232 17.2493 319.591C15.7515 318.949 14.4109 317.99 13.32 316.78L61.334 272.754L91.998 299.106L133.197 289.807Z" fill="#1C3754"/>
<path opacity="0.6" d="M88.592 266.553L112.44 281.125L133.196 289.807L91.996 299.417L62.88 274.614L88.592 266.553Z" fill="#2F333E"/>
<path d="M112.438 281.125L66.287 277.095L42.438 257.25V256.94C43.2167 255.403 44.4171 254.121 45.8987 253.243C47.3803 252.364 49.0815 251.927 50.803 251.981H80.538L112.438 281.125Z" fill="#4B75A1"/>
<path d="M127.93 287.326L113.371 280.504L122.664 265.932L112.132 279.576L90.14 260.97L110.272 280.194L66.599 276.474L45.536 260.042L65.05 277.095L28.499 308.409L66.599 278.334L91.069 298.796H91.38V298.485L68.766 278.334L112.75 282.054L127.93 287.944V287.326Z" fill="#A7C0D9"/>
<path opacity="0.2" d="M133.196 289.807V309.959C133.208 311.345 132.944 312.72 132.419 314.003C131.895 315.287 131.12 316.453 130.14 317.434C129.161 318.415 127.995 319.191 126.713 319.718C125.43 320.244 124.055 320.51 122.669 320.5H21.992C19.6934 320.504 17.4402 319.86 15.492 318.64C15.18 318.33 14.869 318.33 14.869 318.019L62.262 301.587L91.687 313.367L133.196 289.807Z" fill="black"/>
<path d="M71.245 260.974C73.5647 250.692 73.8811 240.06 72.177 229.659C71.3494 224.572 69.9986 219.585 68.146 214.777C67.69 213.613 67.173 212.473 66.597 211.364L64.74 207.644L62.877 203.614C62.259 202.375 61.949 200.826 61.328 199.584C60.2201 196.885 59.3898 194.08 58.85 191.213C58.1361 188.368 57.7218 185.457 57.614 182.527C57.0953 176.746 57.1996 170.925 57.925 165.167C59.477 153.698 63.191 142.845 67.835 132.614C67.9756 132.266 68.1837 131.95 68.4474 131.684C68.7112 131.417 69.0252 131.206 69.3712 131.062C69.7173 130.917 70.0886 130.844 70.4634 130.844C70.8383 130.845 71.2093 130.92 71.555 131.065C71.9108 131.194 72.2358 131.396 72.5094 131.658C72.783 131.92 72.9993 132.236 73.1446 132.585C73.29 132.935 73.3611 133.311 73.3536 133.689C73.3461 134.068 73.2601 134.441 73.101 134.785C69.077 145.016 65.977 155.247 65.05 166.099C64.5328 171.364 64.6358 176.671 65.357 181.913C65.7255 184.523 66.2427 187.111 66.906 189.663C67.834 192.144 68.455 194.625 69.384 197.103C70.005 198.345 70.316 199.584 70.933 200.826L72.793 204.235L74.65 207.955C75.271 209.194 75.889 210.746 76.51 211.985C79.0067 217.305 80.7782 222.935 81.777 228.727C84.255 240.2 83.944 252.291 82.088 263.761C81.9793 264.459 81.7306 265.128 81.3568 265.728C80.983 266.328 80.4919 266.847 79.9128 267.252C79.3338 267.657 78.6788 267.942 77.9871 268.088C77.2955 268.234 76.5815 268.238 75.888 268.102C72.794 266.864 70.624 264.072 71.245 260.974Z" fill="#B0BDD4"/>
<path d="M141.601 83.6576C141.335 85.2432 140.922 86.8003 140.365 88.3086C140.054 89.5506 139.433 90.7896 139.126 92.0316C138.43 93.947 137.601 95.8115 136.645 97.6116C136.338 98.5396 135.717 99.4716 135.406 100.4C133.636 103.784 131.563 107.002 129.212 110.013C128.36 111.21 127.428 112.349 126.424 113.422C120.69 120.04 113.754 125.512 105.982 129.548C104.433 130.166 103.194 131.097 101.644 131.715C99.166 132.647 96.689 133.575 93.9 134.506C92.351 134.817 91.112 135.127 89.562 135.438C80.4832 137.453 71.0728 137.453 61.994 135.438C53.3558 133.662 45.1534 130.197 37.8581 125.242C30.5627 120.287 24.3181 113.94 19.4828 106.565C14.6476 99.1898 11.3169 90.9321 9.6822 82.2661C8.04746 73.6001 8.14085 64.6964 9.957 56.0666C17.39 19.7906 53.012 -3.77039 89.256 3.97961C102.028 6.72267 113.746 13.0709 123.019 22.2716C131.017 30.1235 136.911 39.8615 140.158 50.5889C143.406 61.3162 143.902 72.6882 141.601 83.6576V83.6576Z" fill="url(#paint2_linear_1_49)"/>
<path d="M62.304 135.747C50.3511 133.337 39.3052 127.647 30.404 119.314C19.6392 109.353 12.4323 96.1407 9.88517 81.6972C7.33801 67.2538 9.59068 52.3736 16.2988 39.3312C23.007 26.2889 33.8015 15.8021 47.0323 9.47379C60.2631 3.14551 75.2022 1.32396 89.566 4.28761C102.34 7.03194 114.058 13.3832 123.33 22.5876C127.568 26.8322 131.214 31.6295 134.168 36.8496C134.48 37.4676 135.101 38.3966 135.407 39.0176C142.535 52.3496 144.7 68.1626 141.907 83.9746C141.601 85.5216 140.98 87.0746 140.671 88.6256C140.671 88.9346 140.362 89.5526 140.362 89.8646C140.05 90.7946 139.741 91.4176 139.429 92.3446C138.502 94.2036 137.882 96.0656 136.952 97.9256C136.67 98.9089 136.253 99.8485 135.713 100.718C133.829 104.035 131.759 107.242 129.513 110.326C128.51 111.4 127.579 112.54 126.727 113.739C121.077 120.444 114.122 125.929 106.284 129.86C104.937 130.766 103.478 131.496 101.945 132.031C99.4698 133.232 96.8744 134.168 94.202 134.823C92.652 135.129 91.413 135.441 89.866 135.753C85.449 136.69 80.9453 137.157 76.43 137.147C71.6875 137.131 66.9573 136.663 62.304 135.747Z" fill="url(#paint3_linear_1_49)"/>
<path d="M140.135 82.6486C133.695 114.543 102.595 134.536 91.87 134.536C43.6 148.578 -3.59401 105.356 7.13299 54.5646C14.64 17.2416 51.112 -6.50939 87.58 1.58161C96.3623 3.43738 104.692 7.00908 112.09 12.0918C119.489 17.1745 125.811 23.6681 130.694 31.2001C135.577 38.7321 138.925 47.1541 140.545 55.983C142.165 64.8118 142.026 73.8737 140.135 82.6486Z" fill="url(#paint4_linear_1_49)"/>
<path d="M43.601 22.6696C37.4837 26.6106 32.2356 31.7593 28.1785 37.8002C24.1214 43.8412 21.3408 50.647 20.007 57.8006C6.06399 125.871 109.034 154.529 127.268 80.5076C137.458 31.8576 84.364 -4.37138 43.601 22.6696Z" fill="#F9B400"/>
<path d="M132.556 86.9286C131.892 89.5274 130.994 92.0607 129.873 94.4976C129.335 95.5416 129.335 96.1156 128.798 97.1596C127.19 100.396 125.045 103.111 123.437 106.347C122.721 107.562 121.815 108.654 120.754 109.583C115.393 115.534 108.954 120.963 101.988 124.199C100.508 124.807 99.0736 125.522 97.697 126.339C95.4519 127.306 93.1137 128.041 90.719 128.533H90.181L73.559 111.773V90.1656L47.819 69.5986L62.837 73.4096C62.837 73.4096 62.299 46.9436 61.762 46.3726C61.762 45.8506 69.806 46.3726 69.806 46.3726C71.951 39.3726 70.881 43.7066 74.097 27.4726L132.556 86.9286Z" fill="url(#paint5_linear_1_49)"/>
<path d="M99.842 70.1726L73.559 85.8326L47.281 70.1726L73.559 27.4726L99.842 70.1726Z" fill="white"/>
<path d="M99.842 75.0276L73.559 111.777L47.281 75.0276L73.559 90.1656L99.842 75.0276Z" fill="white"/>
<path d="M99.842 70.1706L73.559 85.8326L47.281 70.1706L73.559 58.2706L99.842 70.1706Z" fill="#FDF2C8"/>
<path opacity="0.3" d="M73.559 90.1656L99.842 75.0276L73.559 111.777V90.1656Z" fill="#FACD35"/>
<path opacity="0.3" d="M99.842 70.1726L73.559 85.8326V27.4726L99.842 70.1726Z" fill="#FACD35"/>
<defs>
<linearGradient id="paint0_linear_1_49" x1="73.102" y1="183.793" x2="163.333" y2="183.793" gradientUnits="userSpaceOnUse">
<stop stop-color="#51DFD4"/>
<stop offset="1" stop-color="#1BE068"/>
</linearGradient>
<linearGradient id="paint1_linear_1_49" x1="-0.117706" y1="169.649" x2="58.853" y2="169.649" gradientUnits="userSpaceOnUse">
<stop stop-color="#51DFD4"/>
<stop offset="1" stop-color="#1BE068"/>
</linearGradient>
<linearGradient id="paint2_linear_1_49" x1="8.65634" y1="69.9952" x2="142.889" y2="69.9952" gradientUnits="userSpaceOnUse">
<stop offset="0.003" stop-color="#FFD44F"/>
<stop offset="1" stop-color="#FFA607"/>
</linearGradient>
<linearGradient id="paint3_linear_1_49" x1="85.5057" y1="-8.77664" x2="67.1113" y2="140.771" gradientUnits="userSpaceOnUse">
<stop offset="0.003" stop-color="#FFD44F"/>
<stop offset="1" stop-color="#FFA607"/>
</linearGradient>
<linearGradient id="paint4_linear_1_49" x1="5.45841" y1="68.8834" x2="141.664" y2="68.8834" gradientUnits="userSpaceOnUse">
<stop offset="0.003" stop-color="#FFD44F"/>
<stop offset="1" stop-color="#FFA607"/>
</linearGradient>
<linearGradient id="paint5_linear_1_49" x1="70.1048" y1="66.2796" x2="103.959" y2="89.8945" gradientUnits="userSpaceOnUse">
<stop stop-color="#FAA404"/>
<stop offset="1" stop-color="#FF7904" stop-opacity="0"/>
</linearGradient>
</defs>
</svg>
