<svg width="163" height="322" viewBox="0 0 163 322" fill="none" xmlns="http://www.w3.org/2000/svg">
<path d="M161.745 158.831C161.006 168.99 157.842 178.824 152.519 187.508C147.196 196.193 139.869 203.474 131.151 208.743C123.129 213.676 114.118 216.783 104.76 217.841C95.402 218.899 85.9255 217.884 77.004 214.867H76.697C75.473 214.254 73.947 213.947 72.72 213.337C72.72 212.11 73.027 210.887 73.027 209.66V209.05C74.4422 199.313 78.0664 190.03 83.6221 181.909C89.1778 173.789 96.5177 167.047 105.08 162.201C113.642 157.354 123.2 154.53 133.022 153.946C142.844 153.362 152.669 155.033 161.745 158.831V158.831Z" stroke="white"/>
<path opacity="0.5" d="M151.647 163.731C151.647 164.031 151.647 164.031 151.347 164.341C143.393 165.874 136.047 168.935 129.014 172.302C122.058 175.947 115.408 180.145 109.126 184.857C102.84 189.523 96.8143 194.53 91.077 199.857L82.817 208.129C80.98 210.273 78.84 212.418 77.003 214.56C75.779 213.947 74.249 213.64 73.026 213.03C73.026 211.803 73.333 210.58 73.333 209.353V208.743L73.946 208.13C75.473 206.6 76.696 205.373 78.227 203.843C81.287 201.086 84.345 198.332 87.405 195.882C93.6169 190.671 100.157 185.864 106.984 181.49C113.746 177.134 120.799 173.246 128.093 169.855C135.44 166.688 143.144 164.425 151.037 163.118C151.343 163.425 151.647 163.731 151.647 163.731Z" stroke="white"/>
<path d="M58.648 189.757C58.0907 190.097 57.4637 190.306 56.814 190.37C56.1626 190.752 55.4248 190.962 54.67 190.98C48.9877 192.777 42.9841 193.324 37.0706 192.584C31.1571 191.844 25.4734 189.834 20.409 186.693C14.7161 183.22 9.93921 178.432 6.47906 172.731C3.01891 167.031 0.976435 160.583 0.52301 153.93C6.64878 151.279 13.324 150.145 19.9817 150.625C26.6394 151.105 33.0829 153.184 38.765 156.687C43.8759 159.757 48.2684 163.887 51.6461 168.8C55.0238 173.713 57.3078 179.293 58.344 185.164V185.777C58.344 187.307 58.648 188.534 58.648 189.757Z" stroke="white"/>
<path opacity="0.5" d="M58.647 189.755C58.0896 190.095 57.4627 190.304 56.813 190.368V190.065L55.589 189.145C54.9512 188.264 54.2335 187.444 53.445 186.695C51.918 184.858 50.081 183.328 48.551 181.795C45.187 178.731 41.21 175.978 37.539 173.221C33.7023 170.552 29.7195 168.1 25.609 165.876C21.4132 163.696 17.0052 161.951 12.454 160.668C12.4135 160.669 12.3732 160.662 12.3356 160.647C12.298 160.632 12.2638 160.609 12.2351 160.581C12.2065 160.552 12.1839 160.518 12.1687 160.48C12.1536 160.443 12.1462 160.402 12.147 160.362C12.146 160.321 12.1533 160.281 12.1684 160.243C12.1835 160.206 12.2061 160.171 12.2348 160.143C12.2635 160.114 12.2977 160.092 12.3354 160.076C12.3731 160.061 12.4134 160.054 12.454 160.055C21.938 161.895 30.809 165.876 39.071 170.773C43.1357 173.252 47.0204 176.015 50.696 179.041C52.53 180.571 54.367 182.105 56.196 183.941C56.8835 184.588 57.4993 185.307 58.033 186.085C58.3859 187.279 58.5921 188.511 58.647 189.755V189.755Z" stroke="white"/>
<path d="M132.07 286.821V310.4C132.082 311.77 131.821 313.128 131.303 314.396C130.784 315.663 130.019 316.815 129.051 317.784C128.083 318.753 126.932 319.52 125.665 320.039C124.398 320.559 123.04 320.821 121.67 320.811H22.245C19.9732 320.817 17.746 320.18 15.821 318.974C15.514 318.667 15.208 318.667 14.901 318.361C14.291 318.054 13.984 317.444 13.371 317.137C12.1124 315.959 11.1673 314.485 10.621 312.85L6.337 301.826C5.34619 299.384 5.33359 296.654 6.3018 294.203C7.27001 291.751 9.14472 289.767 11.537 288.661L27.137 281.31C29.8718 280.107 32.056 277.922 33.258 275.187L42.128 258.041C42.897 256.524 44.0824 255.257 45.5455 254.389C47.0086 253.521 48.6887 253.088 50.389 253.141H99.029L103.929 258.958L123.812 263.552L132.07 286.821Z" stroke="white"/>
<path opacity="0.6" d="M124.116 264.166L111.574 282.231L104.23 259.572L124.116 264.166Z" stroke="white"/>
<path d="M132.07 290.805V310.705C132.082 312.075 131.821 313.433 131.303 314.701C130.784 315.968 130.019 317.12 129.051 318.089C128.083 319.058 126.932 319.825 125.665 320.344C124.398 320.864 123.04 321.126 121.67 321.116H22.245C20.6362 321.161 19.0369 320.855 17.5575 320.221C16.0782 319.587 14.7542 318.64 13.677 317.444L61.097 273.963L91.377 299.989L132.07 290.805Z" stroke="white"/>
<path opacity="0.6" d="M88.018 267.839L111.572 282.231L132.072 290.805L91.382 300.296L62.625 275.8L88.018 267.839Z" stroke="white"/>
<path d="M111.571 282.23L65.991 278.247L42.435 258.647V258.347C43.2037 256.829 44.3891 255.562 45.8522 254.694C47.3154 253.827 48.9956 253.394 50.696 253.447H80.063L111.571 282.23Z" stroke="white"/>
<path d="M126.869 288.355L112.49 281.618L121.669 267.226L111.269 280.701L89.547 262.326L109.43 281.309L66.297 277.637L45.495 261.409L64.769 278.251L28.669 309.177L66.297 279.477L90.469 299.683H90.769V299.376L68.436 279.476L111.875 283.15L126.869 288.965V288.355Z" stroke="white"/>
<path opacity="0.2" d="M132.07 290.805V310.705C132.082 312.075 131.821 313.433 131.303 314.701C130.784 315.968 130.019 317.12 129.051 318.089C128.083 319.058 126.932 319.825 125.665 320.345C124.398 320.864 123.04 321.126 121.67 321.116H22.242C19.9705 321.122 17.7436 320.486 15.818 319.281C15.518 318.974 15.208 318.974 15.208 318.668L62.014 302.44L91.075 314.074L132.07 290.805Z" stroke="white"/>
<path d="M70.885 262.328C73.1748 252.174 73.4861 241.673 71.802 231.401C70.9861 226.377 69.6534 221.451 67.825 216.701C67.3729 215.552 66.8605 214.428 66.29 213.333L64.46 209.659L62.623 205.679C62.013 204.455 61.706 202.925 61.093 201.699C59.9989 199.033 59.179 196.263 58.646 193.431C57.9405 190.623 57.5306 187.75 57.423 184.857C56.9107 179.147 57.0136 173.399 57.73 167.712C59.26 156.38 62.93 145.663 67.518 135.558C67.6573 135.215 67.863 134.904 68.1234 134.641C68.3838 134.378 68.6936 134.17 69.0351 134.028C69.3765 133.885 69.7427 133.812 70.1126 133.812C70.4825 133.812 70.8487 133.886 71.19 134.028C71.5416 134.156 71.8628 134.355 72.1332 134.614C72.4037 134.872 72.6175 135.184 72.761 135.529C72.9046 135.875 72.9748 136.246 72.9672 136.62C72.9597 136.994 72.8745 137.363 72.717 137.702C68.743 147.802 65.683 157.911 64.766 168.629C64.2542 173.829 64.3549 179.071 65.066 184.247C65.43 186.825 65.9408 189.381 66.596 191.901C67.513 194.351 68.126 196.801 69.043 199.248C69.656 200.475 69.963 201.698 70.573 202.925L72.415 206.293L74.249 209.967C74.862 211.191 75.473 212.724 76.086 213.947C78.5512 219.201 80.3001 224.763 81.286 230.482C83.733 241.813 83.426 253.754 81.593 265.082C81.4856 265.772 81.24 266.432 80.871 267.025C80.502 267.617 80.0171 268.129 79.4455 268.529C78.8739 268.929 78.2273 269.21 77.5445 269.354C76.8617 269.499 76.1568 269.504 75.472 269.369C72.415 268.146 70.271 265.393 70.885 262.328Z" stroke="white"/>
<path d="M139.829 80.768C139.567 82.3341 139.158 83.8722 138.609 85.362C138.302 86.589 137.689 87.812 137.386 89.039C136.698 90.9307 135.88 92.7722 134.936 94.55C134.636 95.467 134.019 96.387 133.713 97.304C131.964 100.647 129.917 103.824 127.595 106.798C126.753 107.981 125.833 109.105 124.841 110.165C119.178 116.701 112.327 122.105 104.652 126.09C103.122 126.7 101.898 127.62 100.368 128.23C97.921 129.15 95.474 130.067 92.72 130.987C91.19 131.294 89.966 131.6 88.436 131.907C79.4695 133.897 70.1756 133.897 61.209 131.907C52.6775 130.153 44.5765 126.732 37.3713 121.838C30.1661 116.945 23.9986 110.676 19.2231 103.392C14.4475 96.1081 11.158 87.9524 9.54352 79.3936C7.929 70.8347 8.02126 62.0411 9.81501 53.518C17.158 17.691 52.337 -5.582 88.132 2.076C100.746 4.78476 112.318 11.0543 121.477 20.141C129.376 27.8957 135.197 37.5133 138.405 48.1081C141.612 58.7028 142.101 69.9342 139.829 80.768V80.768Z" stroke="white"/>
<path d="M100.87 67.72L74.912 83.187L48.96 67.72L74.912 25.549L100.87 67.72Z" stroke="white"/>
<path d="M100.87 72.515L74.912 108.809L48.96 72.515L74.912 87.466L100.87 72.515Z" stroke="white"/>
<path d="M100.87 67.72L74.912 83.187L48.96 67.72L74.912 55.966L100.87 67.72Z" stroke="white"/>
<path opacity="0.3" d="M74.912 87.466L100.87 72.515L74.912 108.809V87.466Z" stroke="white"/>
<path opacity="0.3" d="M100.87 67.72L74.912 83.187V25.549L100.87 67.72Z" stroke="white"/>
</svg>
