<svg id="Hero_Section_Line" data-name="Hero Section Line" xmlns="http://www.w3.org/2000/svg" width="689.738" height="17.104" viewBox="0 0 689.738 17.104">
  <path id="Path_9489" data-name="Path 9489" d="M545.3,132.835l-.081-10.107,2.138-.017.08,10.059Z" transform="translate(-212.224 -122.71)" fill="#666"/>
  <rect id="Rectangle_781" data-name="Rectangle 781" width="2.138" height="10.108" transform="translate(323 0.013) rotate(-0.339)" fill="#666"/>
  <rect id="Rectangle_782" data-name="Rectangle 782" width="2.138" height="10.108" transform="translate(313 0.009) rotate(-0.221)" fill="#666"/>
  <rect id="Rectangle_783" data-name="Rectangle 783" width="2.138" height="10.108" transform="translate(303 0.004) rotate(-0.103)" fill="#666"/>
  <rect id="Rectangle_784" data-name="Rectangle 784" width="2.138" height="10.107" transform="translate(293 0)" fill="#666"/>
  <rect id="Rectangle_785" data-name="Rectangle 785" width="10.108" height="2.138" transform="translate(282 10.108) rotate(-89.851)" fill="#666"/>
  <rect id="Rectangle_786" data-name="Rectangle 786" width="10.108" height="2.138" transform="translate(272 10.108) rotate(-89.74)" fill="#666"/>
  <rect id="Rectangle_787" data-name="Rectangle 787" width="10.108" height="2.138" transform="translate(262 10.108) rotate(-89.629)" fill="#666"/>
  <rect id="Rectangle_788" data-name="Rectangle 788" width="10.108" height="2.138" transform="translate(252 10.108) rotate(-89.515)" fill="#666"/>
  <path id="Path_9490" data-name="Path 9490" d="M443.2,131.4l-2.138-.022.107-10.044,2.138-.041Z" transform="translate(-200.061 -121.289)" fill="#666"/>
  <rect id="Rectangle_789" data-name="Rectangle 789" width="10.108" height="2.138" transform="translate(231 10.108) rotate(-89.29)" fill="#666"/>
  <rect id="Rectangle_790" data-name="Rectangle 790" width="10.108" height="2.138" transform="matrix(0.014, -1, 1, 0.014, 210, 10.107)" fill="#666"/>
  <path id="Path_9491" data-name="Path 9491" d="M408.437,130.5l-2.138-.036.169-10.006,2.139-.065Z" transform="translate(-206.299 -120.392)" fill="#666"/>
  <rect id="Rectangle_791" data-name="Rectangle 791" width="10.108" height="2.138" transform="matrix(0.019, -1, 1, 0.019, 179, 10.106)" fill="#666"/>
  <rect id="Rectangle_792" data-name="Rectangle 792" width="10.108" height="2.138" transform="translate(169 10.106) rotate(-88.805)" fill="#666"/>
  <rect id="Rectangle_793" data-name="Rectangle 793" width="10.108" height="2.139" transform="translate(148 10.106) rotate(-88.694)" fill="#666"/>
  <path id="Path_9492" data-name="Path 9492" d="M360.991,128.962l-1.069-.027.256-10.1,2.137.054-.254,10.028Z" transform="translate(-232.922 -118.83)" fill="#666"/>
  <rect id="Rectangle_794" data-name="Rectangle 794" width="10.108" height="2.137" transform="translate(117 10.105) rotate(-88.433)" fill="#666"/>
  <rect id="Rectangle_795" data-name="Rectangle 795" width="10.108" height="2.137" transform="translate(96 10.104) rotate(-88.323)" fill="#666"/>
  <rect id="Rectangle_796" data-name="Rectangle 796" width="10.108" height="2.138" transform="translate(221 10.104) rotate(-88.208)" fill="#666"/>
  <rect id="Rectangle_797" data-name="Rectangle 797" width="10.108" height="2.138" transform="matrix(0.034, -0.999, 0.999, 0.034, 190, 10.103)" fill="#666"/>
  <rect id="Rectangle_798" data-name="Rectangle 798" width="10.108" height="2.138" transform="translate(159 10.102) rotate(-87.948)" fill="#666"/>
  <rect id="Rectangle_799" data-name="Rectangle 799" width="10.108" height="2.138" transform="translate(138 10.102) rotate(-87.838)" fill="#666"/>
  <rect id="Rectangle_800" data-name="Rectangle 800" width="10.109" height="2.138" transform="translate(106 10.102) rotate(-87.727)" fill="#fff"/>
  <path id="Path_9493" data-name="Path 9493" d="M269.185,124.8l-2.137-.09.422-9.974,2.142-.035Z" transform="translate(-182.049 -114.696)" fill="#fff"/>
  <rect id="Rectangle_801" data-name="Rectangle 801" width="10.109" height="2.138" transform="matrix(0.044, -0.999, 0.999, 0.044, 75, 10.099)" fill="#fff"/>
  <rect id="Rectangle_802" data-name="Rectangle 802" width="10.109" height="2.137" transform="matrix(0.046, -0.999, 0.999, 0.046, 64, 10.099)" fill="#fff"/>
  <rect id="Rectangle_803" data-name="Rectangle 803" width="10.109" height="2.138" transform="translate(53 10.098) rotate(-87.241)" fill="#fff"/>
  <path id="Path_9494" data-name="Path 9494" d="M221.6,122.127l-1.068-.054.514-10.1,2.135.11-.509,10Z" transform="translate(-177.536 -111.975)" fill="#fff"/>
  <rect id="Rectangle_804" data-name="Rectangle 804" width="10.11" height="2.138" transform="translate(32 10.096) rotate(-86.978)" fill="#fff"/>
  <rect id="Rectangle_805" data-name="Rectangle 805" width="10.11" height="2.138" transform="matrix(0.055, -0.999, 0.999, 0.055, 21, 10.095)" fill="#fff"/>
  <rect id="Rectangle_806" data-name="Rectangle 806" width="10.111" height="2.138" transform="matrix(0.057, -0.998, 0.998, 0.057, 11, 10.095)" fill="#fff"/>
  <rect id="Rectangle_807" data-name="Rectangle 807" width="10.11" height="2.138" transform="translate(0 10.092) rotate(-86.602)" fill="#fff"/>
  <rect id="Rectangle_808" data-name="Rectangle 808" width="10.108" height="2.138" transform="matrix(0.008, -1, 1, 0.008, 354, 10.108)" fill="#666"/>
  <rect id="Rectangle_809" data-name="Rectangle 809" width="10.108" height="2.138" transform="translate(364 10.108) rotate(-89.664)" fill="#666"/>
  <rect id="Rectangle_810" data-name="Rectangle 810" width="10.108" height="2.138" transform="matrix(0.004, -1, 1, 0.004, 375, 10.108)" fill="#666"/>
  <rect id="Rectangle_811" data-name="Rectangle 811" width="10.108" height="2.138" transform="matrix(0.002, -1, 1, 0.002, 385, 10.108)" fill="#666"/>
  <rect id="Rectangle_812" data-name="Rectangle 812" width="2.138" height="10.107" transform="translate(395 0)" fill="#666"/>
  <rect id="Rectangle_813" data-name="Rectangle 813" width="2.138" height="10.108" transform="translate(405 0.005) rotate(-0.134)" fill="#666"/>
  <rect id="Rectangle_814" data-name="Rectangle 814" width="2.138" height="10.108" transform="translate(415 0.01) rotate(-0.252)" fill="#666"/>
  <rect id="Rectangle_815" data-name="Rectangle 815" width="2.138" height="10.108" transform="translate(426 0.014) rotate(-0.371)" fill="#666"/>
  <rect id="Rectangle_816" data-name="Rectangle 816" width="2.138" height="10.108" transform="translate(436 0.019) rotate(-0.49)" fill="#666"/>
  <rect id="Rectangle_817" data-name="Rectangle 817" width="2.138" height="10.108" transform="translate(446 0.023) rotate(-0.608)" fill="#666"/>
  <rect id="Rectangle_818" data-name="Rectangle 818" width="2.138" height="10.108" transform="translate(456 0.028) rotate(-0.734)" fill="#666"/>
  <rect id="Rectangle_819" data-name="Rectangle 819" width="2.138" height="10.108" transform="translate(477 0.032) rotate(-0.844)" fill="#666"/>
  <rect id="Rectangle_820" data-name="Rectangle 820" width="2.138" height="10.108" transform="matrix(1, -0.017, 0.017, 1, 487, 0.037)" fill="#666"/>
  <rect id="Rectangle_821" data-name="Rectangle 821" width="2.138" height="10.108" transform="translate(508 0.041) rotate(-1.081)" fill="#666"/>
  <rect id="Rectangle_822" data-name="Rectangle 822" width="2.138" height="10.108" transform="translate(518 0.045) rotate(-1.2)" fill="#666"/>
  <rect id="Rectangle_823" data-name="Rectangle 823" width="2.139" height="10.108" transform="translate(539 0.05) rotate(-1.326)" fill="#666"/>
  <rect id="Rectangle_824" data-name="Rectangle 824" width="2.139" height="10.108" transform="translate(560 0.054) rotate(-1.444)" fill="#666"/>
  <rect id="Rectangle_825" data-name="Rectangle 825" width="2.139" height="10.108" transform="translate(570 0.059) rotate(-1.563)" fill="#666"/>
  <rect id="Rectangle_826" data-name="Rectangle 826" width="2.139" height="10.108" transform="translate(591 0.063) rotate(-1.689)" fill="#666"/>
  <path id="Path_9495" data-name="Path 9495" d="M823.478,127.6l-.315-10.008,1.065-.128,1.069-.034-1.069.034,1.072.061.316,10.009Z" transform="translate(-357.163 -117.431)" fill="#666"/>
  <rect id="Rectangle_827" data-name="Rectangle 827" width="2.139" height="10.108" transform="matrix(0.999, -0.034, 0.034, 0.999, 498, 0.072)" fill="#666"/>
  <rect id="Rectangle_828" data-name="Rectangle 828" width="2.139" height="10.108" transform="translate(529 0.077) rotate(-2.045)" fill="#666"/>
  <rect id="Rectangle_829" data-name="Rectangle 829" width="2.137" height="10.108" transform="translate(550 0.082) rotate(-2.17)" fill="#666"/>
  <rect id="Rectangle_830" data-name="Rectangle 830" width="2.137" height="10.108" transform="translate(581 0.086) rotate(-2.297)" fill="#fff"/>
  <rect id="Rectangle_831" data-name="Rectangle 831" width="2.137" height="10.108" transform="translate(602 0.09) rotate(-2.415)" fill="#fff"/>
  <rect id="Rectangle_832" data-name="Rectangle 832" width="2.137" height="10.109" transform="matrix(0.999, -0.044, 0.044, 0.999, 612, 0.095)" fill="#fff"/>
  <rect id="Rectangle_833" data-name="Rectangle 833" width="2.137" height="10.109" transform="translate(623 0.1) rotate(-2.667)" fill="#fff"/>
  <rect id="Rectangle_834" data-name="Rectangle 834" width="2.138" height="10.109" transform="translate(634 0.104) rotate(-2.786)" fill="#fff"/>
  <rect id="Rectangle_835" data-name="Rectangle 835" width="2.138" height="10.11" transform="translate(644 0.109) rotate(-2.912)" fill="#fff"/>
  <rect id="Rectangle_836" data-name="Rectangle 836" width="2.138" height="10.11" transform="translate(655 0.114) rotate(-3.039)" fill="#fff"/>
  <rect id="Rectangle_837" data-name="Rectangle 837" width="2.139" height="10.11" transform="translate(666 0.119) rotate(-3.165)" fill="#fff"/>
  <rect id="Rectangle_838" data-name="Rectangle 838" width="2.139" height="10.111" transform="matrix(0.998, -0.057, 0.057, 0.998, 676, 0.124)" fill="#fff"/>
  <rect id="Rectangle_839" data-name="Rectangle 839" width="2.139" height="10.11" transform="matrix(0.998, -0.06, 0.06, 0.998, 687, 0.128)" fill="#fff"/>
  <rect id="Rectangle_840" data-name="Rectangle 840" width="2.851" height="17.104" transform="translate(343 0)" fill="#fff"/>
</svg>
