<svg xmlns="http://www.w3.org/2000/svg" xmlns:xlink="http://www.w3.org/1999/xlink" width="52.404" height="52.413" viewBox="0 0 52.404 52.413">
  <defs>
    <linearGradient id="linear-gradient" x1="0.498" y1="0.974" x2="0.498" y2="0.081" gradientUnits="objectBoundingBox">
      <stop offset="0" stop-color="#474755"/>
      <stop offset="0.991" stop-color="#2f3338"/>
    </linearGradient>
    <linearGradient id="linear-gradient-2" x1="0.023" y1="0.489" x2="0.993" y2="0.489" gradientUnits="objectBoundingBox">
      <stop offset="0" stop-color="#ff66a9"/>
      <stop offset="1" stop-color="#f53689"/>
    </linearGradient>
    <linearGradient id="linear-gradient-3" x1="-0.01" y1="0.494" x2="1" y2="0.494" gradientUnits="objectBoundingBox">
      <stop offset="0.003" stop-color="#ffd44f"/>
      <stop offset="1" stop-color="#ffa607"/>
    </linearGradient>
    <linearGradient id="linear-gradient-4" x1="0.399" y1="0.354" x2="0.677" y2="0.631" gradientUnits="objectBoundingBox">
      <stop offset="0" stop-color="#faa404"/>
      <stop offset="1" stop-color="#ff7904" stop-opacity="0"/>
    </linearGradient>
    <linearGradient id="linear-gradient-5" x1="1.013" y1="0.881" x2="0.302" y2="0.156" gradientUnits="objectBoundingBox">
      <stop offset="0" stop-color="#ffe491"/>
      <stop offset="1" stop-color="#fff"/>
    </linearGradient>
    <linearGradient id="linear-gradient-6" x1="-0.001" y1="0.502" x2="1" y2="0.502" xlink:href="#linear-gradient-3"/>
    <linearGradient id="linear-gradient-7" x1="0.263" y1="0.384" x2="0.614" y2="0.676" xlink:href="#linear-gradient-4"/>
    <linearGradient id="linear-gradient-8" x1="-0.003" y1="0.494" x2="0.999" y2="0.494" xlink:href="#linear-gradient-3"/>
    <linearGradient id="linear-gradient-9" x1="0.236" y1="0.362" x2="0.591" y2="0.663" xlink:href="#linear-gradient-4"/>
    <linearGradient id="linear-gradient-10" x1="0.942" y1="0.986" x2="0.068" y2="0.21" xlink:href="#linear-gradient-5"/>
  </defs>
  <g id="Network_Icon_05" data-name="Network Icon 05" transform="translate(0.5)">
    <path id="Path" d="M23.643,47.448A23.724,23.724,0,1,0,0,23.724,23.684,23.684,0,0,0,23.643,47.448Z" transform="translate(0 2.082)" fill="none" stroke="#2a2e38" stroke-width="1" opacity="0.26"/>
    <g id="_43" data-name="43" transform="translate(0.892)">
      <path id="Path-2" data-name="Path" d="M23.336,47.022A23.512,23.512,0,1,0,0,23.513,23.423,23.423,0,0,0,23.336,47.022Z" transform="translate(0 4.841)" fill="#fff" opacity="0.17"/>
      <path id="Path-3" data-name="Path" d="M0,.5H47.938" transform="translate(0.376 51.413)" fill="none" stroke="#2b323c" stroke-width="1"/>
      <path id="Path-4" data-name="Path" d="M21.692,8.231c-3.568.1-7.841,0-10.846-.046-3,.1-7.277.142-10.846.046A10.44,10.44,0,0,0,4.93,0H16.715C17,2.463,18.217,6.247,21.692,8.231Z" transform="translate(13.1 43.253)" fill="url(#linear-gradient)"/>
      <path id="Path-5" data-name="Path" d="M44.371,1.325V32.261a1.317,1.317,0,0,1-1.315,1.325H1.315A1.347,1.347,0,0,1,0,32.261V1.325A1.347,1.347,0,0,1,1.315,0H43.056A1.316,1.316,0,0,1,44.371,1.325Z" transform="translate(1.878 10.613)" fill="#353b4a"/>
      <path id="Path-6" data-name="Path" d="M44.371,1.325V27.96H0V1.325A1.347,1.347,0,0,1,1.315,0H43.056A1.316,1.316,0,0,1,44.371,1.325Z" transform="translate(1.878 10.613)" fill="#262a31"/>
      <path id="Path-7" data-name="Path" d="M41.177,0H0V24.788H41.177Z" transform="translate(3.475 12.176)" fill="#474e61"/>
      <path id="Path-8" data-name="Path" d="M38.22.233A.22.22,0,0,0,37.985,0H35.027a.22.22,0,0,0-.235.233V.425H0V.754H34.792V.992a.224.224,0,0,0,.235.238h2.958A.224.224,0,0,0,38.22.992V.233Z" transform="translate(5.353 15.014)" fill="#373d4c"/>
      <path id="Path-9" data-name="Path" d="M38.22.238A.224.224,0,0,0,37.985,0H35.027a.224.224,0,0,0-.235.238V.425H0V.8H34.792V1a.22.22,0,0,0,.235.233h2.958A.22.22,0,0,0,38.22,1V.238Z" transform="translate(5.353 20.878)" fill="#373d4c"/>
      <path id="Path-10" data-name="Path" d="M38.22.238A.224.224,0,0,0,37.985,0H35.027a.224.224,0,0,0-.235.238V.425H0V.759H34.792V.946a.224.224,0,0,0,.235.238h2.958A.224.224,0,0,0,38.22.946V.238Z" transform="translate(5.353 26.791)" fill="#373d4c"/>
      <path id="Path-11" data-name="Path" d="M38.22.233A.22.22,0,0,0,37.985,0H35.027a.22.22,0,0,0-.235.233V.425H0V.754H34.792V.946a.22.22,0,0,0,.235.233h2.958A.22.22,0,0,0,38.22.946V.233Z" transform="translate(5.353 32.659)" fill="#373d4c"/>
      <path id="Path-12" data-name="Path" d="M1.221,0H0V1.037H1.221Z" transform="translate(5.822 29.159)" fill="#f14d99"/>
      <path id="Path-13" data-name="Path" d="M1.221,0H0V4.022H1.221Z" transform="translate(7.559 26.083)" fill="#32d697"/>
      <path id="Path-14" data-name="Path" d="M1.221,0H0V1.609H1.221Z" transform="translate(9.344 24.474)" fill="#32d697"/>
      <path id="Path-15" data-name="Path" d="M1.221,0H0V.992H1.221Z" transform="translate(11.081 24.474)" fill="#f14d99"/>
      <path id="Path-16" data-name="Path" d="M1.221,0H0V1.558H1.221Z" transform="translate(12.865 25.375)" fill="#f14d99"/>
      <path id="Path-17" data-name="Path" d="M1.221,0H0V2.408H1.221Z" transform="translate(14.603 24.57)" fill="#32d697"/>
      <path id="Path-18" data-name="Path" d="M1.221,0H0V.708H1.221Z" transform="translate(16.387 23.953)" fill="#f14d99"/>
      <path id="Path-19" data-name="Path" d="M1.221,0H0V2.18H1.221Z" transform="translate(18.171 21.728)" fill="#32d697"/>
      <path id="Path-20" data-name="Path" d="M1.221,0H0V1.609H1.221Z" transform="translate(19.908 22.345)" fill="#f14d99"/>
      <path id="Path-21" data-name="Path" d="M1.221,0H0V.708H1.221Z" transform="translate(21.692 21.54)" fill="#f14d99"/>
      <path id="Path-22" data-name="Path" d="M1.221,0H0V3.167H1.221Z" transform="translate(23.429 18.419)" fill="#32d697"/>
      <path id="Path-23" data-name="Path" d="M1.221.035H0V.46H1.221Z" transform="translate(25.213 18.384)" fill="#f14d99"/>
      <path id="Path-24" data-name="Path" d="M1.221,0H0V.85H1.221Z" transform="translate(26.951 18.844)" fill="#32d697"/>
      <path id="Path-25" data-name="Path" d="M1.221,0H0V2.221H1.221Z" transform="translate(28.735 17.473)" fill="#32d697"/>
      <path id="Path-26" data-name="Path" d="M1.221,0H0V.8H1.221Z" transform="translate(30.472 17.473)" fill="#f14d99"/>
      <path id="Path-27" data-name="Path" d="M1.221,0H0V.708H1.221Z" transform="translate(32.256 17.473)" fill="#32d697"/>
      <path id="Path-28" data-name="Path" d="M1.221,0H0V3.88H1.221Z" transform="translate(34.041 17.473)" fill="#32d697"/>
      <path id="Path-29" data-name="Path" d="M1.221,0H0V3.88H1.221Z" transform="translate(35.778 21.161)" fill="#32d697"/>
      <path id="Path-30" data-name="Path" d="M1.221,0H0V.9H1.221Z" transform="translate(37.562 25.466)" fill="#f14d99"/>
      <path id="Path-31" data-name="Path" d="M1.221,0H0V2.413H1.221Z" transform="translate(39.3 23.953)" fill="#32d697"/>
      <path id="Path-32" data-name="Path" d="M1.221,0H0V1.558H1.221Z" transform="translate(41.084 22.44)" fill="#f14d99"/>
      <path id="Path-33" data-name="Path" d="M1.08,2.175A1.088,1.088,0,1,0,0,1.088,1.085,1.085,0,0,0,1.08,2.175Z" transform="translate(22.866 40.465)" fill="#262a31"/>
      <path id="Path-34" data-name="Path" d="M.751,1.513A.756.756,0,1,0,0,.759.753.753,0,0,0,.751,1.513Z" transform="translate(48.268 10.613)" fill="url(#linear-gradient-2)"/>
      <path id="Path-35" data-name="Path" d="M9.6,22.439a.243.243,0,0,1-.17-.046C7.68,21.365,3.456,18.441,1.92,13.669A50.56,50.56,0,0,1,0,4.6c0-.082.043-.128.043-.169A.419.419,0,0,1,.256,4.3a11.39,11.39,0,0,0,2.432-.69,24.348,24.348,0,0,0,2.56-1.5C6.656,1.2,8.618,0,9.557,0c.9,0,2.773,1.2,4.138,2.061A22.75,22.75,0,0,0,16.383,3.61l.085.041A7.608,7.608,0,0,0,18.9,4.3a.327.327,0,0,1,.171.082.173.173,0,0,1,.043.215,50.56,50.56,0,0,1-1.92,9.072c-1.451,4.771-5.674,7.65-7.423,8.683C9.685,22.394,9.643,22.439,9.6,22.439Z" transform="translate(14.296 8.931)" fill="#eff2a6"/>
      <path id="Path-36" data-name="Path" d="M.854,6.193a.429.429,0,0,1-.427.43A.43.43,0,0,1,0,6.193.439.439,0,0,1,.256,5.8V2.194L2.432,0c.128.046.213.087.341.133L.6,2.322V5.8A.379.379,0,0,1,.854,6.193Z" transform="translate(22.146 8.026)" fill="#0b996a" opacity="0.2"/>
      <path id="Path-37" data-name="Path" d="M2.944.43a.429.429,0,0,1-.427.43A.4.4,0,0,1,2.3.818l.043.041L.3,2.925V5.416a1.991,1.991,0,0,1-.3-.3V2.8L2.133.644V.43A.429.429,0,0,1,2.56,0,.4.4,0,0,1,2.944.43Z" transform="translate(18.733 23.674)" fill="#0b996a" opacity="0.2"/>
      <path id="Path-38" data-name="Path" d="M2.3.471A.429.429,0,0,1,1.877.9H1.792V.946L.3,2.45V5.886C.213,5.8.085,5.717,0,5.63V2.276L1.579.686V.644C1.536.558,1.494.516,1.494.43A.429.429,0,0,1,1.92,0,.5.5,0,0,1,2.3.471Z" transform="translate(20.909 25.009)" fill="#0b996a" opacity="0.2"/>
      <path id="Path-39" data-name="Path" d="M.853.43A.439.439,0,0,1,.6.818v1.59c-.085-.087-.213-.174-.3-.26V.818A.459.459,0,0,1,0,.43.429.429,0,0,1,.427,0,.405.405,0,0,1,.853.43Z" transform="translate(19.586 27.673)" fill="#0b996a" opacity="0.2"/>
      <path id="Path-40" data-name="Path" d="M.6.087C.384.26.171.388,0,.516V.43A.429.429,0,0,1,.427,0C.469.046.555.046.6.087Z" transform="translate(25.73 30.982)" fill="#0b996a" opacity="0.2"/>
      <path id="Path-41" data-name="Path" d="M.174.43A1.5,1.5,0,0,1,.472,0V4.168C.344,3.437.259,2.751.174,2.189Z" transform="translate(13.184 12.5)" fill="#0b996a" opacity="0.2"/>
      <path id="Path-42" data-name="Path" d="M.811.558a.429.429,0,0,1-.427.43H.3C.213.644.085.3,0,0L.213.215A.263.263,0,0,1,.384.174.368.368,0,0,1,.811.558Z" transform="translate(14.851 21.869)" fill="#0b996a" opacity="0.2"/>
      <path id="Path-43" data-name="Path" d="M.853,7.436a.429.429,0,0,1-.427.43A.43.43,0,0,1,0,7.436a.415.415,0,0,1,.3-.388V6.49C.341,5.8.341,5.068.341,4.383V.082A1.117,1.117,0,0,1,.64,0V4.383C.64,5.114.6,5.8.6,6.531a2.507,2.507,0,0,1-.043.562A.324.324,0,0,1,.853,7.436Z" transform="translate(15.278 11.856)" fill="#0b996a" opacity="0.2"/>
      <path id="Path-44" data-name="Path" d="M2.389,0V13.107l-.17-.041a.369.369,0,0,0-.384.174v.041L.3,14.83v1.028a3.043,3.043,0,0,1-.3-.516V14.7l1.621-1.632a.646.646,0,0,1,.512-.3V.169A1.319,1.319,0,0,1,2.389,0Z" transform="translate(16.429 10.266)" fill="#0b996a" opacity="0.2"/>
      <path id="Path-45" data-name="Path" d="M1.323.471c0,.087.043.128.043.215L.6,1.458a.263.263,0,0,0-.17-.041A.43.43,0,0,0,0,1.846a.4.4,0,0,0,.427.43.4.4,0,0,0,.427-.43.251.251,0,0,0-.043-.169L1.621.859h.128a.43.43,0,0,0,0-.859A.541.541,0,0,0,1.323.471Z" transform="translate(26.583 23.204)" fill="#0b996a" opacity="0.2"/>
      <path id="Path-46" data-name="Path" d="M2.987.3a1.99,1.99,0,0,1-.128.3H.811a.373.373,0,0,1-.384.26A.43.43,0,0,1,.427,0,.432.432,0,0,1,.811.256H2.987Z" transform="translate(29.228 23.291)" fill="#0b996a" opacity="0.2"/>
      <path id="Path-47" data-name="Path" d="M5.034,2.02c-.043.087-.043.219-.085.3H2.091L2.048,2.28c-.085-.087-.426-.43-.725-.731C.939,1.161.725.946.6.818.555.818.469.864.427.864A.432.432,0,0,1,.427,0,.43.43,0,0,1,.854.43.257.257,0,0,1,.811.6l.725.731a7.744,7.744,0,0,1,.683.731H5.034Z" transform="translate(27.778 19.676)" fill="#0b996a" opacity="0.2"/>
      <path id="Path-48" data-name="Path" d="M0,.434a.429.429,0,0,0,.427.43A.243.243,0,0,0,.6.818L2.005,2.239l.341.3a.4.4,0,0,0-.043.215.429.429,0,0,0,.427.43.4.4,0,0,0,.426-.43.405.405,0,0,0-.426-.43H2.645l-.426-.3L.811.6C.811.562.853.516.853.434A.43.43,0,0,0,.427,0,.407.407,0,0,0,0,.434Z" transform="translate(27.522 16.924)" fill="#0b996a" opacity="0.2"/>
      <path id="Path-49" data-name="Path" d="M0,.471A.43.43,0,0,0,.426.9.151.151,0,0,0,.555.859L2.218,2.536a.463.463,0,0,0-.085.256.429.429,0,0,0,.426.43.4.4,0,0,0,.427-.43.406.406,0,0,0-.427-.43H2.475L.768.644C.811.6.811.516.811.43A.429.429,0,0,0,.384,0,.507.507,0,0,0,0,.471Z" transform="translate(30.125 16.883)" fill="#0b996a" opacity="0.2"/>
      <path id="Path-50" data-name="Path" d="M5.8.347c0,.082-.043.215-.043.3H.81A.443.443,0,0,1,.426.864.431.431,0,0,1,0,.43.405.405,0,0,1,.426,0,.414.414,0,0,1,.81.3H5.8Z" transform="translate(28.418 15.119)" fill="#0b996a" opacity="0.2"/>
      <path id="Path-51" data-name="Path" d="M1.408,1.248c-.043.128-.043.256-.085.384L.555.859H.427A.43.43,0,1,1,.853.43.391.391,0,0,1,.811.644Z" transform="translate(32.3 16.883)" fill="#0b996a" opacity="0.2"/>
      <path id="Path-52" data-name="Path" d="M4.608,0a1.769,1.769,0,0,1-.171.3H2.005L.9,1.421.811,1.334c.043.041.043.128.043.215a.429.429,0,0,1-.426.43A.43.43,0,0,1,0,1.549a.406.406,0,0,1,.427-.43.313.313,0,0,1,.213.087L1.835,0Z" transform="translate(27.052 24.963)" fill="#0b996a" opacity="0.2"/>
      <path id="Path-53" data-name="Path" d="M3.754.041a.784.784,0,0,1-.213.3H1.92L.811,1.458a.272.272,0,0,1,.043.174.427.427,0,1,1-.853,0A.429.429,0,0,1,.426,1.2a.161.161,0,0,1,.128.041L1.792,0H3.754Z" transform="translate(27.351 25.955)" fill="#0b996a" opacity="0.2"/>
      <path id="Path-54" data-name="Path" d="M3.328.43A.429.429,0,0,0,2.9,0a.4.4,0,0,0-.426.43V.512L.6,2.4a.263.263,0,0,0-.17-.041.43.43,0,0,0,0,.859.43.43,0,0,0,.426-.43.157.157,0,0,0-.043-.128L2.688.772A.329.329,0,0,0,2.9.813.352.352,0,0,0,3.328.43Z" transform="translate(23.298 28.491)" fill="#0b996a" opacity="0.2"/>
      <path id="Path-55" data-name="Path" d="M3.2.43A.429.429,0,0,0,2.773,0a.405.405,0,0,0-.427.43.157.157,0,0,0,.043.128L.6,2.363a.263.263,0,0,0-.17-.041.43.43,0,1,0,.427.43A.156.156,0,0,0,.81,2.623L2.6.818a.264.264,0,0,0,.171.041A.405.405,0,0,0,3.2.43Z" transform="translate(23.341 26.298)" fill="#0b996a" opacity="0.2"/>
      <path id="Path-56" data-name="Path" d="M1.877.43a.429.429,0,0,1-.426.43c-.085,0-.128,0-.171-.041,0,.041-.043.041-.043.087-.043.041-.085.128-.128.169V1.12L.3,1.938V5.891C.213,5.8.085,5.763,0,5.676V1.805L.9.9A.231.231,0,0,0,.982.731.609.609,0,0,0,1.11.562c0-.046-.043-.087-.043-.133A.429.429,0,0,1,1.494,0,.394.394,0,0,1,1.877.43Z" transform="translate(22.146 25.909)" fill="#0b996a" opacity="0.2"/>
      <path id="Path-57" data-name="Path" d="M2.773.43a.427.427,0,1,0-.853,0,.334.334,0,0,0,.085.215L.64,2.02C.6,1.974.512,1.974.427,1.974a.43.43,0,0,0,0,.859A.4.4,0,0,0,.854,2.4c0-.082,0-.128-.043-.169l.043.041L2.176.946,2.133.813c.043.046.128.046.213.046A.46.46,0,0,0,2.773.43Z" transform="translate(19.714 24.365)" fill="#0b996a" opacity="0.2"/>
      <path id="Path-58" data-name="Path" d="M0,2.491a.43.43,0,0,0,.426.434.431.431,0,0,0,.427-.434c0-.082-.043-.128-.043-.215L2.09.987C2.133.946,2.133.946,2.176.9L2.218.859h.128a.43.43,0,0,0,0-.859.406.406,0,0,0-.427.43.387.387,0,0,0,.043.215L1.919.686c0,.046-.043.046-.043.087L.554,2.107H.426A.419.419,0,0,0,0,2.491Z" transform="translate(23.341 21.956)" fill="#0b996a" opacity="0.2"/>
      <path id="Path-59" data-name="Path" d="M.853.43A.429.429,0,0,0,.426,0,.405.405,0,0,0,0,.43.439.439,0,0,0,.256.818c0,1.161-.043,3.135-.043,3.309l-.043.43L1.493,3.222c.043.046.128.046.213.046a.43.43,0,0,0,.427-.43.4.4,0,0,0-.427-.43.4.4,0,0,0-.426.43v.087c0,.041-.043.041-.043.082l-.682.731C.555,2.966.6,1.33.6.818A.4.4,0,0,0,.853.43Z" transform="translate(20.738 17.4)" fill="#0b996a" opacity="0.2"/>
      <path id="Path-60" data-name="Path" d="M.853.43A.429.429,0,0,0,.426,0,.4.4,0,0,0,0,.43.409.409,0,0,0,.256.813V6.448A.373.373,0,0,0,0,6.832a.429.429,0,0,0,.426.43.4.4,0,0,0,.427-.43A.432.432,0,0,0,.6,6.448V.813A.384.384,0,0,0,.853.43Z" transform="translate(20.738 9.018)" fill="#0b996a" opacity="0.2"/>
      <path id="Path-61" data-name="Path" d="M0,.43A.41.41,0,0,0,.3.813V2.02A.41.41,0,0,0,0,2.4a.429.429,0,0,0,.427.43A.4.4,0,0,0,.853,2.4.409.409,0,0,0,.6,2.02V.813A.5.5,0,0,0,.853.43.429.429,0,0,0,.427,0,.429.429,0,0,0,0,.43Z" transform="translate(23.512 10.695)" fill="#0b996a" opacity="0.2"/>
      <path id="Path-62" data-name="Path" d="M2.347,0V14.442H2.133L.3,16.288v1.938a2.355,2.355,0,0,1-.3-.388V15.6l.256.343,1.749-1.76h.043V.215A1.568,1.568,0,0,1,2.347,0Z" transform="translate(17.624 9.534)" fill="#0b996a" opacity="0.2"/>
      <path id="Path-63" data-name="Path" d="M.853,7.568A.429.429,0,0,1,.426,8a.385.385,0,0,1-.3-.133A.379.379,0,0,1,0,7.568a.259.259,0,0,1,.043-.174A.381.381,0,0,1,.3,7.139V.26C.213.26.17.174.128.128A.263.263,0,0,0,.3.087,2.868,2.868,0,0,0,.81,0,.5.5,0,0,1,.6.215V7.139A.649.649,0,0,1,.853,7.568Z" transform="translate(14.211 12.025)" fill="#0b996a" opacity="0.2"/>
      <path id="Path-64" data-name="Path" d="M2.048,11.348.811,12.6v.087a.429.429,0,0,1-.427.43.312.312,0,0,1-.213-.087A.392.392,0,0,1,0,12.682V12.6a.416.416,0,0,1,.427-.343.313.313,0,0,1,.213.087l1.109-1.12V.174c.085-.046.213-.128.3-.174Z" transform="translate(15.49 11.079)" fill="#0b996a" opacity="0.2"/>
      <path id="Path-65" data-name="Path" d="M4.1.6H.811A.37.37,0,0,1,.427.859.427.427,0,0,1,0,.43.406.406,0,0,1,.427,0,.428.428,0,0,1,.811.26H3.584C3.754.388,3.925.475,4.1.6Z" transform="translate(24.749 9.704)" fill="#0b996a" opacity="0.2"/>
      <path id="Path-66" data-name="Path" d="M6.613.562H.811a.411.411,0,0,1-.384.3A.43.43,0,0,1,.426,0,.45.45,0,0,1,.811.215H5.973a4.6,4.6,0,0,1,.469.26C6.442.516,6.528.562,6.613.562Z" transform="translate(24.706 11.079)" fill="#0b996a" opacity="0.2"/>
      <path id="Path-67" data-name="Path" d="M.426,0A.43.43,0,0,0,0,.43a.4.4,0,0,0,.426.43A.439.439,0,0,0,.81.644H7.594A.373.373,0,0,0,7.978.9.43.43,0,0,0,8.4.475a.4.4,0,0,0-.426-.43A.431.431,0,0,0,7.594.3H.853A.423.423,0,0,0,.426,0Z" transform="translate(25.517 12.24)" fill="#0b996a" opacity="0.2"/>
      <path id="Path-68" data-name="Path" d="M10.026.3a.735.735,0,0,1-.043.3H.811a.5.5,0,0,1-.384.26A.43.43,0,0,1,.427,0,.41.41,0,0,1,.811.3Z" transform="translate(24.407 13.446)" fill="#0b996a" opacity="0.2"/>
      <path id="Path-69" data-name="Path" d="M.768.388A.436.436,0,0,1,.427.6.43.43,0,0,1,0,.174.272.272,0,0,1,.043,0C.256.133.512.26.768.388Z" transform="translate(26.285 8.758)" fill="#0b996a" opacity="0.2"/>
      <path id="Path-70" data-name="Path" d="M0,.43A.416.416,0,0,0,.3.818V5.5a.411.411,0,0,0-.3.388.429.429,0,0,0,.427.43.43.43,0,0,0,.427-.43A.414.414,0,0,0,.6,5.5V.818A.454.454,0,0,0,.811.43.429.429,0,0,0,.384,0,.423.423,0,0,0,0,.43Z" transform="translate(25.388 15.078)" fill="#0b996a" opacity="0.2"/>
      <path id="Path-71" data-name="Path" d="M2.389.43a.439.439,0,0,0,.256.388V7.564L.6,9.629.64,9.67a.329.329,0,0,0-.213-.041.43.43,0,0,0-.426.43.405.405,0,0,0,.426.43.43.43,0,0,0,.427-.43.391.391,0,0,0-.043-.215L2.944,7.7V.818A.378.378,0,0,0,3.2.43.429.429,0,0,0,2.773,0,.394.394,0,0,0,2.389.43Z" transform="translate(24.109 15.078)" fill="#0b996a" opacity="0.2"/>
      <path id="Path-72" data-name="Path" d="M1.706.388A.454.454,0,0,0,1.92.777V6.75l-.853.859c-.085.087-.17.174-.3.3C.683,8,.64,8.039.555,8.126c-.043,0-.085-.041-.128-.041A.427.427,0,0,0,0,8.514a.406.406,0,0,0,.427.43.43.43,0,0,0,.426-.43c0-.087,0-.128-.043-.174.043-.041.128-.128.17-.169.085-.087.171-.174.3-.3l.939-.946V.818a.411.411,0,0,0,.3-.388A.429.429,0,0,0,2.091,0,.361.361,0,0,0,1.706.388Z" transform="translate(22.573 15.119)" fill="#0b996a" opacity="0.2"/>
      <path id="Path-73" data-name="Path" d="M1.323.43a.439.439,0,0,0,.256.388v5.63L.6,7.436a.263.263,0,0,0-.17-.041A.427.427,0,0,0,0,7.824a.406.406,0,0,0,.427.43.43.43,0,0,0,.426-.43A.153.153,0,0,0,.811,7.7L1.92,6.576V.818A.379.379,0,0,0,2.176.43a.427.427,0,1,0-.853,0Z" transform="translate(21.848 15.078)" fill="#0b996a" opacity="0.2"/>
      <path id="Path-74" data-name="Path" d="M.683.075C.6.208.469.335.384.463L0,.075Z" transform="translate(29.442 27.338)" fill="#0b996a" opacity="0.2"/>
      <path id="Path-75" data-name="Path" d="M1.366.343a1.97,1.97,0,0,0-.3.3h-.3A.437.437,0,0,1,.427.859.43.43,0,0,1,.427,0,.373.373,0,0,1,.811.3h.555Z" transform="translate(27.394 28.619)" fill="#0b996a" opacity="0.2"/>
      <path id="Path-76" data-name="Path" d="M11.534,6.181a5.22,5.22,0,0,1-.094.85,1.958,1.958,0,0,1-.047.238,8.072,8.072,0,0,1-.329.992.847.847,0,0,0-.094.238,8.2,8.2,0,0,1-.516.85,2.075,2.075,0,0,0-.235.334A7.319,7.319,0,0,1,8.435,11.1c-.141.05-.235.142-.376.192a3.783,3.783,0,0,1-.657.233,1.565,1.565,0,0,1-.47.1c-.094,0-.188.05-.282.05a5.906,5.906,0,0,1-2.019-.05A5.87,5.87,0,0,1,7.026.125,6.094,6.094,0,0,1,9.984,1.734,6.134,6.134,0,0,1,11.534,6.181Z" transform="translate(34.674 33.768)" fill="url(#linear-gradient-3)"/>
      <path id="Path-77" data-name="Path" d="M4.8,0A4.772,4.772,0,0,0,2.175.8,4.678,4.678,0,0,0,.108,3.88,4.813,4.813,0,0,0,3.865,9.6a4.736,4.736,0,0,0,2.3-.1,3.545,3.545,0,0,0,.563-.187,2.283,2.283,0,0,1,.329-.142A4.317,4.317,0,0,0,8.513,8.039,1.038,1.038,0,0,1,8.7,7.806a5.606,5.606,0,0,0,.423-.713c.047-.046.047-.142.094-.187a3.828,3.828,0,0,0,.329-1.042,4.751,4.751,0,0,0-1.315-4.4A4.763,4.763,0,0,0,5.79.142,3.5,3.5,0,0,0,4.8,0Z" transform="translate(35.582 34.698)" fill="#f9b400"/>
      <path id="Path-78" data-name="Path" d="M8.123,3.167a4.219,4.219,0,0,1-.094.759c0,.1-.047.142-.047.238a5.109,5.109,0,0,1-.329.9c-.047.1-.047.142-.094.238a4.152,4.152,0,0,1-.469.759c-.094.091-.141.187-.235.283a5.888,5.888,0,0,1-1.6,1.275,1.228,1.228,0,0,0-.329.192,2.372,2.372,0,0,1-.611.187,1.284,1.284,0,0,1-.422.1L0,3.83l1.174-.754.939.425s-.141-.334-.188-.425a11.773,11.773,0,0,1,1.643-.663l-.7-1.8L5.071,0Z" transform="translate(37.562 36.727)" fill="url(#linear-gradient-4)"/>
      <path id="Path-79" data-name="Path" d="M4.455,0a1.444,1.444,0,0,1,1.5,1.133A1.3,1.3,0,0,1,4.924,2.6a1.217,1.217,0,0,1-.422.05.555.555,0,0,0-.517.521.525.525,0,0,0,.423.567.939.939,0,0,1,.329.046A1.372,1.372,0,0,1,5.957,5.112,1.386,1.386,0,0,1,4.5,6.483,1.366,1.366,0,0,1,3.422,4.5c.187-.375.094-.663-.141-.8a.5.5,0,0,0-.657.1c-.094.1-.141.192-.188.238A1.32,1.32,0,0,1,.041,3.549a1.347,1.347,0,0,1,2.3-1.229,2.1,2.1,0,0,1,.234.334.53.53,0,0,0,.611.187c.329-.142.422-.425.188-.9A1.4,1.4,0,0,1,3.985.1,2.462,2.462,0,0,1,4.455,0Z" transform="translate(37.005 36.345)" fill="url(#linear-gradient-5)"/>
      <g id="Group_1346" data-name="Group 1346" transform="translate(6.351 31.387)">
        <path id="Path-80" data-name="Path" d="M11.779,7.236c-.563,2.792-3.286,4.543-4.226,4.543a5.959,5.959,0,0,1-7.419-7A5.912,5.912,0,0,1,7.178.138,5.969,5.969,0,0,1,11.779,7.236Z" transform="translate(0 0)" fill="url(#linear-gradient-6)"/>
        <path id="Path-81" data-name="Path" d="M2.179.809A4.679,4.679,0,0,0,.113,3.885C-1.107,9.844,7.908,12.353,9.5,5.873A4.807,4.807,0,0,0,2.179.809Z" transform="translate(1.149 1.176)" fill="#f9b400"/>
        <path id="Path-82" data-name="Path" d="M7.419,5.205a3.891,3.891,0,0,1-.235.663c-.047.091-.047.142-.094.233-.141.283-.329.521-.469.8a1.157,1.157,0,0,1-.235.283,5.327,5.327,0,0,1-1.643,1.28,2.892,2.892,0,0,0-.376.187,3.139,3.139,0,0,1-.611.192H3.709L2.254,7.381V5.489L0,3.688l1.315.334S1.268,1.7,1.221,1.654a3.626,3.626,0,0,1,.7,0A9.553,9.553,0,0,0,2.3,0Z" transform="translate(3.696 2.405)" fill="url(#linear-gradient-7)"/>
        <path id="Path-83" data-name="Path" d="M4.6,3.738,2.3,5.109,0,3.738,2.3,0Z" transform="translate(3.649 2.405)" fill="#fff"/>
        <path id="Path-84" data-name="Path" d="M4.6,0,2.3,3.217,0,0,2.3,1.325Z" transform="translate(3.649 6.569)" fill="#fff"/>
        <path id="Path-85" data-name="Path" d="M4.6,1.042,2.3,2.413,0,1.042,2.3,0Z" transform="translate(3.649 5.102)" fill="#fdf2c8"/>
        <path id="Path-86" data-name="Path" d="M0,1.325,2.3,0,0,3.217Z" transform="translate(5.95 6.569)" fill="#facd35" opacity="0.3"/>
        <path id="Path-87" data-name="Path" d="M2.3,3.738,0,5.109V0Z" transform="translate(5.95 2.405)" fill="#facd35" opacity="0.3"/>
      </g>
      <path id="Path-88" data-name="Path" d="M14.622,8.913a.892.892,0,0,1-.094.334,6.744,6.744,0,0,1-.422,1.275,2.389,2.389,0,0,0-.141.334,8.435,8.435,0,0,1-.658,1.088,1.294,1.294,0,0,1-.329.379,7.666,7.666,0,0,1-2.254,1.8c-.141.1-.329.142-.469.238a6.8,6.8,0,0,1-.845.283c-.329.1-.657.142-.986.238a7.753,7.753,0,0,1-2.535-.1A7.468,7.468,0,0,1,8.941.161,7.064,7.064,0,0,1,12.65,2.195,7.451,7.451,0,0,1,14.622,8.913Z" transform="translate(36.235 0)" fill="url(#linear-gradient-8)"/>
      <path id="Path-89" data-name="Path" d="M6.1,0A5.984,5.984,0,0,0,2.763.992,6.082,6.082,0,0,0,.133,4.872a6.178,6.178,0,0,0,4.742,7.285,6.713,6.713,0,0,0,2.911-.091,6.467,6.467,0,0,0,.7-.238,2.786,2.786,0,0,0,.376-.192,6.291,6.291,0,0,0,1.878-1.462,1.445,1.445,0,0,0,.235-.334c.188-.283.376-.567.563-.9a.77.77,0,0,0,.094-.233,6.273,6.273,0,0,0,.423-1.325A6.126,6.126,0,0,0,10.416,1.8,6.048,6.048,0,0,0,7.317.142,5.016,5.016,0,0,0,6.1,0Z" transform="translate(37.483 1.203)" fill="#f9b400"/>
      <path id="Path-90" data-name="Path" d="M10.329,6.43a6.713,6.713,0,0,1-.423,1.28,2.417,2.417,0,0,0-.141.329,8.181,8.181,0,0,1-.657,1.088,1.3,1.3,0,0,1-.329.379,7.614,7.614,0,0,1-2.254,1.8c-.141.091-.329.142-.469.233a5.568,5.568,0,0,1-.845.283c-.329.1-.657.142-.986.238L0,7.806,1.831,6.86l.235-.43.047-.9s-.094-3.268-.141-3.359c0-.1.563-2.13.563-2.13l.658,1.467L3.9,0Z" transform="translate(40.427 2.761)" fill="url(#linear-gradient-9)"/>
      <path id="Shape" d="M4.038,9.273h-.8V7.851H2.583V9.223H1.691V7.76C1.127,7.71.554,7.71,0,7.71c.08-.376.115-.57.138-.7.018-.1.03-.164.05-.247,0-.031.023-.066.054-.066a.056.056,0,0,1,.041.021H.8c.28,0,.329-.091.329-.283v-3.6a.442.442,0,0,0-.47-.471H.094V1.512H1.644c.094,0,.094,0,.094-.1V0h.892V1.467h.657V0h.8V1.417c0,.049,0,.1.094.1.943.136,1.829.4,1.925,1.421a1.312,1.312,0,0,1-.235.992,1.073,1.073,0,0,1-.47.379c.03.012.065.025.107.039a1.46,1.46,0,0,1,1.02.907,1.754,1.754,0,0,1,.047.85,2.159,2.159,0,0,1-.329.854,1.91,1.91,0,0,1-.845.612,3.8,3.8,0,0,1-1.267.238c-.046,0-.094,0-.094.1V9.272ZM3.068,4.9c-.16,0-.327.007-.485.021V6.764c.193-.01.368-.016.523-.02A3.287,3.287,0,0,0,4.46,6.526a.712.712,0,0,0,.423-.612.632.632,0,0,0-.376-.708A2.84,2.84,0,0,0,3.068,4.9ZM2.96,2.409l-.2,0-.178,0V4.067a2.275,2.275,0,0,0,.324.02,3.512,3.512,0,0,0,.944-.116A.775.775,0,0,0,4.5,3.278a.687.687,0,0,0-.41-.678A2.819,2.819,0,0,0,2.96,2.409Z" transform="translate(40.332 2.807)" fill="url(#linear-gradient-10)"/>
      <path id="Shape-2" data-name="Shape" d="M9.974,24.5A18.171,18.171,0,0,1,2.38,16.334c-.043-.128-.128-.3-.171-.429A50.539,50.539,0,0,1,.417,8.9C-.351,4.771-.095,4.6,1.484,4.255a7.98,7.98,0,0,0,2.56-.9c.9-.562,1.664-.992,2.3-1.421C8.438.645,9.5,0,10.657,0a5.185,5.185,0,0,1,2.56.859c.682.388,1.408.859,2.133,1.289C17.014,3.181,18.72,4.255,20,4.255a1.382,1.382,0,0,1,1.067.475A1.538,1.538,0,0,1,21.408,5.8a1.86,1.86,0,0,1-.043.384,43.975,43.975,0,0,1-1.579,7.824c-.085.26-.171.516-.256.777l-.384,1.028c-.042.087-.086.215-.128.3a14.807,14.807,0,0,1-3.584,5.375c-.3.3-.64.6-.981.9s-.725.6-1.194.946c-1.365,1.033-2.006,1.376-2.56,1.376A1.523,1.523,0,0,1,9.974,24.5Z" transform="translate(13.153 7.77)" fill="#eff2a6"/>
      <path id="Path-91" data-name="Path" d="M3.146,6.477a1.064,1.064,0,0,1-.768-.343L.16,3.9a.5.5,0,0,1,0-.731l.853-.859a.489.489,0,0,1,.725,0l1.11,1.115a.489.489,0,0,0,.725,0L6.816.161a.489.489,0,0,1,.725,0l.853.859a.5.5,0,0,1,0,.731L3.915,6.134A1.065,1.065,0,0,1,3.146,6.477Z" transform="translate(20.152 16.466)" fill="#e0e39c"/>
    </g>
  </g>
</svg>
