<svg xmlns="http://www.w3.org/2000/svg" xmlns:xlink="http://www.w3.org/1999/xlink" width="51.07" height="51.07" viewBox="0 0 51.07 51.07">
  <defs>
    <linearGradient id="linear-gradient" x1="0.006" y1="0.494" x2="0.976" y2="0.494" gradientUnits="objectBoundingBox">
      <stop offset="0.003" stop-color="#ffd44f"/>
      <stop offset="1" stop-color="#ffa607"/>
    </linearGradient>
  </defs>
  <g id="Network_Icon_02" data-name="Network Icon 02" transform="translate(0.5 0.5)">
    <g id="_20" data-name="20">
      <path id="Path" d="M21.2,42.394A21.2,21.2,0,1,0,0,21.2,21.2,21.2,0,0,0,21.2,42.394Z" transform="translate(3.838 3.838)" fill="#fff" opacity="0.17"/>
      <path id="Path-2" data-name="Path" d="M25.035,50.07A25.035,25.035,0,1,0,0,25.035,25.035,25.035,0,0,0,25.035,50.07Z" fill="none" stroke="#2a2e38" stroke-width="1" opacity="0.26"/>
      <path id="Path-3" data-name="Path" d="M1.4,2.08A1.066,1.066,0,1,0,.052,1.4,1.066,1.066,0,0,0,1.4,2.08Z" transform="translate(9.644 6.055)" fill="#eaeef9"/>
      <path id="Path-4" data-name="Path" d="M.683,1.365A.682.682,0,1,0,0,.682.682.682,0,0,0,.683,1.365Z" transform="translate(5.416 43.502)" fill="url(#linear-gradient)"/>
      <path id="Path-5" data-name="Path" d="M12.112,3.456a1.355,1.355,0,0,0-.469-.512H11.6L6.866.172a1.466,1.466,0,0,0-1.45.043L.767,2.9a1.386,1.386,0,0,0-.554.555A1.437,1.437,0,0,0,0,4.181v5.886a1.543,1.543,0,0,0,.725,1.279l4.521,2.6a1.677,1.677,0,0,0,.9.256,1.79,1.79,0,0,0,.9-.256l4.521-2.6a1.449,1.449,0,0,0,.725-1.279V4.181A1.085,1.085,0,0,0,12.112,3.456Z" transform="translate(34.29 3.155)" fill="none" stroke="#707070" stroke-width="1"/>
      <path id="Path-6" data-name="Path" d="M12.283,4.164v5.885a1.543,1.543,0,0,1-.725,1.28l-4.521,2.6a1.677,1.677,0,0,1-.9.256,1.791,1.791,0,0,1-.9-.256l-4.521-2.6A1.4,1.4,0,0,1,0,10.049V4.164a1.436,1.436,0,0,1,.213-.725,1.384,1.384,0,0,1,.555-.555L5.416.2A1.58,1.58,0,0,1,6.866.155.042.042,0,0,1,6.909.2L11.6,2.884a.042.042,0,0,1,.043.043h.043a1.354,1.354,0,0,1,.469.512A3.665,3.665,0,0,1,12.283,4.164Z" transform="translate(34.333 3.172)" fill="#4c617d"/>
      <path id="Path-7" data-name="Path" d="M6.142.725V6.611a1.543,1.543,0,0,1-.725,1.28L.9,10.492a1.677,1.677,0,0,1-.9.256V3.412L5.928,0A1.441,1.441,0,0,1,6.142.725Z" transform="translate(40.474 6.611)" fill="#303440"/>
      <path id="Path-8" data-name="Path" d="M6.142,3.412v7.336a1.791,1.791,0,0,1-.9-.256L.725,7.89A1.4,1.4,0,0,1,0,6.611V.725A1.437,1.437,0,0,1,.213,0Z" transform="translate(34.333 6.611)" fill="#555c72"/>
      <path id="Path-9" data-name="Path" d="M11.9,3.482,5.971,6.894,0,3.439a1.386,1.386,0,0,1,.554-.555L5.2.2A1.579,1.579,0,0,1,6.653.155L11.43,2.927h.043A1.764,1.764,0,0,1,11.9,3.482Z" transform="translate(34.503 3.129)" fill="#70778a"/>
      <path id="Shape" d="M1.749,3.631.511,2.948A1.086,1.086,0,0,1,0,2.1V.944C0,.773.128.688.3.773L.341.816v-.3c0-.469.3-.64.725-.426a1.726,1.726,0,0,1,.768,1.322l.043.3a1.866,1.866,0,0,1,.384.469V3.332c0,.239-.126.374-.289.374A.405.405,0,0,1,1.749,3.631Z" transform="translate(36.317 10.211)" fill="#9ca5ba"/>
      <path id="Path-10" data-name="Path" d="M12.112,3.456a1.355,1.355,0,0,0-.469-.512H11.6L6.824.172a1.466,1.466,0,0,0-1.45.043L.767,2.9a1.386,1.386,0,0,0-.554.555A1.437,1.437,0,0,0,0,4.181v5.885a1.543,1.543,0,0,0,.725,1.28l4.521,2.6a1.677,1.677,0,0,0,.9.256,1.79,1.79,0,0,0,.9-.256l4.521-2.6a1.449,1.449,0,0,0,.725-1.28V4.224A1.205,1.205,0,0,0,12.112,3.456Z" transform="translate(34.29 33.35)" fill="none" stroke="#707070" stroke-width="1"/>
      <path id="Path-11" data-name="Path" d="M12.283,4.164V10.05a1.543,1.543,0,0,1-.725,1.279l-4.521,2.6a1.677,1.677,0,0,1-.9.256,1.791,1.791,0,0,1-.9-.256l-4.521-2.6A1.4,1.4,0,0,1,0,10.05V4.164a1.437,1.437,0,0,1,.213-.725,1.381,1.381,0,0,1,.555-.554L5.416.2A1.58,1.58,0,0,1,6.866.155.042.042,0,0,1,6.909.2L11.6,2.885a.042.042,0,0,1,.043.043h.043a1.354,1.354,0,0,1,.469.512A3.174,3.174,0,0,1,12.283,4.164Z" transform="translate(34.333 33.41)" fill="#4c617d"/>
      <path id="Path-12" data-name="Path" d="M6.142.725V6.611A1.543,1.543,0,0,1,5.416,7.89L.9,10.492a1.677,1.677,0,0,1-.9.256V3.412L5.928,0A1.324,1.324,0,0,1,6.142.725Z" transform="translate(40.474 36.849)" fill="#303440"/>
      <path id="Path-13" data-name="Path" d="M6.142,3.412v7.335a1.791,1.791,0,0,1-.9-.256L.725,7.89A1.4,1.4,0,0,1,0,6.611V.725A1.437,1.437,0,0,1,.213,0Z" transform="translate(34.333 36.849)" fill="#555c72"/>
      <path id="Path-14" data-name="Path" d="M11.9,3.482,5.971,6.894,0,3.439a1.386,1.386,0,0,1,.554-.555L5.2.2A1.579,1.579,0,0,1,6.653.155L11.43,2.927h.043A3.909,3.909,0,0,1,11.9,3.482Z" transform="translate(34.503 33.325)" fill="#70778a"/>
      <path id="Shape-2" data-name="Shape" d="M1.749,3.631.511,2.948A1.085,1.085,0,0,1,0,2.1V.944C0,.773.128.688.3.773L.341.816v-.3c0-.469.3-.64.725-.426a1.726,1.726,0,0,1,.768,1.322l.043.3c.17.086.3.341.384.469V3.332c0,.239-.126.374-.289.374A.4.4,0,0,1,1.749,3.631Z" transform="translate(36.317 40.449)" fill="#9ca5ba"/>
      <path id="Path-15" data-name="Path" d="M12.112,3.456a1.351,1.351,0,0,0-.469-.512H11.6L6.824.172a1.467,1.467,0,0,0-1.45.043L.768,2.9a1.39,1.39,0,0,0-.555.555A1.441,1.441,0,0,0,0,4.181v5.885a1.543,1.543,0,0,0,.725,1.28l4.521,2.6a1.677,1.677,0,0,0,.9.256,1.791,1.791,0,0,0,.9-.256l4.521-2.6a1.449,1.449,0,0,0,.725-1.28V4.224A1.206,1.206,0,0,0,12.112,3.456Z" transform="translate(3.412 33.35)" fill="none" stroke="#707070" stroke-width="1"/>
      <path id="Path-16" data-name="Path" d="M12.283,4.164V10.05a1.543,1.543,0,0,1-.725,1.279l-4.521,2.6a1.678,1.678,0,0,1-.9.256,1.79,1.79,0,0,1-.9-.256l-4.521-2.6A1.4,1.4,0,0,1,0,10.05V4.164a1.437,1.437,0,0,1,.214-.725,1.382,1.382,0,0,1,.554-.554L5.417.2A1.58,1.58,0,0,1,6.867.155.042.042,0,0,1,6.909.2L11.6,2.885a.042.042,0,0,1,.043.043h.043a1.355,1.355,0,0,1,.469.512A3.176,3.176,0,0,1,12.283,4.164Z" transform="translate(3.454 33.41)" fill="#4c617d"/>
      <path id="Path-17" data-name="Path" d="M6.142.725V6.611A1.543,1.543,0,0,1,5.417,7.89L.9,10.492a1.678,1.678,0,0,1-.9.256V3.412L5.928,0A1.32,1.32,0,0,1,6.142.725Z" transform="translate(9.596 36.849)" fill="#303440"/>
      <path id="Path-18" data-name="Path" d="M6.142,3.412v7.335a1.79,1.79,0,0,1-.9-.256L.725,7.89A1.4,1.4,0,0,1,0,6.611V.725A1.441,1.441,0,0,1,.213,0Z" transform="translate(3.454 36.849)" fill="#555c72"/>
      <path id="Path-19" data-name="Path" d="M11.9,3.482,5.971,6.894,0,3.439a1.39,1.39,0,0,1,.555-.555L5.2.2A1.58,1.58,0,0,1,6.654.155L11.43,2.927h.043A3.871,3.871,0,0,1,11.9,3.482Z" transform="translate(3.625 33.325)" fill="#70778a"/>
      <path id="Shape-3" data-name="Shape" d="M1.748,3.673.511,2.991A1.085,1.085,0,0,1,0,2.138V.986C0,.816.128.73.3.816H.341v-.3c0-.469.3-.64.725-.426a1.726,1.726,0,0,1,.768,1.322l.043.3a1.166,1.166,0,0,1,.384.512V3.374c0,.24-.126.374-.29.374A.406.406,0,0,1,1.748,3.673Z" transform="translate(5.439 40.449)" fill="#9ca5ba"/>
      <path id="Path-20" data-name="Path" d="M12.112,3.413a1.355,1.355,0,0,0-.469-.512H11.6L6.867.172a1.466,1.466,0,0,0-1.45.043L.768,2.9a1.39,1.39,0,0,0-.555.555A1.44,1.44,0,0,0,0,4.181v5.885a1.544,1.544,0,0,0,.725,1.28l4.521,2.6a1.677,1.677,0,0,0,.9.256,1.791,1.791,0,0,0,.9-.256l4.521-2.6a1.449,1.449,0,0,0,.725-1.28V4.181A1.146,1.146,0,0,0,12.112,3.413Z" transform="translate(3.412 2.515)" fill="none" stroke="#707070" stroke-width="1"/>
      <path id="Path-21" data-name="Path" d="M12.283,4.164V10.05a1.544,1.544,0,0,1-.725,1.28l-4.521,2.6a1.678,1.678,0,0,1-.9.256,1.79,1.79,0,0,1-.9-.256l-4.521-2.6A1.4,1.4,0,0,1,0,10.05V4.164a1.44,1.44,0,0,1,.213-.725,1.39,1.39,0,0,1,.555-.555L5.417.2A1.579,1.579,0,0,1,6.867.155.042.042,0,0,1,6.909.2L11.6,2.885a.042.042,0,0,1,.043.043h.043a1.36,1.36,0,0,1,.469.512A2.79,2.79,0,0,1,12.283,4.164Z" transform="translate(3.454 2.532)" fill="#4c617d"/>
      <path id="Path-22" data-name="Path" d="M6.142.725V6.611a1.544,1.544,0,0,1-.725,1.28L.9,10.492a1.679,1.679,0,0,1-.9.256V3.412L5.928,0A1.219,1.219,0,0,1,6.142.725Z" transform="translate(9.596 5.971)" fill="#303440"/>
      <path id="Path-23" data-name="Path" d="M6.142,3.412v7.336a1.794,1.794,0,0,1-.9-.256L.725,7.89A1.4,1.4,0,0,1,0,6.611V.725A1.44,1.44,0,0,1,.213,0Z" transform="translate(3.454 5.928)" fill="#555c72"/>
      <path id="Path-24" data-name="Path" d="M11.9,3.482,5.971,6.894,0,3.439a1.387,1.387,0,0,1,.555-.555L5.2.2A1.581,1.581,0,0,1,6.654.155L11.43,2.927h.043A3.871,3.871,0,0,1,11.9,3.482Z" transform="translate(3.625 2.447)" fill="#70778a"/>
      <path id="Shape-4" data-name="Shape" d="M1.748,3.674.511,2.991A1.086,1.086,0,0,1,0,2.138V.987C0,.816.128.731.3.816H.341v-.3c0-.469.3-.64.725-.427a1.726,1.726,0,0,1,.768,1.322l.043.3a1.167,1.167,0,0,1,.384.511V3.375c0,.239-.126.374-.289.374A.406.406,0,0,1,1.748,3.674Z" transform="translate(5.439 9.571)" fill="#9ca5ba"/>
      <path id="Path-25" data-name="Path" d="M12.112,3.456a1.357,1.357,0,0,0-.469-.512H11.6L6.824.172a1.467,1.467,0,0,0-1.45.043L.768,2.9a1.384,1.384,0,0,0-.555.555A1.436,1.436,0,0,0,0,4.181v5.886a1.543,1.543,0,0,0,.725,1.279l4.521,2.6a1.679,1.679,0,0,0,.9.256,1.791,1.791,0,0,0,.9-.256l4.521-2.6a1.45,1.45,0,0,0,.725-1.279V4.223A1.148,1.148,0,0,0,12.112,3.456Z" transform="translate(18.851 17.911)" fill="none" stroke="#707070" stroke-width="1"/>
      <path id="Path-26" data-name="Path" d="M12.283,4.206v5.886a1.543,1.543,0,0,1-.725,1.279l-4.521,2.6a1.678,1.678,0,0,1-.9.256,1.792,1.792,0,0,1-.9-.256L.725,11.329A1.4,1.4,0,0,1,0,10.05V4.164a1.438,1.438,0,0,1,.213-.725,1.386,1.386,0,0,1,.555-.554L5.416.2A1.581,1.581,0,0,1,6.867.155.042.042,0,0,1,6.909.2L11.6,2.885a.042.042,0,0,1,.043.043h.043a1.354,1.354,0,0,1,.469.512A3.6,3.6,0,0,1,12.283,4.206Z" transform="translate(18.894 17.928)" fill="#f3f6fa"/>
      <path id="Path-27" data-name="Path" d="M6.142.725V6.611A1.543,1.543,0,0,1,5.416,7.89L.9,10.491a1.678,1.678,0,0,1-.9.256V3.412L5.928,0A1.221,1.221,0,0,1,6.142.725Z" transform="translate(25.035 21.41)" fill="#303440"/>
      <path id="Path-28" data-name="Path" d="M6.142,3.455v7.336a1.792,1.792,0,0,1-.9-.256L.725,7.89A1.4,1.4,0,0,1,0,6.611V.725A1.438,1.438,0,0,1,.213,0Z" transform="translate(18.894 21.367)" fill="#555c72"/>
      <path id="Path-29" data-name="Path" d="M11.9,3.481,5.971,6.894,0,3.439a1.387,1.387,0,0,1,.555-.555L5.2.2A1.58,1.58,0,0,1,6.653.155L11.43,2.927h.043A3.925,3.925,0,0,1,11.9,3.481Z" transform="translate(19.064 17.886)" fill="#70778a"/>
      <path id="Shape-5" data-name="Shape" d="M1.749,3.631.512,2.949A1.085,1.085,0,0,1,0,2.1V.944C0,.773.128.688.3.773L.341.816v-.3c0-.469.3-.64.725-.427a1.726,1.726,0,0,1,.767,1.322l.043.3c.17.085.3.341.384.469V3.332c0,.239-.126.374-.289.374A.4.4,0,0,1,1.749,3.631Z" transform="translate(20.878 25.01)" fill="#9ca5ba"/>
      <g id="Group_1344" data-name="Group 1344" transform="translate(8.36 8.146)">
        <path id="Path-30" data-name="Path" d="M9.425,1.109H.554A.565.565,0,0,1,0,.555.564.564,0,0,1,.554,0H9.425A.564.564,0,0,1,9.98.555.565.565,0,0,1,9.425,1.109Z" transform="translate(11.643)" fill="#2a2e38"/>
        <path id="Path-31" data-name="Path" d="M9.425,1.109H.554A.564.564,0,0,1,0,.555.564.564,0,0,1,.554,0H9.425A.564.564,0,0,1,9.98.555.564.564,0,0,1,9.425,1.109Z" transform="translate(11.643 32.158)" fill="#2a2e38"/>
        <path id="Path-32" data-name="Path" d="M.555,9.98A.564.564,0,0,1,0,9.425V.554A.564.564,0,0,1,.555,0a.564.564,0,0,1,.554.554V9.425A.564.564,0,0,1,.555,9.98Z" transform="translate(32.115 11.643)" fill="#2a2e38"/>
        <path id="Path-33" data-name="Path" d="M.555,9.98A.564.564,0,0,1,0,9.425V.554A.564.564,0,0,1,.555,0a.565.565,0,0,1,.555.554V9.425A.565.565,0,0,1,.555,9.98Z" transform="translate(0 11.643)" fill="#2a2e38"/>
        <path id="Path-34" data-name="Path" d="M2.975,3.487a.52.52,0,0,1-.383-.171L.16.928A.543.543,0,0,1,.928.16L3.359,2.591a.54.54,0,0,1,0,.767A.685.685,0,0,1,2.975,3.487Z" transform="translate(6.835 7.645)" fill="#2a2e38"/>
        <path id="Path-35" data-name="Path" d="M2.975,3.529a.521.521,0,0,1-.384-.171L.16.928A.543.543,0,0,1,.928.16L3.359,2.591a.541.541,0,0,1,0,.768A.521.521,0,0,1,2.975,3.529Z" transform="translate(22.487 23.255)" fill="#2a2e38"/>
        <path id="Path-36" data-name="Path" d="M.544,3.529A.521.521,0,0,1,.16,3.359a.541.541,0,0,1,0-.768L2.591.16a.543.543,0,1,1,.767.768L.928,3.359A.521.521,0,0,1,.544,3.529Z" transform="translate(6.835 23.255)" fill="#2a2e38"/>
        <path id="Path-37" data-name="Path" d="M.544,3.529A.521.521,0,0,1,.16,3.359a.541.541,0,0,1,0-.768L2.591.16a.543.543,0,0,1,.768.768L.928,3.359A.521.521,0,0,1,.544,3.529Z" transform="translate(22.487 7.602)" fill="#2a2e38"/>
      </g>
    </g>
  </g>
</svg>
