<svg xmlns="http://www.w3.org/2000/svg" xmlns:xlink="http://www.w3.org/1999/xlink" width="50.598" height="51.227" viewBox="0 0 50.598 51.227">
  <defs>
    <linearGradient id="linear-gradient" x1="0.016" y1="0.494" x2="0.986" y2="0.494" gradientUnits="objectBoundingBox">
      <stop offset="0.003" stop-color="#ffd44f"/>
      <stop offset="1" stop-color="#ffa607"/>
    </linearGradient>
    <linearGradient id="linear-gradient-2" x1="0.002" y1="0.497" x2="1.001" y2="0.497" xlink:href="#linear-gradient"/>
    <linearGradient id="linear-gradient-3" x1="0.238" y1="0.349" x2="0.598" y2="0.66" gradientUnits="objectBoundingBox">
      <stop offset="0" stop-color="#faa404"/>
      <stop offset="1" stop-color="#ff7904" stop-opacity="0"/>
    </linearGradient>
    <linearGradient id="linear-gradient-4" x1="0.954" y1="0.988" x2="0.068" y2="0.211" gradientUnits="objectBoundingBox">
      <stop offset="0" stop-color="#ffe491"/>
      <stop offset="1" stop-color="#fff"/>
    </linearGradient>
    <linearGradient id="linear-gradient-5" x1="-0.001" y1="0.502" x2="1" y2="0.502" xlink:href="#linear-gradient"/>
    <linearGradient id="linear-gradient-6" x1="0.263" y1="0.384" x2="0.614" y2="0.676" xlink:href="#linear-gradient-3"/>
  </defs>
  <g id="Network_Icon_01" data-name="Network Icon 01" transform="translate(0.5 0.5)">
    <g id="Group_1334" data-name="Group 1334">
      <g id="_47" data-name="47">
        <path id="Path" d="M24.8,50.226A24.959,24.959,0,0,0,49.6,25.113,24.959,24.959,0,0,0,24.8,0,24.959,24.959,0,0,0,0,25.113,24.959,24.959,0,0,0,24.8,50.226Z" transform="translate(0 0)" fill="none" stroke="#2a2e38" stroke-width="1" opacity="0.26"/>
        <path id="Path-2" data-name="Path" d="M42.5,21.38A21.521,21.521,0,0,1,38.181,34.3a20.988,20.988,0,0,1-5.344,4.938A21.054,21.054,0,0,1,21.25,42.714,21.357,21.357,0,1,1,32.837,3.435a21.9,21.9,0,0,1,5.344,4.98A21.371,21.371,0,0,1,42.5,21.38Z" transform="translate(3.079 3.733)" fill="#fff" opacity="0.17"/>
        <path id="Path-3" data-name="Path" d="M27.492,1.715V36.231a1.721,1.721,0,0,1-1.71,1.72H1.71A1.721,1.721,0,0,1,0,36.231V1.715A1.72,1.72,0,0,1,1.71,0H25.825A1.683,1.683,0,0,1,27.492,1.715Z" transform="translate(10.176 6.053)" fill="#545c71"/>
        <path id="Path-4" data-name="Path" d="M.342.69A.371.371,0,0,1,0,.345.371.371,0,0,1,.342,0H20.566a.371.371,0,0,1,.342.345.371.371,0,0,1-.342.345Z" transform="translate(13.468 16.268)" fill="#2f3742"/>
        <path id="Path-5" data-name="Path" d="M.342.685A.368.368,0,0,1,0,.341.367.367,0,0,1,.342,0H20.566a.367.367,0,0,1,.342.341.368.368,0,0,1-.342.345Z" transform="translate(13.468 18.848)" fill="#2f3742"/>
        <path id="Path-6" data-name="Path" d="M.342.685A.368.368,0,0,1,0,.341.367.367,0,0,1,.342,0H20.566a.367.367,0,0,1,.342.341.368.368,0,0,1-.342.345Z" transform="translate(13.468 21.423)" fill="#2f3742"/>
        <path id="Path-7" data-name="Path" d="M.342.685A.367.367,0,0,1,0,.345.368.368,0,0,1,.342,0H20.566a.368.368,0,0,1,.342.345.367.367,0,0,1-.342.341Z" transform="translate(13.468 24.041)" fill="#2f3742"/>
        <path id="Path-8" data-name="Path" d="M.342.685A.367.367,0,0,1,0,.345.368.368,0,0,1,.342,0H20.566a.368.368,0,0,1,.342.345.367.367,0,0,1-.342.341Z" transform="translate(13.468 26.616)" fill="#2f3742"/>
        <path id="Path-9" data-name="Path" d="M.342.685A.367.367,0,0,1,0,.345.368.368,0,0,1,.342,0H9.236a.368.368,0,0,1,.342.345.367.367,0,0,1-.342.341Z" transform="translate(13.468 29.191)" fill="#2f3742"/>
        <path id="Path-10" data-name="Path" d="M9.834.775H.385A.383.383,0,0,1,0,.387.386.386,0,0,1,.385,0H9.834a.386.386,0,0,1,.385.387A.383.383,0,0,1,9.834.775Z" transform="translate(18.813 9.7)" fill="#2f3742"/>
        <path id="Path-11" data-name="Path" d="M5.045.775H.385A.383.383,0,0,1,0,.387.386.386,0,0,1,.385,0h4.66A.386.386,0,0,1,5.43.387.383.383,0,0,1,5.045.775Z" transform="translate(21.207 11.718)" fill="#2f3742"/>
        <path id="Shape" d="M.133,6.487a.334.334,0,0,1,.085-.43,5.812,5.812,0,0,0,.6-.473,4.561,4.561,0,0,1-.385-4.55C1.116-.209,2.613-.341,3.168.689a2.66,2.66,0,0,1,.214,1.72A5.609,5.609,0,0,1,2.057,5.372v.043a5.032,5.032,0,0,0,1.967-.647.233.233,0,0,0,.128-.213c.043-1.073-.128-1.5.47-2.23a.791.791,0,0,1,.94-.217.934.934,0,0,1,.6.775A1.7,1.7,0,0,1,5.691,4.3c-.727.813-.9.557-.727,1.073.043.17.214.085.3.043a5.369,5.369,0,0,0,.77-.558c.641-.69.855-1.592,1.539-1.417C8,3.567,8.042,4,8.128,4.6a2.381,2.381,0,0,1,.983-1.073.333.333,0,0,1,.47.3.319.319,0,0,1-.214.3c-.385.217-.513.732-.855,1.115a.513.513,0,0,1-.94-.17c-.086-.256-.086-.515-.171-.817A18.18,18.18,0,0,1,6.2,5.669a1.871,1.871,0,0,1-1.026.473.726.726,0,0,1-.9-.6.131.131,0,0,1-.043-.085c-.043,0-1.2.43-1.368.472a7.894,7.894,0,0,1-1.112.085,1.17,1.17,0,0,0-.385,0c-.085.043-.043,0-.727.558a.38.38,0,0,1-.227.074A.313.313,0,0,1,.133,6.487Z" transform="translate(24.281 33.137)" fill="#eff2a6"/>
        <path id="Path-12" data-name="Path" d="M14.569,1.035c-.6.856-1.2,1.673-1.71,2.575-.727,1.2-1.112.86-2.908,1.417l1.625.383c.043,0,.043,0,.086.047.086.085.128.213.043.3-.256.43-.513.775-.77,1.158a12.847,12.847,0,0,1-7.91,4.938,1.392,1.392,0,0,0-.983.775c-.385.77-.727,1.545-1.112,2.316a.485.485,0,0,1-.641.217.522.522,0,0,1-.257-.643c.214-.472.428-.945.641-1.375.043-.085.043-.128.086-.217a1.777,1.777,0,0,0-.086-.941,1.051,1.051,0,0,1-.086-.345,6.065,6.065,0,0,1-.3-1.762,8.938,8.938,0,0,1,.3-2.1A9.337,9.337,0,0,1,1.956,4.64.042.042,0,0,1,2,4.6c.043,0,.129,0,.129.085A3.564,3.564,0,0,0,2.3,5.2a10.523,10.523,0,0,1,.385-1.29,1.656,1.656,0,0,1,.3-.515,11.975,11.975,0,0,1,2.309-1.8h.043a.092.092,0,0,1,.086.085v.817A12.008,12.008,0,0,1,6.574,1.077a1.916,1.916,0,0,1,.47-.345A12.493,12.493,0,0,1,11.619,0a14.132,14.132,0,0,1,2.736.383h.129C14.826.6,14.826.69,14.569,1.035Z" transform="translate(34.601 21.418)" fill="#eff2a6"/>
        <path id="Path-13" data-name="Path" d="M11.159.132c0,.043,0,.128-.086.128A13.414,13.414,0,0,0,7.568,2.022,18.6,18.6,0,0,0,4.575,4.554,27.749,27.749,0,0,0,2.1,7.6,13.505,13.505,0,0,0,1.069,9.275a8.494,8.494,0,0,0-.47.86,1.908,1.908,0,0,0-.214.43l-.129.213-.086.17A1.8,1.8,0,0,0,.086,10,.993.993,0,0,1,0,9.662a7.959,7.959,0,0,1,.47-.817c.342-.558.727-1.158,1.111-1.673A19.789,19.789,0,0,1,4.19,4.082a17.5,17.5,0,0,1,3.164-2.49A14.633,14.633,0,0,1,11.031,0C11.074.047,11.159.089,11.159.132Z" transform="translate(35.146 23.351)" fill="#fff" opacity="0.5"/>
        <path id="Shape-2" data-name="Shape" d="M2.78,6.1a1.869,1.869,0,0,0-1.026-.515C1.327,5.542.942,5.5.814,5.026a.953.953,0,0,1-.043-.345,1.752,1.752,0,0,0-.385-.86c-.3-.341-.513-.643-.3-1.03C.343,2.366.6,2.192.6,1.677a1.356,1.356,0,0,1,.043-.43.775.775,0,0,1,.727-.6C1.5.647,1.626.6,1.754.6,2.182.562,2.31.259,2.866.046a.552.552,0,0,1,.513.043c.129.085.257.17.428.3.385.3.641.17,1.2.341a.659.659,0,0,1,.428.515,2.275,2.275,0,0,0,.171.775c.213.43.641.642.6,1.115a.473.473,0,0,1-.085.26,3.279,3.279,0,0,0-.513.945.924.924,0,0,0-.043.341.716.716,0,0,1-.257.6c-.513.515-.983.132-1.453.6a1.047,1.047,0,0,1-.7.339A.6.6,0,0,1,2.78,6.1Z" transform="translate(13.485 33.588)" fill="#2f3742"/>
        <path id="Path-14" data-name="Path" d="M.782.308A1.815,1.815,0,0,1,3.3.823a1.733,1.733,0,0,1-.427,2.4l-.043.043A1.85,1.85,0,0,1,.312,2.755,1.734,1.734,0,0,1,.739.35C.739.308.739.308.782.308Z" transform="translate(14.713 35)" fill="#2f3742"/>
        <path id="Path-15" data-name="Path" d="M.561,1.136a.566.566,0,0,0,.561-.57A.565.565,0,0,0,.561,0,.565.565,0,0,0,0,.566.566.566,0,0,0,.561,1.136Z" transform="translate(44.467 5.58)" fill="url(#linear-gradient)"/>
        <path id="Path-16" data-name="Path" d="M.939.986a.571.571,0,0,0,.035-.8A.556.556,0,0,0,.182.147a.571.571,0,0,0-.036.8A.553.553,0,0,0,.939.986Z" transform="translate(17.334 2.381)" fill="#32d697"/>
        <path id="Path-17" data-name="Path" d="M.939.984a.571.571,0,0,0,.036-.8A.56.56,0,0,0,.182.146a.576.576,0,0,0-.035.8A.556.556,0,0,0,.939.984Z" transform="translate(42.988 46.169)" fill="#32d697"/>
        <path id="Path-18" data-name="Path" d="M19.181,11.661a8.336,8.336,0,0,1-.684,2.06,3.992,3.992,0,0,1-.214.43,15.45,15.45,0,0,1-.855,1.417c-.128.17-.256.341-.385.515a9.666,9.666,0,0,1-2.95,2.316c-.214.089-.427.217-.641.3a8.5,8.5,0,0,1-1.111.387,9.282,9.282,0,0,1-4.618.17A9.731,9.731,0,0,1,11.656.2a9.477,9.477,0,0,1,4.874,2.66A9.457,9.457,0,0,1,19.181,11.661Z" transform="translate(1.733 5.859)" fill="url(#linear-gradient-2)"/>
        <path id="Shape-3" data-name="Shape" d="M6.507,16.243a8.229,8.229,0,0,1-2.822-14.9A8.017,8.017,0,0,1,9.842.188a8.2,8.2,0,0,1,6.327,9.7,8.365,8.365,0,0,1-.555,1.762,2.835,2.835,0,0,1-.171.345,11.618,11.618,0,0,1-.727,1.2c-.128.128-.214.3-.342.43a8.6,8.6,0,0,1-2.48,1.975l-.513.256c-.342.128-.641.259-.94.345a14.056,14.056,0,0,1-2.266.213A7.4,7.4,0,0,1,6.507,16.243Z" transform="translate(3.291 7.329)" fill="#f9b400"/>
        <path id="Path-19" data-name="Path" d="M11.929,9.445a13.8,13.8,0,0,1-.812,1.332c-.129.17-.257.341-.385.515a9.676,9.676,0,0,1-2.95,2.316c-.214.085-.428.217-.641.3a9.214,9.214,0,0,1-1.112.387L0,8.155l1.924-.988L2.138,6.7l.043-.945S2.1,2.32,2.009,2.235c-.043-.043.6-2.235.6-2.235l.684,1.545L4.147,0l8.3,8.33C12.4,8.458,11.972,9.275,11.929,9.445Z" transform="translate(8.081 10.645)" fill="url(#linear-gradient-3)"/>
        <path id="Shape-4" data-name="Shape" d="M4.19,9.79H3.335v-1.5H2.651c.043.43.043.954.043,1.46h-.94V8.2C1.154,8.16.594,8.16,0,8.16c.064-.365.1-.559.118-.687s.032-.193.054-.3a.092.092,0,0,1,.085-.089H.813c.29,0,.342-.078.342-.3V3A.456.456,0,0,0,.641,2.49H0v-.9H1.625c.129,0,.129,0,.129-.085V0h.94V1.545h.684V0h.855V1.5c0,.042,0,.085.085.085.887.11,1.916.38,2.01,1.5a1.253,1.253,0,0,1-.257,1.03,1.954,1.954,0,0,1-.47.43l.068.023A1.608,1.608,0,0,1,6.8,5.538a2.143,2.143,0,0,1,.043.9,1.958,1.958,0,0,1-.342.9,1.5,1.5,0,0,1-.9.642,4.465,4.465,0,0,1-1.325.26c-.085,0-.085.043-.085.085V9.79ZM3.113,5.2H2.694V7.125c.184-.008.354-.013.5-.018A3.349,3.349,0,0,0,4.661,6.87a.823.823,0,0,0,.47-.642.786.786,0,0,0-.385-.775A3.73,3.73,0,0,0,3.113,5.2ZM3.2,2.564c-.094,0-.185,0-.273.006s-.159.005-.232.005V4.337a2.818,2.818,0,0,0,.334.017,4.362,4.362,0,0,0,.991-.1A.829.829,0,0,0,4.7,3.506a.729.729,0,0,0-.47-.713A2.1,2.1,0,0,0,3.2,2.564Z" transform="translate(8.038 10.688)" fill="url(#linear-gradient-4)"/>
      </g>
    </g>
    <g id="Group_1346" data-name="Group 1346" transform="translate(1.65 5.667)">
      <path id="Path-20" data-name="Path" d="M19.617,12.051c-.938,4.65-5.473,7.566-7.037,7.566A9.924,9.924,0,0,1,.224,7.956,9.846,9.846,0,0,1,11.954.231,9.941,9.941,0,0,1,19.617,12.051Z" transform="translate(0 0)" fill="url(#linear-gradient-5)"/>
      <path id="Path-21" data-name="Path" d="M3.629,1.347A7.792,7.792,0,0,0,.189,6.47c-2.033,9.925,12.981,14.1,15.64,3.311A8.005,8.005,0,0,0,3.629,1.347Z" transform="translate(1.913 1.958)" fill="#f9b400"/>
      <path id="Path-22" data-name="Path" d="M12.355,8.669a6.481,6.481,0,0,1-.391,1.1c-.078.152-.078.236-.157.388-.234.472-.547.868-.782,1.34a1.927,1.927,0,0,1-.391.472A8.871,8.871,0,0,1,7.9,14.1a4.816,4.816,0,0,0-.626.312,5.228,5.228,0,0,1-1.017.32H6.177L3.753,12.292V9.141L0,6.142,2.19,6.7s-.078-3.859-.157-3.943a6.039,6.039,0,0,1,1.173,0A15.909,15.909,0,0,0,3.831,0Z" transform="translate(6.156 4.006)" fill="url(#linear-gradient-6)"/>
      <path id="Path-23" data-name="Path" d="M7.664,6.226,3.831,8.509,0,6.226,3.831,0Z" transform="translate(6.078 4.006)" fill="#fff"/>
      <path id="Path-24" data-name="Path" d="M7.664,0,3.831,5.358,0,0,3.831,2.207Z" transform="translate(6.078 10.94)" fill="#fff"/>
      <path id="Path-25" data-name="Path" d="M7.664,1.735,3.831,4.019,0,1.735,3.831,0Z" transform="translate(6.078 8.496)" fill="#fdf2c8"/>
      <path id="Path-26" data-name="Path" d="M0,2.207,3.832,0,0,5.358Z" transform="translate(9.909 10.94)" fill="#facd35" opacity="0.3"/>
      <path id="Path-27" data-name="Path" d="M3.832,6.226,0,8.509V0Z" transform="translate(9.909 4.006)" fill="#facd35" opacity="0.3"/>
    </g>
  </g>
</svg>
