<svg xmlns="http://www.w3.org/2000/svg" xmlns:xlink="http://www.w3.org/1999/xlink" width="48.576" height="50.316" viewBox="0 0 48.576 50.316">
  <defs>
    <linearGradient id="linear-gradient" x1="-0.001" y1="0.502" x2="0.999" y2="0.502" gradientUnits="objectBoundingBox">
      <stop offset="0.003" stop-color="#ffd44f"/>
      <stop offset="1" stop-color="#ffa607"/>
    </linearGradient>
    <linearGradient id="linear-gradient-2" x1="0.269" y1="0.387" x2="0.615" y2="0.684" gradientUnits="objectBoundingBox">
      <stop offset="0" stop-color="#faa404"/>
      <stop offset="1" stop-color="#ff7904" stop-opacity="0"/>
    </linearGradient>
  </defs>
  <g id="Network_Icon_04" data-name="Network Icon 04" transform="translate(0.5 0.495)">
    <path id="Path" d="M18.329,36.785A18.393,18.393,0,1,0,0,18.392,18.361,18.361,0,0,0,18.329,36.785Z" transform="translate(6.232 6.134)" fill="#fff" opacity="0.17"/>
    <path id="Path-2" data-name="Path" d="M21.649,43.446A21.723,21.723,0,1,0,0,21.723,21.686,21.686,0,0,0,21.649,43.446Z" transform="translate(2.913 2.803)" fill="none" stroke="#2a2e38" stroke-width="1" opacity="0.26"/>
    <g id="Group_1353" data-name="Group 1353" transform="translate(0 0)">
      <path id="Path-3" data-name="Path" d="M0,0,.553,42.558" transform="translate(24.415 4.395)" fill="none" stroke="#707070" stroke-width="1"/>
      <path id="Path-4" data-name="Path" d="M.456.5H.492" transform="translate(1.831 23.767)" fill="none" stroke="#707070" stroke-width="1"/>
      <path id="Path-5" data-name="Path" d="M0,0,42.413.518" transform="translate(3.762 24.304)" fill="none" stroke="#707070" stroke-width="1"/>
      <path id="Path-6" data-name="Path" d="M.456.5H.492" transform="translate(46.42 24.322)" fill="none" stroke="#707070" stroke-width="1"/>
      <path id="Path-7" data-name="Path" d="M8.519,2.42a.728.728,0,0,0-.332-.333H8.151L4.794.125a1.054,1.054,0,0,0-1,0L.516,2.013a1.17,1.17,0,0,0-.369.37A1.048,1.048,0,0,0,0,2.938V7.083a1,1,0,0,0,.516.888l3.172,1.85a1.24,1.24,0,0,0,.627.185,1.24,1.24,0,0,0,.627-.185l3.172-1.85a1,1,0,0,0,.516-.888V2.938A.644.644,0,0,0,8.519,2.42Z" transform="translate(0 19.701)" fill="none" stroke="#707070" stroke-width="1"/>
      <path id="Path-8" data-name="Path" d="M8.667,2.877V7.022a1,1,0,0,1-.516.888L4.979,9.761a1.24,1.24,0,0,1-.627.185,1.24,1.24,0,0,1-.627-.185L.553,7.91A.88.88,0,0,1,0,7.059V2.914A.852.852,0,0,1,.148,2.4a.892.892,0,0,1,.369-.37L3.8.139a.961.961,0,0,1,1,0h.037L8.114,2.063a.036.036,0,0,1,.037.037h.037a.953.953,0,0,1,.332.333A.542.542,0,0,1,8.667,2.877Z" transform="translate(0 19.762)" fill="#2a2e38"/>
      <path id="Path-9" data-name="Path" d="M4.315.518V4.663a1,1,0,0,1-.516.888L.627,7.4A1.238,1.238,0,0,1,0,7.586V2.405L4.2,0A1.184,1.184,0,0,1,4.315.518Z" transform="translate(4.352 22.121)" fill="#303440"/>
      <path id="Path-10" data-name="Path" d="M4.352,2.405V7.586A1.24,1.24,0,0,1,3.725,7.4L.553,5.551A.965.965,0,0,1,0,4.663V.518A.851.851,0,0,1,.148,0Z" transform="translate(0 22.158)" fill="#555c72"/>
      <path id="Path-11" data-name="Path" d="M8.372,2.4,4.168,4.8,0,2.4a.887.887,0,0,1,.369-.37L3.651.139a.963.963,0,0,1,1,0L8,2.1H8.04A.524.524,0,0,1,8.372,2.4Z" transform="translate(0.147 19.725)" fill="#70778a"/>
      <path id="Shape" d="M1.18,2.6.332,2.116A.754.754,0,0,1,0,1.524V.71A.135.135,0,0,1,.221.6H.258V.377C.258.044.48-.1.775.081a1.091,1.091,0,0,1,.553.925v.222a.325.325,0,0,1,.184.37v.814c0,.153-.07.236-.174.236A.312.312,0,0,1,1.18,2.6Z" transform="translate(1.384 24.688)" fill="#9ca5ba"/>
      <path id="Path-12" data-name="Path" d="M8.52,2.42a.726.726,0,0,0-.332-.333H8.151L4.794.125a1.054,1.054,0,0,0-1,0L.516,2.013a1.17,1.17,0,0,0-.369.37A1.21,1.21,0,0,0,0,2.9V7.045a1,1,0,0,0,.516.888L3.688,9.784a1.244,1.244,0,0,0,.627.185,1.242,1.242,0,0,0,.627-.185L8.114,7.934a1,1,0,0,0,.516-.888V2.938A1.19,1.19,0,0,0,8.52,2.42Z" transform="translate(38.946 19.849)" fill="none" stroke="#707070" stroke-width="1"/>
      <path id="Path-13" data-name="Path" d="M8.63,2.914V7.059a1,1,0,0,1-.516.888L4.942,9.8a1.238,1.238,0,0,1-.627.185A1.24,1.24,0,0,1,3.688,9.8L.516,7.947A1,1,0,0,1,0,7.059V2.914A.851.851,0,0,1,.148,2.4a.892.892,0,0,1,.369-.37L3.8.139a.963.963,0,0,1,1,0h.037L8.114,2.063a.036.036,0,0,1,.037.037h.037a.951.951,0,0,1,.332.333A.932.932,0,0,1,8.63,2.914Z" transform="translate(38.946 19.873)" fill="#2a2e38"/>
      <path id="Path-14" data-name="Path" d="M4.315.518V4.663a1,1,0,0,1-.516.888L.627,7.4A1.24,1.24,0,0,1,0,7.586V2.405L4.2,0A1.184,1.184,0,0,1,4.315.518Z" transform="translate(43.261 22.269)" fill="#303440"/>
      <path id="Path-15" data-name="Path" d="M4.315,2.405V7.586A1.24,1.24,0,0,1,3.688,7.4L.516,5.551A1,1,0,0,1,0,4.663V.518A.851.851,0,0,1,.148,0Z" transform="translate(38.946 22.269)" fill="#555c72"/>
      <path id="Path-16" data-name="Path" d="M8.409,2.433,4.2,4.838,0,2.4a.889.889,0,0,1,.369-.37L3.651.139a.963.963,0,0,1,1,0L8,2.1H8.04A.659.659,0,0,1,8.409,2.433Z" transform="translate(39.057 19.836)" fill="#70778a"/>
      <path id="Shape-2" data-name="Shape" d="M1.18,2.581.332,2.1A.755.755,0,0,1,0,1.507V.693A.135.135,0,0,1,.221.582H.258V.36c0-.333.222-.444.517-.3a1.091,1.091,0,0,1,.553.925l.037.222c.11.074.221.259.147.37V2.4c0,.153-.07.236-.174.236A.313.313,0,0,1,1.18,2.581Z" transform="translate(40.293 24.815)" fill="#9ca5ba"/>
      <path id="Path-17" data-name="Path" d="M8.519,2.42a.726.726,0,0,0-.332-.333H8.15L4.794.125a1.054,1.054,0,0,0-1,0L.516,2.013a1.17,1.17,0,0,0-.369.37A1.047,1.047,0,0,0,0,2.938V7.083a1,1,0,0,0,.516.888l3.172,1.85a1.238,1.238,0,0,0,.627.185,1.24,1.24,0,0,0,.627-.185l3.172-1.85a1,1,0,0,0,.516-.888V2.938A.828.828,0,0,0,8.519,2.42Z" transform="translate(20.137 0.013)" fill="none" stroke="#707070" stroke-width="1"/>
      <path id="Path-18" data-name="Path" d="M8.63,2.914V7.059a1,1,0,0,1-.516.888L4.942,9.8a1.24,1.24,0,0,1-.627.185A1.24,1.24,0,0,1,3.688,9.8L.516,7.947A1,1,0,0,1,0,7.059V2.914A.851.851,0,0,1,.148,2.4a.887.887,0,0,1,.369-.37L3.8.139a.964.964,0,0,1,1,0h.037L8.114,2.063a.036.036,0,0,1,.037.037h.037a.955.955,0,0,1,.332.333A1.541,1.541,0,0,1,8.63,2.914Z" transform="translate(20.174 0.037)" fill="#2a2e38"/>
      <path id="Path-19" data-name="Path" d="M4.315.518V4.663a1,1,0,0,1-.516.888L.627,7.4A1.24,1.24,0,0,1,0,7.586V2.405L4.2,0A2.137,2.137,0,0,1,4.315.518Z" transform="translate(24.489 2.433)" fill="#303440"/>
      <path id="Path-20" data-name="Path" d="M4.315,2.405V7.586A1.238,1.238,0,0,1,3.688,7.4L.516,5.551A1,1,0,0,1,0,4.663V.518A.851.851,0,0,1,.147,0Z" transform="translate(20.137 2.433)" fill="#555c72"/>
      <path id="Path-21" data-name="Path" d="M8.372,2.433l-4.2,2.405L0,2.4a.887.887,0,0,1,.369-.37L3.652.139a.963.963,0,0,1,1,0L8,2.1H8.04A.726.726,0,0,1,8.372,2.433Z" transform="translate(20.284 0)" fill="#70778a"/>
      <path id="Shape-3" data-name="Shape" d="M1.18,2.581.332,2.1A.755.755,0,0,1,0,1.507V.693A.135.135,0,0,1,.221.582H.258V.36c0-.333.222-.444.516-.3a1.091,1.091,0,0,1,.553.925l.037.222c.11.074.221.259.147.37V2.4c0,.153-.07.236-.174.236A.313.313,0,0,1,1.18,2.581Z" transform="translate(21.484 4.979)" fill="#9ca5ba"/>
      <path id="Path-22" data-name="Path" d="M8.52,2.419a.724.724,0,0,0-.332-.333H8.151L4.795.125a1.054,1.054,0,0,0-1,0L.516,2.012a1.176,1.176,0,0,0-.369.37A1.208,1.208,0,0,0,0,2.9V7.045a1,1,0,0,0,.516.888l3.172,1.85a1.24,1.24,0,0,0,.627.185,1.24,1.24,0,0,0,.627-.185l3.172-1.85a1,1,0,0,0,.516-.888V2.9A1.145,1.145,0,0,0,8.52,2.419Z" transform="translate(20.616 39.352)" fill="none" stroke="#707070" stroke-width="1"/>
      <path id="Path-23" data-name="Path" d="M8.63,2.914V7.059a1,1,0,0,1-.516.888L4.942,9.8a1.24,1.24,0,0,1-.627.185A1.24,1.24,0,0,1,3.688,9.8L.516,7.947A1,1,0,0,1,0,7.059V2.914A.851.851,0,0,1,.148,2.4a.887.887,0,0,1,.369-.37L3.8.139a.964.964,0,0,1,1,0h.037L8.114,2.063a.036.036,0,0,1,.037.037h.037a.955.955,0,0,1,.332.333A.928.928,0,0,1,8.63,2.914Z" transform="translate(20.616 39.375)" fill="#2a2e38"/>
      <path id="Path-24" data-name="Path" d="M4.315.518V4.663a1,1,0,0,1-.516.888L.627,7.4A1.24,1.24,0,0,1,0,7.587V2.406L4.2,0A1.186,1.186,0,0,1,4.315.518Z" transform="translate(24.931 41.771)" fill="#303440"/>
      <path id="Path-25" data-name="Path" d="M4.315,2.406V7.587A1.24,1.24,0,0,1,3.688,7.4L.516,5.551A1,1,0,0,1,0,4.663V.518A.852.852,0,0,1,.148,0Z" transform="translate(20.616 41.771)" fill="#555c72"/>
      <path id="Path-26" data-name="Path" d="M8.409,2.433,4.2,4.839,0,2.4a.892.892,0,0,1,.369-.37L3.651.139a.962.962,0,0,1,1,0L8,2.1H8.04A.66.66,0,0,1,8.409,2.433Z" transform="translate(20.727 39.338)" fill="#70778a"/>
      <path id="Shape-4" data-name="Shape" d="M1.18,2.581.332,2.1A.754.754,0,0,1,0,1.507V.693A.135.135,0,0,1,.221.582H.258V.36c0-.333.221-.444.516-.3A1.09,1.09,0,0,1,1.328.99l.037.222c.11.074.221.259.147.37V2.4c0,.153-.07.236-.174.236A.313.313,0,0,1,1.18,2.581Z" transform="translate(21.964 44.318)" fill="#9ca5ba"/>
      <path id="Path-27" data-name="Path" d="M8.63,17.319A8.66,8.66,0,1,0,0,8.66,8.645,8.645,0,0,0,8.63,17.319Z" transform="translate(15.379 15.941)" fill="#373d4c"/>
      <path id="Path-28" data-name="Path" d="M15.711,7.883A7.855,7.855,0,1,1,0,7.883,7.87,7.87,0,0,1,10.953.629,7.9,7.9,0,0,1,15.711,7.883Z" transform="translate(16.154 16.718)" fill="#474e61"/>
      <path id="Path-29" data-name="Path" d="M.423,16.522a.677.677,0,0,1-.258-.074.418.418,0,0,1-.074-.592,5.417,5.417,0,0,1,.59-.7A10.045,10.045,0,0,0,3.079,8.2a10.112,10.112,0,0,0-2.4-6.957C.5,1.054.349.868.165.684A.418.418,0,0,1,.239.091a.415.415,0,0,1,.59.074,5.7,5.7,0,0,0,.443.481A10.968,10.968,0,0,1,3.927,8.2a10.967,10.967,0,0,1-2.655,7.549,7.333,7.333,0,0,0-.516.592A.353.353,0,0,1,.423,16.522Z" transform="translate(26.131 16.404)" fill="#373d4c"/>
      <path id="Path-30" data-name="Path" d="M3.32,16.152A.4.4,0,0,1,2.988,16a3.344,3.344,0,0,0-.332-.37A10.967,10.967,0,0,1,0,8.085,10.967,10.967,0,0,1,2.656.536c.111-.111.221-.259.332-.37a.415.415,0,0,1,.59-.074.418.418,0,0,1,.074.592,4.429,4.429,0,0,1-.406.444A9.964,9.964,0,0,0,.812,8.048a9.955,9.955,0,0,0,2.434,6.957c.148.148.258.3.406.444a.418.418,0,0,1-.074.592A.4.4,0,0,1,3.32,16.152Z" transform="translate(17.998 16.552)" fill="#373d4c"/>
      <path id="Path-31" data-name="Path" d="M.442,17.245A.449.449,0,0,1,0,16.8V.444A.449.449,0,0,1,.442,0,.427.427,0,0,1,.885.444V16.8A.427.427,0,0,1,.442,17.245Z" transform="translate(23.567 15.978)" fill="#373d4c"/>
      <path id="Path-32" data-name="Path" d="M14.974.888H.443A.449.449,0,0,1,0,.444.449.449,0,0,1,.443,0H14.974a.449.449,0,0,1,.442.444A.426.426,0,0,1,14.974.888Z" transform="translate(16.301 21.159)" fill="#373d4c"/>
      <path id="Path-33" data-name="Path" d="M14.974.888H.443A.449.449,0,0,1,0,.444.427.427,0,0,1,.443,0H14.974a.449.449,0,0,1,.442.444A.426.426,0,0,1,14.974.888Z" transform="translate(16.301 27.154)" fill="#373d4c"/>
    </g>
    <g id="Group_1354" data-name="Group 1354" transform="translate(14.903 15.447)">
      <path id="Path-34" data-name="Path" d="M17.884,10.981c-.937,4.232-5.037,6.817-6.442,6.817A9.061,9.061,0,1,1,10.857.169,9.3,9.3,0,0,1,17.884,10.981Z" transform="translate(0)" fill="url(#linear-gradient)"/>
      <path id="Path-35" data-name="Path" d="M3.338,1.193A7.493,7.493,0,0,0,.175,5.777C-1.7,14.826,12,18.469,14.464,8.715A7.3,7.3,0,0,0,3.338,1.193Z" transform="translate(1.662 1.797)" fill="#f9b400"/>
      <path id="Path-36" data-name="Path" d="M11.829,8.108l-.351,1.058c0,.117-.117.234-.117.353a4.227,4.227,0,0,1-.82,1.175c-.117.117-.234.351-.351.47a8.471,8.471,0,0,1-2.576,2c-.234.117-.351.234-.586.234-.351.117-.586.236-.937.353L3.749,11.517V8.578L0,5.876l1.991.47S1.874,2.7,1.874,2.585H3.046A11.9,11.9,0,0,0,3.632,0Z" transform="translate(5.335 3.448)" fill="url(#linear-gradient-2)"/>
      <path id="Path-37" data-name="Path" d="M7.145,5.876,3.513,7.991,0,5.876,3.513,0Z" transform="translate(5.451 3.448)" fill="#fff"/>
      <path id="Path-38" data-name="Path" d="M7.262,0,3.632,5.053V4.936L0,0,3.632,2Z" transform="translate(5.335 10.03)" fill="#fff"/>
      <path id="Path-39" data-name="Path" d="M7.145,1.645,3.514,3.761,0,1.645,3.514,0Z" transform="translate(5.451 7.679)" fill="#fdf2c8"/>
      <path id="Path-40" data-name="Path" d="M0,2,3.63,0,0,5.053V2Z" transform="translate(8.966 10.03)" fill="#facd35" opacity="0.3"/>
      <path id="Path-41" data-name="Path" d="M3.632,5.876,0,7.991V0Z" transform="translate(8.965 3.448)" fill="#facd35" opacity="0.3"/>
    </g>
  </g>
</svg>
