<svg id="Original_Logo" data-name="Original Logo" xmlns="http://www.w3.org/2000/svg" width="154.385" height="31.739" viewBox="0 0 154.385 31.739">
  <g id="Group_1381" data-name="Group 1381">
    <path id="Path_3162" data-name="Path 3162" d="M619.052,501.725a4.955,4.955,0,0,1,3.561,1.237,5.126,5.126,0,0,1,1.429,3.583h5.632a10.224,10.224,0,0,0-3.178-7.166,10.569,10.569,0,0,0-7.444-2.644,11.277,11.277,0,0,0-6.037,1.642,11.455,11.455,0,0,0-4.18,4.522,14.731,14.731,0,0,0,0,13.012,11.455,11.455,0,0,0,4.18,4.522,11.277,11.277,0,0,0,6.037,1.642,9.76,9.76,0,0,0,10.537-10.495H625.62a1.569,1.569,0,0,0-1.129.427,2.022,2.022,0,0,0-.576,1.151,4.661,4.661,0,0,1-1.558,2.88,5.033,5.033,0,0,1-3.305,1,5.371,5.371,0,0,1-4.417-2.046,10.407,10.407,0,0,1,0-11.219A5.367,5.367,0,0,1,619.052,501.725Z" transform="translate(-607.32 -490.335)" fill="#e0e39c"/>
    <path id="Path_3163" data-name="Path 3163" d="M733.058,498.355A11.511,11.511,0,0,0,716.8,502.9a14.731,14.731,0,0,0,0,13.012,11.454,11.454,0,0,0,4.181,4.522,11.982,11.982,0,0,0,12.073.02,11.116,11.116,0,0,0,4.161-4.522,15.015,15.015,0,0,0,0-13.054A11.143,11.143,0,0,0,733.058,498.355Zm-1.641,16.659a5.782,5.782,0,0,1-8.81-.02,10.406,10.406,0,0,1,0-11.219,5.365,5.365,0,0,1,4.415-2.049,5.308,5.308,0,0,1,4.4,2.049,8.836,8.836,0,0,1,1.622,5.629A8.747,8.747,0,0,1,731.417,515.013Z" transform="translate(-691.658 -490.335)" fill="#e0e39c"/>
    <path id="Path_3164" data-name="Path 3164" d="M864.227,496.925a9.447,9.447,0,0,0-6.058,1.963,1.579,1.579,0,0,0-.576-1.046,1.724,1.724,0,0,0-1.129-.4h-3.839V514.82a1.216,1.216,0,1,1-2.432,0v-9.746a7.905,7.905,0,0,0-2.261-5.973,8.611,8.611,0,0,0-6.229-2.176,9.447,9.447,0,0,0-6.058,1.963,1.587,1.587,0,0,0-.576-1.046,1.723,1.723,0,0,0-1.129-.4H830.1v24.188h5.588V506.993a4.952,4.952,0,0,1,1.385-3.627,4.832,4.832,0,0,1,3.6-1.407,4.323,4.323,0,0,1,2.922.873,3.185,3.185,0,0,1,1,2.539v9.449a6.8,6.8,0,1,0,13.61,0v-7.827a4.951,4.951,0,0,1,1.385-3.627,4.836,4.836,0,0,1,3.6-1.407,4.323,4.323,0,0,1,2.922.873,3.186,3.186,0,0,1,1,2.539v16.254h5.588V505.074a7.905,7.905,0,0,0-2.261-5.973A8.607,8.607,0,0,0,864.227,496.925Z" transform="translate(-781.339 -490.484)" fill="#e0e39c"/>
    <path id="Path_3165" data-name="Path 3165" d="M1053.6,498.525a10.538,10.538,0,0,0-6.166-1.79,10.947,10.947,0,0,0-5.888,1.642,11.328,11.328,0,0,0-4.137,4.544,13.946,13.946,0,0,0-1.493,6.483,14.142,14.142,0,0,0,1.493,6.571,10.971,10.971,0,0,0,4.159,4.5,11.59,11.59,0,0,0,6.08,1.6,10.641,10.641,0,0,0,7.337-2.539,10.776,10.776,0,0,0,3.412-7.017h-4.266a1.424,1.424,0,0,0-.939.32,2.062,2.062,0,0,0-.6.917q-1.11,3.286-4.949,3.285a5.405,5.405,0,0,1-3.968-1.515,7.359,7.359,0,0,1-1.963-4.244h16.9a18.81,18.81,0,0,0-1.132-7.678A10.841,10.841,0,0,0,1053.6,498.525Zm-11.712,8.02a6.839,6.839,0,0,1,1.985-3.668,5.136,5.136,0,0,1,3.561-1.28,5.008,5.008,0,0,1,3.563,1.258,6.22,6.22,0,0,1,1.727,3.69Z" transform="translate(-942.111 -490.335)" fill="#e0e39c"/>
    <path id="Path_3166" data-name="Path 3166" d="M1159.332,501.725a4.955,4.955,0,0,1,3.561,1.237,5.126,5.126,0,0,1,1.429,3.583h5.632a10.225,10.225,0,0,0-3.178-7.166,10.569,10.569,0,0,0-7.444-2.644,11.277,11.277,0,0,0-6.036,1.642,11.455,11.455,0,0,0-4.181,4.522,14.731,14.731,0,0,0,0,13.012,11.455,11.455,0,0,0,4.181,4.522,11.277,11.277,0,0,0,6.036,1.642,9.76,9.76,0,0,0,10.537-10.495H1165.9a1.569,1.569,0,0,0-1.13.427,2.021,2.021,0,0,0-.576,1.151,4.651,4.651,0,0,1-1.558,2.88,5.033,5.033,0,0,1-3.305,1,5.367,5.367,0,0,1-4.415-2.046,10.4,10.4,0,0,1,0-11.219A5.363,5.363,0,0,1,1159.332,501.725Z" transform="translate(-1029.347 -490.335)" fill="#e0e39c"/>
    <path id="Path_3167" data-name="Path 3167" d="M1267.66,479.4v14.034a5,5,0,0,0,1.558,3.946,6.353,6.353,0,0,0,4.371,1.388,15.156,15.156,0,0,0,3.839-.512V495.48a1.819,1.819,0,0,0-.554-1.407,2.055,2.055,0,0,0-1.451-.512,2.153,2.153,0,0,0-.468.042,2.518,2.518,0,0,1-.554.044,1.519,1.519,0,0,1-.939-.193,1.066,1.066,0,0,1-.214-.79V479.4h4.266v-4.949h-4.266v-6.954h-5.588v11.9Z" transform="translate(-1123.129 -467.495)" fill="#e0e39c"/>
  </g>
</svg>
