<svg xmlns="http://www.w3.org/2000/svg" xmlns:xlink="http://www.w3.org/1999/xlink" width="313" height="317.5" viewBox="0 0 313 317.5">
  <defs>
    <clipPath id="clip-path">
      <rect id="Rectangle_861" data-name="Rectangle 861" width="313" height="13" transform="translate(0.405 304.059)" fill="#fff" stroke="#707070" stroke-width="1"/>
    </clipPath>
    <linearGradient id="linear-gradient" x1="0.514" y1="-2.724" x2="0.514" y2="0.452" gradientUnits="objectBoundingBox">
      <stop offset="0" stop-color="#ff66a9" stop-opacity="0"/>
      <stop offset="1" stop-color="#f53689"/>
    </linearGradient>
    <linearGradient id="linear-gradient-2" x1="0.497" y1="-2.637" x2="0.497" y2="0.959" gradientUnits="objectBoundingBox">
      <stop offset="0" stop-color="#32d697" stop-opacity="0"/>
      <stop offset="1" stop-color="#32d697"/>
    </linearGradient>
    <linearGradient id="linear-gradient-3" x1="0.02" y1="0.513" x2="0.994" y2="0.513" gradientUnits="objectBoundingBox">
      <stop offset="0" stop-color="#ff66a9"/>
      <stop offset="1" stop-color="#f53689"/>
    </linearGradient>
    <linearGradient id="linear-gradient-4" x1="0.047" y1="0.497" x2="1.021" y2="0.497" xlink:href="#linear-gradient-3"/>
    <linearGradient id="linear-gradient-5" x1="0.029" y1="0.529" x2="1.004" y2="0.529" xlink:href="#linear-gradient-3"/>
    <linearGradient id="linear-gradient-6" x1="0.002" y1="0.487" x2="0.976" y2="0.487" xlink:href="#linear-gradient-3"/>
    <linearGradient id="linear-gradient-7" x1="0.029" y1="0.48" x2="1.003" y2="0.48" xlink:href="#linear-gradient-3"/>
    <linearGradient id="linear-gradient-8" x1="0.008" y1="0.497" x2="0.99" y2="0.497" xlink:href="#linear-gradient-3"/>
    <linearGradient id="linear-gradient-9" x1="0.017" y1="0.5" x2="1" y2="0.5" xlink:href="#linear-gradient-3"/>
    <linearGradient id="linear-gradient-10" x1="0.043" y1="0.483" x2="1.026" y2="0.483" xlink:href="#linear-gradient-3"/>
    <linearGradient id="linear-gradient-11" x1="0.012" y1="0.517" x2="0.995" y2="0.517" xlink:href="#linear-gradient-3"/>
    <linearGradient id="linear-gradient-12" x1="0.043" y1="0.503" x2="1.026" y2="0.503" xlink:href="#linear-gradient-3"/>
  </defs>
  <g id="Protocol_Icon_01" data-name="Protocol Icon 01" transform="translate(0 0.5)">
    <g id="Group_8030" data-name="Group 8030" transform="translate(8.907 0)">
      <path id="Path" d="M0,2.959V38.331A2.957,2.957,0,0,0,2.976,41.31a2.635,2.635,0,0,0,2.972-2.979V2.959A2.94,2.94,0,0,0,2.976,0,2.774,2.774,0,0,0,0,2.959Z" transform="translate(103.448 0)" fill="none" stroke="#fff" stroke-width="1"/>
      <path id="Path-2" data-name="Path" d="M0,2.959v36.03a2.956,2.956,0,0,0,2.972,2.979c1.985,0,2.976-.97,2.976-2.979V2.959A2.94,2.94,0,0,0,2.972,0,2.773,2.773,0,0,0,0,2.959Z" transform="translate(166.245 0)" fill="none" stroke="#fff" stroke-width="1"/>
      <path id="Path-3" data-name="Path" d="M0,7.587V0H177.147V23.454H0V15.209" transform="translate(117.33 119.642)" fill="none" stroke="#fff" stroke-width="1"/>
      <path id="Path-4" data-name="Path" d="M177.48,0H0V7.934H177.48V0Z" transform="translate(117.33 123.591)" fill="none" stroke="#fff" stroke-width="1"/>
      <path id="Path-5" data-name="Path" d="M25.779,0H181.118a6.632,6.632,0,0,1,6.607,6.617V53.872a6.632,6.632,0,0,1-6.607,6.617H6.61A6.635,6.635,0,0,1,0,53.872V6.617A6.635,6.635,0,0,1,6.61,0h4.3" transform="translate(109.397 65.111)" fill="none" stroke="#fff" stroke-width="1"/>
      <path id="Path-6" data-name="Path" d="M4.377,4.357a2.559,2.559,0,1,0-3.634,0A2.136,2.136,0,0,0,4.377,4.357Z" transform="translate(180.703 82.546)" fill="none" stroke="#fff" stroke-width="1"/>
      <path id="Path-7" data-name="Path" d="M4.377,4.365a2.591,2.591,0,0,0,0-3.638,2.633,2.633,0,0,0-3.634,0,2.6,2.6,0,0,0,0,3.638A2.568,2.568,0,0,0,4.377,4.365Z" transform="translate(180.703 94.109)" fill="none" stroke="#fff" stroke-width="1"/>
      <path id="Path-8" data-name="Path" d="M4.377,4.365a2.591,2.591,0,0,0,0-3.638,2.633,2.633,0,0,0-3.634,0,2.6,2.6,0,0,0,0,3.638A2.568,2.568,0,0,0,4.377,4.365Z" transform="translate(180.703 105.68)" fill="none" stroke="#fff" stroke-width="1"/>
      <path id="Path-9" data-name="Path" d="M4.38,4.391a2.6,2.6,0,0,0,0-3.638,2.568,2.568,0,0,0-3.634,0,2.591,2.591,0,0,0,0,3.638A2.633,2.633,0,0,0,4.38,4.391Z" transform="translate(191.938 88.816)" fill="none" stroke="#fff" stroke-width="1"/>
      <path id="Path-10" data-name="Path" d="M4.38,4.391a2.6,2.6,0,0,0,0-3.638,2.568,2.568,0,0,0-3.634,0,2.591,2.591,0,0,0,0,3.638A2.633,2.633,0,0,0,4.38,4.391Z" transform="translate(191.938 100.387)" fill="none" stroke="#fff" stroke-width="1"/>
      <path id="Path-11" data-name="Path" d="M4.381,4.391a2.6,2.6,0,0,0,0-3.638,2.572,2.572,0,0,0-3.638,0,2.6,2.6,0,0,0,0,3.638A2.572,2.572,0,0,0,4.381,4.391Z" transform="translate(203.176 82.857)" fill="none" stroke="#fff" stroke-width="1"/>
      <path id="Path-12" data-name="Path" d="M4.381,4.365a2.6,2.6,0,0,0,0-3.638,2.637,2.637,0,0,0-3.638,0,2.6,2.6,0,0,0,0,3.638A2.572,2.572,0,0,0,4.381,4.365Z" transform="translate(203.176 94.109)" fill="none" stroke="#fff" stroke-width="1"/>
      <path id="Path-13" data-name="Path" d="M2.643,5.266A2.592,2.592,0,0,0,5.29,2.633,2.6,2.6,0,0,0,2.643,0,2.591,2.591,0,0,0,0,2.633,2.42,2.42,0,0,0,2.643,5.266Z" transform="translate(203.258 105.438)" fill="none" stroke="#fff" stroke-width="1"/>
      <path id="Path-14" data-name="Path" d="M4.38,4.391a2.6,2.6,0,0,0,0-3.638,2.568,2.568,0,0,0-3.634,0,2.591,2.591,0,0,0,0,3.638A2.633,2.633,0,0,0,4.38,4.391Z" transform="translate(214.414 88.816)" fill="none" stroke="#fff" stroke-width="1"/>
      <path id="Path-15" data-name="Path" d="M4.377,4.391a2.591,2.591,0,0,0,0-3.638,2.568,2.568,0,0,0-3.634,0,2.6,2.6,0,0,0,0,3.638A2.633,2.633,0,0,0,4.377,4.391Z" transform="translate(214.743 100.387)" fill="none" stroke="#fff" stroke-width="1"/>
      <path id="Path-16" data-name="Path" d="M4.38,4.357a2.559,2.559,0,1,0-3.634,0A2.555,2.555,0,0,0,4.38,4.357Z" transform="translate(225.981 82.546)" fill="none" stroke="#fff" stroke-width="1"/>
      <path id="Path-17" data-name="Path" d="M4.38,4.391a2.6,2.6,0,0,0,0-3.638,2.568,2.568,0,0,0-3.634,0,2.591,2.591,0,0,0,0,3.638A2.633,2.633,0,0,0,4.38,4.391Z" transform="translate(225.981 93.77)" fill="none" stroke="#fff" stroke-width="1"/>
      <path id="Path-18" data-name="Path" d="M4.377,4.391a2.591,2.591,0,0,0,0-3.638,2.568,2.568,0,0,0-3.634,0,2.6,2.6,0,0,0,0,3.638A2.633,2.633,0,0,0,4.377,4.391Z" transform="translate(226.31 105.342)" fill="none" stroke="#fff" stroke-width="1"/>
      <path id="Path-19" data-name="Path" d="M4.381,4.391a2.6,2.6,0,0,0,0-3.638,2.572,2.572,0,0,0-3.638,0,2.6,2.6,0,0,0,0,3.638A2.637,2.637,0,0,0,4.381,4.391Z" transform="translate(237.219 88.816)" fill="none" stroke="#fff" stroke-width="1"/>
      <path id="Path-20" data-name="Path" d="M4.38,4.391a2.6,2.6,0,0,0,0-3.638,2.568,2.568,0,0,0-3.634,0,2.591,2.591,0,0,0,0,3.638A2.633,2.633,0,0,0,4.38,4.391Z" transform="translate(237.548 100.387)" fill="none" stroke="#fff" stroke-width="1"/>
      <path id="Path-21" data-name="Path" d="M4.377,4.357a2.559,2.559,0,1,0-3.634,0A2.549,2.549,0,0,0,4.377,4.357Z" transform="translate(248.786 82.546)" fill="none" stroke="#fff" stroke-width="1"/>
      <path id="Path-22" data-name="Path" d="M4.377,4.365a2.591,2.591,0,0,0,0-3.638,2.633,2.633,0,0,0-3.634,0,2.6,2.6,0,0,0,0,3.638C1.734,5.37,3.057,5.37,4.377,4.365Z" transform="translate(248.786 94.109)" fill="none" stroke="#fff" stroke-width="1"/>
      <path id="Path-23" data-name="Path" d="M4.377,4.365a2.591,2.591,0,0,0,0-3.638,2.633,2.633,0,0,0-3.634,0,2.6,2.6,0,0,0,0,3.638A2.568,2.568,0,0,0,4.377,4.365Z" transform="translate(248.786 105.68)" fill="none" stroke="#fff" stroke-width="1"/>
      <path id="Path-24" data-name="Path" d="M4.377,4.391a2.6,2.6,0,0,0,0-3.638,2.568,2.568,0,0,0-3.634,0,2.6,2.6,0,0,0,0,3.638A2.633,2.633,0,0,0,4.377,4.391Z" transform="translate(260.027 88.816)" fill="none" stroke="#fff" stroke-width="1"/>
      <path id="Path-25" data-name="Path" d="M4.377,4.391a2.6,2.6,0,0,0,0-3.638,2.568,2.568,0,0,0-3.634,0,2.6,2.6,0,0,0,0,3.638A2.633,2.633,0,0,0,4.377,4.391Z" transform="translate(260.027 100.387)" fill="none" stroke="#fff" stroke-width="1"/>
      <path id="Path-26" data-name="Path" d="M4.381,4.391a2.6,2.6,0,0,0,0-3.638,2.572,2.572,0,0,0-3.638,0,2.6,2.6,0,0,0,0,3.638A2.572,2.572,0,0,0,4.381,4.391Z" transform="translate(271.262 82.857)" fill="none" stroke="#fff" stroke-width="1"/>
      <path id="Path-27" data-name="Path" d="M4.381,4.365a2.6,2.6,0,0,0,0-3.638,2.637,2.637,0,0,0-3.638,0,2.6,2.6,0,0,0,0,3.638A2.572,2.572,0,0,0,4.381,4.365Z" transform="translate(271.262 94.109)" fill="none" stroke="#fff" stroke-width="1"/>
      <path id="Path-28" data-name="Path" d="M4.381,4.365a2.6,2.6,0,0,0,0-3.638,2.637,2.637,0,0,0-3.638,0,2.6,2.6,0,0,0,0,3.638C2.067,5.37,3.386,5.37,4.381,4.365Z" transform="translate(271.262 105.68)" fill="none" stroke="#fff" stroke-width="1"/>
      <path id="Path-29" data-name="Path" d="M24.459,11.883A12.418,12.418,0,0,1,14.211,24.113c-.658,0-1.32.346-1.982.346A12.414,12.414,0,0,1,0,12.229,12.187,12.187,0,0,1,12.229,0a4.4,4.4,0,0,1,1.982.312C19.83.658,24.459,5.612,24.459,11.883Z" transform="translate(130.216 85.932)" fill="none" stroke="#fff" stroke-width="1"/>
      <path id="Path-30" data-name="Path" d="M0,7.622V0H177.147V23.8H0V15.555" transform="translate(117.33 195.963)" fill="none" stroke="#fff" stroke-width="1"/>
      <path id="Path-31" data-name="Path" d="M177.48,0H0V8.938H177.48V0Z" transform="translate(117.33 198.942)" fill="none" stroke="#fff" stroke-width="1"/>
      <path id="Path-32" data-name="Path" d="M25.779,0H181.118a6.575,6.575,0,0,1,6.607,6.305V53.56a6.632,6.632,0,0,1-6.607,6.617H6.61A6.635,6.635,0,0,1,0,53.56V6.305A6.375,6.375,0,0,1,6.61,0h4.3" transform="translate(109.397 141.432)" fill="none" stroke="#fff" stroke-width="1"/>
      <path id="Path-33" data-name="Path" d="M4.377,4.391a2.591,2.591,0,0,0,0-3.638,2.568,2.568,0,0,0-3.634,0,2.6,2.6,0,0,0,0,3.638A2.633,2.633,0,0,0,4.377,4.391Z" transform="translate(180.703 159.214)" fill="none" stroke="#fff" stroke-width="1"/>
      <path id="Path-34" data-name="Path" d="M4.377,4.391a2.591,2.591,0,0,0,0-3.638,2.568,2.568,0,0,0-3.634,0,2.6,2.6,0,0,0,0,3.638A2.633,2.633,0,0,0,4.377,4.391Z" transform="translate(180.703 170.439)" fill="none" stroke="#fff" stroke-width="1"/>
      <path id="Path-35" data-name="Path" d="M2.643,5.3A2.611,2.611,0,0,0,5.287,2.668,2.608,2.608,0,0,0,2.643,0,2.619,2.619,0,0,0,0,2.668C.329,3.984,1.32,5.3,2.643,5.3Z" transform="translate(180.456 181.759)" fill="none" stroke="#fff" stroke-width="1"/>
      <path id="Path-36" data-name="Path" d="M4.38,4.391a2.6,2.6,0,0,0,0-3.638,2.568,2.568,0,0,0-3.634,0,2.591,2.591,0,0,0,0,3.638A2.633,2.633,0,0,0,4.38,4.391Z" transform="translate(191.938 165.484)" fill="none" stroke="#fff" stroke-width="1"/>
      <path id="Path-37" data-name="Path" d="M4.38,4.365a2.6,2.6,0,0,0,0-3.638,2.633,2.633,0,0,0-3.634,0,2.591,2.591,0,0,0,0,3.638A2.568,2.568,0,0,0,4.38,4.365Z" transform="translate(191.938 176.734)" fill="none" stroke="#fff" stroke-width="1"/>
      <path id="Path-38" data-name="Path" d="M4.38,4.391a2.6,2.6,0,0,0,0-3.638,2.568,2.568,0,0,0-3.634,0,2.591,2.591,0,0,0,0,3.638A2.633,2.633,0,0,0,4.38,4.391Z" transform="translate(203.508 159.214)" fill="none" stroke="#fff" stroke-width="1"/>
      <path id="Path-39" data-name="Path" d="M4.381,4.391a2.6,2.6,0,0,0,0-3.638,2.572,2.572,0,0,0-3.638,0,2.6,2.6,0,0,0,0,3.638A2.169,2.169,0,0,0,4.381,4.391Z" transform="translate(203.176 170.439)" fill="none" stroke="#fff" stroke-width="1"/>
      <path id="Path-40" data-name="Path" d="M4.381,4.391a2.6,2.6,0,0,0,0-3.638,2.572,2.572,0,0,0-3.638,0,2.6,2.6,0,0,0,0,3.638A2.637,2.637,0,0,0,4.381,4.391Z" transform="translate(203.176 182.009)" fill="none" stroke="#fff" stroke-width="1"/>
      <path id="Path-41" data-name="Path" d="M4.377,4.391a2.591,2.591,0,0,0,0-3.638,2.568,2.568,0,0,0-3.634,0,2.6,2.6,0,0,0,0,3.638A2.633,2.633,0,0,0,4.377,4.391Z" transform="translate(214.743 165.484)" fill="none" stroke="#fff" stroke-width="1"/>
      <path id="Path-42" data-name="Path" d="M4.377,4.365a2.591,2.591,0,0,0,0-3.638,2.633,2.633,0,0,0-3.634,0,2.6,2.6,0,0,0,0,3.638A2.568,2.568,0,0,0,4.377,4.365Z" transform="translate(214.743 176.734)" fill="none" stroke="#fff" stroke-width="1"/>
      <path id="Path-43" data-name="Path" d="M4.377,4.391a2.591,2.591,0,0,0,0-3.638,2.568,2.568,0,0,0-3.634,0,2.6,2.6,0,0,0,0,3.638A2.633,2.633,0,0,0,4.377,4.391Z" transform="translate(226.31 159.214)" fill="none" stroke="#fff" stroke-width="1"/>
      <path id="Path-44" data-name="Path" d="M4.377,4.391a2.591,2.591,0,0,0,0-3.638,2.568,2.568,0,0,0-3.634,0,2.6,2.6,0,0,0,0,3.638C1.734,5.361,3.057,5.361,4.377,4.391Z" transform="translate(226.31 170.439)" fill="none" stroke="#fff" stroke-width="1"/>
      <path id="Path-45" data-name="Path" d="M4.38,4.365a2.6,2.6,0,0,0,0-3.638,2.633,2.633,0,0,0-3.634,0,2.591,2.591,0,0,0,0,3.638A2.568,2.568,0,0,0,4.38,4.365Z" transform="translate(225.981 181.69)" fill="none" stroke="#fff" stroke-width="1"/>
      <path id="Path-46" data-name="Path" d="M4.38,4.365a2.6,2.6,0,0,0,0-3.638,2.633,2.633,0,0,0-3.634,0,2.591,2.591,0,0,0,0,3.638A2.166,2.166,0,0,0,4.38,4.365Z" transform="translate(237.548 165.165)" fill="none" stroke="#fff" stroke-width="1"/>
      <path id="Path-47" data-name="Path" d="M4.38,4.365a2.6,2.6,0,0,0,0-3.638,2.633,2.633,0,0,0-3.634,0,2.591,2.591,0,0,0,0,3.638A2.568,2.568,0,0,0,4.38,4.365Z" transform="translate(237.548 176.734)" fill="none" stroke="#fff" stroke-width="1"/>
      <path id="Path-48" data-name="Path" d="M2.643,5.3A2.619,2.619,0,0,0,5.287,2.633,2.6,2.6,0,0,0,2.643,0,2.613,2.613,0,0,0,0,2.633C.329,4.3,1.323,5.3,2.643,5.3Z" transform="translate(248.539 158.962)" fill="none" stroke="#fff" stroke-width="1"/>
      <path id="Path-49" data-name="Path" d="M4.377,4.391a2.591,2.591,0,0,0,0-3.638,2.568,2.568,0,0,0-3.634,0,2.6,2.6,0,0,0,0,3.638A2.633,2.633,0,0,0,4.377,4.391Z" transform="translate(248.786 170.439)" fill="none" stroke="#fff" stroke-width="1"/>
      <path id="Path-50" data-name="Path" d="M4.377,4.365a2.591,2.591,0,0,0,0-3.638,2.633,2.633,0,0,0-3.634,0,2.6,2.6,0,0,0,0,3.638A2.166,2.166,0,0,0,4.377,4.365Z" transform="translate(248.786 181.69)" fill="none" stroke="#fff" stroke-width="1"/>
      <path id="Path-51" data-name="Path" d="M4.377,4.391a2.6,2.6,0,0,0,0-3.638,2.568,2.568,0,0,0-3.634,0,2.6,2.6,0,0,0,0,3.638A2.633,2.633,0,0,0,4.377,4.391Z" transform="translate(260.027 165.484)" fill="none" stroke="#fff" stroke-width="1"/>
      <path id="Path-52" data-name="Path" d="M4.377,4.365a2.6,2.6,0,0,0,0-3.638,2.633,2.633,0,0,0-3.634,0,2.6,2.6,0,0,0,0,3.638A2.568,2.568,0,0,0,4.377,4.365Z" transform="translate(260.027 176.734)" fill="none" stroke="#fff" stroke-width="1"/>
      <path id="Path-53" data-name="Path" d="M4.381,4.391a2.6,2.6,0,0,0,0-3.638,2.572,2.572,0,0,0-3.638,0,2.6,2.6,0,0,0,0,3.638A2.637,2.637,0,0,0,4.381,4.391Z" transform="translate(271.262 159.214)" fill="none" stroke="#fff" stroke-width="1"/>
      <path id="Path-54" data-name="Path" d="M4.381,4.391a2.6,2.6,0,0,0,0-3.638,2.572,2.572,0,0,0-3.638,0,2.6,2.6,0,0,0,0,3.638A2.637,2.637,0,0,0,4.381,4.391Z" transform="translate(271.262 170.439)" fill="none" stroke="#fff" stroke-width="1"/>
      <path id="Path-55" data-name="Path" d="M4.381,4.391a2.6,2.6,0,0,0,0-3.638,2.572,2.572,0,0,0-3.638,0,2.6,2.6,0,0,0,0,3.638A2.637,2.637,0,0,0,4.381,4.391Z" transform="translate(271.262 182.009)" fill="none" stroke="#fff" stroke-width="1"/>
      <path id="Path-56" data-name="Path" d="M24.459,11.918A12.474,12.474,0,0,1,14.211,24.147c-.658,0-1.32.312-1.982.312A12.414,12.414,0,0,1,0,12.229,12.209,12.209,0,0,1,12.229,0a4.008,4.008,0,0,1,1.982.346C19.83.346,24.459,5.647,24.459,11.918Z" transform="translate(130.216 162.254)" fill="none" stroke="#fff" stroke-width="1"/>
      <path id="Path-57" data-name="Path" d="M0,7.587V0H177.147V23.454H0V15.209" transform="translate(117.33 272.319)" fill="none" stroke="#fff" stroke-width="1"/>
      <path id="Path-58" data-name="Path" d="M177.48,0H0V12.229H177.48V0Z" transform="translate(117.33 272.319)" fill="none" stroke="#fff" stroke-width="1"/>
      <path id="Path-59" data-name="Path" d="M25.779,0H181.118a6.6,6.6,0,0,1,6.607,6.582V53.837a6.632,6.632,0,0,1-6.607,6.617H6.61A6.635,6.635,0,0,1,0,53.837V6.582A6.605,6.605,0,0,1,6.61,0h4.3" transform="translate(109.397 218.136)" fill="none" stroke="#fff" stroke-width="1"/>
      <path id="Path-60" data-name="Path" d="M4.377,4.365a2.591,2.591,0,0,0,0-3.638,2.633,2.633,0,0,0-3.634,0,2.6,2.6,0,0,0,0,3.638A2.568,2.568,0,0,0,4.377,4.365Z" transform="translate(180.703 235.561)" fill="none" stroke="#fff" stroke-width="1"/>
      <path id="Path-61" data-name="Path" d="M4.377,4.365a2.591,2.591,0,0,0,0-3.638,2.633,2.633,0,0,0-3.634,0,2.6,2.6,0,0,0,0,3.638A2.568,2.568,0,0,0,4.377,4.365Z" transform="translate(180.703 246.787)" fill="none" stroke="#fff" stroke-width="1"/>
      <path id="Path-62" data-name="Path" d="M4.377,4.391a2.591,2.591,0,0,0,0-3.638,2.568,2.568,0,0,0-3.634,0,2.6,2.6,0,0,0,0,3.638A2.633,2.633,0,0,0,4.377,4.391Z" transform="translate(180.703 258.019)" fill="none" stroke="#fff" stroke-width="1"/>
      <path id="Path-63" data-name="Path" d="M2.643,5.266A2.589,2.589,0,0,0,5.287,2.633,2.6,2.6,0,0,0,2.643,0,2.836,2.836,0,0,0,0,2.633,2.6,2.6,0,0,0,2.643,5.266Z" transform="translate(192.023 241.589)" fill="none" stroke="#fff" stroke-width="1"/>
      <path id="Path-64" data-name="Path" d="M4.38,4.391a2.6,2.6,0,0,0,0-3.638,2.568,2.568,0,0,0-3.634,0,2.591,2.591,0,0,0,0,3.638A2.633,2.633,0,0,0,4.38,4.391Z" transform="translate(191.938 253.065)" fill="none" stroke="#fff" stroke-width="1"/>
      <path id="Path-65" data-name="Path" d="M4.381,4.365a2.6,2.6,0,0,0,0-3.638,2.637,2.637,0,0,0-3.638,0,2.6,2.6,0,0,0,0,3.638A2.572,2.572,0,0,0,4.381,4.365Z" transform="translate(203.176 235.561)" fill="none" stroke="#fff" stroke-width="1"/>
      <path id="Path-66" data-name="Path" d="M4.381,4.365a2.6,2.6,0,0,0,0-3.638,2.637,2.637,0,0,0-3.638,0,2.6,2.6,0,0,0,0,3.638A2.572,2.572,0,0,0,4.381,4.365Z" transform="translate(203.176 246.787)" fill="none" stroke="#fff" stroke-width="1"/>
      <path id="Path-67" data-name="Path" d="M4.381,4.365a2.6,2.6,0,0,0,0-3.638,2.637,2.637,0,0,0-3.638,0,2.6,2.6,0,0,0,0,3.638A2.572,2.572,0,0,0,4.381,4.365Z" transform="translate(203.176 258.358)" fill="none" stroke="#fff" stroke-width="1"/>
      <path id="Path-68" data-name="Path" d="M4.38,4.365a2.6,2.6,0,0,0,0-3.638,2.633,2.633,0,0,0-3.634,0,2.591,2.591,0,0,0,0,3.638A2.568,2.568,0,0,0,4.38,4.365Z" transform="translate(214.414 241.832)" fill="none" stroke="#fff" stroke-width="1"/>
      <path id="Path-69" data-name="Path" d="M4.38,4.391a2.6,2.6,0,0,0,0-3.638,2.568,2.568,0,0,0-3.634,0,2.591,2.591,0,0,0,0,3.638A2.633,2.633,0,0,0,4.38,4.391Z" transform="translate(214.414 253.065)" fill="none" stroke="#fff" stroke-width="1"/>
      <path id="Path-70" data-name="Path" d="M4.38,4.365a2.6,2.6,0,0,0,0-3.638,2.633,2.633,0,0,0-3.634,0,2.591,2.591,0,0,0,0,3.638A2.568,2.568,0,0,0,4.38,4.365Z" transform="translate(225.981 235.561)" fill="none" stroke="#fff" stroke-width="1"/>
      <path id="Path-71" data-name="Path" d="M4.38,4.365a2.6,2.6,0,0,0,0-3.638,2.633,2.633,0,0,0-3.634,0,2.591,2.591,0,0,0,0,3.638A2.568,2.568,0,0,0,4.38,4.365Z" transform="translate(225.981 246.787)" fill="none" stroke="#fff" stroke-width="1"/>
      <path id="Path-72" data-name="Path" d="M4.38,4.391a2.6,2.6,0,0,0,0-3.638,2.568,2.568,0,0,0-3.634,0,2.591,2.591,0,0,0,0,3.638A2.633,2.633,0,0,0,4.38,4.391Z" transform="translate(225.981 258.019)" fill="none" stroke="#fff" stroke-width="1"/>
      <path id="Path-73" data-name="Path" d="M4.381,4.391a2.6,2.6,0,0,0,0-3.638,2.572,2.572,0,0,0-3.638,0,2.6,2.6,0,0,0,0,3.638A2.637,2.637,0,0,0,4.381,4.391Z" transform="translate(237.219 241.494)" fill="none" stroke="#fff" stroke-width="1"/>
      <path id="Path-74" data-name="Path" d="M4.381,4.391a2.6,2.6,0,0,0,0-3.638,2.572,2.572,0,0,0-3.638,0,2.6,2.6,0,0,0,0,3.638A2.637,2.637,0,0,0,4.381,4.391Z" transform="translate(237.219 253.065)" fill="none" stroke="#fff" stroke-width="1"/>
      <path id="Path-75" data-name="Path" d="M4.377,4.365a2.591,2.591,0,0,0,0-3.638,2.633,2.633,0,0,0-3.634,0,2.6,2.6,0,0,0,0,3.638A2.568,2.568,0,0,0,4.377,4.365Z" transform="translate(248.786 235.561)" fill="none" stroke="#fff" stroke-width="1"/>
      <path id="Path-76" data-name="Path" d="M4.377,4.365a2.591,2.591,0,0,0,0-3.638,2.633,2.633,0,0,0-3.634,0,2.6,2.6,0,0,0,0,3.638A2.568,2.568,0,0,0,4.377,4.365Z" transform="translate(248.786 246.787)" fill="none" stroke="#fff" stroke-width="1"/>
      <path id="Path-77" data-name="Path" d="M2.643,5.266A2.589,2.589,0,0,0,5.287,2.633,2.6,2.6,0,0,0,2.643,0,2.838,2.838,0,0,0,0,2.633C.329,3.949,1.323,5.266,2.643,5.266Z" transform="translate(248.539 258.114)" fill="none" stroke="#fff" stroke-width="1"/>
      <path id="Path-78" data-name="Path" d="M4.377,4.365a2.6,2.6,0,0,0,0-3.638,2.633,2.633,0,0,0-3.634,0,2.6,2.6,0,0,0,0,3.638A2.568,2.568,0,0,0,4.377,4.365Z" transform="translate(260.027 241.832)" fill="none" stroke="#fff" stroke-width="1"/>
      <path id="Path-79" data-name="Path" d="M4.377,4.391a2.6,2.6,0,0,0,0-3.638,2.568,2.568,0,0,0-3.634,0,2.6,2.6,0,0,0,0,3.638A2.633,2.633,0,0,0,4.377,4.391Z" transform="translate(260.027 253.065)" fill="none" stroke="#fff" stroke-width="1"/>
      <path id="Path-80" data-name="Path" d="M4.381,4.365a2.6,2.6,0,0,0,0-3.638,2.637,2.637,0,0,0-3.638,0,2.6,2.6,0,0,0,0,3.638A2.572,2.572,0,0,0,4.381,4.365Z" transform="translate(271.262 235.561)" fill="none" stroke="#fff" stroke-width="1"/>
      <path id="Path-81" data-name="Path" d="M4.381,4.365a2.6,2.6,0,0,0,0-3.638,2.637,2.637,0,0,0-3.638,0,2.6,2.6,0,0,0,0,3.638A2.572,2.572,0,0,0,4.381,4.365Z" transform="translate(271.262 246.787)" fill="none" stroke="#fff" stroke-width="1"/>
      <path id="Path-82" data-name="Path" d="M4.381,4.365a2.6,2.6,0,0,0,0-3.638,2.637,2.637,0,0,0-3.638,0,2.6,2.6,0,0,0,0,3.638A2.572,2.572,0,0,0,4.381,4.365Z" transform="translate(271.262 258.358)" fill="none" stroke="#fff" stroke-width="1"/>
      <path id="Path-83" data-name="Path" d="M24.459,11.883A12.418,12.418,0,0,1,14.211,24.113c-.658,0-1.32.346-1.982.346A12.414,12.414,0,0,1,0,12.229,12.209,12.209,0,0,1,12.229,0a4.4,4.4,0,0,1,1.982.312C19.83.658,24.459,5.612,24.459,11.883Z" transform="translate(130.216 238.611)" fill="none" stroke="#fff" stroke-width="1"/>
      <path id="Path-84" data-name="Path" d="M20.492,12.229A12.418,12.418,0,0,1,10.244,24.459,12.119,12.119,0,0,1,0,12.229,12.475,12.475,0,0,1,10.244,0,12.474,12.474,0,0,1,20.492,12.229Z" transform="translate(134.185 85.586)" fill="none" stroke="#fff" stroke-width="1"/>
      <path id="Path-85" data-name="Path" d="M20.492,12.229A12.474,12.474,0,0,1,10.244,24.459,12.41,12.41,0,0,1,0,12.229,12.705,12.705,0,0,1,10.244,0C15.864.658,20.492,5.959,20.492,12.229Z" transform="translate(134.185 161.942)" fill="none" stroke="#fff" stroke-width="1"/>
      <path id="Path-86" data-name="Path" d="M20.492,12.229A12.418,12.418,0,0,1,10.244,24.459,12.119,12.119,0,0,1,0,12.229,12.475,12.475,0,0,1,10.244,0,12.474,12.474,0,0,1,20.492,12.229Z" transform="translate(134.185 238.264)" fill="none" stroke="#fff" stroke-width="1"/>
      <path id="Path-87" data-name="Path" d="M15.205,30.418A15.209,15.209,0,1,0,0,15.209,15.194,15.194,0,0,0,15.205,30.418Z" transform="translate(255.478 234.627)" fill="none" stroke="#fff" stroke-width="1"/>
      <path id="Path-88" data-name="Path" d="M8.263,16.525A8.263,8.263,0,1,0,0,8.245,8.272,8.272,0,0,0,8.263,16.525Z" transform="translate(262.421 241.589)" fill="none" stroke="#fff" stroke-width="1"/>
      <path id="Path-89" data-name="Path" d="M85.932,0H0V230.663H85.932Z" transform="translate(172.521 65.111)" fill="none" stroke="#fff" stroke-width="1" opacity="0.1"/>
      <path id="Path-90" data-name="Path" d="M201.277,0H0V26.78H201.277Z" transform="translate(38.67 95.493)" stroke="#fff" stroke-width="1"/>
      <path id="Path-91" data-name="Path" d="M201.277,29.1H0V22.138L201.277,0Z" transform="translate(38.67 80.632)" fill="none" stroke="#fff" stroke-width="1"/>
      <path id="Path-92" data-name="Path" d="M0,8.938V0H200.945V26.78H0v-8.9" transform="translate(8.594 95.493)" stroke="#fff" stroke-width="1"/>
      <path id="Path-93" data-name="Path" d="M200.945,0H0V9.25H200.945Z" transform="translate(8.594 100.482)" stroke="#fff" stroke-width="1"/>
      <path id="Path-94" data-name="Path" d="M237.3,68.076H10.248A10.281,10.281,0,0,1,0,57.856v-47.6A10.31,10.31,0,0,1,10.248,0H237.633a10.308,10.308,0,0,1,10.244,10.255v47.6C247.877,63.469,242.92,68.076,237.3,68.076Z" transform="translate(0 34.035)" stroke="#fff" stroke-width="1"/>
      <path id="Path-95" data-name="Path" d="M28.755,0H205.244a7.072,7.072,0,0,1,6.939,7.275V60.489a7.292,7.292,0,0,1-6.939,7.275H6.943A7.073,7.073,0,0,1,0,60.489V7.275A7.293,7.293,0,0,1,6.943,0H11.9" transform="translate(0 34.035)" fill="none" stroke="#fff" stroke-width="1"/>
      <path id="Path-96" data-name="Path" d="M4.71,4.971a3.042,3.042,0,0,0,0-3.984,2.486,2.486,0,0,0-3.967,0,3.042,3.042,0,0,0,0,3.984A2.486,2.486,0,0,0,4.71,4.971Z" transform="translate(80.558 53.869)" fill="none" stroke="#fff" stroke-width="1"/>
      <path id="Path-97" data-name="Path" d="M4.71,4.712a3.042,3.042,0,0,0,0-3.984,3.067,3.067,0,0,0-3.967,0,3.042,3.042,0,0,0,0,3.984A2.486,2.486,0,0,0,4.71,4.712Z" transform="translate(80.558 67.016)" fill="none" stroke="#fff" stroke-width="1"/>
      <path id="Path-98" data-name="Path" d="M4.71,5.049a3.469,3.469,0,0,0,0-4.3,2.987,2.987,0,0,0-3.967,0,3.467,3.467,0,0,0,0,4.3A2.486,2.486,0,0,0,4.71,5.049Z" transform="translate(80.558 79.565)" fill="none" stroke="#fff" stroke-width="1"/>
      <path id="Path-99" data-name="Path" d="M4.71,5.023a3.476,3.476,0,0,0,0-4.3,3.067,3.067,0,0,0-3.967,0,3.469,3.469,0,0,0,0,4.3A2.987,2.987,0,0,0,4.71,5.023Z" transform="translate(93.45 61.057)" fill="none" stroke="#fff" stroke-width="1"/>
      <path id="Path-100" data-name="Path" d="M4.71,5.058a3.517,3.517,0,0,0,0-4.331,3.067,3.067,0,0,0-3.967,0,3.517,3.517,0,0,0,0,4.331A3.067,3.067,0,0,0,4.71,5.058Z" transform="translate(93.45 73.945)" fill="none" stroke="#fff" stroke-width="1"/>
      <path id="Path-101" data-name="Path" d="M4.71,5.049a3.469,3.469,0,0,0,0-4.3,2.987,2.987,0,0,0-3.967,0,3.465,3.465,0,0,0,0,4.3A3.067,3.067,0,0,0,4.71,5.049Z" transform="translate(106.337 53.791)" fill="none" stroke="#fff" stroke-width="1"/>
      <path id="Path-102" data-name="Path" d="M4.71,4.712a3.042,3.042,0,0,0,0-3.984,3.067,3.067,0,0,0-3.967,0,3.042,3.042,0,0,0,0,3.984A2.486,2.486,0,0,0,4.71,4.712Z" transform="translate(106.337 67.016)" fill="none" stroke="#fff" stroke-width="1"/>
      <path id="Path-103" data-name="Path" d="M2.976,5.924A2.962,2.962,0,1,0,2.976,0a2.962,2.962,0,1,0,0,5.924Z" transform="translate(106.092 79.662)" fill="none" stroke="#fff" stroke-width="1"/>
      <path id="Path-104" data-name="Path" d="M4.71,4.971a3.042,3.042,0,0,0,0-3.984,2.486,2.486,0,0,0-3.967,0,3.042,3.042,0,0,0,0,3.984A2.486,2.486,0,0,0,4.71,4.971Z" transform="translate(119.231 60.798)" fill="none" stroke="#fff" stroke-width="1"/>
      <path id="Path-105" data-name="Path" d="M4.71,4.712a3.042,3.042,0,0,0,0-3.984,3.067,3.067,0,0,0-3.967,0,3.042,3.042,0,0,0,0,3.984A2.486,2.486,0,0,0,4.71,4.712Z" transform="translate(119.231 73.945)" fill="none" stroke="#fff" stroke-width="1"/>
      <path id="Path-106" data-name="Path" d="M4.71,4.712a3.042,3.042,0,0,0,0-3.984,3.067,3.067,0,0,0-3.967,0,3.042,3.042,0,0,0,0,3.984A3.067,3.067,0,0,0,4.71,4.712Z" transform="translate(132.118 54.129)" fill="none" stroke="#fff" stroke-width="1"/>
      <path id="Path-107" data-name="Path" d="M4.71,5.049a3.476,3.476,0,0,0,0-4.3,2.987,2.987,0,0,0-3.967,0,3.467,3.467,0,0,0,0,4.3A3.067,3.067,0,0,0,4.71,5.049Z" transform="translate(132.118 66.679)" fill="none" stroke="#fff" stroke-width="1"/>
      <path id="Path-108" data-name="Path" d="M4.71,5.049a3.469,3.469,0,0,0,0-4.3,2.987,2.987,0,0,0-3.967,0,3.476,3.476,0,0,0,0,4.3A3.067,3.067,0,0,0,4.71,5.049Z" transform="translate(132.118 79.565)" fill="none" stroke="#fff" stroke-width="1"/>
      <path id="Path-109" data-name="Path" d="M4.71,5.049a3.469,3.469,0,0,0,0-4.3,2.987,2.987,0,0,0-3.967,0,3.469,3.469,0,0,0,0,4.3A2.486,2.486,0,0,0,4.71,5.049Z" transform="translate(145.009 60.719)" fill="none" stroke="#fff" stroke-width="1"/>
      <path id="Path-110" data-name="Path" d="M4.71,4.712a3.042,3.042,0,0,0,0-3.984,3.067,3.067,0,0,0-3.967,0,3.042,3.042,0,0,0,0,3.984A2.486,2.486,0,0,0,4.71,4.712Z" transform="translate(145.009 73.945)" fill="none" stroke="#fff" stroke-width="1"/>
      <path id="Path-111" data-name="Path" d="M4.71,4.712a3.042,3.042,0,0,0,0-3.984,3.067,3.067,0,0,0-3.967,0,3.042,3.042,0,0,0,0,3.984A2.486,2.486,0,0,0,4.71,4.712Z" transform="translate(157.567 54.129)" fill="none" stroke="#fff" stroke-width="1"/>
      <path id="Path-112" data-name="Path" d="M4.71,4.712a3.042,3.042,0,0,0,0-3.984,3.067,3.067,0,0,0-3.967,0,3.042,3.042,0,0,0,0,3.984A2.486,2.486,0,0,0,4.71,4.712Z" transform="translate(157.567 67.016)" fill="none" stroke="#fff" stroke-width="1"/>
      <path id="Path-113" data-name="Path" d="M4.71,5.023a3.467,3.467,0,0,0,0-4.3,3.067,3.067,0,0,0-3.967,0,3.469,3.469,0,0,0,0,4.3C1.734,6.34,3.719,6.028,4.71,5.023Z" transform="translate(157.567 79.904)" fill="none" stroke="#fff" stroke-width="1"/>
      <path id="Path-114" data-name="Path" d="M4.709,4.7a2.987,2.987,0,0,0,0-3.949,2.983,2.983,0,0,0-3.963,0,2.987,2.987,0,0,0,0,3.949A2.983,2.983,0,0,0,4.709,4.7Z" transform="translate(170.456 61.378)" fill="none" stroke="#fff" stroke-width="1"/>
      <path id="Path-115" data-name="Path" d="M4.71,5.058a3.517,3.517,0,0,0,0-4.331,3.067,3.067,0,0,0-3.967,0,3.517,3.517,0,0,0,0,4.331A3.059,3.059,0,0,0,4.71,5.058Z" transform="translate(170.788 73.945)" fill="none" stroke="#fff" stroke-width="1"/>
      <path id="Path-116" data-name="Path" d="M4.71,5.049a3.476,3.476,0,0,0,0-4.3,2.987,2.987,0,0,0-3.967,0,3.465,3.465,0,0,0,0,4.3A2.486,2.486,0,0,0,4.71,5.049Z" transform="translate(183.345 53.791)" fill="none" stroke="#fff" stroke-width="1"/>
      <path id="Path-117" data-name="Path" d="M4.71,5.049a3.469,3.469,0,0,0,0-4.3,2.987,2.987,0,0,0-3.967,0,3.467,3.467,0,0,0,0,4.3A2.486,2.486,0,0,0,4.71,5.049Z" transform="translate(183.345 66.679)" fill="none" stroke="#fff" stroke-width="1"/>
      <path id="Path-118" data-name="Path" d="M4.71,4.712a3.042,3.042,0,0,0,0-3.984,3.067,3.067,0,0,0-3.967,0,3.042,3.042,0,0,0,0,3.984A2.486,2.486,0,0,0,4.71,4.712Z" transform="translate(183.345 79.904)" fill="none" stroke="#fff" stroke-width="1"/>
      <path id="Path-119" data-name="Path" d="M28.093,14.239A14.218,14.218,0,0,1,16.525,28.1a5.39,5.39,0,0,1-2.314.346A14.544,14.544,0,0,1,0,14.239,14.326,14.326,0,0,1,14.211,0a5.39,5.39,0,0,1,2.314.346A13.974,13.974,0,0,1,28.093,14.239Z" transform="translate(22.805 56.831)" fill="none" stroke="#fff" stroke-width="1"/>
      <path id="Path-120" data-name="Path" d="M201.277,0H0V26.746H201.277Z" transform="translate(38.67 182.104)" stroke="#fff" stroke-width="1"/>
      <path id="Path-121" data-name="Path" d="M201.277,9.6H0V2.321L201.277,0Z" transform="translate(38.67 186.713)" fill="none" stroke="#fff" stroke-width="1"/>
      <path id="Path-122" data-name="Path" d="M0,8.938V0H200.945V27.127H0v-9.6" transform="translate(8.594 182.417)" stroke="#fff" stroke-width="1"/>
      <path id="Path-123" data-name="Path" d="M200.945,0H0V10.255H200.945Z" transform="translate(8.594 186.054)" stroke="#fff" stroke-width="1"/>
      <path id="Path-124" data-name="Path" d="M237.3,67.765H10.248A10.31,10.31,0,0,1,0,57.51V10.255A10.31,10.31,0,0,1,10.248,0H237.633a10.308,10.308,0,0,1,10.244,10.255V57.822C247.877,63.122,242.92,67.765,237.3,67.765Z" transform="translate(0 120.957)" stroke="#fff" stroke-width="1"/>
      <path id="Path-125" data-name="Path" d="M28.755,0H205.244a7.072,7.072,0,0,1,6.939,7.275V60.489a6.959,6.959,0,0,1-6.939,6.929H6.943A6.971,6.971,0,0,1,0,60.489V7.275A7.293,7.293,0,0,1,6.943,0H11.9" transform="translate(0 120.612)" stroke="#fff" stroke-width="1"/>
      <path id="Path-126" data-name="Path" d="M4.71,4.7a3,3,0,0,0,0-3.949,2.987,2.987,0,0,0-3.967,0,3,3,0,0,0,0,3.949A2.987,2.987,0,0,0,4.71,4.7Z" transform="translate(80.558 141.025)" fill="none" stroke="#fff" stroke-width="1"/>
      <path id="Path-127" data-name="Path" d="M4.709,4.7a2.987,2.987,0,0,0,0-3.949,2.983,2.983,0,0,0-3.963,0,2.987,2.987,0,0,0,0,3.949C1.737,6.054,3.389,6.054,4.709,4.7Z" transform="translate(80.89 153.913)" fill="none" stroke="#fff" stroke-width="1"/>
      <path id="Path-128" data-name="Path" d="M2.976,5.959A2.979,2.979,0,1,0,0,2.979,2.98,2.98,0,0,0,2.976,5.959Z" transform="translate(80.313 166.238)" fill="none" stroke="#fff" stroke-width="1"/>
      <path id="Path-129" data-name="Path" d="M4.71,4.712a3.042,3.042,0,0,0,0-3.984,3.067,3.067,0,0,0-3.967,0,3.042,3.042,0,0,0,0,3.984A3.067,3.067,0,0,0,4.71,4.712Z" transform="translate(93.45 147.98)" fill="none" stroke="#fff" stroke-width="1"/>
      <path id="Path-130" data-name="Path" d="M4.71,5.049a3.469,3.469,0,0,0,0-4.3,2.987,2.987,0,0,0-3.967,0,3.467,3.467,0,0,0,0,4.3A3.067,3.067,0,0,0,4.71,5.049Z" transform="translate(93.45 160.531)" fill="none" stroke="#fff" stroke-width="1"/>
      <path id="Path-131" data-name="Path" d="M4.71,5.023a3.465,3.465,0,0,0,0-4.3,3.067,3.067,0,0,0-3.967,0,3.476,3.476,0,0,0,0,4.3A2.987,2.987,0,0,0,4.71,5.023Z" transform="translate(106.337 140.706)" fill="none" stroke="#fff" stroke-width="1"/>
      <path id="Path-132" data-name="Path" d="M4.71,5.023a3.465,3.465,0,0,0,0-4.3,3.067,3.067,0,0,0-3.967,0,3.469,3.469,0,0,0,0,4.3A2.979,2.979,0,0,0,4.71,5.023Z" transform="translate(106.671 153.592)" fill="none" stroke="#fff" stroke-width="1"/>
      <path id="Path-133" data-name="Path" d="M4.71,5.049a3.469,3.469,0,0,0,0-4.3,2.987,2.987,0,0,0-3.967,0,3.469,3.469,0,0,0,0,4.3A2.486,2.486,0,0,0,4.71,5.049Z" transform="translate(106.337 166.143)" fill="none" stroke="#fff" stroke-width="1"/>
      <path id="Path-134" data-name="Path" d="M4.71,5.049a3.469,3.469,0,0,0,0-4.3,2.987,2.987,0,0,0-3.967,0,3.467,3.467,0,0,0,0,4.3A3.067,3.067,0,0,0,4.71,5.049Z" transform="translate(119.231 147.643)" fill="none" stroke="#fff" stroke-width="1"/>
      <path id="Path-135" data-name="Path" d="M4.71,4.712a3.042,3.042,0,0,0,0-3.984,3.067,3.067,0,0,0-3.967,0,3.042,3.042,0,0,0,0,3.984A3.067,3.067,0,0,0,4.71,4.712Z" transform="translate(119.231 160.868)" fill="none" stroke="#fff" stroke-width="1"/>
      <path id="Path-136" data-name="Path" d="M4.71,4.937a3,3,0,0,0,0-3.949,2.486,2.486,0,0,0-3.967,0,3,3,0,0,0,0,3.949A2.987,2.987,0,0,0,4.71,4.937Z" transform="translate(132.118 140.792)" fill="none" stroke="#fff" stroke-width="1"/>
      <path id="Path-137" data-name="Path" d="M4.71,4.7a3,3,0,0,0,0-3.949,2.987,2.987,0,0,0-3.967,0,3,3,0,0,0,0,3.949A2.979,2.979,0,0,0,4.71,4.7Z" transform="translate(132.452 153.913)" fill="none" stroke="#fff" stroke-width="1"/>
      <path id="Path-138" data-name="Path" d="M4.71,5.049a3.469,3.469,0,0,0,0-4.3,2.987,2.987,0,0,0-3.967,0,3.469,3.469,0,0,0,0,4.3A2.486,2.486,0,0,0,4.71,5.049Z" transform="translate(132.118 166.143)" fill="none" stroke="#fff" stroke-width="1"/>
      <path id="Path-139" data-name="Path" d="M4.71,4.7a3,3,0,0,0,0-3.949,2.987,2.987,0,0,0-3.967,0,3,3,0,0,0,0,3.949A2.689,2.689,0,0,0,4.71,4.7Z" transform="translate(145.009 147.643)" fill="none" stroke="#fff" stroke-width="1"/>
      <path id="Path-140" data-name="Path" d="M4.71,5.023a3.467,3.467,0,0,0,0-4.3,3.067,3.067,0,0,0-3.967,0,3.469,3.469,0,0,0,0,4.3A2.486,2.486,0,0,0,4.71,5.023Z" transform="translate(145.009 160.21)" fill="none" stroke="#fff" stroke-width="1"/>
      <path id="Path-141" data-name="Path" d="M2.976,5.959A2.958,2.958,0,0,0,5.948,2.979,2.974,2.974,0,1,0,0,2.979,2.961,2.961,0,0,0,2.976,5.959Z" transform="translate(157.322 140.774)" fill="none" stroke="#fff" stroke-width="1"/>
      <path id="Path-142" data-name="Path" d="M4.709,4.7a2.987,2.987,0,0,0,0-3.949,2.983,2.983,0,0,0-3.963,0,2.987,2.987,0,0,0,0,3.949C1.737,6.054,3.389,6.054,4.709,4.7Z" transform="translate(157.899 153.913)" fill="none" stroke="#fff" stroke-width="1"/>
      <path id="Path-143" data-name="Path" d="M4.71,4.7a3,3,0,0,0,0-3.949,2.987,2.987,0,0,0-3.967,0,3,3,0,0,0,0,3.949A2.987,2.987,0,0,0,4.71,4.7Z" transform="translate(157.567 166.801)" fill="none" stroke="#fff" stroke-width="1"/>
      <path id="Path-144" data-name="Path" d="M4.709,4.971a3.034,3.034,0,0,0,0-3.984,2.482,2.482,0,0,0-3.963,0,3.034,3.034,0,0,0,0,3.984A3.063,3.063,0,0,0,4.709,4.971Z" transform="translate(170.456 147.72)" fill="none" stroke="#fff" stroke-width="1"/>
      <path id="Path-145" data-name="Path" d="M4.709,4.712a3.034,3.034,0,0,0,0-3.984,3.063,3.063,0,0,0-3.963,0,3.034,3.034,0,0,0,0,3.984A3.063,3.063,0,0,0,4.709,4.712Z" transform="translate(170.456 160.868)" fill="none" stroke="#fff" stroke-width="1"/>
      <path id="Path-146" data-name="Path" d="M4.71,4.7a3,3,0,0,0,0-3.949,2.987,2.987,0,0,0-3.967,0,3,3,0,0,0,0,3.949A2.979,2.979,0,0,0,4.71,4.7Z" transform="translate(183.679 141.025)" fill="none" stroke="#fff" stroke-width="1"/>
      <path id="Path-147" data-name="Path" d="M4.71,5.023a3.465,3.465,0,0,0,0-4.3,3.067,3.067,0,0,0-3.967,0,3.469,3.469,0,0,0,0,4.3C1.734,6.375,3.386,6.375,4.71,5.023Z" transform="translate(183.679 153.592)" fill="none" stroke="#fff" stroke-width="1"/>
      <path id="Path-148" data-name="Path" d="M4.71,5.023a3.465,3.465,0,0,0,0-4.3,3.067,3.067,0,0,0-3.967,0,3.476,3.476,0,0,0,0,4.3A2.987,2.987,0,0,0,4.71,5.023Z" transform="translate(183.345 166.48)" fill="none" stroke="#fff" stroke-width="1"/>
      <path id="Path-149" data-name="Path" d="M28.093,14.2c0,6.929-5.29,12.541-11.568,13.892a5.939,5.939,0,0,1-2.314.312A14.31,14.31,0,0,1,0,14.2,14.1,14.1,0,0,1,14.211,0a5.939,5.939,0,0,1,2.314.312A14.521,14.521,0,0,1,28.093,14.2Z" transform="translate(22.805 143.443)" fill="none" stroke="#fff" stroke-width="1"/>
      <path id="Path-150" data-name="Path" d="M201.277,0H0V26.746H201.277Z" transform="translate(38.67 269.029)" stroke="#fff" stroke-width="1"/>
      <path id="Path-151" data-name="Path" d="M201.277,28.408H0V21.48L201.277,0Z" transform="translate(38.67 254.477)" stroke="#fff" stroke-width="1"/>
      <path id="Path-152" data-name="Path" d="M0,8.592V0H200.945V26.78H0V17.842" transform="translate(8.594 269.34)" stroke="#fff" stroke-width="1"/>
      <path id="Path-153" data-name="Path" d="M200.945,0H0V13.858H200.945Z" transform="translate(8.594 269.029)" stroke="#fff" stroke-width="1"/>
      <path id="Path-154" data-name="Path" d="M237.3,68.076H10.248A10.281,10.281,0,0,1,0,57.856v-47.6A10.31,10.31,0,0,1,10.248,0H237.633a10.308,10.308,0,0,1,10.244,10.255v47.6C247.877,63.122,242.92,68.076,237.3,68.076Z" transform="translate(0 207.534)" stroke="#fff" stroke-width="1"/>
      <path id="Path-155" data-name="Path" d="M28.755,0H205.244a7.051,7.051,0,0,1,6.939,7.275V60.455a7.269,7.269,0,0,1-6.939,7.275H6.943A7.051,7.051,0,0,1,0,60.455V7.587A7.293,7.293,0,0,1,6.943.312H11.9" transform="translate(0 207.222)" stroke="#fff" stroke-width="1"/>
      <path id="Path-156" data-name="Path" d="M4.71,5.049a3.476,3.476,0,0,0,0-4.3,2.987,2.987,0,0,0-3.967,0,3.467,3.467,0,0,0,0,4.3A2.486,2.486,0,0,0,4.71,5.049Z" transform="translate(80.558 227.29)" fill="none" stroke="#fff" stroke-width="1"/>
      <path id="Path-157" data-name="Path" d="M4.71,5.049a3.469,3.469,0,0,0,0-4.3,2.987,2.987,0,0,0-3.967,0,3.467,3.467,0,0,0,0,4.3A2.486,2.486,0,0,0,4.71,5.049Z" transform="translate(80.558 240.178)" fill="none" stroke="#fff" stroke-width="1"/>
      <path id="Path-158" data-name="Path" d="M4.71,4.712a3.042,3.042,0,0,0,0-3.984,3.067,3.067,0,0,0-3.967,0,3.042,3.042,0,0,0,0,3.984A2.486,2.486,0,0,0,4.71,4.712Z" transform="translate(80.558 253.403)" fill="none" stroke="#fff" stroke-width="1"/>
      <path id="Path-159" data-name="Path" d="M2.972,5.959A2.979,2.979,0,1,0,0,2.979,2.983,2.983,0,0,0,2.972,5.959Z" transform="translate(93.203 234.314)" fill="none" stroke="#fff" stroke-width="1"/>
      <path id="Path-160" data-name="Path" d="M4.71,4.738a3.042,3.042,0,0,0,0-3.984,2.987,2.987,0,0,0-3.967,0,3.042,3.042,0,0,0,0,3.984A3.059,3.059,0,0,0,4.71,4.738Z" transform="translate(93.779 247.765)" fill="none" stroke="#fff" stroke-width="1"/>
      <path id="Path-161" data-name="Path" d="M4.71,4.712a3.042,3.042,0,0,0,0-3.984,3.067,3.067,0,0,0-3.967,0,3.042,3.042,0,0,0,0,3.984A3.067,3.067,0,0,0,4.71,4.712Z" transform="translate(106.337 227.629)" fill="none" stroke="#fff" stroke-width="1"/>
      <path id="Path-162" data-name="Path" d="M4.71,4.712a3.042,3.042,0,0,0,0-3.984,3.067,3.067,0,0,0-3.967,0,3.042,3.042,0,0,0,0,3.984A3.067,3.067,0,0,0,4.71,4.712Z" transform="translate(106.337 240.515)" fill="none" stroke="#fff" stroke-width="1"/>
      <path id="Path-163" data-name="Path" d="M4.71,5.049a3.469,3.469,0,0,0,0-4.3,2.987,2.987,0,0,0-3.967,0,3.467,3.467,0,0,0,0,4.3A2.486,2.486,0,0,0,4.71,5.049Z" transform="translate(106.337 253.065)" fill="none" stroke="#fff" stroke-width="1"/>
      <path id="Path-164" data-name="Path" d="M4.71,5.049a3.476,3.476,0,0,0,0-4.3,2.987,2.987,0,0,0-3.967,0,3.469,3.469,0,0,0,0,4.3A2.486,2.486,0,0,0,4.71,5.049Z" transform="translate(119.231 234.219)" fill="none" stroke="#fff" stroke-width="1"/>
      <path id="Path-165" data-name="Path" d="M4.71,5.049a3.469,3.469,0,0,0,0-4.3,2.987,2.987,0,0,0-3.967,0,3.476,3.476,0,0,0,0,4.3C2.067,6.366,3.719,6.366,4.71,5.049Z" transform="translate(119.231 247.106)" fill="none" stroke="#fff" stroke-width="1"/>
      <path id="Path-166" data-name="Path" d="M4.71,5.049a3.469,3.469,0,0,0,0-4.3,2.987,2.987,0,0,0-3.967,0,3.467,3.467,0,0,0,0,4.3A3.067,3.067,0,0,0,4.71,5.049Z" transform="translate(132.118 227.29)" fill="none" stroke="#fff" stroke-width="1"/>
      <path id="Path-167" data-name="Path" d="M4.71,4.712a3.042,3.042,0,0,0,0-3.984,3.067,3.067,0,0,0-3.967,0,3.042,3.042,0,0,0,0,3.984A3.067,3.067,0,0,0,4.71,4.712Z" transform="translate(132.118 240.515)" fill="none" stroke="#fff" stroke-width="1"/>
      <path id="Path-168" data-name="Path" d="M4.71,4.712a3.042,3.042,0,0,0,0-3.984,3.067,3.067,0,0,0-3.967,0,3.042,3.042,0,0,0,0,3.984A3.067,3.067,0,0,0,4.71,4.712Z" transform="translate(132.118 253.403)" fill="none" stroke="#fff" stroke-width="1"/>
      <path id="Path-169" data-name="Path" d="M4.71,4.7a3,3,0,0,0,0-3.949,2.987,2.987,0,0,0-3.967,0,3,3,0,0,0,0,3.949A2.486,2.486,0,0,0,4.71,4.7Z" transform="translate(145.009 234.565)" fill="none" stroke="#fff" stroke-width="1"/>
      <path id="Path-170" data-name="Path" d="M4.71,4.7a3,3,0,0,0,0-3.949,2.987,2.987,0,0,0-3.967,0,3,3,0,0,0,0,3.949A2.486,2.486,0,0,0,4.71,4.7Z" transform="translate(145.009 247.453)" fill="none" stroke="#fff" stroke-width="1"/>
      <path id="Path-171" data-name="Path" d="M4.709,5.049a3.459,3.459,0,0,0,0-4.3,2.983,2.983,0,0,0-3.963,0,3.466,3.466,0,0,0,0,4.3C1.737,6.366,3.389,6.366,4.709,5.049Z" transform="translate(157.899 227.29)" fill="none" stroke="#fff" stroke-width="1"/>
      <path id="Path-172" data-name="Path" d="M4.709,5.049a3.459,3.459,0,0,0,0-4.3,2.983,2.983,0,0,0-3.963,0,3.457,3.457,0,0,0,0,4.3C1.737,6.366,3.389,6.366,4.709,5.049Z" transform="translate(157.899 240.178)" fill="none" stroke="#fff" stroke-width="1"/>
      <path id="Path-173" data-name="Path" d="M2.976,5.924A2.962,2.962,0,1,0,2.976,0a2.962,2.962,0,1,0,0,5.924Z" transform="translate(157.322 253.161)" fill="none" stroke="#fff" stroke-width="1"/>
      <path id="Path-174" data-name="Path" d="M4.71,5.049a3.469,3.469,0,0,0,0-4.3,2.987,2.987,0,0,0-3.967,0,3.465,3.465,0,0,0,0,4.3A3.059,3.059,0,0,0,4.71,5.049Z" transform="translate(170.788 234.565)" fill="none" stroke="#fff" stroke-width="1"/>
      <path id="Path-175" data-name="Path" d="M4.71,4.738a3.042,3.042,0,0,0,0-3.984,2.987,2.987,0,0,0-3.967,0,3.042,3.042,0,0,0,0,3.984A3.059,3.059,0,0,0,4.71,4.738Z" transform="translate(170.788 247.765)" fill="none" stroke="#fff" stroke-width="1"/>
      <path id="Path-176" data-name="Path" d="M4.71,4.712a3.042,3.042,0,0,0,0-3.984,3.067,3.067,0,0,0-3.967,0,3.042,3.042,0,0,0,0,3.984C1.734,6.028,3.386,6.028,4.71,4.712Z" transform="translate(183.679 227.629)" fill="none" stroke="#fff" stroke-width="1"/>
      <path id="Path-177" data-name="Path" d="M4.71,4.712a3.042,3.042,0,0,0,0-3.984,3.067,3.067,0,0,0-3.967,0,3.042,3.042,0,0,0,0,3.984C1.734,6.028,3.386,6.028,4.71,4.712Z" transform="translate(183.679 240.515)" fill="none" stroke="#fff" stroke-width="1"/>
      <path id="Path-178" data-name="Path" d="M4.71,5.049a3.469,3.469,0,0,0,0-4.3,2.987,2.987,0,0,0-3.967,0,3.467,3.467,0,0,0,0,4.3C1.734,6.366,3.386,6.366,4.71,5.049Z" transform="translate(183.679 253.065)" fill="none" stroke="#fff" stroke-width="1"/>
      <path id="Path-179" data-name="Path" d="M28.093,13.892A14.189,14.189,0,0,1,16.525,27.75a5.39,5.39,0,0,1-2.314.346C6.61,28.1,0,21.826,0,14.2A14.319,14.319,0,0,1,14.211,0a5.39,5.39,0,0,1,2.314.346A13.347,13.347,0,0,1,28.093,13.892Z" transform="translate(22.805 230.677)" fill="none" stroke="#fff" stroke-width="1"/>
      <path id="Path-180" data-name="Path" d="M23.136,13.892A14.218,14.218,0,0,1,11.568,27.75,13.879,13.879,0,0,1,0,13.892,14.224,14.224,0,0,1,11.568,0,13.974,13.974,0,0,1,23.136,13.892Z" transform="translate(27.764 57.177)" fill="none" stroke="#fff" stroke-width="1"/>
      <path id="Path-181" data-name="Path" d="M23.136,13.892c0,6.929-5.29,12.541-11.568,13.892A13.942,13.942,0,0,1,0,13.892,13.971,13.971,0,0,1,11.568,0,14.521,14.521,0,0,1,23.136,13.892Z" transform="translate(27.764 143.754)" fill="none" stroke="#fff" stroke-width="1"/>
      <path id="Path-182" data-name="Path" d="M23.136,13.892A14.189,14.189,0,0,1,11.568,27.75,13.879,13.879,0,0,1,0,13.892,14.224,14.224,0,0,1,11.568,0,13.974,13.974,0,0,1,23.136,13.892Z" transform="translate(27.764 230.677)" fill="none" stroke="#fff" stroke-width="1"/>
      <path id="Path-183" data-name="Path" d="M7.936.045c-10.248-1.316-10.91,26.78,0,25.775" transform="translate(178.138 56.786)" fill="none" stroke="#fff" stroke-linecap="round" stroke-linejoin="round" stroke-miterlimit="10" stroke-width="1"/>
      <path id="Path-184" data-name="Path" d="M44.891,0C32.332,0-17.244,78.989,6.221,81" transform="translate(89.955 82.607)" fill="none" stroke="#fff" stroke-linecap="round" stroke-linejoin="round" stroke-miterlimit="10" stroke-width="1"/>
      <path id="Path-185" data-name="Path" d="M.453,0C-4.175,2.009,28.214,35.06,26.232,58.826" transform="translate(134.395 171.503)" fill="none" stroke="#fff" stroke-linecap="round" stroke-linejoin="round" stroke-miterlimit="10" stroke-width="1"/>
      <path id="Path-186" data-name="Path" d="M33.127,0C19.907-.345-15.129,74.036,7.348,73.69" transform="translate(127.169 169.217)" fill="none" stroke="#fff" stroke-linecap="round" stroke-linejoin="round" stroke-miterlimit="10" stroke-width="1"/>
    </g>
    <g id="Mask_Group_11" data-name="Mask Group 11" transform="translate(-0.405 -0.059)" clip-path="url(#clip-path)">
      <g id="Group_8029" data-name="Group 8029" transform="translate(9.312 -7.449)">
        <path id="Path-187" data-name="Path" d="M0,2.959V38.331A2.957,2.957,0,0,0,2.976,41.31a2.635,2.635,0,0,0,2.972-2.979V2.959A2.94,2.94,0,0,0,2.976,0,2.774,2.774,0,0,0,0,2.959Z" transform="translate(103.448)" fill="url(#linear-gradient)"/>
        <path id="Path-188" data-name="Path" d="M0,2.959v36.03a2.956,2.956,0,0,0,2.972,2.979c1.985,0,2.976-.97,2.976-2.979V2.959A2.94,2.94,0,0,0,2.972,0,2.773,2.773,0,0,0,0,2.959Z" transform="translate(166.245)" fill="url(#linear-gradient-2)"/>
        <path id="Path-189" data-name="Path" d="M0,7.587V0H177.147V23.454H0V15.209" transform="translate(117.33 119.642)" fill="#414852"/>
        <path id="Path-190" data-name="Path" d="M177.48,0H0V7.934H177.48V0Z" transform="translate(117.33 123.591)" fill="#2f3742"/>
        <path id="Path-191" data-name="Path" d="M25.779,0H181.118a6.632,6.632,0,0,1,6.607,6.617V53.872a6.632,6.632,0,0,1-6.607,6.617H6.61A6.635,6.635,0,0,1,0,53.872V6.617A6.635,6.635,0,0,1,6.61,0h4.3" transform="translate(109.397 65.111)" fill="#5e6578"/>
        <path id="Path-192" data-name="Path" d="M4.377,4.357a2.559,2.559,0,1,0-3.634,0A2.136,2.136,0,0,0,4.377,4.357Z" transform="translate(180.703 82.546)" fill="#46505c"/>
        <path id="Path-193" data-name="Path" d="M4.377,4.365a2.591,2.591,0,0,0,0-3.638,2.633,2.633,0,0,0-3.634,0,2.6,2.6,0,0,0,0,3.638A2.568,2.568,0,0,0,4.377,4.365Z" transform="translate(180.703 94.109)" fill="#46505c"/>
        <path id="Path-194" data-name="Path" d="M4.377,4.365a2.591,2.591,0,0,0,0-3.638,2.633,2.633,0,0,0-3.634,0,2.6,2.6,0,0,0,0,3.638A2.568,2.568,0,0,0,4.377,4.365Z" transform="translate(180.703 105.68)" fill="#46505c"/>
        <path id="Path-195" data-name="Path" d="M4.38,4.391a2.6,2.6,0,0,0,0-3.638,2.568,2.568,0,0,0-3.634,0,2.591,2.591,0,0,0,0,3.638A2.633,2.633,0,0,0,4.38,4.391Z" transform="translate(191.938 88.816)" fill="#29333d"/>
        <path id="Path-196" data-name="Path" d="M4.38,4.391a2.6,2.6,0,0,0,0-3.638,2.568,2.568,0,0,0-3.634,0,2.591,2.591,0,0,0,0,3.638A2.633,2.633,0,0,0,4.38,4.391Z" transform="translate(191.938 100.387)" fill="#46505c"/>
        <path id="Path-197" data-name="Path" d="M4.381,4.391a2.6,2.6,0,0,0,0-3.638,2.572,2.572,0,0,0-3.638,0,2.6,2.6,0,0,0,0,3.638A2.572,2.572,0,0,0,4.381,4.391Z" transform="translate(203.176 82.857)" fill="#46505c"/>
        <path id="Path-198" data-name="Path" d="M4.381,4.365a2.6,2.6,0,0,0,0-3.638,2.637,2.637,0,0,0-3.638,0,2.6,2.6,0,0,0,0,3.638A2.572,2.572,0,0,0,4.381,4.365Z" transform="translate(203.176 94.109)" fill="#46505c"/>
        <path id="Path-199" data-name="Path" d="M2.643,5.266A2.592,2.592,0,0,0,5.29,2.633,2.6,2.6,0,0,0,2.643,0,2.591,2.591,0,0,0,0,2.633,2.42,2.42,0,0,0,2.643,5.266Z" transform="translate(203.258 105.438)" fill="url(#linear-gradient-3)"/>
        <path id="Path-200" data-name="Path" d="M4.38,4.391a2.6,2.6,0,0,0,0-3.638,2.568,2.568,0,0,0-3.634,0,2.591,2.591,0,0,0,0,3.638A2.633,2.633,0,0,0,4.38,4.391Z" transform="translate(214.414 88.816)" fill="#29333d"/>
        <path id="Path-201" data-name="Path" d="M4.377,4.391a2.591,2.591,0,0,0,0-3.638,2.568,2.568,0,0,0-3.634,0,2.6,2.6,0,0,0,0,3.638A2.633,2.633,0,0,0,4.377,4.391Z" transform="translate(214.743 100.387)" fill="#46505c"/>
        <path id="Path-202" data-name="Path" d="M4.38,4.357a2.559,2.559,0,1,0-3.634,0A2.555,2.555,0,0,0,4.38,4.357Z" transform="translate(225.981 82.546)" fill="#29333d"/>
        <path id="Path-203" data-name="Path" d="M4.38,4.391a2.6,2.6,0,0,0,0-3.638,2.568,2.568,0,0,0-3.634,0,2.591,2.591,0,0,0,0,3.638A2.633,2.633,0,0,0,4.38,4.391Z" transform="translate(225.981 93.77)" fill="#46505c"/>
        <path id="Path-204" data-name="Path" d="M4.377,4.391a2.591,2.591,0,0,0,0-3.638,2.568,2.568,0,0,0-3.634,0,2.6,2.6,0,0,0,0,3.638A2.633,2.633,0,0,0,4.377,4.391Z" transform="translate(226.31 105.342)" fill="#46505c"/>
        <path id="Path-205" data-name="Path" d="M4.381,4.391a2.6,2.6,0,0,0,0-3.638,2.572,2.572,0,0,0-3.638,0,2.6,2.6,0,0,0,0,3.638A2.637,2.637,0,0,0,4.381,4.391Z" transform="translate(237.219 88.816)" fill="#46505c"/>
        <path id="Path-206" data-name="Path" d="M4.38,4.391a2.6,2.6,0,0,0,0-3.638,2.568,2.568,0,0,0-3.634,0,2.591,2.591,0,0,0,0,3.638A2.633,2.633,0,0,0,4.38,4.391Z" transform="translate(237.548 100.387)" fill="#46505c"/>
        <path id="Path-207" data-name="Path" d="M4.377,4.357a2.559,2.559,0,1,0-3.634,0A2.549,2.549,0,0,0,4.377,4.357Z" transform="translate(248.786 82.546)" fill="#46505c"/>
        <path id="Path-208" data-name="Path" d="M4.377,4.365a2.591,2.591,0,0,0,0-3.638,2.633,2.633,0,0,0-3.634,0,2.6,2.6,0,0,0,0,3.638C1.734,5.37,3.057,5.37,4.377,4.365Z" transform="translate(248.786 94.109)" fill="#29333d"/>
        <path id="Path-209" data-name="Path" d="M4.377,4.365a2.591,2.591,0,0,0,0-3.638,2.633,2.633,0,0,0-3.634,0,2.6,2.6,0,0,0,0,3.638A2.568,2.568,0,0,0,4.377,4.365Z" transform="translate(248.786 105.68)" fill="#46505c"/>
        <path id="Path-210" data-name="Path" d="M4.377,4.391a2.6,2.6,0,0,0,0-3.638,2.568,2.568,0,0,0-3.634,0,2.6,2.6,0,0,0,0,3.638A2.633,2.633,0,0,0,4.377,4.391Z" transform="translate(260.027 88.816)" fill="#46505c"/>
        <path id="Path-211" data-name="Path" d="M4.377,4.391a2.6,2.6,0,0,0,0-3.638,2.568,2.568,0,0,0-3.634,0,2.6,2.6,0,0,0,0,3.638A2.633,2.633,0,0,0,4.377,4.391Z" transform="translate(260.027 100.387)" fill="#46505c"/>
        <path id="Path-212" data-name="Path" d="M4.381,4.391a2.6,2.6,0,0,0,0-3.638,2.572,2.572,0,0,0-3.638,0,2.6,2.6,0,0,0,0,3.638A2.572,2.572,0,0,0,4.381,4.391Z" transform="translate(271.262 82.857)" fill="#46505c"/>
        <path id="Path-213" data-name="Path" d="M4.381,4.365a2.6,2.6,0,0,0,0-3.638,2.637,2.637,0,0,0-3.638,0,2.6,2.6,0,0,0,0,3.638A2.572,2.572,0,0,0,4.381,4.365Z" transform="translate(271.262 94.109)" fill="#29333d"/>
        <path id="Path-214" data-name="Path" d="M4.381,4.365a2.6,2.6,0,0,0,0-3.638,2.637,2.637,0,0,0-3.638,0,2.6,2.6,0,0,0,0,3.638C2.067,5.37,3.386,5.37,4.381,4.365Z" transform="translate(271.262 105.68)" fill="#46505c"/>
        <path id="Path-215" data-name="Path" d="M24.459,11.883A12.418,12.418,0,0,1,14.211,24.113c-.658,0-1.32.346-1.982.346A12.414,12.414,0,0,1,0,12.229,12.187,12.187,0,0,1,12.229,0a4.4,4.4,0,0,1,1.982.312C19.83.658,24.459,5.612,24.459,11.883Z" transform="translate(130.216 85.932)" fill="#2c333d"/>
        <path id="Path-216" data-name="Path" d="M0,7.622V0H177.147V23.8H0V15.555" transform="translate(117.33 195.963)" fill="#414852"/>
        <path id="Path-217" data-name="Path" d="M177.48,0H0V8.938H177.48V0Z" transform="translate(117.33 198.942)" fill="#2f3742"/>
        <path id="Path-218" data-name="Path" d="M25.779,0H181.118a6.575,6.575,0,0,1,6.607,6.305V53.56a6.632,6.632,0,0,1-6.607,6.617H6.61A6.635,6.635,0,0,1,0,53.56V6.305A6.375,6.375,0,0,1,6.61,0h4.3" transform="translate(109.397 141.432)" fill="#5e6578"/>
        <path id="Path-219" data-name="Path" d="M4.377,4.391a2.591,2.591,0,0,0,0-3.638,2.568,2.568,0,0,0-3.634,0,2.6,2.6,0,0,0,0,3.638A2.633,2.633,0,0,0,4.377,4.391Z" transform="translate(180.703 159.214)" fill="#46505c"/>
        <path id="Path-220" data-name="Path" d="M4.377,4.391a2.591,2.591,0,0,0,0-3.638,2.568,2.568,0,0,0-3.634,0,2.6,2.6,0,0,0,0,3.638A2.633,2.633,0,0,0,4.377,4.391Z" transform="translate(180.703 170.439)" fill="#46505c"/>
        <path id="Path-221" data-name="Path" d="M2.643,5.3A2.611,2.611,0,0,0,5.287,2.668,2.608,2.608,0,0,0,2.643,0,2.619,2.619,0,0,0,0,2.668C.329,3.984,1.32,5.3,2.643,5.3Z" transform="translate(180.456 181.759)" fill="url(#linear-gradient-4)"/>
        <path id="Path-222" data-name="Path" d="M4.38,4.391a2.6,2.6,0,0,0,0-3.638,2.568,2.568,0,0,0-3.634,0,2.591,2.591,0,0,0,0,3.638A2.633,2.633,0,0,0,4.38,4.391Z" transform="translate(191.938 165.484)" fill="#46505c"/>
        <path id="Path-223" data-name="Path" d="M4.38,4.365a2.6,2.6,0,0,0,0-3.638,2.633,2.633,0,0,0-3.634,0,2.591,2.591,0,0,0,0,3.638A2.568,2.568,0,0,0,4.38,4.365Z" transform="translate(191.938 176.734)" fill="#1e2429"/>
        <path id="Path-224" data-name="Path" d="M4.38,4.391a2.6,2.6,0,0,0,0-3.638,2.568,2.568,0,0,0-3.634,0,2.591,2.591,0,0,0,0,3.638A2.633,2.633,0,0,0,4.38,4.391Z" transform="translate(203.508 159.214)" fill="#46505c"/>
        <path id="Path-225" data-name="Path" d="M4.381,4.391a2.6,2.6,0,0,0,0-3.638,2.572,2.572,0,0,0-3.638,0,2.6,2.6,0,0,0,0,3.638A2.169,2.169,0,0,0,4.381,4.391Z" transform="translate(203.176 170.439)" fill="#29333d"/>
        <path id="Path-226" data-name="Path" d="M4.381,4.391a2.6,2.6,0,0,0,0-3.638,2.572,2.572,0,0,0-3.638,0,2.6,2.6,0,0,0,0,3.638A2.637,2.637,0,0,0,4.381,4.391Z" transform="translate(203.176 182.009)" fill="#46505c"/>
        <path id="Path-227" data-name="Path" d="M4.377,4.391a2.591,2.591,0,0,0,0-3.638,2.568,2.568,0,0,0-3.634,0,2.6,2.6,0,0,0,0,3.638A2.633,2.633,0,0,0,4.377,4.391Z" transform="translate(214.743 165.484)" fill="#46505c"/>
        <path id="Path-228" data-name="Path" d="M4.377,4.365a2.591,2.591,0,0,0,0-3.638,2.633,2.633,0,0,0-3.634,0,2.6,2.6,0,0,0,0,3.638A2.568,2.568,0,0,0,4.377,4.365Z" transform="translate(214.743 176.734)" fill="#46505c"/>
        <path id="Path-229" data-name="Path" d="M4.377,4.391a2.591,2.591,0,0,0,0-3.638,2.568,2.568,0,0,0-3.634,0,2.6,2.6,0,0,0,0,3.638A2.633,2.633,0,0,0,4.377,4.391Z" transform="translate(226.31 159.214)" fill="#46505c"/>
        <path id="Path-230" data-name="Path" d="M4.377,4.391a2.591,2.591,0,0,0,0-3.638,2.568,2.568,0,0,0-3.634,0,2.6,2.6,0,0,0,0,3.638C1.734,5.361,3.057,5.361,4.377,4.391Z" transform="translate(226.31 170.439)" fill="#46505c"/>
        <path id="Path-231" data-name="Path" d="M4.38,4.365a2.6,2.6,0,0,0,0-3.638,2.633,2.633,0,0,0-3.634,0,2.591,2.591,0,0,0,0,3.638A2.568,2.568,0,0,0,4.38,4.365Z" transform="translate(225.981 181.69)" fill="#46505c"/>
        <path id="Path-232" data-name="Path" d="M4.38,4.365a2.6,2.6,0,0,0,0-3.638,2.633,2.633,0,0,0-3.634,0,2.591,2.591,0,0,0,0,3.638A2.166,2.166,0,0,0,4.38,4.365Z" transform="translate(237.548 165.165)" fill="#46505c"/>
        <path id="Path-233" data-name="Path" d="M4.38,4.365a2.6,2.6,0,0,0,0-3.638,2.633,2.633,0,0,0-3.634,0,2.591,2.591,0,0,0,0,3.638A2.568,2.568,0,0,0,4.38,4.365Z" transform="translate(237.548 176.734)" fill="#46505c"/>
        <path id="Path-234" data-name="Path" d="M2.643,5.3A2.619,2.619,0,0,0,5.287,2.633,2.6,2.6,0,0,0,2.643,0,2.613,2.613,0,0,0,0,2.633C.329,4.3,1.323,5.3,2.643,5.3Z" transform="translate(248.539 158.962)" fill="url(#linear-gradient-5)"/>
        <path id="Path-235" data-name="Path" d="M4.377,4.391a2.591,2.591,0,0,0,0-3.638,2.568,2.568,0,0,0-3.634,0,2.6,2.6,0,0,0,0,3.638A2.633,2.633,0,0,0,4.377,4.391Z" transform="translate(248.786 170.439)" fill="#29333d"/>
        <path id="Path-236" data-name="Path" d="M4.377,4.365a2.591,2.591,0,0,0,0-3.638,2.633,2.633,0,0,0-3.634,0,2.6,2.6,0,0,0,0,3.638A2.166,2.166,0,0,0,4.377,4.365Z" transform="translate(248.786 181.69)" fill="#46505c"/>
        <path id="Path-237" data-name="Path" d="M4.377,4.391a2.6,2.6,0,0,0,0-3.638,2.568,2.568,0,0,0-3.634,0,2.6,2.6,0,0,0,0,3.638A2.633,2.633,0,0,0,4.377,4.391Z" transform="translate(260.027 165.484)" fill="#46505c"/>
        <path id="Path-238" data-name="Path" d="M4.377,4.365a2.6,2.6,0,0,0,0-3.638,2.633,2.633,0,0,0-3.634,0,2.6,2.6,0,0,0,0,3.638A2.568,2.568,0,0,0,4.377,4.365Z" transform="translate(260.027 176.734)" fill="#46505c"/>
        <path id="Path-239" data-name="Path" d="M4.381,4.391a2.6,2.6,0,0,0,0-3.638,2.572,2.572,0,0,0-3.638,0,2.6,2.6,0,0,0,0,3.638A2.637,2.637,0,0,0,4.381,4.391Z" transform="translate(271.262 159.214)" fill="#46505c"/>
        <path id="Path-240" data-name="Path" d="M4.381,4.391a2.6,2.6,0,0,0,0-3.638,2.572,2.572,0,0,0-3.638,0,2.6,2.6,0,0,0,0,3.638A2.637,2.637,0,0,0,4.381,4.391Z" transform="translate(271.262 170.439)" fill="#46505c"/>
        <path id="Path-241" data-name="Path" d="M4.381,4.391a2.6,2.6,0,0,0,0-3.638,2.572,2.572,0,0,0-3.638,0,2.6,2.6,0,0,0,0,3.638A2.637,2.637,0,0,0,4.381,4.391Z" transform="translate(271.262 182.009)" fill="#46505c"/>
        <path id="Path-242" data-name="Path" d="M24.459,11.918A12.474,12.474,0,0,1,14.211,24.147c-.658,0-1.32.312-1.982.312A12.414,12.414,0,0,1,0,12.229,12.209,12.209,0,0,1,12.229,0a4.008,4.008,0,0,1,1.982.346C19.83.346,24.459,5.647,24.459,11.918Z" transform="translate(130.216 162.254)" fill="#2c333d"/>
        <path id="Path-243" data-name="Path" d="M0,7.587V0H177.147V23.454H0V15.209" transform="translate(117.33 272.319)" fill="#414852"/>
        <path id="Path-244" data-name="Path" d="M177.48,0H0V12.229H177.48V0Z" transform="translate(117.33 272.319)" fill="#2f3742"/>
        <path id="Path-245" data-name="Path" d="M25.779,0H181.118a6.6,6.6,0,0,1,6.607,6.582V53.837a6.632,6.632,0,0,1-6.607,6.617H6.61A6.635,6.635,0,0,1,0,53.837V6.582A6.605,6.605,0,0,1,6.61,0h4.3" transform="translate(109.397 218.136)" fill="#5e6578"/>
        <path id="Path-246" data-name="Path" d="M4.377,4.365a2.591,2.591,0,0,0,0-3.638,2.633,2.633,0,0,0-3.634,0,2.6,2.6,0,0,0,0,3.638A2.568,2.568,0,0,0,4.377,4.365Z" transform="translate(180.703 235.561)" fill="#46505c"/>
        <path id="Path-247" data-name="Path" d="M4.377,4.365a2.591,2.591,0,0,0,0-3.638,2.633,2.633,0,0,0-3.634,0,2.6,2.6,0,0,0,0,3.638A2.568,2.568,0,0,0,4.377,4.365Z" transform="translate(180.703 246.787)" fill="#46505c"/>
        <path id="Path-248" data-name="Path" d="M4.377,4.391a2.591,2.591,0,0,0,0-3.638,2.568,2.568,0,0,0-3.634,0,2.6,2.6,0,0,0,0,3.638A2.633,2.633,0,0,0,4.377,4.391Z" transform="translate(180.703 258.019)" fill="#29333d"/>
        <path id="Path-249" data-name="Path" d="M2.643,5.266A2.589,2.589,0,0,0,5.287,2.633,2.6,2.6,0,0,0,2.643,0,2.836,2.836,0,0,0,0,2.633,2.6,2.6,0,0,0,2.643,5.266Z" transform="translate(192.023 241.589)" fill="url(#linear-gradient-6)"/>
        <path id="Path-250" data-name="Path" d="M4.38,4.391a2.6,2.6,0,0,0,0-3.638,2.568,2.568,0,0,0-3.634,0,2.591,2.591,0,0,0,0,3.638A2.633,2.633,0,0,0,4.38,4.391Z" transform="translate(191.938 253.065)" fill="#46505c"/>
        <path id="Path-251" data-name="Path" d="M4.381,4.365a2.6,2.6,0,0,0,0-3.638,2.637,2.637,0,0,0-3.638,0,2.6,2.6,0,0,0,0,3.638A2.572,2.572,0,0,0,4.381,4.365Z" transform="translate(203.176 235.561)" fill="#46505c"/>
        <path id="Path-252" data-name="Path" d="M4.381,4.365a2.6,2.6,0,0,0,0-3.638,2.637,2.637,0,0,0-3.638,0,2.6,2.6,0,0,0,0,3.638A2.572,2.572,0,0,0,4.381,4.365Z" transform="translate(203.176 246.787)" fill="#29333d"/>
        <path id="Path-253" data-name="Path" d="M4.381,4.365a2.6,2.6,0,0,0,0-3.638,2.637,2.637,0,0,0-3.638,0,2.6,2.6,0,0,0,0,3.638A2.572,2.572,0,0,0,4.381,4.365Z" transform="translate(203.176 258.358)" fill="#29333d"/>
        <path id="Path-254" data-name="Path" d="M4.38,4.365a2.6,2.6,0,0,0,0-3.638,2.633,2.633,0,0,0-3.634,0,2.591,2.591,0,0,0,0,3.638A2.568,2.568,0,0,0,4.38,4.365Z" transform="translate(214.414 241.832)" fill="#29333d"/>
        <path id="Path-255" data-name="Path" d="M4.38,4.391a2.6,2.6,0,0,0,0-3.638,2.568,2.568,0,0,0-3.634,0,2.591,2.591,0,0,0,0,3.638A2.633,2.633,0,0,0,4.38,4.391Z" transform="translate(214.414 253.065)" fill="#46505c"/>
        <path id="Path-256" data-name="Path" d="M4.38,4.365a2.6,2.6,0,0,0,0-3.638,2.633,2.633,0,0,0-3.634,0,2.591,2.591,0,0,0,0,3.638A2.568,2.568,0,0,0,4.38,4.365Z" transform="translate(225.981 235.561)" fill="#29333d"/>
        <path id="Path-257" data-name="Path" d="M4.38,4.365a2.6,2.6,0,0,0,0-3.638,2.633,2.633,0,0,0-3.634,0,2.591,2.591,0,0,0,0,3.638A2.568,2.568,0,0,0,4.38,4.365Z" transform="translate(225.981 246.787)" fill="#46505c"/>
        <path id="Path-258" data-name="Path" d="M4.38,4.391a2.6,2.6,0,0,0,0-3.638,2.568,2.568,0,0,0-3.634,0,2.591,2.591,0,0,0,0,3.638A2.633,2.633,0,0,0,4.38,4.391Z" transform="translate(225.981 258.019)" fill="#46505c"/>
        <path id="Path-259" data-name="Path" d="M4.381,4.391a2.6,2.6,0,0,0,0-3.638,2.572,2.572,0,0,0-3.638,0,2.6,2.6,0,0,0,0,3.638A2.637,2.637,0,0,0,4.381,4.391Z" transform="translate(237.219 241.494)" fill="#46505c"/>
        <path id="Path-260" data-name="Path" d="M4.381,4.391a2.6,2.6,0,0,0,0-3.638,2.572,2.572,0,0,0-3.638,0,2.6,2.6,0,0,0,0,3.638A2.637,2.637,0,0,0,4.381,4.391Z" transform="translate(237.219 253.065)" fill="#29333d"/>
        <path id="Path-261" data-name="Path" d="M4.377,4.365a2.591,2.591,0,0,0,0-3.638,2.633,2.633,0,0,0-3.634,0,2.6,2.6,0,0,0,0,3.638A2.568,2.568,0,0,0,4.377,4.365Z" transform="translate(248.786 235.561)" fill="#46505c"/>
        <path id="Path-262" data-name="Path" d="M4.377,4.365a2.591,2.591,0,0,0,0-3.638,2.633,2.633,0,0,0-3.634,0,2.6,2.6,0,0,0,0,3.638A2.568,2.568,0,0,0,4.377,4.365Z" transform="translate(248.786 246.787)" fill="#46505c"/>
        <path id="Path-263" data-name="Path" d="M2.643,5.266A2.589,2.589,0,0,0,5.287,2.633,2.6,2.6,0,0,0,2.643,0,2.838,2.838,0,0,0,0,2.633C.329,3.949,1.323,5.266,2.643,5.266Z" transform="translate(248.539 258.114)" fill="url(#linear-gradient-7)"/>
        <path id="Path-264" data-name="Path" d="M4.377,4.365a2.6,2.6,0,0,0,0-3.638,2.633,2.633,0,0,0-3.634,0,2.6,2.6,0,0,0,0,3.638A2.568,2.568,0,0,0,4.377,4.365Z" transform="translate(260.027 241.832)" fill="#29333d"/>
        <path id="Path-265" data-name="Path" d="M4.377,4.391a2.6,2.6,0,0,0,0-3.638,2.568,2.568,0,0,0-3.634,0,2.6,2.6,0,0,0,0,3.638A2.633,2.633,0,0,0,4.377,4.391Z" transform="translate(260.027 253.065)" fill="#46505c"/>
        <path id="Path-266" data-name="Path" d="M4.381,4.365a2.6,2.6,0,0,0,0-3.638,2.637,2.637,0,0,0-3.638,0,2.6,2.6,0,0,0,0,3.638A2.572,2.572,0,0,0,4.381,4.365Z" transform="translate(271.262 235.561)" fill="#46505c"/>
        <path id="Path-267" data-name="Path" d="M4.381,4.365a2.6,2.6,0,0,0,0-3.638,2.637,2.637,0,0,0-3.638,0,2.6,2.6,0,0,0,0,3.638A2.572,2.572,0,0,0,4.381,4.365Z" transform="translate(271.262 246.787)" fill="#29333d"/>
        <path id="Path-268" data-name="Path" d="M4.381,4.365a2.6,2.6,0,0,0,0-3.638,2.637,2.637,0,0,0-3.638,0,2.6,2.6,0,0,0,0,3.638A2.572,2.572,0,0,0,4.381,4.365Z" transform="translate(271.262 258.358)" fill="#46505c"/>
        <path id="Path-269" data-name="Path" d="M24.459,11.883A12.418,12.418,0,0,1,14.211,24.113c-.658,0-1.32.346-1.982.346A12.414,12.414,0,0,1,0,12.229,12.209,12.209,0,0,1,12.229,0a4.4,4.4,0,0,1,1.982.312C19.83.658,24.459,5.612,24.459,11.883Z" transform="translate(130.216 238.611)" fill="#2c333d"/>
        <path id="Path-270" data-name="Path" d="M20.492,12.229A12.418,12.418,0,0,1,10.244,24.459,12.119,12.119,0,0,1,0,12.229,12.475,12.475,0,0,1,10.244,0,12.474,12.474,0,0,1,20.492,12.229Z" transform="translate(134.185 85.586)" fill="#2f3742"/>
        <path id="Path-271" data-name="Path" d="M20.492,12.229A12.474,12.474,0,0,1,10.244,24.459,12.41,12.41,0,0,1,0,12.229,12.705,12.705,0,0,1,10.244,0C15.864.658,20.492,5.959,20.492,12.229Z" transform="translate(134.185 161.942)" fill="#2f3742"/>
        <path id="Path-272" data-name="Path" d="M20.492,12.229A12.418,12.418,0,0,1,10.244,24.459,12.119,12.119,0,0,1,0,12.229,12.475,12.475,0,0,1,10.244,0,12.474,12.474,0,0,1,20.492,12.229Z" transform="translate(134.185 238.264)" fill="#2f3742"/>
        <path id="Path-273" data-name="Path" d="M15.205,30.418A15.209,15.209,0,1,0,0,15.209,15.194,15.194,0,0,0,15.205,30.418Z" transform="translate(255.478 234.627)" fill="#5f6a78"/>
        <path id="Path-274" data-name="Path" d="M8.263,16.525A8.263,8.263,0,1,0,0,8.245,8.272,8.272,0,0,0,8.263,16.525Z" transform="translate(262.421 241.589)" fill="#3e4755"/>
        <path id="Path-275" data-name="Path" d="M85.932,0H0V230.663H85.932Z" transform="translate(172.521 65.111)" fill="#1c3754" opacity="0.1"/>
        <path id="Path-276" data-name="Path" d="M201.277,0H0V26.78H201.277Z" transform="translate(38.67 95.493)" fill="#343a43"/>
        <path id="Path-277" data-name="Path" d="M201.277,29.1H0V22.138L201.277,0Z" transform="translate(38.67 80.632)" fill="#2c333d"/>
        <path id="Path-278" data-name="Path" d="M0,8.938V0H200.945V26.78H0v-8.9" transform="translate(8.594 95.493)" fill="#414852"/>
        <path id="Path-279" data-name="Path" d="M200.945,0H0V9.25H200.945Z" transform="translate(8.594 100.482)" fill="#2f3742"/>
        <path id="Path-280" data-name="Path" d="M237.3,68.076H10.248A10.281,10.281,0,0,1,0,57.856v-47.6A10.31,10.31,0,0,1,10.248,0H237.633a10.308,10.308,0,0,1,10.244,10.255v47.6C247.877,63.469,242.92,68.076,237.3,68.076Z" transform="translate(0 34.035)" fill="#343c49"/>
        <path id="Path-281" data-name="Path" d="M28.755,0H205.244a7.072,7.072,0,0,1,6.939,7.275V60.489a7.292,7.292,0,0,1-6.939,7.275H6.943A7.073,7.073,0,0,1,0,60.489V7.275A7.293,7.293,0,0,1,6.943,0H11.9" transform="translate(0 34.035)" fill="#5e6578"/>
        <path id="Path-282" data-name="Path" d="M4.71,4.971a3.042,3.042,0,0,0,0-3.984,2.486,2.486,0,0,0-3.967,0,3.042,3.042,0,0,0,0,3.984A2.486,2.486,0,0,0,4.71,4.971Z" transform="translate(80.558 53.869)" fill="#46505c"/>
        <path id="Path-283" data-name="Path" d="M4.71,4.712a3.042,3.042,0,0,0,0-3.984,3.067,3.067,0,0,0-3.967,0,3.042,3.042,0,0,0,0,3.984A2.486,2.486,0,0,0,4.71,4.712Z" transform="translate(80.558 67.016)" fill="#46505c"/>
        <path id="Path-284" data-name="Path" d="M4.71,5.049a3.469,3.469,0,0,0,0-4.3,2.987,2.987,0,0,0-3.967,0,3.467,3.467,0,0,0,0,4.3A2.486,2.486,0,0,0,4.71,5.049Z" transform="translate(80.558 79.565)" fill="#46505c"/>
        <path id="Path-285" data-name="Path" d="M4.71,5.023a3.476,3.476,0,0,0,0-4.3,3.067,3.067,0,0,0-3.967,0,3.469,3.469,0,0,0,0,4.3A2.987,2.987,0,0,0,4.71,5.023Z" transform="translate(93.45 61.057)" fill="#29333d"/>
        <path id="Path-286" data-name="Path" d="M4.71,5.058a3.517,3.517,0,0,0,0-4.331,3.067,3.067,0,0,0-3.967,0,3.517,3.517,0,0,0,0,4.331A3.067,3.067,0,0,0,4.71,5.058Z" transform="translate(93.45 73.945)" fill="#46505c"/>
        <path id="Path-287" data-name="Path" d="M4.71,5.049a3.469,3.469,0,0,0,0-4.3,2.987,2.987,0,0,0-3.967,0,3.465,3.465,0,0,0,0,4.3A3.067,3.067,0,0,0,4.71,5.049Z" transform="translate(106.337 53.791)" fill="#46505c"/>
        <path id="Path-288" data-name="Path" d="M4.71,4.712a3.042,3.042,0,0,0,0-3.984,3.067,3.067,0,0,0-3.967,0,3.042,3.042,0,0,0,0,3.984A2.486,2.486,0,0,0,4.71,4.712Z" transform="translate(106.337 67.016)" fill="#46505c"/>
        <path id="Path-289" data-name="Path" d="M2.976,5.924A2.962,2.962,0,1,0,2.976,0a2.962,2.962,0,1,0,0,5.924Z" transform="translate(106.092 79.662)" fill="url(#linear-gradient-8)"/>
        <path id="Path-290" data-name="Path" d="M4.71,4.971a3.042,3.042,0,0,0,0-3.984,2.486,2.486,0,0,0-3.967,0,3.042,3.042,0,0,0,0,3.984A2.486,2.486,0,0,0,4.71,4.971Z" transform="translate(119.231 60.798)" fill="#29333d"/>
        <path id="Path-291" data-name="Path" d="M4.71,4.712a3.042,3.042,0,0,0,0-3.984,3.067,3.067,0,0,0-3.967,0,3.042,3.042,0,0,0,0,3.984A2.486,2.486,0,0,0,4.71,4.712Z" transform="translate(119.231 73.945)" fill="#46505c"/>
        <path id="Path-292" data-name="Path" d="M4.71,4.712a3.042,3.042,0,0,0,0-3.984,3.067,3.067,0,0,0-3.967,0,3.042,3.042,0,0,0,0,3.984A3.067,3.067,0,0,0,4.71,4.712Z" transform="translate(132.118 54.129)" fill="#29333d"/>
        <path id="Path-293" data-name="Path" d="M4.71,5.049a3.476,3.476,0,0,0,0-4.3,2.987,2.987,0,0,0-3.967,0,3.467,3.467,0,0,0,0,4.3A3.067,3.067,0,0,0,4.71,5.049Z" transform="translate(132.118 66.679)" fill="#46505c"/>
        <path id="Path-294" data-name="Path" d="M4.71,5.049a3.469,3.469,0,0,0,0-4.3,2.987,2.987,0,0,0-3.967,0,3.476,3.476,0,0,0,0,4.3A3.067,3.067,0,0,0,4.71,5.049Z" transform="translate(132.118 79.565)" fill="#1e2429"/>
        <path id="Path-295" data-name="Path" d="M4.71,5.049a3.469,3.469,0,0,0,0-4.3,2.987,2.987,0,0,0-3.967,0,3.469,3.469,0,0,0,0,4.3A2.486,2.486,0,0,0,4.71,5.049Z" transform="translate(145.009 60.719)" fill="#46505c"/>
        <path id="Path-296" data-name="Path" d="M4.71,4.712a3.042,3.042,0,0,0,0-3.984,3.067,3.067,0,0,0-3.967,0,3.042,3.042,0,0,0,0,3.984A2.486,2.486,0,0,0,4.71,4.712Z" transform="translate(145.009 73.945)" fill="#46505c"/>
        <path id="Path-297" data-name="Path" d="M4.71,4.712a3.042,3.042,0,0,0,0-3.984,3.067,3.067,0,0,0-3.967,0,3.042,3.042,0,0,0,0,3.984A2.486,2.486,0,0,0,4.71,4.712Z" transform="translate(157.567 54.129)" fill="#46505c"/>
        <path id="Path-298" data-name="Path" d="M4.71,4.712a3.042,3.042,0,0,0,0-3.984,3.067,3.067,0,0,0-3.967,0,3.042,3.042,0,0,0,0,3.984A2.486,2.486,0,0,0,4.71,4.712Z" transform="translate(157.567 67.016)" fill="#29333d"/>
        <path id="Path-299" data-name="Path" d="M4.71,5.023a3.467,3.467,0,0,0,0-4.3,3.067,3.067,0,0,0-3.967,0,3.469,3.469,0,0,0,0,4.3C1.734,6.34,3.719,6.028,4.71,5.023Z" transform="translate(157.567 79.904)" fill="#46505c"/>
        <path id="Path-300" data-name="Path" d="M4.709,4.7a2.987,2.987,0,0,0,0-3.949,2.983,2.983,0,0,0-3.963,0,2.987,2.987,0,0,0,0,3.949A2.983,2.983,0,0,0,4.709,4.7Z" transform="translate(170.456 61.378)" fill="#46505c"/>
        <path id="Path-301" data-name="Path" d="M4.71,5.058a3.517,3.517,0,0,0,0-4.331,3.067,3.067,0,0,0-3.967,0,3.517,3.517,0,0,0,0,4.331A3.059,3.059,0,0,0,4.71,5.058Z" transform="translate(170.788 73.945)" fill="#46505c"/>
        <path id="Path-302" data-name="Path" d="M4.71,5.049a3.476,3.476,0,0,0,0-4.3,2.987,2.987,0,0,0-3.967,0,3.465,3.465,0,0,0,0,4.3A2.486,2.486,0,0,0,4.71,5.049Z" transform="translate(183.345 53.791)" fill="#1e2429"/>
        <path id="Path-303" data-name="Path" d="M4.71,5.049a3.469,3.469,0,0,0,0-4.3,2.987,2.987,0,0,0-3.967,0,3.467,3.467,0,0,0,0,4.3A2.486,2.486,0,0,0,4.71,5.049Z" transform="translate(183.345 66.679)" fill="#29333d"/>
        <path id="Path-304" data-name="Path" d="M4.71,4.712a3.042,3.042,0,0,0,0-3.984,3.067,3.067,0,0,0-3.967,0,3.042,3.042,0,0,0,0,3.984A2.486,2.486,0,0,0,4.71,4.712Z" transform="translate(183.345 79.904)" fill="#1e2429"/>
        <path id="Path-305" data-name="Path" d="M28.093,14.239A14.218,14.218,0,0,1,16.525,28.1a5.39,5.39,0,0,1-2.314.346A14.544,14.544,0,0,1,0,14.239,14.326,14.326,0,0,1,14.211,0a5.39,5.39,0,0,1,2.314.346A13.974,13.974,0,0,1,28.093,14.239Z" transform="translate(22.805 56.831)" fill="#2c333d"/>
        <path id="Path-306" data-name="Path" d="M201.277,0H0V26.746H201.277Z" transform="translate(38.67 182.104)" fill="#343a43"/>
        <path id="Path-307" data-name="Path" d="M201.277,9.6H0V2.321L201.277,0Z" transform="translate(38.67 186.713)" fill="#2c333d"/>
        <path id="Path-308" data-name="Path" d="M0,8.938V0H200.945V27.127H0v-9.6" transform="translate(8.594 182.417)" fill="#414852"/>
        <path id="Path-309" data-name="Path" d="M200.945,0H0V10.255H200.945Z" transform="translate(8.594 186.054)" fill="#2f3742"/>
        <path id="Path-310" data-name="Path" d="M237.3,67.765H10.248A10.31,10.31,0,0,1,0,57.51V10.255A10.31,10.31,0,0,1,10.248,0H237.633a10.308,10.308,0,0,1,10.244,10.255V57.822C247.877,63.122,242.92,67.765,237.3,67.765Z" transform="translate(0 120.957)" fill="#343c49"/>
        <path id="Path-311" data-name="Path" d="M28.755,0H205.244a7.072,7.072,0,0,1,6.939,7.275V60.489a6.959,6.959,0,0,1-6.939,6.929H6.943A6.971,6.971,0,0,1,0,60.489V7.275A7.293,7.293,0,0,1,6.943,0H11.9" transform="translate(0 120.612)" fill="#5e6578"/>
        <path id="Path-312" data-name="Path" d="M4.71,4.7a3,3,0,0,0,0-3.949,2.987,2.987,0,0,0-3.967,0,3,3,0,0,0,0,3.949A2.987,2.987,0,0,0,4.71,4.7Z" transform="translate(80.558 141.025)" fill="#46505c"/>
        <path id="Path-313" data-name="Path" d="M4.709,4.7a2.987,2.987,0,0,0,0-3.949,2.983,2.983,0,0,0-3.963,0,2.987,2.987,0,0,0,0,3.949C1.737,6.054,3.389,6.054,4.709,4.7Z" transform="translate(80.89 153.913)" fill="#46505c"/>
        <path id="Path-314" data-name="Path" d="M2.976,5.959A2.979,2.979,0,1,0,0,2.979,2.98,2.98,0,0,0,2.976,5.959Z" transform="translate(80.313 166.238)" fill="url(#linear-gradient-9)"/>
        <path id="Path-315" data-name="Path" d="M4.71,4.712a3.042,3.042,0,0,0,0-3.984,3.067,3.067,0,0,0-3.967,0,3.042,3.042,0,0,0,0,3.984A3.067,3.067,0,0,0,4.71,4.712Z" transform="translate(93.45 147.98)" fill="#46505c"/>
        <path id="Path-316" data-name="Path" d="M4.71,5.049a3.469,3.469,0,0,0,0-4.3,2.987,2.987,0,0,0-3.967,0,3.467,3.467,0,0,0,0,4.3A3.067,3.067,0,0,0,4.71,5.049Z" transform="translate(93.45 160.531)" fill="#1e2429"/>
        <path id="Path-317" data-name="Path" d="M4.71,5.023a3.465,3.465,0,0,0,0-4.3,3.067,3.067,0,0,0-3.967,0,3.476,3.476,0,0,0,0,4.3A2.987,2.987,0,0,0,4.71,5.023Z" transform="translate(106.337 140.706)" fill="#46505c"/>
        <path id="Path-318" data-name="Path" d="M4.71,5.023a3.465,3.465,0,0,0,0-4.3,3.067,3.067,0,0,0-3.967,0,3.469,3.469,0,0,0,0,4.3A2.979,2.979,0,0,0,4.71,5.023Z" transform="translate(106.671 153.592)" fill="#29333d"/>
        <path id="Path-319" data-name="Path" d="M4.71,5.049a3.469,3.469,0,0,0,0-4.3,2.987,2.987,0,0,0-3.967,0,3.469,3.469,0,0,0,0,4.3A2.486,2.486,0,0,0,4.71,5.049Z" transform="translate(106.337 166.143)" fill="#46505c"/>
        <path id="Path-320" data-name="Path" d="M4.71,5.049a3.469,3.469,0,0,0,0-4.3,2.987,2.987,0,0,0-3.967,0,3.467,3.467,0,0,0,0,4.3A3.067,3.067,0,0,0,4.71,5.049Z" transform="translate(119.231 147.643)" fill="#46505c"/>
        <path id="Path-321" data-name="Path" d="M4.71,4.712a3.042,3.042,0,0,0,0-3.984,3.067,3.067,0,0,0-3.967,0,3.042,3.042,0,0,0,0,3.984A3.067,3.067,0,0,0,4.71,4.712Z" transform="translate(119.231 160.868)" fill="#46505c"/>
        <path id="Path-322" data-name="Path" d="M4.71,4.937a3,3,0,0,0,0-3.949,2.486,2.486,0,0,0-3.967,0,3,3,0,0,0,0,3.949A2.987,2.987,0,0,0,4.71,4.937Z" transform="translate(132.118 140.792)" fill="#46505c"/>
        <path id="Path-323" data-name="Path" d="M4.71,4.7a3,3,0,0,0,0-3.949,2.987,2.987,0,0,0-3.967,0,3,3,0,0,0,0,3.949A2.979,2.979,0,0,0,4.71,4.7Z" transform="translate(132.452 153.913)" fill="#46505c"/>
        <path id="Path-324" data-name="Path" d="M4.71,5.049a3.469,3.469,0,0,0,0-4.3,2.987,2.987,0,0,0-3.967,0,3.469,3.469,0,0,0,0,4.3A2.486,2.486,0,0,0,4.71,5.049Z" transform="translate(132.118 166.143)" fill="#1e2429"/>
        <path id="Path-325" data-name="Path" d="M4.71,4.7a3,3,0,0,0,0-3.949,2.987,2.987,0,0,0-3.967,0,3,3,0,0,0,0,3.949A2.689,2.689,0,0,0,4.71,4.7Z" transform="translate(145.009 147.643)" fill="#46505c"/>
        <path id="Path-326" data-name="Path" d="M4.71,5.023a3.467,3.467,0,0,0,0-4.3,3.067,3.067,0,0,0-3.967,0,3.469,3.469,0,0,0,0,4.3A2.486,2.486,0,0,0,4.71,5.023Z" transform="translate(145.009 160.21)" fill="#46505c"/>
        <path id="Path-327" data-name="Path" d="M2.976,5.959A2.958,2.958,0,0,0,5.948,2.979,2.974,2.974,0,1,0,0,2.979,2.961,2.961,0,0,0,2.976,5.959Z" transform="translate(157.322 140.774)" fill="url(#linear-gradient-10)"/>
        <path id="Path-328" data-name="Path" d="M4.709,4.7a2.987,2.987,0,0,0,0-3.949,2.983,2.983,0,0,0-3.963,0,2.987,2.987,0,0,0,0,3.949C1.737,6.054,3.389,6.054,4.709,4.7Z" transform="translate(157.899 153.913)" fill="#29333d"/>
        <path id="Path-329" data-name="Path" d="M4.71,4.7a3,3,0,0,0,0-3.949,2.987,2.987,0,0,0-3.967,0,3,3,0,0,0,0,3.949A2.987,2.987,0,0,0,4.71,4.7Z" transform="translate(157.567 166.801)" fill="#1e2429"/>
        <path id="Path-330" data-name="Path" d="M4.709,4.971a3.034,3.034,0,0,0,0-3.984,2.482,2.482,0,0,0-3.963,0,3.034,3.034,0,0,0,0,3.984A3.063,3.063,0,0,0,4.709,4.971Z" transform="translate(170.456 147.72)" fill="#46505c"/>
        <path id="Path-331" data-name="Path" d="M4.709,4.712a3.034,3.034,0,0,0,0-3.984,3.063,3.063,0,0,0-3.963,0,3.034,3.034,0,0,0,0,3.984A3.063,3.063,0,0,0,4.709,4.712Z" transform="translate(170.456 160.868)" fill="#46505c"/>
        <path id="Path-332" data-name="Path" d="M4.71,4.7a3,3,0,0,0,0-3.949,2.987,2.987,0,0,0-3.967,0,3,3,0,0,0,0,3.949A2.979,2.979,0,0,0,4.71,4.7Z" transform="translate(183.679 141.025)" fill="#46505c"/>
        <path id="Path-333" data-name="Path" d="M4.71,5.023a3.465,3.465,0,0,0,0-4.3,3.067,3.067,0,0,0-3.967,0,3.469,3.469,0,0,0,0,4.3C1.734,6.375,3.386,6.375,4.71,5.023Z" transform="translate(183.679 153.592)" fill="#46505c"/>
        <path id="Path-334" data-name="Path" d="M4.71,5.023a3.465,3.465,0,0,0,0-4.3,3.067,3.067,0,0,0-3.967,0,3.476,3.476,0,0,0,0,4.3A2.987,2.987,0,0,0,4.71,5.023Z" transform="translate(183.345 166.48)" fill="#46505c"/>
        <path id="Path-335" data-name="Path" d="M28.093,14.2c0,6.929-5.29,12.541-11.568,13.892a5.939,5.939,0,0,1-2.314.312A14.31,14.31,0,0,1,0,14.2,14.1,14.1,0,0,1,14.211,0a5.939,5.939,0,0,1,2.314.312A14.521,14.521,0,0,1,28.093,14.2Z" transform="translate(22.805 143.443)" fill="#2c333d"/>
        <path id="Path-336" data-name="Path" d="M201.277,0H0V26.746H201.277Z" transform="translate(38.67 269.029)" fill="#343a43"/>
        <path id="Path-337" data-name="Path" d="M201.277,28.408H0V21.48L201.277,0Z" transform="translate(38.67 254.477)" fill="#2c333d"/>
        <path id="Path-338" data-name="Path" d="M0,8.592V0H200.945V26.78H0V17.842" transform="translate(8.594 269.34)" fill="#414852"/>
        <path id="Path-339" data-name="Path" d="M200.945,0H0V13.858H200.945Z" transform="translate(8.594 269.029)" fill="#2f3742"/>
        <path id="Path-340" data-name="Path" d="M237.3,68.076H10.248A10.281,10.281,0,0,1,0,57.856v-47.6A10.31,10.31,0,0,1,10.248,0H237.633a10.308,10.308,0,0,1,10.244,10.255v47.6C247.877,63.122,242.92,68.076,237.3,68.076Z" transform="translate(0 207.534)" fill="#343c49"/>
        <path id="Path-341" data-name="Path" d="M28.755,0H205.244a7.051,7.051,0,0,1,6.939,7.275V60.455a7.269,7.269,0,0,1-6.939,7.275H6.943A7.051,7.051,0,0,1,0,60.455V7.587A7.293,7.293,0,0,1,6.943.312H11.9" transform="translate(0 207.222)" fill="#5e6578"/>
        <path id="Path-342" data-name="Path" d="M4.71,5.049a3.476,3.476,0,0,0,0-4.3,2.987,2.987,0,0,0-3.967,0,3.467,3.467,0,0,0,0,4.3A2.486,2.486,0,0,0,4.71,5.049Z" transform="translate(80.558 227.29)" fill="#46505c"/>
        <path id="Path-343" data-name="Path" d="M4.71,5.049a3.469,3.469,0,0,0,0-4.3,2.987,2.987,0,0,0-3.967,0,3.467,3.467,0,0,0,0,4.3A2.486,2.486,0,0,0,4.71,5.049Z" transform="translate(80.558 240.178)" fill="#46505c"/>
        <path id="Path-344" data-name="Path" d="M4.71,4.712a3.042,3.042,0,0,0,0-3.984,3.067,3.067,0,0,0-3.967,0,3.042,3.042,0,0,0,0,3.984A2.486,2.486,0,0,0,4.71,4.712Z" transform="translate(80.558 253.403)" fill="#29333d"/>
        <path id="Path-345" data-name="Path" d="M2.972,5.959A2.979,2.979,0,1,0,0,2.979,2.983,2.983,0,0,0,2.972,5.959Z" transform="translate(93.203 234.314)" fill="url(#linear-gradient-11)"/>
        <path id="Path-346" data-name="Path" d="M4.71,4.738a3.042,3.042,0,0,0,0-3.984,2.987,2.987,0,0,0-3.967,0,3.042,3.042,0,0,0,0,3.984A3.059,3.059,0,0,0,4.71,4.738Z" transform="translate(93.779 247.765)" fill="#46505c"/>
        <path id="Path-347" data-name="Path" d="M4.71,4.712a3.042,3.042,0,0,0,0-3.984,3.067,3.067,0,0,0-3.967,0,3.042,3.042,0,0,0,0,3.984A3.067,3.067,0,0,0,4.71,4.712Z" transform="translate(106.337 227.629)" fill="#46505c"/>
        <path id="Path-348" data-name="Path" d="M4.71,4.712a3.042,3.042,0,0,0,0-3.984,3.067,3.067,0,0,0-3.967,0,3.042,3.042,0,0,0,0,3.984A3.067,3.067,0,0,0,4.71,4.712Z" transform="translate(106.337 240.515)" fill="#29333d"/>
        <path id="Path-349" data-name="Path" d="M4.71,5.049a3.469,3.469,0,0,0,0-4.3,2.987,2.987,0,0,0-3.967,0,3.467,3.467,0,0,0,0,4.3A2.486,2.486,0,0,0,4.71,5.049Z" transform="translate(106.337 253.065)" fill="#29333d"/>
        <path id="Path-350" data-name="Path" d="M4.71,5.049a3.476,3.476,0,0,0,0-4.3,2.987,2.987,0,0,0-3.967,0,3.469,3.469,0,0,0,0,4.3A2.486,2.486,0,0,0,4.71,5.049Z" transform="translate(119.231 234.219)" fill="#29333d"/>
        <path id="Path-351" data-name="Path" d="M4.71,5.049a3.469,3.469,0,0,0,0-4.3,2.987,2.987,0,0,0-3.967,0,3.476,3.476,0,0,0,0,4.3C2.067,6.366,3.719,6.366,4.71,5.049Z" transform="translate(119.231 247.106)" fill="#46505c"/>
        <path id="Path-352" data-name="Path" d="M4.71,5.049a3.469,3.469,0,0,0,0-4.3,2.987,2.987,0,0,0-3.967,0,3.467,3.467,0,0,0,0,4.3A3.067,3.067,0,0,0,4.71,5.049Z" transform="translate(132.118 227.29)" fill="#29333d"/>
        <path id="Path-353" data-name="Path" d="M4.71,4.712a3.042,3.042,0,0,0,0-3.984,3.067,3.067,0,0,0-3.967,0,3.042,3.042,0,0,0,0,3.984A3.067,3.067,0,0,0,4.71,4.712Z" transform="translate(132.118 240.515)" fill="#1e2429"/>
        <path id="Path-354" data-name="Path" d="M4.71,4.712a3.042,3.042,0,0,0,0-3.984,3.067,3.067,0,0,0-3.967,0,3.042,3.042,0,0,0,0,3.984A3.067,3.067,0,0,0,4.71,4.712Z" transform="translate(132.118 253.403)" fill="#46505c"/>
        <path id="Path-355" data-name="Path" d="M4.71,4.7a3,3,0,0,0,0-3.949,2.987,2.987,0,0,0-3.967,0,3,3,0,0,0,0,3.949A2.486,2.486,0,0,0,4.71,4.7Z" transform="translate(145.009 234.565)" fill="#46505c"/>
        <path id="Path-356" data-name="Path" d="M4.71,4.7a3,3,0,0,0,0-3.949,2.987,2.987,0,0,0-3.967,0,3,3,0,0,0,0,3.949A2.486,2.486,0,0,0,4.71,4.7Z" transform="translate(145.009 247.453)" fill="#29333d"/>
        <path id="Path-357" data-name="Path" d="M4.709,5.049a3.459,3.459,0,0,0,0-4.3,2.983,2.983,0,0,0-3.963,0,3.466,3.466,0,0,0,0,4.3C1.737,6.366,3.389,6.366,4.709,5.049Z" transform="translate(157.899 227.29)" fill="#1e2429"/>
        <path id="Path-358" data-name="Path" d="M4.709,5.049a3.459,3.459,0,0,0,0-4.3,2.983,2.983,0,0,0-3.963,0,3.457,3.457,0,0,0,0,4.3C1.737,6.366,3.389,6.366,4.709,5.049Z" transform="translate(157.899 240.178)" fill="#46505c"/>
        <path id="Path-359" data-name="Path" d="M2.976,5.924A2.962,2.962,0,1,0,2.976,0a2.962,2.962,0,1,0,0,5.924Z" transform="translate(157.322 253.161)" fill="url(#linear-gradient-12)"/>
        <path id="Path-360" data-name="Path" d="M4.71,5.049a3.469,3.469,0,0,0,0-4.3,2.987,2.987,0,0,0-3.967,0,3.465,3.465,0,0,0,0,4.3A3.059,3.059,0,0,0,4.71,5.049Z" transform="translate(170.788 234.565)" fill="#29333d"/>
        <path id="Path-361" data-name="Path" d="M4.71,4.738a3.042,3.042,0,0,0,0-3.984,2.987,2.987,0,0,0-3.967,0,3.042,3.042,0,0,0,0,3.984A3.059,3.059,0,0,0,4.71,4.738Z" transform="translate(170.788 247.765)" fill="#46505c"/>
        <path id="Path-362" data-name="Path" d="M4.71,4.712a3.042,3.042,0,0,0,0-3.984,3.067,3.067,0,0,0-3.967,0,3.042,3.042,0,0,0,0,3.984C1.734,6.028,3.386,6.028,4.71,4.712Z" transform="translate(183.679 227.629)" fill="#46505c"/>
        <path id="Path-363" data-name="Path" d="M4.71,4.712a3.042,3.042,0,0,0,0-3.984,3.067,3.067,0,0,0-3.967,0,3.042,3.042,0,0,0,0,3.984C1.734,6.028,3.386,6.028,4.71,4.712Z" transform="translate(183.679 240.515)" fill="#29333d"/>
        <path id="Path-364" data-name="Path" d="M4.71,5.049a3.469,3.469,0,0,0,0-4.3,2.987,2.987,0,0,0-3.967,0,3.467,3.467,0,0,0,0,4.3C1.734,6.366,3.386,6.366,4.71,5.049Z" transform="translate(183.679 253.065)" fill="#46505c"/>
        <path id="Path-365" data-name="Path" d="M28.093,13.892A14.189,14.189,0,0,1,16.525,27.75a5.39,5.39,0,0,1-2.314.346C6.61,28.1,0,21.826,0,14.2A14.319,14.319,0,0,1,14.211,0a5.39,5.39,0,0,1,2.314.346A13.347,13.347,0,0,1,28.093,13.892Z" transform="translate(22.805 230.677)" fill="#2c333d"/>
        <path id="Path-366" data-name="Path" d="M23.136,13.892A14.218,14.218,0,0,1,11.568,27.75,13.879,13.879,0,0,1,0,13.892,14.224,14.224,0,0,1,11.568,0,13.974,13.974,0,0,1,23.136,13.892Z" transform="translate(27.764 57.177)" fill="#2f3742"/>
        <path id="Path-367" data-name="Path" d="M23.136,13.892c0,6.929-5.29,12.541-11.568,13.892A13.942,13.942,0,0,1,0,13.892,13.971,13.971,0,0,1,11.568,0,14.521,14.521,0,0,1,23.136,13.892Z" transform="translate(27.764 143.754)" fill="#2f3742"/>
        <path id="Path-368" data-name="Path" d="M23.136,13.892A14.189,14.189,0,0,1,11.568,27.75,13.879,13.879,0,0,1,0,13.892,14.224,14.224,0,0,1,11.568,0,13.974,13.974,0,0,1,23.136,13.892Z" transform="translate(27.764 230.677)" fill="#2f3742"/>
        <path id="Path-369" data-name="Path" d="M7.936.045c-10.248-1.316-10.91,26.78,0,25.775" transform="translate(178.138 56.786)" fill="none" stroke="#32d697" stroke-linecap="round" stroke-linejoin="round" stroke-miterlimit="10" stroke-width="1"/>
        <path id="Path-370" data-name="Path" d="M44.891,0C32.332,0-17.244,78.989,6.221,81" transform="translate(89.955 82.607)" fill="none" stroke="#32d697" stroke-linecap="round" stroke-linejoin="round" stroke-miterlimit="10" stroke-width="1"/>
        <path id="Path-371" data-name="Path" d="M.453,0C-4.175,2.009,28.214,35.06,26.232,58.826" transform="translate(134.395 171.503)" fill="none" stroke="#32d697" stroke-linecap="round" stroke-linejoin="round" stroke-miterlimit="10" stroke-width="1"/>
        <path id="Path-372" data-name="Path" d="M33.127,0C19.907-.345-15.129,74.036,7.348,73.69" transform="translate(127.169 169.217)" fill="none" stroke="#32d697" stroke-linecap="round" stroke-linejoin="round" stroke-miterlimit="10" stroke-width="1"/>
      </g>
    </g>
  </g>
</svg>
