<svg xmlns="http://www.w3.org/2000/svg" xmlns:xlink="http://www.w3.org/1999/xlink" width="635.231" height="571.387" viewBox="0 0 635.231 571.387">
  <defs>
    <clipPath id="clip-path">
      <circle id="Ellipse_290" data-name="Ellipse 290" cx="126.215" cy="126.215" r="126.215" fill="#babd7d"/>
    </clipPath>
  </defs>
  <g id="STAND_ALONE_CHAINS" data-name="STAND ALONE CHAINS" transform="translate(0.5 0.5)">
    <g id="Group_8035" data-name="Group 8035" transform="translate(64.492 59.995)">
      <path id="Path_3528" data-name="Path 3528" d="M6256.414,603.684h508.1" transform="translate(-6256.414 -376.487)" fill="none" stroke="rgba(255,255,255,0.37)" stroke-width="1" stroke-dasharray="3"/>
      <path id="Path_3529" data-name="Path 3529" d="M6577.019,880.185,6321.042,437.93" transform="translate(-6191.512 -426.316)" fill="none" stroke="rgba(255,255,255,0.37)" stroke-width="1" stroke-dasharray="3"/>
      <path id="Path_3530" data-name="Path 3530" d="M6589.563,461.562,6337.439,898.727" transform="translate(-6207.91 -461.562)" fill="none" stroke="rgba(255,255,255,0.37)" stroke-width="1" stroke-dasharray="3"/>
      <g id="Group_1766" data-name="Group 1766" transform="translate(170.962 140.663)">
        <circle id="Ellipse_275" data-name="Ellipse 275" cx="81.862" cy="81.862" r="81.862" fill="#babd7d"/>
        <g id="Group_1614" data-name="Group 1614" transform="translate(9.852 9.383)">
          <circle id="Ellipse_16" data-name="Ellipse 16" cx="72.481" cy="72.481" r="72.481" transform="translate(0 0)" fill="#e0e39c" stroke="#a7a970" stroke-width="1"/>
          <g id="Group_1740" data-name="Group 1740" transform="translate(34.37 29.71)">
            <text id="Ethereum" transform="translate(34 81.531)" fill="#404041" font-size="16" font-family="Barlow-Medium, Barlow" font-weight="500"><tspan x="-34.416" y="0">Ethereum</tspan></text>
            <g id="Layer_x0020_1" transform="translate(19.36)">
              <g id="_1421394342400">
                <g id="Group_1581" data-name="Group 1581">
                  <path id="Path_3188" data-name="Path 3188" d="M383.916,0,383.5,1.411v40.95l.416.415L402.924,31.54Z" transform="translate(-364.907)" fill="#343434"/>
                  <path id="Path_3189" data-name="Path 3189" d="M19.009,0,0,31.54,19.009,42.776V0Z" fill="#8c8c8c"/>
                  <path id="Path_3190" data-name="Path 3190" d="M387.474,736.12l-.234.285v14.587l.234.684,19.02-26.786Z" transform="translate(-368.466 -689.745)" fill="#3c3c3b"/>
                  <path id="Path_3191" data-name="Path 3191" d="M19.009,751.677V736.12L0,724.89Z" transform="translate(0 -689.745)" fill="#8c8c8c"/>
                  <path id="Path_3192" data-name="Path 3192" d="M392.07,492.206l19.008-11.236-19.008-8.64Z" transform="translate(-373.061 -449.43)" fill="#141414"/>
                  <path id="Path_3193" data-name="Path 3193" d="M0,480.97l19.009,11.236V472.33Z" transform="translate(0 -449.43)" fill="#393939"/>
                </g>
              </g>
            </g>
          </g>
        </g>
      </g>
      <g id="Group_8043" data-name="Group 8043" transform="translate(378.512 96.31) rotate(90)">
        <g id="Mask_Group_12" data-name="Mask Group 12" opacity="0" clip-path="url(#clip-path)">
          <g id="Group_8044" data-name="Group 8044" transform="translate(-32.209 4.773)">
            <path id="Ellipse_278" data-name="Ellipse 278" d="M7.194,0A122.766,122.766,0,0,1,129.821,122.627a123.964,123.964,0,0,1-.662,12.813,7.194,7.194,0,0,1-14.311-1.487,109.575,109.575,0,0,0,.585-11.326A108.362,108.362,0,0,0,7.194,14.388,7.194,7.194,0,0,1,7.194,0Z" transform="matrix(0.978, 0.208, -0.208, 0.978, 176.884, 0)" fill="#cbcf85"/>
            <path id="Ellipse_279" data-name="Ellipse 279" d="M7.194,0A122.766,122.766,0,0,1,129.821,122.627a123.964,123.964,0,0,1-.662,12.813,7.194,7.194,0,0,1-14.311-1.487,109.575,109.575,0,0,0,.585-11.326A108.362,108.362,0,0,0,7.194,14.388,7.194,7.194,0,0,1,7.194,0Z" transform="translate(254.369 198.15) rotate(132)" fill="#cbcf85"/>
            <path id="Ellipse_280" data-name="Ellipse 280" d="M7.194,0A122.766,122.766,0,0,1,129.821,122.627a123.964,123.964,0,0,1-.662,12.813,7.194,7.194,0,0,1-14.311-1.487,109.575,109.575,0,0,0,.585-11.326A108.362,108.362,0,0,0,7.194,14.388,7.194,7.194,0,0,1,7.194,0Z" transform="translate(46.524 172.104) rotate(-111)" fill="#cbcf85"/>
          </g>
        </g>
      </g>
      <g id="Group_1770" data-name="Group 1770" transform="translate(48.253 106.109)" opacity="0">
        <text id="Security" transform="translate(43.185 20)" fill="rgba(255,255,255,0.93)" font-size="20" font-family="Barlow-SemiBold, Barlow" font-weight="600"><tspan x="-36.98" y="0">Security</tspan></text>
        <text id="_Fraud_proofs_" data-name="(Fraud proofs)" transform="translate(39 42.381)" fill="rgba(255,255,255,0.93)" font-size="13" font-family="Barlow-Regular, Barlow"><tspan x="-39.312" y="0">(Fraud proofs)</tspan></text>
      </g>
      <g id="Group_1771" data-name="Group 1771" transform="translate(366.803 106.109)" opacity="0">
        <text id="Security-2" data-name="Security" transform="translate(37 20)" fill="rgba(255,255,255,0.93)" font-size="20" font-family="Barlow-SemiBold, Barlow" font-weight="600"><tspan x="-36.98" y="0">Security</tspan></text>
        <text id="_Validators_" data-name="(Validators)" transform="translate(35.093 42.381)" fill="rgba(255,255,255,0.93)" font-size="13" font-family="Barlow-Regular, Barlow"><tspan x="-31.512" y="0">(Validators)</tspan></text>
      </g>
      <g id="Group_1769" data-name="Group 1769" transform="translate(203.425 361.68)" opacity="0">
        <text id="Security-3" data-name="Security" transform="translate(49.371 20)" fill="rgba(255,255,255,0.93)" font-size="20" font-family="Barlow-SemiBold, Barlow" font-weight="600"><tspan x="-36.98" y="0">Security</tspan></text>
        <text id="_Validity_proofs_" data-name="(Validity proofs)" transform="translate(44 42.381)" fill="rgba(255,255,255,0.93)" font-size="13" font-family="Barlow-Regular, Barlow"><tspan x="-43.55" y="0">(Validity proofs)</tspan></text>
      </g>
    </g>
    <g id="Group_8036" data-name="Group 8036" transform="translate(126.516 5.679)">
      <circle id="Ellipse_276" data-name="Ellipse 276" cx="54.315" cy="54.315" r="54.315" transform="translate(0)" fill="#babd7d" stroke="#a7a970" stroke-width="1"/>
      <g id="Group_1733" data-name="Group 1733" transform="translate(7.421 8.245)">
        <circle id="Ellipse_15" data-name="Ellipse 15" cx="46.071" cy="46.071" r="46.071" fill="#e0e39c" stroke="#a7a970" stroke-width="1"/>
        <g id="Group_1616" data-name="Group 1616" transform="translate(10.937 38.83)">
          <path id="Logo" d="M3.321,6.117a3.985,3.985,0,0,0-.747,2.562,3.959,3.959,0,0,0,.747,2.544,2.437,2.437,0,0,0,2.01.93,2.3,2.3,0,0,0,1.5-.456,2.121,2.121,0,0,0,.709-1.311.919.919,0,0,1,.262-.524.714.714,0,0,1,.514-.2h1.806a4.771,4.771,0,0,1-1.3,3.5,4.77,4.77,0,0,1-3.495,1.277A5.132,5.132,0,0,1,2.582,13.7a5.213,5.213,0,0,1-1.9-2.058A6.259,6.259,0,0,1-.008,8.679,6.255,6.255,0,0,1,.681,5.718a5.213,5.213,0,0,1,1.9-2.058,5.132,5.132,0,0,1,2.747-.747,4.81,4.81,0,0,1,3.387,1.2,4.654,4.654,0,0,1,1.446,3.261H7.6a2.335,2.335,0,0,0-.651-1.631A2.263,2.263,0,0,0,5.331,5.18,2.438,2.438,0,0,0,3.321,6.117Zm17.407-.408a6.407,6.407,0,0,1,.681,2.971,6.4,6.4,0,0,1-.679,2.971,5.06,5.06,0,0,1-1.893,2.058,5.238,5.238,0,0,1-7.4-2.067,6.276,6.276,0,0,1-.689-2.962,6.267,6.267,0,0,1,.689-2.961,5.213,5.213,0,0,1,1.9-2.058,5.135,5.135,0,0,1,2.747-.747,5.18,5.18,0,0,1,2.747.737,5.073,5.073,0,0,1,1.893,2.058Zm-1.9,2.971a4.021,4.021,0,0,0-.738-2.562,2.43,2.43,0,0,0-2-.936,2.443,2.443,0,0,0-2.009.932,3.982,3.982,0,0,0-.747,2.562,3.959,3.959,0,0,0,.747,2.544,2.446,2.446,0,0,0,2.009.934,2.425,2.425,0,0,0,2-.922A3.989,3.989,0,0,0,18.825,8.679ZM37.717,2.932a4.292,4.292,0,0,0-2.757.9.718.718,0,0,0-.262-.476.784.784,0,0,0-.514-.184H32.436V11.08a.554.554,0,1,1-1.107,0V6.641A3.6,3.6,0,0,0,30.3,3.922a3.919,3.919,0,0,0-2.835-.99,4.289,4.289,0,0,0-2.757.9.722.722,0,0,0-.262-.476.784.784,0,0,0-.514-.184H22.184V14.174h2.543V7.514a2.253,2.253,0,0,1,.631-1.651A2.2,2.2,0,0,1,27,5.223a1.965,1.965,0,0,1,1.33.4,1.437,1.437,0,0,1,.452,1.153v4.3a3.1,3.1,0,1,0,6.194,0V7.514a2.253,2.253,0,0,1,.631-1.651,2.2,2.2,0,0,1,1.643-.641,1.963,1.963,0,0,1,1.33.4,1.472,1.472,0,0,1,.463,1.153v7.4h2.543V6.641a3.6,3.6,0,0,0-1.029-2.719A3.924,3.924,0,0,0,37.717,2.932ZM52.5,6.039a8.552,8.552,0,0,1,.515,3.495H45.328a3.338,3.338,0,0,0,.9,1.932,2.468,2.468,0,0,0,1.8.688,2.13,2.13,0,0,0,2.252-1.494.937.937,0,0,1,.271-.417.648.648,0,0,1,.427-.145H52.92a4.9,4.9,0,0,1-1.553,3.194,4.837,4.837,0,0,1-3.339,1.155,5.28,5.28,0,0,1-2.767-.728,4.994,4.994,0,0,1-1.893-2.048,6.439,6.439,0,0,1-.679-2.989,6.348,6.348,0,0,1,.679-2.951A5.155,5.155,0,0,1,45.25,3.661a4.981,4.981,0,0,1,2.68-.747,4.8,4.8,0,0,1,2.806.815A4.93,4.93,0,0,1,52.5,6.039ZM50.337,7.378a2.843,2.843,0,0,0-.786-1.68,2.248,2.248,0,0,0-1.622-.573,2.337,2.337,0,0,0-1.621.583,3.126,3.126,0,0,0-.9,1.67Zm8.815-2.192a2.258,2.258,0,0,1,1.621.563,2.326,2.326,0,0,1,.65,1.631h2.563a4.681,4.681,0,0,0-1.446-3.263,4.8,4.8,0,0,0-3.387-1.2,5.132,5.132,0,0,0-2.747.747,5.213,5.213,0,0,0-1.9,2.058,6.255,6.255,0,0,0-.689,2.961A6.259,6.259,0,0,0,54.5,11.64a5.213,5.213,0,0,0,1.9,2.058,5.132,5.132,0,0,0,2.747.747,4.741,4.741,0,0,0,3.495-1.272,4.774,4.774,0,0,0,1.3-3.5h-1.8a.714.714,0,0,0-.514.2.919.919,0,0,0-.262.524,2.119,2.119,0,0,1-.709,1.311,2.272,2.272,0,0,1-1.5.45,2.44,2.44,0,0,1-2.009-.931A3.967,3.967,0,0,1,56.4,8.679a3.984,3.984,0,0,1,.748-2.562,2.457,2.457,0,0,1,2.009-.936Zm6.621.233V11.8a2.268,2.268,0,0,0,.709,1.793,2.921,2.921,0,0,0,1.992.632A6.9,6.9,0,0,0,70.222,14V12.737a.828.828,0,0,0-.252-.641.935.935,0,0,0-.66-.233.981.981,0,0,0-.213.019,1.145,1.145,0,0,1-.252.02.691.691,0,0,1-.427-.088.486.486,0,0,1-.1-.36V5.417h1.942V3.165H68.316V0H65.773V5.417Z" transform="translate(0.009 0)"/>
        </g>
      </g>
    </g>
    <g id="Group_8054" data-name="Group 8054" transform="translate(-1090 -387)">
      <ellipse id="Ellipse_276-2" data-name="Ellipse 276" cx="56.444" cy="56.444" rx="56.444" ry="56.444" transform="translate(1214.5 844.5)" fill="#babd7d" stroke="#a7a970" stroke-width="1"/>
      <g id="Group_1733-2" data-name="Group 1733" transform="translate(1223 853)">
        <ellipse id="Ellipse_15-2" data-name="Ellipse 15" cx="47.876" cy="47.876" rx="47.876" ry="47.876" fill="#e0e39c" stroke="#a7a970" stroke-width="1"/>
        <g id="Group_1616-2" data-name="Group 1616" transform="translate(11.365 40.352)">
          <path id="Logo-2" data-name="Logo" d="M3.451,6.356a4.141,4.141,0,0,0-.776,2.663,4.114,4.114,0,0,0,.776,2.644,2.532,2.532,0,0,0,2.089.967A2.385,2.385,0,0,0,7.1,12.155a2.2,2.2,0,0,0,.737-1.362.955.955,0,0,1,.272-.545.742.742,0,0,1,.534-.207h1.877a4.958,4.958,0,0,1-1.352,3.642A4.957,4.957,0,0,1,5.54,15.011a5.333,5.333,0,0,1-2.857-.775A5.417,5.417,0,0,1,.706,12.1,6.5,6.5,0,0,1-.008,9.019,6.5,6.5,0,0,1,.708,5.942,5.417,5.417,0,0,1,2.683,3.8a5.333,5.333,0,0,1,2.855-.776,5,5,0,0,1,3.52,1.251,4.837,4.837,0,0,1,1.5,3.389H7.9a2.426,2.426,0,0,0-.676-1.695A2.352,2.352,0,0,0,5.54,5.383,2.534,2.534,0,0,0,3.451,6.356Zm18.089-.424a6.659,6.659,0,0,1,.708,3.087,6.652,6.652,0,0,1-.706,3.087,5.258,5.258,0,0,1-1.967,2.139A5.443,5.443,0,0,1,11.888,12.1a6.522,6.522,0,0,1-.716-3.078,6.512,6.512,0,0,1,.716-3.077A5.417,5.417,0,0,1,13.863,3.8a5.337,5.337,0,0,1,2.855-.776,5.383,5.383,0,0,1,2.855.766,5.271,5.271,0,0,1,1.967,2.139ZM19.563,9.019A4.179,4.179,0,0,0,18.8,6.356a2.526,2.526,0,0,0-2.079-.973,2.539,2.539,0,0,0-2.088.969,4.138,4.138,0,0,0-.776,2.663,4.114,4.114,0,0,0,.776,2.644,2.542,2.542,0,0,0,2.088.971,2.52,2.52,0,0,0,2.079-.959A4.145,4.145,0,0,0,19.563,9.019ZM39.2,3.047a4.46,4.46,0,0,0-2.865.932.746.746,0,0,0-.272-.495.815.815,0,0,0-.534-.192H33.707v8.222a.576.576,0,1,1-1.15,0V6.9a3.736,3.736,0,0,0-1.069-2.825,4.072,4.072,0,0,0-2.946-1.029,4.458,4.458,0,0,0-2.865.932.751.751,0,0,0-.272-.495.815.815,0,0,0-.534-.192H23.054V14.729H25.7V7.809a2.342,2.342,0,0,1,.655-1.715,2.287,2.287,0,0,1,1.705-.666,2.042,2.042,0,0,1,1.382.414,1.494,1.494,0,0,1,.47,1.2v4.469a3.218,3.218,0,1,0,6.437,0v-3.7A2.342,2.342,0,0,1,37,6.093a2.29,2.29,0,0,1,1.707-.666,2.04,2.04,0,0,1,1.382.414,1.529,1.529,0,0,1,.481,1.2v7.688h2.643V6.9a3.736,3.736,0,0,0-1.069-2.825A4.078,4.078,0,0,0,39.2,3.047ZM54.56,6.275A8.887,8.887,0,0,1,55.1,9.907H47.1a3.468,3.468,0,0,0,.932,2.007,2.564,2.564,0,0,0,1.874.715,2.214,2.214,0,0,0,2.341-1.553.974.974,0,0,1,.282-.434.673.673,0,0,1,.444-.151h2.018a5.092,5.092,0,0,1-1.614,3.319,5.026,5.026,0,0,1-3.47,1.2,5.487,5.487,0,0,1-2.876-.757,5.189,5.189,0,0,1-1.967-2.128,6.691,6.691,0,0,1-.706-3.106,6.6,6.6,0,0,1,.706-3.066A5.357,5.357,0,0,1,47.023,3.8a5.176,5.176,0,0,1,2.785-.776,4.987,4.987,0,0,1,2.916.847A5.123,5.123,0,0,1,54.56,6.275ZM52.31,7.667a2.954,2.954,0,0,0-.817-1.745,2.336,2.336,0,0,0-1.685-.6,2.428,2.428,0,0,0-1.684.606,3.249,3.249,0,0,0-.939,1.735Zm9.161-2.277a2.346,2.346,0,0,1,1.684.585,2.417,2.417,0,0,1,.676,1.695h2.664a4.865,4.865,0,0,0-1.5-3.391,4.983,4.983,0,0,0-3.52-1.251,5.333,5.333,0,0,0-2.855.776,5.417,5.417,0,0,0-1.978,2.139,6.5,6.5,0,0,0-.716,3.077,6.5,6.5,0,0,0,.716,3.078,5.417,5.417,0,0,0,1.977,2.139,5.333,5.333,0,0,0,2.855.776A4.927,4.927,0,0,0,65.1,13.69a4.961,4.961,0,0,0,1.35-3.642H64.578a.742.742,0,0,0-.534.207.955.955,0,0,0-.272.545,2.2,2.2,0,0,1-.737,1.362,2.361,2.361,0,0,1-1.563.468,2.536,2.536,0,0,1-2.088-.968,4.122,4.122,0,0,1-.777-2.643,4.14,4.14,0,0,1,.777-2.663,2.554,2.554,0,0,1,2.088-.973Zm6.88.242v6.636a2.357,2.357,0,0,0,.737,1.863,3.035,3.035,0,0,0,2.07.656,7.167,7.167,0,0,0,1.816-.239V13.236a.86.86,0,0,0-.262-.666.972.972,0,0,0-.686-.242,1.02,1.02,0,0,0-.222.02,1.19,1.19,0,0,1-.262.021.719.719,0,0,1-.444-.091.5.5,0,0,1-.1-.374V5.629h2.018V3.289H70.994V0H68.351V5.629Z" transform="translate(0.009 0)"/>
        </g>
      </g>
    </g>
    <g id="Group_8051" data-name="Group 8051" transform="translate(-1090 -387)">
      <circle id="Ellipse_276-3" data-name="Ellipse 276" cx="57.155" cy="57.155" r="57.155" transform="translate(1481.5 387)" fill="#babd7d" stroke="#a7a970" stroke-width="1"/>
      <g id="Group_1733-3" data-name="Group 1733" transform="translate(1490 395.363)">
        <circle id="Ellipse_15-3" data-name="Ellipse 15" cx="48.792" cy="48.792" r="48.792" fill="#e0e39c" stroke="#a7a970" stroke-width="1"/>
        <g id="Group_1616-3" data-name="Group 1616" transform="translate(11.094 41.447)">
          <path id="Logo-3" data-name="Logo" d="M3.564,6.2a3.889,3.889,0,0,0-.8,2.6,3.864,3.864,0,0,0,.8,2.581,2.677,2.677,0,0,0,2.157.944,2.561,2.561,0,0,0,1.614-.463,2.122,2.122,0,0,0,.761-1.33A.915.915,0,0,1,8.377,10a.791.791,0,0,1,.552-.2h1.938a4.7,4.7,0,0,1-1.4,3.555,5.291,5.291,0,0,1-3.75,1.3,5.751,5.751,0,0,1-2.95-.757A5.416,5.416,0,0,1,.729,11.808a6.066,6.066,0,0,1-.738-3,6.063,6.063,0,0,1,.74-3A5.415,5.415,0,0,1,2.771,3.713a5.751,5.751,0,0,1,2.948-.758A5.343,5.343,0,0,1,9.353,4.175,4.611,4.611,0,0,1,10.9,7.484H8.158a2.3,2.3,0,0,0-.7-1.654,2.514,2.514,0,0,0-1.739-.575A2.677,2.677,0,0,0,3.564,6.2ZM22.241,5.79A6.209,6.209,0,0,1,22.973,8.8a6.2,6.2,0,0,1-.729,3.013A5.254,5.254,0,0,1,20.213,13.9a5.9,5.9,0,0,1-4.453.589,5.564,5.564,0,0,1-3.485-2.686,6.083,6.083,0,0,1-.74-3,6.074,6.074,0,0,1,.74-3,5.415,5.415,0,0,1,2.039-2.088,5.754,5.754,0,0,1,2.948-.758,5.806,5.806,0,0,1,2.948.748A5.268,5.268,0,0,1,22.241,5.79ZM20.2,8.8a3.923,3.923,0,0,0-.792-2.6,2.668,2.668,0,0,0-2.146-.95,2.683,2.683,0,0,0-2.156.946,3.886,3.886,0,0,0-.8,2.6,3.864,3.864,0,0,0,.8,2.581,2.687,2.687,0,0,0,2.156.948,2.664,2.664,0,0,0,2.146-.936A3.892,3.892,0,0,0,20.2,8.8Zm20.27-5.83a4.783,4.783,0,0,0-2.959.909A.719.719,0,0,0,37.23,3.4a.871.871,0,0,0-.552-.187H34.8v8.025a.555.555,0,0,1-.289.506.624.624,0,0,1-.609,0,.555.555,0,0,1-.289-.506v-4.5a3.541,3.541,0,0,0-1.1-2.758,4.353,4.353,0,0,0-3.042-1,4.78,4.78,0,0,0-2.959.909.723.723,0,0,0-.281-.483.871.871,0,0,0-.552-.187H23.8V14.377h2.729V7.622a2.219,2.219,0,0,1,.677-1.674,2.436,2.436,0,0,1,1.76-.65,2.193,2.193,0,0,1,1.427.4,1.418,1.418,0,0,1,.485,1.169v4.362a3.328,3.328,0,0,0,6.646,0V7.622a2.219,2.219,0,0,1,.677-1.674,2.439,2.439,0,0,1,1.763-.65,2.19,2.19,0,0,1,1.427.4,1.453,1.453,0,0,1,.5,1.169v7.5h2.729V6.736a3.541,3.541,0,0,0-1.1-2.758A4.359,4.359,0,0,0,40.47,2.974ZM56.335,6.126a8.243,8.243,0,0,1,.553,3.545H48.636A3.312,3.312,0,0,0,49.6,11.63a2.734,2.734,0,0,0,1.935.7,2.286,2.286,0,0,0,2.417-1.516.947.947,0,0,1,.291-.423.721.721,0,0,1,.459-.148h2.083a4.875,4.875,0,0,1-1.666,3.24,5.378,5.378,0,0,1-3.583,1.171,5.92,5.92,0,0,1-2.969-.739,5.188,5.188,0,0,1-2.031-2.078A6.239,6.239,0,0,1,45.8,8.8a6.151,6.151,0,0,1,.729-2.993,5.349,5.349,0,0,1,2.02-2.1,5.578,5.578,0,0,1,2.875-.758,5.366,5.366,0,0,1,3.011.827A5.048,5.048,0,0,1,56.335,6.126ZM54.012,7.484a2.822,2.822,0,0,0-.843-1.7,2.5,2.5,0,0,0-1.74-.581,2.6,2.6,0,0,0-1.739.591,3.127,3.127,0,0,0-.969,1.694ZM63.47,5.261a2.508,2.508,0,0,1,1.739.571,2.3,2.3,0,0,1,.7,1.654h2.75a4.637,4.637,0,0,0-1.552-3.31,5.326,5.326,0,0,0-3.634-1.221,5.751,5.751,0,0,0-2.948.758A5.416,5.416,0,0,0,58.481,5.8a6.063,6.063,0,0,0-.74,3,6.067,6.067,0,0,0,.74,3A5.416,5.416,0,0,0,60.522,13.9a5.751,5.751,0,0,0,2.948.758,5.259,5.259,0,0,0,3.75-1.29,4.7,4.7,0,0,0,1.394-3.555H66.678a.791.791,0,0,0-.552.2.915.915,0,0,0-.281.532,2.12,2.12,0,0,1-.761,1.33,2.536,2.536,0,0,1-1.614.457,2.68,2.68,0,0,1-2.156-.945,3.872,3.872,0,0,1-.8-2.58,3.888,3.888,0,0,1,.8-2.6,2.7,2.7,0,0,1,2.156-.95Zm7.1.236v6.477a2.238,2.238,0,0,0,.761,1.819,3.254,3.254,0,0,0,2.138.641,7.8,7.8,0,0,0,1.875-.233V12.92a.816.816,0,0,0-.27-.65,1.04,1.04,0,0,0-.709-.236,1.112,1.112,0,0,0-.229.019,1.3,1.3,0,0,1-.27.02.777.777,0,0,1-.459-.089.475.475,0,0,1-.107-.365V5.5h2.083V3.21H73.3V0H70.574V5.5Z" transform="translate(0.009 0)"/>
        </g>
      </g>
    </g>
    <g id="Group_8053" data-name="Group 8053" transform="translate(-1090 -387)">
      <ellipse id="Ellipse_276-4" data-name="Ellipse 276" cx="56.444" cy="56.444" rx="56.444" ry="56.444" transform="translate(1483.5 844.5)" fill="#babd7d" stroke="#a7a970" stroke-width="1"/>
      <g id="Group_1733-4" data-name="Group 1733" transform="translate(1492 853)">
        <ellipse id="Ellipse_15-4" data-name="Ellipse 15" cx="47.876" cy="47.876" rx="47.876" ry="47.876" fill="#e0e39c" stroke="#a7a970" stroke-width="1"/>
        <g id="Group_1616-4" data-name="Group 1616" transform="translate(11.365 40.352)">
          <path id="Logo-4" data-name="Logo" d="M3.451,6.356a4.141,4.141,0,0,0-.776,2.663,4.114,4.114,0,0,0,.776,2.644,2.532,2.532,0,0,0,2.089.967A2.385,2.385,0,0,0,7.1,12.155a2.2,2.2,0,0,0,.737-1.362.955.955,0,0,1,.272-.545.742.742,0,0,1,.534-.207h1.877a4.958,4.958,0,0,1-1.352,3.642A4.957,4.957,0,0,1,5.54,15.011a5.333,5.333,0,0,1-2.857-.775A5.417,5.417,0,0,1,.706,12.1,6.5,6.5,0,0,1-.008,9.019,6.5,6.5,0,0,1,.708,5.942,5.417,5.417,0,0,1,2.683,3.8a5.333,5.333,0,0,1,2.855-.776,5,5,0,0,1,3.52,1.251,4.837,4.837,0,0,1,1.5,3.389H7.9a2.426,2.426,0,0,0-.676-1.695A2.352,2.352,0,0,0,5.54,5.383,2.534,2.534,0,0,0,3.451,6.356Zm18.089-.424a6.659,6.659,0,0,1,.708,3.087,6.652,6.652,0,0,1-.706,3.087,5.258,5.258,0,0,1-1.967,2.139A5.443,5.443,0,0,1,11.888,12.1a6.522,6.522,0,0,1-.716-3.078,6.512,6.512,0,0,1,.716-3.077A5.417,5.417,0,0,1,13.863,3.8a5.337,5.337,0,0,1,2.855-.776,5.383,5.383,0,0,1,2.855.766,5.271,5.271,0,0,1,1.967,2.139ZM19.563,9.019A4.179,4.179,0,0,0,18.8,6.356a2.526,2.526,0,0,0-2.079-.973,2.539,2.539,0,0,0-2.088.969,4.138,4.138,0,0,0-.776,2.663,4.114,4.114,0,0,0,.776,2.644,2.542,2.542,0,0,0,2.088.971,2.52,2.52,0,0,0,2.079-.959A4.145,4.145,0,0,0,19.563,9.019ZM39.2,3.047a4.46,4.46,0,0,0-2.865.932.746.746,0,0,0-.272-.495.815.815,0,0,0-.534-.192H33.707v8.222a.576.576,0,1,1-1.15,0V6.9a3.736,3.736,0,0,0-1.069-2.825,4.072,4.072,0,0,0-2.946-1.029,4.458,4.458,0,0,0-2.865.932.751.751,0,0,0-.272-.495.815.815,0,0,0-.534-.192H23.054V14.729H25.7V7.809a2.342,2.342,0,0,1,.655-1.715,2.287,2.287,0,0,1,1.705-.666,2.042,2.042,0,0,1,1.382.414,1.494,1.494,0,0,1,.47,1.2v4.469a3.218,3.218,0,1,0,6.437,0v-3.7A2.342,2.342,0,0,1,37,6.093a2.29,2.29,0,0,1,1.707-.666,2.04,2.04,0,0,1,1.382.414,1.529,1.529,0,0,1,.481,1.2v7.688h2.643V6.9a3.736,3.736,0,0,0-1.069-2.825A4.078,4.078,0,0,0,39.2,3.047ZM54.56,6.275A8.887,8.887,0,0,1,55.1,9.907H47.1a3.468,3.468,0,0,0,.932,2.007,2.564,2.564,0,0,0,1.874.715,2.214,2.214,0,0,0,2.341-1.553.974.974,0,0,1,.282-.434.673.673,0,0,1,.444-.151h2.018a5.092,5.092,0,0,1-1.614,3.319,5.026,5.026,0,0,1-3.47,1.2,5.487,5.487,0,0,1-2.876-.757,5.189,5.189,0,0,1-1.967-2.128,6.691,6.691,0,0,1-.706-3.106,6.6,6.6,0,0,1,.706-3.066A5.357,5.357,0,0,1,47.023,3.8a5.176,5.176,0,0,1,2.785-.776,4.987,4.987,0,0,1,2.916.847A5.123,5.123,0,0,1,54.56,6.275ZM52.31,7.667a2.954,2.954,0,0,0-.817-1.745,2.336,2.336,0,0,0-1.685-.6,2.428,2.428,0,0,0-1.684.606,3.249,3.249,0,0,0-.939,1.735Zm9.161-2.277a2.346,2.346,0,0,1,1.684.585,2.417,2.417,0,0,1,.676,1.695h2.664a4.865,4.865,0,0,0-1.5-3.391,4.983,4.983,0,0,0-3.52-1.251,5.333,5.333,0,0,0-2.855.776,5.417,5.417,0,0,0-1.978,2.139,6.5,6.5,0,0,0-.716,3.077,6.5,6.5,0,0,0,.716,3.078,5.417,5.417,0,0,0,1.977,2.139,5.333,5.333,0,0,0,2.855.776A4.927,4.927,0,0,0,65.1,13.69a4.961,4.961,0,0,0,1.35-3.642H64.578a.742.742,0,0,0-.534.207.955.955,0,0,0-.272.545,2.2,2.2,0,0,1-.737,1.362,2.361,2.361,0,0,1-1.563.468,2.536,2.536,0,0,1-2.088-.968,4.122,4.122,0,0,1-.777-2.643,4.14,4.14,0,0,1,.777-2.663,2.554,2.554,0,0,1,2.088-.973Zm6.88.242v6.636a2.357,2.357,0,0,0,.737,1.863,3.035,3.035,0,0,0,2.07.656,7.167,7.167,0,0,0,1.816-.239V13.236a.86.86,0,0,0-.262-.666.972.972,0,0,0-.686-.242,1.02,1.02,0,0,0-.222.02,1.19,1.19,0,0,1-.262.021.719.719,0,0,1-.444-.091.5.5,0,0,1-.1-.374V5.629h2.018V3.289H70.994V0H68.351V5.629Z" transform="translate(0.009 0)"/>
        </g>
      </g>
    </g>
    <g id="Group_8052" data-name="Group 8052" transform="translate(-1090 -387)">
      <ellipse id="Ellipse_276-5" data-name="Ellipse 276" cx="56.366" cy="56.366" rx="56.366" ry="56.366" transform="translate(1611.5 617.5)" fill="#babd7d" stroke="#a7a970" stroke-width="1"/>
      <g id="Group_1733-5" data-name="Group 1733" transform="translate(1620 626)">
        <ellipse id="Ellipse_15-5" data-name="Ellipse 15" cx="47.81" cy="47.81" rx="47.81" ry="47.81" fill="#e0e39c" stroke="#a7a970" stroke-width="1"/>
        <g id="Group_1616-5" data-name="Group 1616" transform="translate(11.349 40.296)">
          <path id="Logo-5" data-name="Logo" d="M3.456,6.347a4.135,4.135,0,0,0-.775,2.659,4.108,4.108,0,0,0,.775,2.64,2.529,2.529,0,0,0,2.086.966A2.382,2.382,0,0,0,7.1,12.139a2.2,2.2,0,0,0,.736-1.36.954.954,0,0,1,.272-.544.741.741,0,0,1,.533-.207h1.874a4.951,4.951,0,0,1-1.35,3.637A4.95,4.95,0,0,1,5.542,14.99a5.326,5.326,0,0,1-2.853-.774A5.41,5.41,0,0,1,.714,12.08,6.5,6.5,0,0,1,0,9.006,6.491,6.491,0,0,1,.716,5.934,5.41,5.41,0,0,1,2.689,3.8,5.326,5.326,0,0,1,5.54,3.023,4.992,4.992,0,0,1,9.055,4.272a4.83,4.83,0,0,1,1.5,3.385H7.9a2.423,2.423,0,0,0-.675-1.692,2.349,2.349,0,0,0-1.682-.588A2.53,2.53,0,0,0,3.456,6.347ZM21.52,5.924a6.649,6.649,0,0,1,.707,3.083,6.643,6.643,0,0,1-.705,3.083,5.251,5.251,0,0,1-1.964,2.136,5.436,5.436,0,0,1-7.677-2.145,6.513,6.513,0,0,1-.715-3.073,6.5,6.5,0,0,1,.715-3.072A5.41,5.41,0,0,1,13.854,3.8,5.329,5.329,0,0,1,16.7,3.023a5.376,5.376,0,0,1,2.851.765A5.264,5.264,0,0,1,21.52,5.924ZM19.546,9.006a4.173,4.173,0,0,0-.766-2.659A2.522,2.522,0,0,0,16.7,5.376a2.535,2.535,0,0,0-2.085.968A4.132,4.132,0,0,0,13.843,9a4.108,4.108,0,0,0,.775,2.64,2.539,2.539,0,0,0,2.085.97,2.516,2.516,0,0,0,2.076-.957A4.139,4.139,0,0,0,19.546,9.006Zm19.6-5.964a4.454,4.454,0,0,0-2.861.93.745.745,0,0,0-.272-.494.814.814,0,0,0-.533-.191H33.67V11.5a.575.575,0,1,1-1.149,0V6.891A3.731,3.731,0,0,0,31.454,4.07a4.067,4.067,0,0,0-2.942-1.028,4.451,4.451,0,0,0-2.861.93.75.75,0,0,0-.272-.494.814.814,0,0,0-.533-.191H23.032V14.709h2.639V7.8a2.338,2.338,0,0,1,.654-1.713,2.284,2.284,0,0,1,1.7-.665,2.039,2.039,0,0,1,1.38.414,1.492,1.492,0,0,1,.469,1.2v4.463a3.214,3.214,0,1,0,6.428,0V7.8a2.338,2.338,0,0,1,.654-1.713,2.286,2.286,0,0,1,1.7-.665,2.037,2.037,0,0,1,1.38.414,1.527,1.527,0,0,1,.481,1.2v7.677h2.639V6.891A3.731,3.731,0,0,0,42.1,4.07,4.073,4.073,0,0,0,39.15,3.042ZM54.494,6.267a8.874,8.874,0,0,1,.534,3.627h-7.98a3.464,3.464,0,0,0,.93,2,2.561,2.561,0,0,0,1.871.714,2.211,2.211,0,0,0,2.337-1.551.973.973,0,0,1,.281-.433.672.672,0,0,1,.443-.151h2.015a5.085,5.085,0,0,1-1.612,3.314,5.019,5.019,0,0,1-3.465,1.2,5.479,5.479,0,0,1-2.872-.756,5.182,5.182,0,0,1-1.964-2.125,6.682,6.682,0,0,1-.705-3.1,6.587,6.587,0,0,1,.705-3.062A5.35,5.35,0,0,1,46.968,3.8a5.169,5.169,0,0,1,2.781-.775,4.98,4.98,0,0,1,2.912.846A5.116,5.116,0,0,1,54.494,6.267ZM52.247,7.656a2.95,2.95,0,0,0-.816-1.743,2.333,2.333,0,0,0-1.683-.594,2.425,2.425,0,0,0-1.682.6,3.244,3.244,0,0,0-.938,1.733ZM61.4,5.382a2.343,2.343,0,0,1,1.682.584,2.414,2.414,0,0,1,.675,1.692h2.66a4.858,4.858,0,0,0-1.5-3.387A4.976,4.976,0,0,0,61.4,3.023a5.326,5.326,0,0,0-2.851.775,5.41,5.41,0,0,0-1.976,2.136,6.491,6.491,0,0,0-.715,3.072,6.5,6.5,0,0,0,.715,3.073,5.41,5.41,0,0,0,1.975,2.136,5.326,5.326,0,0,0,2.851.775,4.92,4.92,0,0,0,3.627-1.32,4.955,4.955,0,0,0,1.348-3.637H64.5a.741.741,0,0,0-.533.207.954.954,0,0,0-.272.544,2.2,2.2,0,0,1-.736,1.36,2.358,2.358,0,0,1-1.561.467,2.532,2.532,0,0,1-2.085-.967,4.116,4.116,0,0,1-.776-2.639,4.134,4.134,0,0,1,.776-2.659A2.55,2.55,0,0,1,61.4,5.376Zm6.871.242V12.25A2.354,2.354,0,0,0,69,14.111a3.031,3.031,0,0,0,2.068.655,7.157,7.157,0,0,0,1.813-.239v-1.31a.859.859,0,0,0-.262-.665.971.971,0,0,0-.685-.242,1.018,1.018,0,0,0-.221.02,1.188,1.188,0,0,1-.262.021.718.718,0,0,1-.444-.091.5.5,0,0,1-.1-.373V5.622h2.015V3.284H70.9V0H68.266V5.622Z" transform="translate(0 0)"/>
        </g>
      </g>
    </g>
    <g id="Group_8041" data-name="Group 8041" transform="translate(0 230.874)">
      <ellipse id="Ellipse_276-6" data-name="Ellipse 276" cx="56.366" cy="56.366" rx="56.366" ry="56.366" transform="translate(0 0)" fill="#babd7d" stroke="#a7a970" stroke-width="1"/>
      <g id="Group_1733-6" data-name="Group 1733" transform="translate(7.701 8.556)">
        <ellipse id="Ellipse_15-6" data-name="Ellipse 15" cx="47.81" cy="47.81" rx="47.81" ry="47.81" fill="#e0e39c" stroke="#a7a970" stroke-width="1"/>
        <g id="Group_1616-6" data-name="Group 1616" transform="translate(11.349 40.296)">
          <path id="Logo-6" data-name="Logo" d="M3.456,6.347a4.135,4.135,0,0,0-.775,2.659,4.108,4.108,0,0,0,.775,2.64,2.529,2.529,0,0,0,2.086.966A2.382,2.382,0,0,0,7.1,12.139a2.2,2.2,0,0,0,.736-1.36.954.954,0,0,1,.272-.544.741.741,0,0,1,.533-.207h1.874a4.951,4.951,0,0,1-1.35,3.637A4.95,4.95,0,0,1,5.542,14.99a5.326,5.326,0,0,1-2.853-.774A5.41,5.41,0,0,1,.714,12.08,6.5,6.5,0,0,1,0,9.006,6.491,6.491,0,0,1,.716,5.934,5.41,5.41,0,0,1,2.689,3.8,5.326,5.326,0,0,1,5.54,3.023,4.992,4.992,0,0,1,9.055,4.272a4.83,4.83,0,0,1,1.5,3.385H7.9a2.423,2.423,0,0,0-.675-1.692,2.349,2.349,0,0,0-1.682-.588A2.53,2.53,0,0,0,3.456,6.347ZM21.52,5.924a6.649,6.649,0,0,1,.707,3.083,6.643,6.643,0,0,1-.705,3.083,5.251,5.251,0,0,1-1.964,2.136,5.436,5.436,0,0,1-7.677-2.145,6.513,6.513,0,0,1-.715-3.073,6.5,6.5,0,0,1,.715-3.072A5.41,5.41,0,0,1,13.854,3.8,5.329,5.329,0,0,1,16.7,3.023a5.376,5.376,0,0,1,2.851.765A5.264,5.264,0,0,1,21.52,5.924ZM19.546,9.006a4.173,4.173,0,0,0-.766-2.659A2.522,2.522,0,0,0,16.7,5.376a2.535,2.535,0,0,0-2.085.968A4.132,4.132,0,0,0,13.843,9a4.108,4.108,0,0,0,.775,2.64,2.539,2.539,0,0,0,2.085.97,2.516,2.516,0,0,0,2.076-.957A4.14,4.14,0,0,0,19.546,9.006Zm19.6-5.964a4.454,4.454,0,0,0-2.862.93.745.745,0,0,0-.272-.494.814.814,0,0,0-.533-.191H33.67V11.5a.575.575,0,1,1-1.149,0V6.891A3.731,3.731,0,0,0,31.454,4.07a4.067,4.067,0,0,0-2.942-1.028,4.451,4.451,0,0,0-2.861.93.75.75,0,0,0-.272-.494.814.814,0,0,0-.533-.191H23.032V14.709h2.639V7.8a2.338,2.338,0,0,1,.654-1.713,2.284,2.284,0,0,1,1.7-.665,2.039,2.039,0,0,1,1.38.414,1.492,1.492,0,0,1,.469,1.2v4.463a3.214,3.214,0,1,0,6.428,0V7.8a2.338,2.338,0,0,1,.654-1.713,2.286,2.286,0,0,1,1.7-.665,2.037,2.037,0,0,1,1.38.414,1.527,1.527,0,0,1,.481,1.2v7.677h2.639V6.891A3.731,3.731,0,0,0,42.1,4.07,4.073,4.073,0,0,0,39.15,3.042ZM54.494,6.267a8.874,8.874,0,0,1,.534,3.627h-7.98a3.464,3.464,0,0,0,.93,2,2.561,2.561,0,0,0,1.871.714,2.211,2.211,0,0,0,2.337-1.551.973.973,0,0,1,.281-.433.672.672,0,0,1,.443-.151h2.015a5.085,5.085,0,0,1-1.612,3.314,5.019,5.019,0,0,1-3.465,1.2,5.479,5.479,0,0,1-2.872-.756,5.182,5.182,0,0,1-1.964-2.125,6.682,6.682,0,0,1-.705-3.1,6.587,6.587,0,0,1,.705-3.062A5.35,5.35,0,0,1,46.968,3.8a5.169,5.169,0,0,1,2.781-.775,4.981,4.981,0,0,1,2.912.846A5.116,5.116,0,0,1,54.494,6.267ZM52.247,7.656a2.95,2.95,0,0,0-.816-1.743,2.333,2.333,0,0,0-1.683-.594,2.425,2.425,0,0,0-1.682.6,3.244,3.244,0,0,0-.938,1.733ZM61.4,5.382a2.343,2.343,0,0,1,1.682.584,2.414,2.414,0,0,1,.675,1.692h2.66a4.858,4.858,0,0,0-1.5-3.387A4.976,4.976,0,0,0,61.4,3.023a5.326,5.326,0,0,0-2.851.775A5.41,5.41,0,0,0,56.57,5.934a6.491,6.491,0,0,0-.715,3.072,6.5,6.5,0,0,0,.715,3.073,5.41,5.41,0,0,0,1.975,2.136,5.326,5.326,0,0,0,2.851.775,4.92,4.92,0,0,0,3.626-1.32,4.955,4.955,0,0,0,1.348-3.637H64.5a.741.741,0,0,0-.533.207.954.954,0,0,0-.272.544,2.2,2.2,0,0,1-.736,1.36,2.358,2.358,0,0,1-1.561.467,2.533,2.533,0,0,1-2.085-.967,4.116,4.116,0,0,1-.776-2.639,4.134,4.134,0,0,1,.776-2.659A2.55,2.55,0,0,1,61.4,5.376Zm6.871.242V12.25A2.354,2.354,0,0,0,69,14.111a3.031,3.031,0,0,0,2.068.655,7.157,7.157,0,0,0,1.813-.239v-1.31a.859.859,0,0,0-.262-.665.971.971,0,0,0-.685-.242,1.018,1.018,0,0,0-.221.02,1.188,1.188,0,0,1-.262.021.718.718,0,0,1-.444-.091.5.5,0,0,1-.1-.373V5.622h2.015V3.284H70.9V0H68.266V5.622Z" transform="translate(0 0)"/>
        </g>
      </g>
    </g>
  </g>
</svg>
