<svg xmlns="http://www.w3.org/2000/svg" width="399.092" height="17.093" viewBox="0 0 399.092 17.093">
  <g id="Text_Underline" data-name="Text Underline" transform="translate(0.707 0.707)">
    <path id="Path_5" data-name="Path 5" d="M2810.2,422.161l-15.678,15.678" transform="translate(-2794.524 -422.161)" fill="none" stroke="#acb138" stroke-width="2"/>
    <path id="Path_10" data-name="Path 10" d="M2810.2,422.161l-15.678,15.678" transform="translate(-2785.525 -422.161)" fill="none" stroke="#acb138" stroke-width="2"/>
    <path id="Path_44" data-name="Path 44" d="M2810.2,422.161l-15.678,15.678" transform="translate(-2777.524 -422.161)" fill="none" stroke="#acb138" stroke-width="2"/>
    <path id="Path_11" data-name="Path 11" d="M2810.2,422.161l-15.678,15.678" transform="translate(-2768.524 -422.161)" fill="none" stroke="#acb138" stroke-width="2"/>
    <path id="Path_42" data-name="Path 42" d="M2810.2,422.161l-15.678,15.678" transform="translate(-2760.524 -422.161)" fill="none" stroke="#acb138" stroke-width="2"/>
    <path id="Path_12" data-name="Path 12" d="M2810.2,422.161l-15.678,15.678" transform="translate(-2751.524 -422.161)" fill="none" stroke="#acb138" stroke-width="2"/>
    <path id="Path_40" data-name="Path 40" d="M2810.2,422.161l-15.678,15.678" transform="translate(-2743.525 -422.161)" fill="none" stroke="#acb138" stroke-width="2"/>
    <path id="Path_13" data-name="Path 13" d="M2810.2,422.161l-15.678,15.678" transform="translate(-2735.524 -422.161)" fill="none" stroke="#acb138" stroke-width="2"/>
    <path id="Path_41" data-name="Path 41" d="M2810.2,422.161l-15.678,15.678" transform="translate(-2726.525 -422.161)" fill="none" stroke="#acb138" stroke-width="2"/>
    <path id="Path_14" data-name="Path 14" d="M2810.2,422.161l-15.678,15.678" transform="translate(-2718.524 -422.161)" fill="none" stroke="#acb138" stroke-width="2"/>
    <path id="Path_29" data-name="Path 29" d="M2810.2,422.161l-15.678,15.678" transform="translate(-2709.524 -422.161)" fill="none" stroke="#acb138" stroke-width="2"/>
    <path id="Path_16" data-name="Path 16" d="M2810.2,422.161l-15.678,15.678" transform="translate(-2701.524 -422.161)" fill="none" stroke="#acb138" stroke-width="2"/>
    <path id="Path_30" data-name="Path 30" d="M2810.2,422.161l-15.678,15.678" transform="translate(-2692.524 -422.161)" fill="none" stroke="#acb138" stroke-width="2"/>
    <path id="Path_17" data-name="Path 17" d="M2810.2,422.161l-15.678,15.678" transform="translate(-2684.525 -422.161)" fill="none" stroke="#acb138" stroke-width="2"/>
    <path id="Path_31" data-name="Path 31" d="M2810.2,422.161l-15.678,15.678" transform="translate(-2675.524 -422.161)" fill="none" stroke="#acb138" stroke-width="2"/>
    <path id="Path_18" data-name="Path 18" d="M2810.2,422.161l-15.678,15.678" transform="translate(-2667.525 -422.161)" fill="none" stroke="#acb138" stroke-width="2"/>
    <path id="Path_32" data-name="Path 32" d="M2810.2,422.161l-15.678,15.678" transform="translate(-2658.524 -422.161)" fill="none" stroke="#acb138" stroke-width="2"/>
    <path id="Path_19" data-name="Path 19" d="M2810.2,422.161l-15.678,15.678" transform="translate(-2650.524 -422.161)" fill="none" stroke="#acb138" stroke-width="2"/>
    <path id="Path_33" data-name="Path 33" d="M2810.2,422.161l-15.678,15.678" transform="translate(-2641.524 -422.161)" fill="none" stroke="#acb138" stroke-width="2"/>
    <path id="Path_22" data-name="Path 22" d="M2810.2,422.161l-15.678,15.678" transform="translate(-2633.524 -422.161)" fill="none" stroke="#acb138" stroke-width="2"/>
    <path id="Path_34" data-name="Path 34" d="M2810.2,422.161l-15.678,15.678" transform="translate(-2624.524 -422.161)" fill="none" stroke="#acb138" stroke-width="2"/>
    <path id="Path_23" data-name="Path 23" d="M2810.2,422.161l-15.678,15.678" transform="translate(-2616.524 -422.161)" fill="none" stroke="#acb138" stroke-width="2"/>
    <path id="Path_35" data-name="Path 35" d="M2810.2,422.161l-15.678,15.678" transform="translate(-2607.525 -422.161)" fill="none" stroke="#acb138" stroke-width="2"/>
    <path id="Path_24" data-name="Path 24" d="M2810.2,422.161l-15.678,15.678" transform="translate(-2599.524 -422.161)" fill="none" stroke="#acb138" stroke-width="2"/>
    <path id="Path_36" data-name="Path 36" d="M2810.2,422.161l-15.678,15.678" transform="translate(-2590.525 -422.161)" fill="none" stroke="#acb138" stroke-width="2"/>
    <path id="Path_25" data-name="Path 25" d="M2810.2,422.161l-15.678,15.678" transform="translate(-2582.524 -422.161)" fill="none" stroke="#acb138" stroke-width="2"/>
    <path id="Path_37" data-name="Path 37" d="M2810.2,422.161l-15.678,15.678" transform="translate(-2573.524 -422.161)" fill="none" stroke="#acb138" stroke-width="2"/>
    <path id="Path_26" data-name="Path 26" d="M2810.2,422.161l-15.678,15.678" transform="translate(-2565.524 -422.161)" fill="none" stroke="#acb138" stroke-width="2"/>
    <path id="Path_38" data-name="Path 38" d="M2810.2,422.161l-15.678,15.678" transform="translate(-2557.524 -422.161)" fill="none" stroke="#acb138" stroke-width="2"/>
    <path id="Path_20" data-name="Path 20" d="M2810.2,422.161l-15.678,15.678" transform="translate(-2548.525 -422.161)" fill="none" stroke="#acb138" stroke-width="2"/>
    <path id="Path_39" data-name="Path 39" d="M2810.2,422.161l-15.678,15.678" transform="translate(-2540.524 -422.161)" fill="none" stroke="#acb138" stroke-width="2"/>
    <path id="Path_21" data-name="Path 21" d="M2810.2,422.161l-15.678,15.678" transform="translate(-2531.525 -422.161)" fill="none" stroke="#acb138" stroke-width="2"/>
    <path id="Path_27" data-name="Path 27" d="M2810.2,422.161l-15.678,15.678" transform="translate(-2523.524 -422.161)" fill="none" stroke="#acb138" stroke-width="2"/>
    <path id="Path_49" data-name="Path 49" d="M2810.2,422.161l-15.678,15.678" transform="translate(-2514.524 -422.161)" fill="none" stroke="#acb138" stroke-width="2"/>
    <path id="Path_50" data-name="Path 50" d="M2810.2,422.161l-15.678,15.678" transform="translate(-2506.524 -422.161)" fill="none" stroke="#acb138" stroke-width="2"/>
    <path id="Path_51" data-name="Path 51" d="M2810.2,422.161l-15.678,15.678" transform="translate(-2497.524 -422.161)" fill="none" stroke="#acb138" stroke-width="2"/>
    <path id="Path_5-2" data-name="Path 5" d="M2810.2,422.161l-15.678,15.678" transform="translate(-2489.525 -422.161)" fill="none" stroke="#acb138" stroke-width="2"/>
    <path id="Path_10-2" data-name="Path 10" d="M2810.2,422.161l-15.678,15.678" transform="translate(-2480.524 -422.161)" fill="none" stroke="#acb138" stroke-width="2"/>
    <path id="Path_44-2" data-name="Path 44" d="M2810.2,422.161l-15.678,15.678" transform="translate(-2472.525 -422.161)" fill="none" stroke="#acb138" stroke-width="2"/>
    <path id="Path_11-2" data-name="Path 11" d="M2810.2,422.161l-15.678,15.678" transform="translate(-2463.524 -422.161)" fill="none" stroke="#acb138" stroke-width="2"/>
    <path id="Path_42-2" data-name="Path 42" d="M2810.2,422.161l-15.678,15.678" transform="translate(-2455.524 -422.161)" fill="none" stroke="#acb138" stroke-width="2"/>
    <path id="Path_12-2" data-name="Path 12" d="M2810.2,422.161l-15.678,15.678" transform="translate(-2446.524 -422.161)" fill="none" stroke="#acb138" stroke-width="2"/>
    <path id="Path_40-2" data-name="Path 40" d="M2810.2,422.161l-15.678,15.678" transform="translate(-2438.524 -422.161)" fill="none" stroke="#acb138" stroke-width="2"/>
    <path id="Path_13-2" data-name="Path 13" d="M2810.2,422.161l-15.678,15.678" transform="translate(-2429.525 -422.161)" fill="none" stroke="#acb138" stroke-width="2"/>
    <path id="Path_41-2" data-name="Path 41" d="M2810.2,422.161l-15.678,15.678" transform="translate(-2421.524 -422.161)" fill="none" stroke="#acb138" stroke-width="2"/>
    <path id="Path_14-2" data-name="Path 14" d="M2810.2,422.161l-15.678,15.678" transform="translate(-2412.525 -422.161)" fill="none" stroke="#acb138" stroke-width="2"/>
  </g>
</svg>
