<svg id="Vision_Icon" data-name="Vision Icon" xmlns="http://www.w3.org/2000/svg" width="33.199" height="33.199" viewBox="0 0 33.199 33.199">
  <path id="Path_3147" data-name="Path 3147" d="M3505.617,3570.323a16.6,16.6,0,1,1,16.6-16.571A16.644,16.644,0,0,1,3505.617,3570.323Zm-7.955-24.379c-1.309,0-2.712-.015-4.114.018a.771.771,0,0,0-.567.384c-.57,1.344-1.147,2.69-1.616,4.071a15,15,0,0,0-.4,2.327c1.94,0,3.751.008,5.561-.017.128,0,.345-.238.364-.385C3497.158,3550.229,3497.4,3548.114,3497.662,3545.943Zm22.559,6.8a14.281,14.281,0,0,0-2.034-6.516.574.574,0,0,0-.381-.27c-1.459-.019-2.918-.012-4.24-.012.259,2.173.5,4.289.776,6.4.019.146.239.379.368.38C3516.518,3552.751,3518.329,3552.743,3520.221,3552.743Zm-29.211,2a16.3,16.3,0,0,0,1.4,5.376,1.879,1.879,0,0,0,2.275,1.4,8.739,8.739,0,0,1,1.488-.014h1.544c-.329-2.3-.646-4.511-.968-6.762Zm22.506,6.762h2.651c2.02,0,2.023,0,2.848-1.873a13.676,13.676,0,0,0,1.193-4.893h-5.726C3514.159,3557,3513.843,3559.209,3513.515,3561.5Zm-8.928-8.8v-6.76c-1.492,0-2.934-.013-4.374.018a.632.632,0,0,0-.431.407c-.283,1.3-.559,2.609-.768,3.925-.126.792-.129,1.6-.187,2.41Zm-.011,8.8v-6.761h-5.726a24.543,24.543,0,0,0,.976,6.521.492.492,0,0,0,.386.231C3501.652,3561.507,3503.093,3561.5,3504.576,3561.5Zm2.035-8.8h5.761a24.584,24.584,0,0,0-.7-5.533c-.282-1.228-.294-1.226-1.576-1.226h-3.49Zm5.763,2.059h-5.737v6.741h3.529c1.21,0,1.223,0,1.5-1.163A24.723,24.723,0,0,0,3512.374,3554.761Zm-7.78-15.41c-1.43.3-3.656,2.968-3.882,4.607h3.882Zm2.036,0v4.6h3.931C3509.929,3541.869,3508.012,3539.62,3506.63,3539.355Zm-5.942,24.125c.39,1.841,2.55,4.392,3.908,4.6v-4.6Zm5.946-.01v4.626c1.438-.312,3.672-3,3.878-4.626ZM3494.673,3544c.917,0,1.689-.064,2.447.016.976.1,1.621-.117,1.873-1.178a5.9,5.9,0,0,1,.713-1.44c.253-.449.544-.878.893-1.434A14.879,14.879,0,0,0,3494.673,3544Zm21.889,0a14.59,14.59,0,0,0-5.772-3.963c.616,1.224,1.206,2.415,1.82,3.593.081.156.282.35.431.354C3514.157,3544.008,3515.272,3543.995,3516.562,3543.995Zm-16.145,23.394c-.6-1.209-1.206-2.439-1.83-3.659a.534.534,0,0,0-.368-.267c-1.131-.021-2.261-.012-3.437-.012A13.008,13.008,0,0,0,3500.417,3567.388Zm10.366.043a14.343,14.343,0,0,0,5.742-3.982c-1.227,0-2.3-.015-3.378.015a.719.719,0,0,0-.52.32C3512,3564.978,3511.405,3566.19,3510.783,3567.431Z" transform="translate(-3489.014 -3537.123)"/>
</svg>
