<svg xmlns="http://www.w3.org/2000/svg" width="25" height="25" viewBox="0 0 25 25">
  <g id="Wallet_02" data-name="Wallet 02" transform="translate(0.5 0.5)">
    <g id="Group_1493" data-name="Group 1493" opacity="0">
      <g id="Group_1492" data-name="Group 1492">
        <g id="Group_1491" data-name="Group 1491">
          <path id="Path_3193" data-name="Path 3193" d="M1535.5,11055.611h-24v-24h24Z" transform="translate(-1511.5 -11031.611)" fill="none" stroke="#fff" stroke-width="1"/>
        </g>
      </g>
    </g>
    <g id="Group_1494" data-name="Group 1494" transform="translate(3 4)">
      <path id="Path_3194" data-name="Path 3194" d="M1532.5,11041.111v-3a2.5,2.5,0,0,0-2.5-2.5h-13a2.5,2.5,0,0,0-2.5,2.5v11.5" transform="translate(-1514.5 -11035.611)" fill="none" stroke="#fff" stroke-linecap="round" stroke-linejoin="round" stroke-width="1.5"/>
      <path id="Path_3195" data-name="Path 3195" d="M1532.5,11046.111v3a2.5,2.5,0,0,1-2.5,2.5h-7.5" transform="translate(-1514.5 -11035.611)" fill="none" stroke="#fff" stroke-linecap="round" stroke-linejoin="round" stroke-width="1.5"/>
      <path id="Path_3199" data-name="Path 3199" d="M1530,11041.111h2.5a1,1,0,0,1,1,1v3a1,1,0,0,1-1,1H1530a2.5,2.5,0,0,1-2.5-2.5h0A2.5,2.5,0,0,1,1530,11041.111Z" transform="translate(-1514.5 -11035.611)" fill="none" stroke="#fff" stroke-linecap="round" stroke-linejoin="round" stroke-width="1.5"/>
      <line id="Line_18" data-name="Line 18" x2="5" transform="translate(5 5)" fill="none" stroke="#fff" stroke-linecap="round" stroke-linejoin="round" stroke-width="1.5"/>
      <path id="Path_3200" data-name="Path 3200" d="M1532.5,11044.111v3a2.5,2.5,0,0,1-2.5,2.5h-13a2.5,2.5,0,0,1-2.5-2.5v-11.5" transform="translate(-1514.5 -11033.611)" fill="none" stroke="#fff" stroke-linecap="round" stroke-linejoin="round" stroke-width="1.5"/>
    </g>
  </g>
</svg>
