<svg id="White_Logo" data-name="White Logo" xmlns="http://www.w3.org/2000/svg" width="154" height="31.737" viewBox="0 0 154 31.737">
  <g id="Group_8101" data-name="Group 8101" transform="translate(-517 -371)" style="mix-blend-mode: screen;isolation: isolate">
    <path id="Logo" d="M7.289,13.4A8.733,8.733,0,0,0,5.652,19.02,8.676,8.676,0,0,0,7.289,24.6a5.34,5.34,0,0,0,4.406,2.039,5.03,5.03,0,0,0,3.3-1,4.648,4.648,0,0,0,1.554-2.873,2.015,2.015,0,0,1,.574-1.148,1.565,1.565,0,0,1,1.127-.437H22.2a10.457,10.457,0,0,1-2.851,7.681,10.454,10.454,0,0,1-7.659,2.8,11.248,11.248,0,0,1-6.026-1.635A11.425,11.425,0,0,1,1.5,25.511,13.717,13.717,0,0,1-.007,19.02,13.708,13.708,0,0,1,1.5,12.532,11.425,11.425,0,0,1,5.669,8.021,11.248,11.248,0,0,1,11.69,6.384a10.542,10.542,0,0,1,7.423,2.637,10.2,10.2,0,0,1,3.17,7.148H16.672A5.117,5.117,0,0,0,15.247,12.6a4.96,4.96,0,0,0-3.552-1.242A5.343,5.343,0,0,0,7.289,13.4Zm38.15-.9a14.042,14.042,0,0,1,1.493,6.51,14.029,14.029,0,0,1-1.489,6.51,11.089,11.089,0,0,1-4.148,4.511,11.479,11.479,0,0,1-16.213-4.53,13.754,13.754,0,0,1-1.511-6.491,13.735,13.735,0,0,1,1.511-6.489,11.425,11.425,0,0,1,4.166-4.511,11.255,11.255,0,0,1,6.021-1.637A11.353,11.353,0,0,1,41.291,8a11.117,11.117,0,0,1,4.148,4.511Zm-4.17,6.51A8.813,8.813,0,0,0,39.651,13.4a5.326,5.326,0,0,0-4.384-2.052,5.354,5.354,0,0,0-4.4,2.043,8.727,8.727,0,0,0-1.637,5.615,8.676,8.676,0,0,0,1.637,5.576,5.362,5.362,0,0,0,4.4,2.048,5.314,5.314,0,0,0,4.384-2.022A8.742,8.742,0,0,0,41.269,19.02Zm41.4-12.6A9.406,9.406,0,0,0,76.628,8.39a1.574,1.574,0,0,0-.574-1.044,1.718,1.718,0,0,0-1.127-.4H71.1V24.282a1.214,1.214,0,1,1-2.426,0V14.553A7.88,7.88,0,0,0,66.417,8.6,8.588,8.588,0,0,0,60.2,6.425,9.4,9.4,0,0,0,54.161,8.39a1.583,1.583,0,0,0-.574-1.044,1.718,1.718,0,0,0-1.127-.4H48.631v24.12H54.2V16.468a4.938,4.938,0,0,1,1.382-3.618,4.823,4.823,0,0,1,3.6-1.4,4.307,4.307,0,0,1,2.915.873,3.15,3.15,0,0,1,.991,2.526v9.425a6.788,6.788,0,1,0,13.575,0v-7.8a4.938,4.938,0,0,1,1.382-3.618,4.829,4.829,0,0,1,3.6-1.4,4.3,4.3,0,0,1,2.915.873,3.225,3.225,0,0,1,1.015,2.526V31.059h5.574V14.553A7.88,7.88,0,0,0,88.894,8.6,8.6,8.6,0,0,0,82.671,6.425Zm32.4,6.809a18.742,18.742,0,0,1,1.129,7.659H99.351a7.315,7.315,0,0,0,1.965,4.233,5.408,5.408,0,0,0,3.952,1.509q3.829,0,4.936-3.275a2.054,2.054,0,0,1,.594-.915,1.419,1.419,0,0,1,.937-.319h4.255a10.739,10.739,0,0,1-3.4,7,10.6,10.6,0,0,1-7.318,2.53,11.571,11.571,0,0,1-6.065-1.6,10.944,10.944,0,0,1-4.148-4.489,14.111,14.111,0,0,1-1.489-6.55,13.912,13.912,0,0,1,1.489-6.467,11.3,11.3,0,0,1,4.126-4.532,10.916,10.916,0,0,1,5.873-1.637,10.518,10.518,0,0,1,6.15,1.786A10.805,10.805,0,0,1,115.075,13.235Zm-4.744,2.934a6.23,6.23,0,0,0-1.723-3.681,4.926,4.926,0,0,0-3.554-1.255A5.122,5.122,0,0,0,101.5,12.51a6.852,6.852,0,0,0-1.98,3.659Zm19.319-4.8A4.948,4.948,0,0,1,133.2,12.6a5.1,5.1,0,0,1,1.426,3.574h5.617a10.259,10.259,0,0,0-3.17-7.152,10.51,10.51,0,0,0-7.423-2.637,11.248,11.248,0,0,0-6.021,1.637,11.425,11.425,0,0,0-4.172,4.511,13.709,13.709,0,0,0-1.511,6.489,13.717,13.717,0,0,0,1.511,6.491,11.425,11.425,0,0,0,4.17,4.511,11.248,11.248,0,0,0,6.021,1.637,10.39,10.39,0,0,0,7.659-2.788,10.463,10.463,0,0,0,2.847-7.681H136.2a1.565,1.565,0,0,0-1.127.437,2.015,2.015,0,0,0-.574,1.148,4.643,4.643,0,0,1-1.554,2.873,4.979,4.979,0,0,1-3.3.987,5.348,5.348,0,0,1-4.4-2.041,8.693,8.693,0,0,1-1.64-5.574,8.73,8.73,0,0,1,1.64-5.615,5.385,5.385,0,0,1,4.4-2.052Zm14.51.511V25.871a4.97,4.97,0,0,0,1.554,3.93,6.4,6.4,0,0,0,4.366,1.384,15.114,15.114,0,0,0,3.829-.5V27.915a1.814,1.814,0,0,0-.552-1.4A2.05,2.05,0,0,0,151.91,26a2.151,2.151,0,0,0-.467.041,2.508,2.508,0,0,1-.552.044,1.515,1.515,0,0,1-.937-.192,1.064,1.064,0,0,1-.218-.788V11.872h4.255V6.936h-4.257V0H144.16V11.872Z" transform="translate(517.009 371)" fill="#fff"/>
  </g>
</svg>
